<?xml version="1.0" encoding="UTF-8" standalone="no"?>
<svg
   xmlns:dc="http://purl.org/dc/elements/1.1/"
   xmlns:cc="http://creativecommons.org/ns#"
   xmlns:rdf="http://www.w3.org/1999/02/22-rdf-syntax-ns#"
   xmlns:svg="http://www.w3.org/2000/svg"
   xmlns="http://www.w3.org/2000/svg"
   xmlns:sodipodi="http://sodipodi.sourceforge.net/DTD/sodipodi-0.dtd"
   xmlns:inkscape="http://www.inkscape.org/namespaces/inkscape"
   version="1.1"
   x="0px"
   y="0px"
   viewBox="0 0 81.083 83.730667"
   enable-background="new 0 0 100 100"
   xml:space="preserve"
   id="svg15828"
   sodipodi:docname="circle.svg"
   width="81.083"
   height="83.730667"
   inkscape:version="0.92.2 2405546, 2018-03-11"><metadata
     id="metadata15834"><rdf:RDF><cc:Work
         rdf:about=""><dc:format>image/svg+xml</dc:format><dc:type
           rdf:resource="http://purl.org/dc/dcmitype/StillImage" /></cc:Work></rdf:RDF></metadata><defs
     id="defs15832" /><sodipodi:namedview
     pagecolor="#ffffff"
     bordercolor="#666666"
     borderopacity="1"
     objecttolerance="10"
     gridtolerance="10"
     guidetolerance="10"
     inkscape:pageopacity="0"
     inkscape:pageshadow="2"
     inkscape:window-width="768"
     inkscape:window-height="480"
     id="namedview15830"
     showgrid="false"
     inkscape:zoom="1.888"
     inkscape:cx="41.025"
     inkscape:cy="29.528666"
     inkscape:window-x="0"
     inkscape:window-y="0"
     inkscape:window-maximized="0"
     inkscape:current-layer="svg15828" /><g
     id="g15822"
     transform="translate(-8.975,-8.298)"
     style="fill:#5c5c5b;fill-opacity:1"><g
       id="g15820"
       style="fill:#5c5c5b;fill-opacity:1"><g
         id="g15818"
         style="fill:#5c5c5b;fill-opacity:1"><g
           id="g15816"
           style="fill:#5c5c5b;fill-opacity:1"><g
             id="g15814"
             style="fill:#5c5c5b;fill-opacity:1"><path
               d="m 83.505,50 c 0.343,0.12 1.13,0.047 0.957,-0.264 l -1.336,-0.204 z"
               id="path15712"
               inkscape:connector-curvature="0"
               style="fill:#5c5c5b;fill-opacity:1" /><path
               d="m 85.846,47.798 c -0.66,-0.352 -1.805,-0.68 -3.006,-0.351 1.285,0.262 0.76,0.38 2.293,0.693 0.171,0.316 -0.396,0.577 -0.886,0.541 0.345,0.101 -0.266,0.491 0.574,0.644 1.004,-0.432 1.017,-0.998 0.144,-1.497 0.285,-0.136 0.635,-0.043 0.881,-0.03 z"
               id="path15714"
               inkscape:connector-curvature="0"
               style="fill:#5c5c5b;fill-opacity:1" /><path
               d="m 72.027,19.045 0.083,0.258 c 0.003,-0.106 -0.029,-0.19 -0.083,-0.258 z"
               id="path15716"
               inkscape:connector-curvature="0"
               style="fill:#5c5c5b;fill-opacity:1" /><path
               d="m 52.566,11.378 c 0.164,-0.023 0.242,-0.151 0.259,-0.27 -0.159,0.079 -0.288,0.154 -0.259,0.27 z"
               id="path15718"
               inkscape:connector-curvature="0"
               style="fill:#5c5c5b;fill-opacity:1" /><path
               d="m 48.881,9.845 c 0.082,0.038 0.151,0.054 0.225,0.079 C 49.019,9.806 48.931,9.743 48.881,9.845 Z"
               id="path15720"
               inkscape:connector-curvature="0"
               style="fill:#5c5c5b;fill-opacity:1" /><path
               d="m 72.027,19.045 -0.213,-0.677 c -0.277,0.331 0.049,0.435 0.213,0.677 z"
               id="path15722"
               inkscape:connector-curvature="0"
               style="fill:#5c5c5b;fill-opacity:1" /><path
               d="m 82.188,43.999 c 0.077,0.088 0.212,0.15 0.382,0.199 -0.069,-0.073 -0.128,-0.144 -0.175,-0.221 -0.07,0.007 -0.13,0.013 -0.207,0.022 z"
               id="path15724"
               inkscape:connector-curvature="0"
               style="fill:#5c5c5b;fill-opacity:1" /><path
               d="m 79.654,24.564 0.119,0.129 c 0.149,-0.059 0.321,-0.141 0.509,-0.239 z"
               id="path15726"
               inkscape:connector-curvature="0"
               style="fill:#5c5c5b;fill-opacity:1" /><path
               d="m 84.036,30.41 c -0.044,-0.167 -1.045,0.35 -1.5,0.547 0.446,-0.157 0.699,-0.165 0.848,-0.086 0.188,-0.105 0.398,-0.25 0.652,-0.461 z"
               id="path15728"
               inkscape:connector-curvature="0"
               style="fill:#5c5c5b;fill-opacity:1" /><path
               d="m 86.348,41.642 0.199,0.156 c -0.059,-0.039 -0.124,-0.113 -0.199,-0.156 z"
               id="path15730"
               inkscape:connector-curvature="0"
               style="fill:#5c5c5b;fill-opacity:1" /><path
               d="m 76.153,20.667 c 0.102,-0.133 0.18,-0.261 0.217,-0.345 -0.094,0.105 -0.163,0.223 -0.217,0.345 z"
               id="path15732"
               inkscape:connector-curvature="0"
               style="fill:#5c5c5b;fill-opacity:1" /><path
               d="m 80.153,56.637 c 0.081,0.018 0.128,0.028 0.195,0.042 -0.101,-0.056 -0.177,-0.083 -0.195,-0.042 z"
               id="path15734"
               inkscape:connector-curvature="0"
               style="fill:#5c5c5b;fill-opacity:1" /><path
               d="m 86.457,50 0.055,0.109 c 0.212,0.012 0.421,0.025 0.629,0.026 z"
               id="path15736"
               inkscape:connector-curvature="0"
               style="fill:#5c5c5b;fill-opacity:1" /><path
               d="m 41.714,9.182 c 0.016,0.01 0.021,0.01 0.036,0.016 0.161,-0.155 0.06,-0.116 -0.036,-0.016 z"
               id="path15738"
               inkscape:connector-curvature="0"
               style="fill:#5c5c5b;fill-opacity:1" /><path
               d="m 10.114,58.631 c 0.808,-0.899 1.544,0.843 2.374,-0.426 -0.404,0.203 -1.956,-0.583 -2.374,0.426 z"
               id="path15740"
               inkscape:connector-curvature="0"
               style="fill:#5c5c5b;fill-opacity:1" /><path
               d="m 82.309,43.814 c -0.025,-0.08 -0.047,-0.161 -0.048,-0.247 -0.019,0.121 -0.004,0.196 0.048,0.247 z"
               id="path15742"
               inkscape:connector-curvature="0"
               style="fill:#5c5c5b;fill-opacity:1" /><path
               d="m 12.488,58.206 0.009,-0.002 0.077,-0.126 c -0.036,0.053 -0.056,0.083 -0.086,0.128 z"
               id="path15744"
               inkscape:connector-curvature="0"
               style="fill:#5c5c5b;fill-opacity:1" /><path
               d="m 26.937,16.141 c 0.138,0.144 0.275,0.23 0.409,0.309 -0.069,-0.092 -0.177,-0.187 -0.409,-0.309 z"
               id="path15746"
               inkscape:connector-curvature="0"
               style="fill:#5c5c5b;fill-opacity:1" /><path
               d="m 38.296,12.398 -0.317,-0.045 c 0.139,0.058 0.237,0.06 0.317,0.045 z"
               id="path15748"
               inkscape:connector-curvature="0"
               style="fill:#5c5c5b;fill-opacity:1" /><path
               d="m 23.132,21.254 c -0.174,0.043 -0.321,-0.034 -0.376,0.221 0.054,0.028 0.096,0.043 0.143,0.055 -0.048,-0.163 -0.021,-0.286 0.233,-0.276 z"
               id="path15750"
               inkscape:connector-curvature="0"
               style="fill:#5c5c5b;fill-opacity:1" /><path
               d="m 18.9,25.902 c 0.088,0.026 0.165,0.03 0.248,0.046 0.022,-0.061 0.049,-0.133 0.072,-0.196 z"
               id="path15752"
               inkscape:connector-curvature="0"
               style="fill:#5c5c5b;fill-opacity:1" /><path
               d="m 73.969,70.301 c 0.316,0.123 0.63,0.296 0.932,0.476 -0.664,-0.457 -0.384,-1.182 -0.932,-0.476 z"
               id="path15754"
               inkscape:connector-curvature="0"
               style="fill:#5c5c5b;fill-opacity:1" /><path
               d="m 82.809,43.881 c -0.283,0.021 -0.428,0.002 -0.499,-0.067 0.021,0.057 0.052,0.111 0.085,0.162 0.166,-0.015 0.322,-0.04 0.414,-0.095 z"
               id="path15756"
               inkscape:connector-curvature="0"
               style="fill:#5c5c5b;fill-opacity:1" /><path
               d="m 29.043,27.866 -0.695,0.401 c 0.24,-0.068 0.489,-0.215 0.695,-0.401 z"
               id="path15758"
               inkscape:connector-curvature="0"
               style="fill:#5c5c5b;fill-opacity:1" /><path
               d="m 41.271,80.338 0.215,-0.085 c -0.061,-0.042 -0.133,-0.026 -0.215,0.085 z"
               id="path15760"
               inkscape:connector-curvature="0"
               style="fill:#5c5c5b;fill-opacity:1" /><path
               d="m 26.915,30.089 c -0.394,-0.157 -0.671,-0.195 -0.892,-0.178 0.046,0.081 0.075,0.155 0.16,0.254 z"
               id="path15762"
               inkscape:connector-curvature="0"
               style="fill:#5c5c5b;fill-opacity:1" /><path
               d="m 74.911,70.783 c -0.006,-0.004 -0.01,-0.006 -0.01,-0.006 0,0 0.004,0.002 0.01,0.006 z"
               id="path15764"
               inkscape:connector-curvature="0"
               style="fill:#5c5c5b;fill-opacity:1" /><path
               d="m 75.703,64.981 c -0.403,0.599 1.062,1.036 1.705,1.61 -0.124,1.015 -1.144,-0.209 -1.939,-0.356 0.025,0.339 0.265,0.788 0.462,1.2 0.183,0.401 0.313,0.758 0.161,0.914 -0.218,-0.114 -0.34,-0.1 -0.531,-0.353 0.582,1.17 -1.004,1.455 -0.304,2.953 -0.137,-0.044 -0.251,-0.103 -0.346,-0.165 0.648,0.388 1.242,0.853 1.636,1.213 -0.23,0.289 0.237,1.125 -0.588,0.596 0.176,-0.151 -0.106,-0.42 -0.265,-0.693 l 0.056,0.559 c -1.277,-0.658 -0.008,-0.703 -0.792,-1.366 -0.138,0.818 0.115,2.25 -0.562,2.412 -1.056,-0.858 0.554,-1.291 -0.83,-1.564 l 0.96,-0.284 c -2.036,-0.947 0.452,-0.274 -1.657,-1.363 -1.013,0.497 -0.264,1.39 -1.329,1.847 0.344,0.705 0.84,0.745 1.179,1.456 -0.299,2.101 -3.203,-1.707 -2.838,0.413 0.358,0.878 1.32,2.289 0.079,2.085 l -0.714,-1.383 c -0.927,0.501 0.831,2.134 -0.69,1.984 -0.183,-0.618 0.382,-0.924 0.146,-0.975 -1.28,-0.554 0.098,1.016 -0.365,1.365 L 67.48,76.024 c -0.42,0.375 -0.763,0.932 -1.135,1.514 -0.374,0.574 -0.755,1.214 -1.298,1.577 -0.12,-0.391 -0.125,-0.859 -0.581,-1.103 -0.554,0.639 -1.346,0.98 -2.184,1.132 -0.874,0.072 -1.788,-0.035 -2.603,-0.162 l -0.174,1.317 c -0.132,0.035 -0.397,-0.443 -0.324,-0.691 -0.693,-0.285 0.189,0.72 0.046,1.23 -0.312,0.163 -0.622,-0.538 -0.515,-0.929 -0.358,0.603 -0.952,1.309 -1.645,1.753 -0.683,0.477 -1.499,0.484 -2.141,-0.027 l 0.16,-0.377 c -0.901,-0.344 -0.65,2.533 -1.61,1.576 l 0.135,-0.231 c -0.984,-0.154 -1.983,-0.004 -2.941,0.043 -0.239,0.007 -0.474,0.012 -0.704,-0.016 -0.23,-0.045 -0.453,-0.109 -0.668,-0.198 -0.43,-0.18 -0.823,-0.465 -1.153,-0.925 -0.184,0.837 -0.649,0.626 -1.087,0.501 -0.443,-0.103 -0.852,-0.238 -1.059,0.937 -0.94,-1.327 -0.574,-1.701 -1.89,-2.689 -0.363,-0.147 -0.865,1.324 -1.419,1.441 l 0.264,-1.204 -0.959,1.087 0.021,-1.517 -0.527,0.192 c 0.157,0.115 0.234,0.631 0.116,0.966 -0.432,0.178 -0.82,-0.142 -1.058,-0.576 C 40.312,80.19 40.232,79.6 40.323,79.301 l -1.949,0.396 c 0.218,-0.449 0.547,-0.51 0.865,-0.731 -1.296,0.867 0.32,-1.266 -0.867,-0.469 -0.002,0.297 -0.334,0.66 -0.447,0.883 -0.121,-0.813 -0.918,-1.266 -1.692,-1.271 l 0.492,-0.706 c -1.026,-0.663 -2.462,-0.873 -3.662,-1.606 0.211,0.587 -0.672,1.776 -1.127,1.667 L 32.51,76.29 c -0.685,0.528 0.113,0.641 -0.926,1.167 -0.371,-0.449 0.544,-1.436 1.02,-1.608 l -0.771,-0.014 c 0.194,-0.34 0.432,-0.417 0.746,-0.802 -0.685,0.496 -0.081,-1.698 -1.219,-0.793 l 0.209,-0.328 c -0.272,-0.205 -0.525,-0.36 -0.767,-0.486 -0.234,-0.136 -0.44,-0.266 -0.654,-0.376 -0.422,-0.226 -0.833,-0.426 -1.275,-0.781 -0.792,0.801 -0.952,0.32 -1.857,0.727 -0.34,-0.914 -0.319,-2.209 -1.077,-2.891 -0.895,-0.196 -0.869,0.444 -1.594,0.605 0.76,-0.694 0.072,-1.459 0.972,-1.483 -0.431,-0.44 -0.708,-0.723 -1.078,-0.992 -0.186,-0.135 -0.395,-0.266 -0.662,-0.415 -0.243,-0.165 -0.538,-0.35 -0.921,-0.581 -0.264,0.372 -0.314,0.643 -0.662,0.743 -0.297,-0.167 0.013,-0.808 0.455,-1.028 l 0.13,0.009 c -1.117,-0.37 -1.071,-1.644 -0.841,-2.829 0.091,-0.587 0.178,-1.137 0.081,-1.562 -0.048,-0.213 -0.143,-0.395 -0.306,-0.537 -0.143,-0.151 -0.355,-0.262 -0.662,-0.326 l 0.124,0.033 c 0,0 -0.382,-0.238 -0.764,-0.476 -0.388,-0.25 -0.775,-0.499 -0.775,-0.499 -0.066,-0.692 0.865,0.122 1.293,-0.552 -0.536,-0.218 -0.847,-0.487 -1.033,-0.769 -0.152,-0.293 -0.178,-0.601 -0.186,-0.901 -0.016,-0.604 0.05,-1.167 -0.67,-1.668 1.307,-0.8 1.21,-1.613 0.862,-2.473 -0.159,-0.43 -0.37,-0.871 -0.409,-1.301 -0.003,-0.434 0.137,-0.851 0.603,-1.202 l -0.707,0.12 c -0.713,-0.3 0.386,-0.436 0.537,-0.686 -0.55,0.057 -0.62,0.398 -1.017,0.204 -0.579,-1.443 -0.156,-2.999 0.344,-4.455 0.281,-0.728 0.71,-1.424 1.056,-2.107 0.18,-0.341 0.354,-0.678 0.514,-1.012 0.199,-0.326 0.39,-0.648 0.557,-0.971 0.438,-0.935 -3.406,-1.534 -1.43,-2.421 l 1.17,0.76 c -0.463,-1.256 0.005,-2.31 0.399,-3.34 0.521,-0.991 1.044,-1.937 0.947,-3.225 0.201,0.258 0.538,0.446 0.448,0.633 1.046,0.064 0.893,-1.383 0.229,-1.817 0.251,-0.243 0.645,0.302 1.09,0.337 0.71,-0.062 -0.46,-1.649 0.491,-1.306 0.154,0.056 0.178,0.274 0.196,0.384 -0.212,-0.497 0.912,-1.012 -0.156,-1.439 0.915,-0.318 0.525,-1.571 1.462,-1.648 -0.648,-1.122 1.379,-0.626 0.177,-1.906 1.306,1.269 1.974,-0.063 1.815,-0.994 0.251,0.509 0.722,0.112 1.092,0.797 0.403,-0.398 0.568,-1.004 -0.12,-1.635 1.118,0.45 1.197,-0.251 1.384,-0.805 0.163,-0.568 0.354,-1.064 1.417,-0.127 0.197,-0.452 0.407,-0.89 0.627,-1.314 0.246,-0.387 0.503,-0.759 0.769,-1.119 0.266,-0.359 0.542,-0.706 0.826,-1.039 l 0.432,-0.49 0.475,-0.414 c 0.394,0.826 -0.001,1.014 -0.327,1.299 -0.333,0.271 -0.646,0.541 -0.136,1.338 0.216,-0.35 0.379,-0.727 0.529,-1.105 0.161,-0.357 0.316,-0.698 0.487,-1.018 0.344,-0.636 0.782,-1.156 1.558,-1.292 0.451,0.055 0.11,0.817 0.123,1.152 0.505,-0.701 1.238,-0.851 1.895,-1.099 0.675,-0.21 1.278,-0.537 1.806,-1.143 0.044,0.162 -0.046,0.374 -0.138,0.539 0.24,-0.12 0.667,0.106 0.414,-0.677 l -0.191,0.278 c -0.775,-1.03 0.38,-2.662 0.299,-3.291 0.123,2.396 1.513,0.22 1.471,3.297 0.131,-0.194 0.259,-0.628 0.101,-1.153 0.293,0.088 0.435,0.382 0.316,1.057 0.817,-0.682 0.337,-1.41 1.211,-1.548 0.064,0.392 -0.085,0.57 -0.089,1.042 0.289,-0.824 0.63,-1.661 1.425,-1.443 -0.014,0.244 0.112,0.54 -0.107,0.568 1.206,-0.364 2.017,-2.252 3.524,-1.605 -0.374,1.747 0.504,0.543 0.592,2.031 0,0 0.184,-0.119 0.368,-0.238 0.186,-0.101 0.373,-0.202 0.373,-0.202 l -0.296,-0.741 c 0.656,0.062 1.299,-0.995 1.864,-0.477 l -0.531,0.589 1.272,-0.221 -0.679,-0.6 c 0.748,-0.733 0.045,-1.889 0.959,-1.427 -0.208,0.148 0.721,0.034 0.976,0.995 l -0.003,0.004 c 0.392,-0.42 0.823,-0.86 1.288,-0.415 0.06,0.492 -0.352,1.617 -0.313,1.944 0.517,-1.171 1.615,-0.132 2.297,-1.321 -0.205,0.269 -0.369,1.035 -0.358,1.204 l 0.484,-0.922 c 0.243,0.398 0.249,0.562 0.062,1.158 0.872,0.417 0.136,-1.921 1.055,-0.841 -0.107,0.057 -0.103,0.215 -0.32,0.318 0.984,0.69 2.336,-0.094 3.166,0.79 -0.212,1.523 -0.969,0.036 -1.046,1.357 0.72,0.121 1.582,-0.043 2.445,-0.126 0.857,-0.079 1.662,0.044 2.252,0.505 l -0.174,-0.268 c 1.123,-1.805 0.528,1.399 1.626,0.853 -0.23,0.039 -0.767,0.918 -0.611,0.73 0.661,0.814 1.966,0.557 3.635,0.847 l -0.458,0.337 c 0.193,0.754 1.07,1.154 1.423,1.726 0.482,-0.319 0.722,-0.029 1.036,-0.784 -0.071,0.893 0.099,1.415 0.415,1.76 0.323,0.335 0.807,0.472 1.308,0.602 0.493,0.136 1.032,0.234 1.358,0.544 0.326,0.308 0.494,0.772 0.308,1.528 -0.144,-0.15 -0.678,-0.038 -0.571,0.084 l 1.358,0.746 c 0.623,-0.688 0.295,-0.506 0.622,-1.216 0.54,-0.22 1.161,-0.169 1.424,0.12 -0.948,-0.12 -1.115,0.95 -1.356,1.507 0.19,-0.218 0.492,-0.336 0.701,-0.537 -0.812,1.66 1.533,-1.053 1.328,0.522 l -0.421,0.247 c 0.441,0.175 1.19,0.106 1.348,0.549 -0.763,0.765 -0.671,-0.064 -1.399,0.432 0.399,0.44 2.42,-0.188 1.809,0.908 -0.386,-0.064 -0.582,-0.388 -0.994,-0.422 -0.67,1.186 -0.418,1.082 -0.344,1.559 l 0.002,-0.052 0.036,1.155 0.159,-0.394 c 1.381,-0.411 1.703,-0.126 1.93,0.233 0.113,0.182 0.209,0.382 0.402,0.543 0.178,0.17 0.46,0.297 0.982,0.328 -1.974,-0.119 -0.957,0.315 -2.067,0.8 -0.187,0.388 -0.36,0.9 -0.712,0.955 1.079,-0.011 -0.368,1.013 1.214,0.999 -0.343,0.187 0.183,0.464 -0.761,0.762 0.541,0.411 0.562,-0.395 1.03,-0.551 0.84,0.148 0.632,0.857 0.525,1.539 -0.112,0.693 -0.162,1.367 0.944,1.724 1.042,0.904 2.345,0.786 3.282,1.77 -0.51,0.521 -1.461,0.024 -1.461,0.024 -0.418,0.735 -0.161,1.129 0.365,1.618 -0.352,-0.05 -0.616,0.127 -1.021,0.378 0.167,0.425 1.443,0.049 0.968,0.751 -0.446,-0.034 -1.151,-0.05 -1.612,-0.184 0.43,0.45 1.23,0.859 1.664,1.373 -0.652,0.231 -1.074,-0.199 -1.542,-0.321 0.392,0.553 0.87,1.478 1.915,1.586 l 0.361,-0.447 c 0.063,0.23 -0.906,0.208 -1.122,0.064 -0.92,-0.43 0.253,-0.801 0.636,-0.887 l 0.31,0.37 c 2.206,-0.703 -0.616,-1.594 -0.6,-2.379 l 1.689,0.044 c 0,0 -0.372,-0.151 -0.744,-0.303 C 84.77,43.155 84.4,43.011 84.4,43.011 c 0.389,-0.259 1.281,-0.581 1.596,-0.212 0.69,-0.774 -0.702,-0.402 0.07,-1.115 0.125,-0.089 0.209,-0.081 0.287,-0.043 L 85.72,41.169 c 0.369,0.032 1.115,-0.38 0.976,0.044 0.65,-1.329 -1.646,-1.391 -0.538,-2.139 l 0.121,0.06 c -0.985,-1.289 -1.202,0.199 -2.925,-0.39 0,0 0.649,-0.418 1.298,-0.836 0.644,-0.433 1.287,-0.865 1.287,-0.865 l -1.199,0.275 c -0.012,-0.161 -0.032,-0.483 0.444,-0.602 -0.982,-0.25 -0.463,0.28 -1.315,0.248 0.387,-0.544 0.105,-0.99 -0.094,-1.381 -0.215,-0.386 -0.301,-0.746 0.546,-1.229 -0.959,0.146 -0.343,0.937 -1.274,0.492 1.797,-1.091 -0.72,-0.669 -0.15,-1.698 1.052,-0.305 0.834,0.56 1.388,-0.51 -0.907,0.22 -0.961,-0.123 -0.869,-0.584 0.088,-0.456 0.278,-1.011 -0.025,-1.185 -1.273,0.701 -1.191,-0.794 -2.112,-1.376 0.488,-0.241 -0.401,-1.961 -0.557,-3.035 l 0.21,-0.126 c -1.29,0.758 -1.589,-0.202 -2.299,-0.506 0.687,-0.545 1.043,-0.683 1.595,-0.638 0.011,-0.009 -0.449,-0.498 -0.449,-0.498 -0.465,0.188 -0.791,0.197 -1.203,-0.007 l 0.935,-0.602 c -0.672,-0.626 -2.119,-0.466 -2.415,-1.764 -0.748,0.704 -1.379,2.598 -2.674,2.345 0.355,-0.425 0.977,-1.139 1.358,-1.099 -0.125,-0.015 -0.578,0.096 -0.56,-0.207 l 0.986,-0.362 c -0.09,-0.635 -0.733,0.385 -0.966,0.056 0.546,-0.571 0.165,-0.612 0.634,-1.033 0.13,0.015 0.04,0.477 0.368,0.357 -0.241,-0.411 -0.34,-1.133 -0.084,-1.709 -0.268,0.363 -0.709,0.792 -1.026,0.643 -0.685,-0.543 0.4,-0.92 0.274,-1.581 -0.502,0.263 -0.602,-0.518 -1.356,0.393 -0.201,-0.158 0.104,-0.618 0.22,-0.93 -0.692,0.13 -1.816,-1.173 -2.14,0.153 l 0.043,0.136 c -0.031,0.007 -0.052,-0.007 -0.089,-0.002 l 0.003,0.002 -0.007,0.001 C 71.615,19.499 71.261,19.366 70.963,19.144 70.659,18.931 70.387,18.663 70.135,18.357 69.628,17.755 69.14,17.068 68.391,16.91 l 0.194,-0.344 c -0.968,-0.051 -1.876,-0.635 -2.784,-0.147 -0.224,-0.109 -0.239,-0.915 0.054,-1.296 -0.739,-0.008 -0.943,0.32 -1.61,-0.602 0.897,-0.403 0.009,-0.648 0.846,-0.225 -0.691,-0.619 -0.678,-1.288 -1.945,-0.603 0.657,-0.837 -0.21,-1.434 -0.713,-1.294 l 0.357,0.9 C 62.296,13.276 61.938,13.05 61.567,12.825 l 0.617,-1.191 c -0.66,-1.053 -1.713,-0.584 -2.594,-0.249 -0.901,0.357 -1.635,0.538 -2.089,-0.871 -0.654,0.84 0.868,0.798 0.22,1.798 -0.762,-0.3 -1.327,-2.319 -1.609,-2.366 -1.093,-0.896 -1.342,1.729 -2.471,1.119 0.114,0.48 0.115,1.748 -0.767,2.15 -0.77,-0.215 -0.878,-2.038 -0.321,-2.391 0.205,-0.029 0.292,0.126 0.272,0.286 0.281,-0.158 0.66,-0.342 0.364,-0.873 l -0.147,0.468 C 52.66,10.199 51.474,10.191 51.785,9.427 51.11,9.846 51.48,10.191 51.941,10.461 50.871,9.741 50.238,10.3 49.106,9.927 c 0.187,0.253 0.358,0.803 0.182,0.806 -1.653,-0.508 -0.69,0.935 -1.753,1.197 -0.664,-0.69 0.107,-1.736 -0.96,-1.072 C 45.849,10.407 46.31,9.612 46.564,9.211 46.319,9.454 46.074,9.542 45.83,9.543 45.588,9.562 45.347,9.488 45.114,9.378 44.648,9.158 44.208,8.799 43.89,8.762 L 44.402,8.298 C 44.093,8.574 43.818,8.609 43.536,8.65 l 0.461,0.89 C 43.649,9.425 43.372,9.465 43.315,9.073 c -0.23,0.665 0.498,1.521 0.001,2.458 -0.502,-0.402 -1.153,0.682 -1.545,-0.49 1.401,0.173 -0.407,-1.227 0.7,-1.616 -0.196,0.184 -0.467,0.216 -0.827,0.111 -0.077,-0.126 -0.007,-0.269 0.069,-0.351 -1.54,-0.792 -0.301,1.538 -1.599,1.835 -0.005,-0.732 -0.639,-1.227 -0.821,-1.023 0.544,-0.125 0.546,1.082 0.22,1.728 -0.974,-0.318 -0.777,0.627 -1.218,0.675 l 0.56,0.122 c 0.038,0.718 -0.386,0.73 -0.848,1.152 -0.22,-0.508 0.372,-0.54 0.104,-0.701 -0.195,1.398 -1.791,-0.723 -2.368,0.384 -0.572,-0.301 -0.524,-1.228 -1.002,-1.399 -0.636,1.198 -1.441,-0.448 -2.154,0.718 0.695,0.725 0.63,0.497 0.345,1.666 l 1.328,-1.38 c 0,0 -0.119,0.441 -0.239,0.882 -0.11,0.437 -0.22,0.875 -0.22,0.875 0.476,-0.204 0.75,-1.046 1.117,-0.996 -0.197,0.91 -0.219,0.691 0.306,1.307 -1.214,-1.005 -0.904,1.358 -2.035,0.83 l -1.021,-2.13 c -0.814,-0.182 -1.221,0.321 -1.584,0.943 -0.361,0.637 -0.705,1.334 -1.565,1.51 l 0.666,0.075 c 0.301,0.915 -0.79,0.634 -1.035,1.229 -0.391,-0.685 -0.834,-0.754 -1.306,-1.036 0.354,0.466 -1.023,0.692 -0.214,2.056 L 25.925,18.11 c -1.344,0.485 0.167,2.642 -0.887,3.263 -0.284,-0.901 -1.08,-0.935 -0.842,-1.978 -0.324,0.282 -0.708,0.435 -0.351,0.849 -0.521,-0.195 -0.154,1.577 -0.948,1.287 0.107,0.372 0.639,1.006 0.253,1.269 -0.15,-0.08 -0.272,-0.279 -0.272,-0.279 0.258,0.27 -0.133,0.886 0.761,1.213 -1.29,-0.412 -1.873,0.293 -2.386,0.991 -0.257,0.351 -0.504,0.7 -0.829,0.935 -0.302,0.255 -0.692,0.389 -1.278,0.289 -0.338,0.903 -0.802,1.915 -1.219,2.622 -0.169,-0.177 -0.326,-0.221 -0.176,-0.309 -1.215,0.58 1.538,1.831 0.196,2.459 -1.432,-0.101 -0.239,-0.937 -0.863,-0.841 -1.154,-0.604 -1.291,-0.207 -1.35,0.323 -0.054,0.537 -0.056,1.174 -0.901,1.231 l -0.04,-0.267 c -1.089,0.22 0.145,1.956 -0.489,2.85 0,0 -0.186,-0.143 -0.355,-0.166 0.833,1.21 0.822,2.678 0.809,3.746 -0.85,-0.636 -0.346,-0.621 -1.386,-0.784 -0.022,0.487 1.606,0.44 1.571,1.378 -0.622,0.096 -1.33,0.563 -2.387,0.338 -0.024,-0.007 0.233,-0.865 0.233,-0.865 -1.535,-0.011 -0.325,1.124 -0.666,1.505 l -0.584,-0.231 c -0.159,1.42 1.364,1.81 0.899,3.177 l 0.499,-0.046 c 1.35,1.059 -0.976,0.477 0.03,1.456 l -1.593,-0.03 c 0.304,0.601 1.206,2.039 1.422,2.958 -1.143,-0.622 -1.534,-1.79 -2.127,-2.592 -0.093,0.528 -0.158,1.822 0.579,2.167 -0.122,-0.223 -0.466,-0.533 -0.193,-0.713 1.103,0.786 1.709,1.641 1.623,2.637 -1.524,-0.178 -1.751,0.492 -1.897,1.294 -0.183,0.803 -0.106,1.714 -1.288,2.148 0.618,0.936 0.526,1.867 0.37,2.878 -0.094,0.999 -0.293,2.086 -0.029,3.188 2.222,-1.207 0.167,0.633 2.546,0.026 0.23,0.456 0.27,0.638 0.115,0.717 0,0 -0.263,0.447 -0.525,0.895 -0.259,0.461 -0.517,0.922 -0.517,0.922 -0.596,0.54 -0.645,-0.342 -1.166,-0.166 0.106,1.168 -0.884,0.727 -1.312,1.664 0.803,-0.388 1.308,0.054 1.158,0.796 l 0.846,-1.221 c 0.82,0.592 0.418,1.058 0.06,1.546 -0.372,0.485 -0.735,1.002 0.155,1.557 L 10.29,63.963 c 0.36,0.327 0.628,1.069 1.072,1.733 0.414,0.676 1.157,1.201 2.202,1.157 -0.194,0.248 -0.714,0.711 -1.034,0.452 0.32,0.963 1.222,1.773 2.114,2.462 0.896,0.696 1.641,1.355 1.532,2.336 L 15.597,72.3 c 0.349,0.222 1.252,-0.064 1.038,0.636 -0.218,0.121 -0.581,0.218 -0.507,0.376 0.291,0.047 1.44,0.182 1.448,0.774 l -0.792,0.063 c 0.268,1.015 1.055,1.378 1.905,1.578 0.891,0.173 1.862,0.178 2.533,0.614 -1.3,1.162 -0.72,2.733 -0.331,3.454 l -0.194,0.16 c 0.778,0.862 1.76,1.259 2.769,1.525 1.014,0.264 2.138,0.3 3.145,0.641 -0.029,0.575 0.152,1.069 0.454,1.519 0.307,0.443 0.772,0.785 1.256,1.145 0.986,0.697 2.069,1.406 2.803,2.305 -0.145,-0.426 0.675,-1.197 1.077,-1.199 0.286,0.534 1.709,-0.533 0.964,0.901 l -0.143,-0.103 c -0.33,1.587 0.768,1.694 1.51,1.977 l 0.903,-1.918 c 0.38,1.756 1.77,2.033 3.026,2.044 1.277,0.001 2.388,-0.09 2.638,1.392 0.592,-0.374 1.195,-0.278 1.769,-0.727 l -0.227,1.111 c 1.321,0.473 2.004,0.799 3.742,0.67 l -0.427,0.787 c 0.997,0.129 1.478,-3.189 2.304,-3.214 l 0.188,1.702 c 1.616,0.125 3.416,1.423 4.96,-0.171 -0.006,0.248 -0.014,0.738 -0.283,0.821 0.783,0.074 3.218,0.772 2.599,-1.473 0.233,1.486 1.74,-0.1 2.44,-0.919 l 0.093,1.125 c 0.439,-1.578 0.363,-1.961 1.245,-2.594 0.266,0.081 0.426,0.812 0.044,0.616 0.932,0.363 0.332,-1.175 1.421,-0.844 l -0.152,0.775 c 0.828,-0.135 0.668,-0.458 0.835,-1.408 0.336,-0.598 1.526,-0.257 2,0.643 -0.102,-0.617 0.022,-1.538 0.574,-1.431 0.202,0.331 0.125,0.611 0.083,0.75 0.796,0.123 1.158,-0.372 1.448,-0.842 0.3,-0.456 0.551,-0.843 1.215,-0.555 0.179,0.324 0.316,0.463 0.437,0.528 -1.015,0.459 -1.846,0.788 -1.803,0.677 0.398,0.948 1.32,0.708 1.217,2.329 0.401,-1.047 0.787,-3.102 1.792,-3.053 0.085,0.069 0.168,0.137 0.272,0.263 l -0.03,0.142 c 0.233,-10e-4 0.358,-0.164 0.429,-0.397 0.325,10e-4 0.543,0.016 0.787,-0.112 0.511,0.684 1.146,-0.157 1.562,-0.363 -0.621,-0.939 -0.025,-1.09 -0.985,-1.592 0.103,0.032 -10e-4,0.158 -0.231,0.353 -0.04,0.063 -0.099,0.119 -0.103,0.199 -0.007,-0.03 -0.016,-0.065 -0.025,-0.101 -0.234,0.18 -0.55,0.401 -0.914,0.641 0.025,-0.682 0.083,-1.279 0.822,-0.997 -0.178,-0.737 -0.363,-1.495 -0.433,-1.86 1.327,1.042 2.809,1.11 3.484,1.773 0.384,-0.677 0.98,-1.252 1.402,-1.931 0.21,-0.34 0.378,-0.701 0.443,-1.116 0.051,-0.432 0.006,-0.907 -0.185,-1.446 0.099,-0.456 0.718,0.166 1.046,0.317 -0.024,0.308 -0.242,0.462 -0.134,0.773 0.218,-0.927 1.565,-1.707 0.665,-2.883 1.16,-0.175 0.572,1.353 1.34,0.251 l 0.199,0.45 c 1.741,-0.155 1.818,-1.642 1.881,-2.991 0.029,-1.417 0.007,-2.713 2.108,-2.991 -0.272,0.055 -0.401,0.085 -0.628,-0.024 0.781,-0.442 1.23,-1.149 1.664,-1.861 0.398,-0.735 0.778,-1.486 1.014,-2.304 0.268,-0.801 0.551,-1.581 0.976,-2.291 0.447,-0.702 0.878,-1.401 1.676,-1.977 0.722,-0.731 -0.132,-1.142 -0.628,-1.874 l 1.219,0.179 c 0,0 -0.26,-0.335 -0.537,-0.666 -0.275,-0.326 -0.551,-0.652 -0.551,-0.652 -0.326,-0.776 0.529,-1.125 1.297,-1.598 0.384,-0.234 0.744,-0.495 0.917,-0.828 0.152,-0.337 0.094,-0.751 -0.313,-1.26 l -0.834,0.075 c 0.244,-0.579 -0.186,-1.959 0.726,-1.736 -0.138,-0.083 -0.81,-0.304 -0.353,-0.486 l 0.63,0.057 c 0,0 -0.206,-0.406 -0.434,-0.802 -0.25,-0.394 -0.501,-0.788 -0.501,-0.788 0.515,-1.122 2.493,0.385 2.705,-1.375 -0.21,-0.689 -1.751,-1.881 -2.185,-1.633 -0.043,0.253 -0.426,0.638 -1.059,0.643 l -0.302,-0.556 c -1.858,-0.125 -3.746,-0.447 -5.11,0.699 l 1.095,0.869 -0.915,0.217 -0.022,-0.69 c -0.869,0.352 -0.13,0.623 0.371,0.941 -0.483,0.035 -0.823,0.125 -1.009,0.27 0,0 0.434,0.236 0.868,0.473 0.432,0.247 0.864,0.495 0.864,0.495 -0.738,0.019 -1.396,-0.499 -1.866,-0.016 0.762,0.464 1.682,-0.191 2.121,0.504 -0.903,0.305 -1.568,0.088 -0.922,0.648 -0.485,-0.002 -0.772,-0.143 -0.954,-0.348 0.507,0.48 0.079,1.093 1.022,1.475 -0.546,0.116 -0.53,0.471 -0.593,0.757 -0.081,0.282 -0.261,0.484 -1.113,0.276 0.381,0.206 1.168,1.002 1.141,1.399 -1.873,-1.193 -0.474,1.349 -2.598,0.536 1.724,1.037 0.204,1.924 0.904,3.143 -0.122,-0.103 -0.374,-0.307 -0.256,-0.346 -0.32,0.419 -0.898,0.34 -1.334,0.495 1.419,0.662 1.396,1.524 2.076,2.341 -1.642,-0.075 -1.497,-1.133 -2.903,-1.56 1.168,0.5 0.686,1.495 1.724,1.78 -1.044,0.014 -0.586,0.173 -1.843,-0.21 1.693,0.986 0.128,0.554 0.96,1.463 -1.204,0.118 -1.687,-0.761 -1.559,0.173 -0.693,-0.016 -0.958,-0.915 -0.958,-0.915 z M 65.219,79.45 c -0.005,-0.01 -0.01,-0.02 -0.01,-0.02 0.133,-0.093 0.247,-0.172 0.319,-0.223 -0.064,0.051 -0.153,0.121 -0.309,0.243 z m -1.413,0.699 c 0.191,-0.044 0.41,-0.141 0.635,-0.258 0.219,0.325 0.34,0.711 0.184,0.763 -0.033,-0.272 -0.471,-0.309 -0.819,-0.505 z m 6.9,5.177 c -0.184,0.297 -0.384,0.16 -0.534,-0.019 0.114,-0.092 0.24,-0.212 0.39,-0.393 -0.011,-0.038 -0.027,-0.095 -0.039,-0.137 0.084,0.2 0.158,0.391 0.183,0.549 z"
               id="path15766"
               inkscape:connector-curvature="0"
               style="fill:#5c5c5b;fill-opacity:1" /><path
               d="m 70.416,83.777 c 0.024,-0.044 0.02,-0.096 0.062,-0.134 -0.104,-0.054 -0.196,-0.096 -0.282,-0.125 0.031,0.122 0.063,0.244 0.092,0.356 0.043,-0.031 0.088,-0.066 0.128,-0.097 z"
               id="path15768"
               inkscape:connector-curvature="0"
               style="fill:#5c5c5b;fill-opacity:1" /><path
               d="M 72.125,19.346 72.11,19.303 c 0,0.055 -0.004,0.108 -0.03,0.177 0.011,-0.059 0.032,-0.088 0.045,-0.134 z"
               id="path15770"
               inkscape:connector-curvature="0"
               style="fill:#5c5c5b;fill-opacity:1" /><polygon
               points="43.133,80.281 43.014,80.213 42.952,80.492 "
               id="polygon15772"
               style="fill:#5c5c5b;fill-opacity:1" /><path
               d="m 76.336,28.542 c -0.066,0.076 -0.126,0.168 -0.153,0.275 0.054,-0.051 0.103,-0.155 0.153,-0.275 z"
               id="path15774"
               inkscape:connector-curvature="0"
               style="fill:#5c5c5b;fill-opacity:1" /><path
               d="m 78.364,31.798 -0.061,0.673 c 0.074,-0.317 0.077,-0.522 0.061,-0.673 z"
               id="path15776"
               inkscape:connector-curvature="0"
               style="fill:#5c5c5b;fill-opacity:1" /><path
               d="m 79.356,34.585 c 0.19,-0.059 0.326,-0.118 0.452,-0.173 l 0.004,-0.008 z"
               id="path15778"
               inkscape:connector-curvature="0"
               style="fill:#5c5c5b;fill-opacity:1" /><path
               d="m 40.715,19.535 c -0.034,0.015 -0.065,0.039 -0.089,0.074 -0.174,0.278 -0.039,0.144 0.089,-0.074 z"
               id="path15780"
               inkscape:connector-curvature="0"
               style="fill:#5c5c5b;fill-opacity:1" /><path
               d="m 53.983,15.773 c -0.172,0.18 -0.339,0.356 -0.504,0.459 0.236,0.124 0.423,0.175 0.504,-0.459 z"
               id="path15782"
               inkscape:connector-curvature="0"
               style="fill:#5c5c5b;fill-opacity:1" /><path
               d="m 29.12,27.823 c -0.006,-0.007 -0.005,-0.006 -0.012,-0.015 -0.02,0.023 -0.042,0.038 -0.064,0.058 z"
               id="path15784"
               inkscape:connector-curvature="0"
               style="fill:#5c5c5b;fill-opacity:1" /><path
               d="m 52.831,16.181 c 0.23,0.236 0.439,0.196 0.648,0.051 -0.196,-0.086 -0.428,-0.211 -0.648,-0.051 z"
               id="path15786"
               inkscape:connector-curvature="0"
               style="fill:#5c5c5b;fill-opacity:1" /><path
               d="m 82.469,46.52 -0.024,0.14 c 0.074,-0.01 0.135,-0.008 0.181,-0.002 z"
               id="path15788"
               inkscape:connector-curvature="0"
               style="fill:#5c5c5b;fill-opacity:1" /><path
               d="m 82.625,46.658 0.139,0.14 c -0.003,-0.071 -0.014,-0.131 -0.139,-0.14 z"
               id="path15790"
               inkscape:connector-curvature="0"
               style="fill:#5c5c5b;fill-opacity:1" /><path
               d="m 83.062,47.096 -0.297,-0.298 c 0.002,0.112 -0.027,0.252 0.297,0.298 z"
               id="path15792"
               inkscape:connector-curvature="0"
               style="fill:#5c5c5b;fill-opacity:1" /><path
               d="m 82.347,42.703 -0.409,0.048 c 0.088,0.004 0.221,-0.01 0.409,-0.048 z"
               id="path15794"
               inkscape:connector-curvature="0"
               style="fill:#5c5c5b;fill-opacity:1" /><path
               d="m 81.943,41.61 c -0.02,0.295 -0.673,0.874 -0.33,1.178 l 0.325,-0.037 c -0.634,-0.029 0.738,-1.05 0.005,-1.141 z"
               id="path15796"
               inkscape:connector-curvature="0"
               style="fill:#5c5c5b;fill-opacity:1" /><path
               d="m 85.056,35.062 c 0,0 0.035,0.288 0.052,0.582 0.02,0.291 0.04,0.582 0.04,0.582 0.338,-0.339 0.789,-0.805 1.065,-0.356 0.701,-1.833 -0.791,0.628 -1.157,-0.808 z"
               id="path15798"
               inkscape:connector-curvature="0"
               style="fill:#5c5c5b;fill-opacity:1" /><path
               d="m 84.107,31.642 c 0.445,0.455 0.554,-0.303 0.782,-0.393 -0.534,-0.161 -0.669,-0.186 -0.782,0.393 z"
               id="path15800"
               inkscape:connector-curvature="0"
               style="fill:#5c5c5b;fill-opacity:1" /><path
               d="m 65.789,14.65 0.475,-0.907 c -0.495,-0.074 -0.165,0.36 -0.475,0.907 z"
               id="path15802"
               inkscape:connector-curvature="0"
               style="fill:#5c5c5b;fill-opacity:1" /><path
               d="m 59.708,17.995 c 0,0 0.049,0.176 0.098,0.352 0.045,0.183 0.089,0.366 0.089,0.366 l 0.46,-0.828 c 0,0 -0.16,0.021 -0.321,0.042 -0.162,0.027 -0.326,0.068 -0.326,0.068 z"
               id="path15804"
               inkscape:connector-curvature="0"
               style="fill:#5c5c5b;fill-opacity:1" /><polygon
               points="58.256,10.336 58.892,10.265 59.135,10.176 "
               id="polygon15806"
               style="fill:#5c5c5b;fill-opacity:1" /><path
               d="m 18.805,24.375 1.064,0.69 c 0.043,-0.379 -0.998,-1.352 -1.064,-0.69 z"
               id="path15808"
               inkscape:connector-curvature="0"
               style="fill:#5c5c5b;fill-opacity:1" /><path
               d="m 11.786,41.807 c -0.682,0.059 -1.161,0.517 -0.601,0.955 0.148,-0.405 0.694,-0.719 0.601,-0.955 z"
               id="path15810"
               inkscape:connector-curvature="0"
               style="fill:#5c5c5b;fill-opacity:1" /><polygon
               points="36.075,88.753 35.771,88.567 35.251,88.826 "
               id="polygon15812"
               style="fill:#5c5c5b;fill-opacity:1" /></g></g></g></g></g></svg>