<?xml version="1.0" encoding="UTF-8" standalone="no"?>
<svg
   xmlns:dc="http://purl.org/dc/elements/1.1/"
   xmlns:cc="http://creativecommons.org/ns#"
   xmlns:rdf="http://www.w3.org/1999/02/22-rdf-syntax-ns#"
   xmlns:svg="http://www.w3.org/2000/svg"
   xmlns="http://www.w3.org/2000/svg"
   xmlns:sodipodi="http://sodipodi.sourceforge.net/DTD/sodipodi-0.dtd"
   xmlns:inkscape="http://www.inkscape.org/namespaces/inkscape"
   version="1.1"
   x="0px"
   y="0px"
   viewBox="0 0 533.39441 378.47946"
   xml:space="preserve"
   id="svg16"
   sodipodi:docname="circle6.svg"
   width="533.39441"
   height="378.47946"
   inkscape:version="0.92.4 5da689c313, 2019-01-14"><metadata
     id="metadata22"><rdf:RDF><cc:Work
         rdf:about=""><dc:format>image/svg+xml</dc:format><dc:type
           rdf:resource="http://purl.org/dc/dcmitype/StillImage" /><dc:title /></cc:Work></rdf:RDF></metadata><defs
     id="defs20" /><sodipodi:namedview
     pagecolor="#ffffff"
     bordercolor="#666666"
     borderopacity="1"
     objecttolerance="10"
     gridtolerance="10"
     guidetolerance="10"
     inkscape:pageopacity="0"
     inkscape:pageshadow="2"
     inkscape:window-width="1600"
     inkscape:window-height="860"
     id="namedview18"
     showgrid="false"
     inkscape:zoom="1.0429825"
     inkscape:cx="394.87042"
     inkscape:cy="140.72705"
     inkscape:window-x="0"
     inkscape:window-y="0"
     inkscape:window-maximized="1"
     inkscape:current-layer="svg16" /><g
     id="g10"
     transform="rotate(29.450515,388.04217,243.1847)"
     style="fill:#808281;fill-opacity:1"><g
       id="g8"
       style="fill:#808281;fill-opacity:1"><g
         id="g6"
         style="fill:#808281;fill-opacity:1"><g
           id="g4"
           style="fill:#808281;fill-opacity:1"><path
             d="m 502.743,217.039 c 0,-24.155 -4.903,-47.761 -13.609,-68.668 -9.257,-21.949 -22.261,-41.69 -38.57,-58.736 C 433.704,73.206 414.149,60.022 392.385,50.702 371.723,41.874 348.36,36.971 324.453,36.971 c -15.202,0 -29.918,2.206 -43.475,5.457 -14.711,3.862 -28.26,9.379 -41.318,15.938 -11.956,6.562 -23.358,14.84 -33.72,24.159 -9.748,8.766 -19.007,19.189 -27.161,30.715 -0.552,1.105 -2.147,1.655 -3.249,2.206 -22.317,1.105 -42.917,6.622 -61.983,15.391 -19.561,8.766 -36.909,21.396 -52.176,36.231 v 0.555 c -16.31,16.492 -29.859,36.232 -38.564,58.182 -8.706,21.399 -13.609,44.45 -13.609,69.159 0,24.159 4.904,47.761 13.609,68.609 8.706,22.009 22.255,41.749 38.564,58.795 16.31,16.429 35.867,29.612 57.63,38.93 21.213,8.766 44.022,13.735 68.482,13.735 23.914,0 47.273,-4.97 67.933,-13.735 21.768,-9.317 41.872,-22.501 58.182,-38.93 3.808,-3.868 7.054,-7.724 10.299,-11.592 3.257,-3.796 6.011,-7.663 9.262,-12.075 0.552,-1.042 2.15,-2.15 3.251,-2.15 22.255,-1.652 44.02,-7.172 63.023,-16.489 20.11,-9.316 38.079,-21.949 53.28,-37.887 15.752,-16.43 28.267,-36.235 36.972,-57.635 8.155,-20.848 13.058,-43.345 13.058,-67.501 z m -4.903,-72.47 c 8.705,22.499 14.16,46.659 14.16,72.47 0,25.258 -4.904,48.803 -13.61,70.813 -9.256,22.5 -22.812,43.342 -39.121,60.394 -15.817,16.98 -34.821,30.715 -56.028,40.582 -19.566,9.383 -41.265,14.836 -64.137,17.046 -2.143,3.861 -5.394,7.113 -8.155,10.975 -3.795,4.354 -7.052,8.215 -10.849,12.083 -17.41,16.979 -38.073,31.266 -60.882,41.133 -22.255,8.831 -46.165,14.285 -71.734,14.285 -25.565,0 -49.476,-5.454 -71.73,-14.285 C 92.886,460.198 72.287,445.912 54.872,428.932 37.461,411.388 23.912,390.488 14.101,367.43 4.844,344.928 0,320.225 0,294.964 0,269.153 4.844,244.997 14.1,222.494 23.91,199.442 37.459,178.598 54.871,161.06 l 0.554,-0.551 c 15.756,-15.387 34.209,-28.571 54.32,-37.891 19.558,-9.379 40.771,-14.836 62.534,-16.492 8.154,-11.525 17.352,-21.396 27.712,-30.777 10.853,-9.87 22.809,-18.084 35.316,-25.197 13.608,-7.173 28.264,-12.631 42.917,-16.493 14.717,-3.861 30.469,-6.008 46.229,-6.008 25.015,0 49.473,5.458 71.732,14.223 22.808,9.933 43.469,24.156 60.88,41.202 16.861,17.597 31.027,38.442 40.775,61.493 z"
             id="path2"
             inkscape:connector-curvature="0"
             style="fill:#808281;fill-opacity:1" /></g></g></g></g></svg>