<?xml version="1.0" encoding="UTF-8" standalone="no"?>
<svg
   xmlns:dc="http://purl.org/dc/elements/1.1/"
   xmlns:cc="http://creativecommons.org/ns#"
   xmlns:rdf="http://www.w3.org/1999/02/22-rdf-syntax-ns#"
   xmlns:svg="http://www.w3.org/2000/svg"
   xmlns="http://www.w3.org/2000/svg"
   xmlns:sodipodi="http://sodipodi.sourceforge.net/DTD/sodipodi-0.dtd"
   xmlns:inkscape="http://www.inkscape.org/namespaces/inkscape"
   version="1.1"
   x="0px"
   y="0px"
   viewBox="0 0 84.112228 86.023354"
   enable-background="new 0 0 100 100"
   xml:space="preserve"
   id="svg13994"
   sodipodi:docname="circle3.svg"
   width="84.112228"
   height="86.023354"
   inkscape:version="0.92.2 2405546, 2018-03-11"><metadata
     id="metadata14000"><rdf:RDF><cc:Work
         rdf:about=""><dc:format>image/svg+xml</dc:format><dc:type
           rdf:resource="http://purl.org/dc/dcmitype/StillImage" /></cc:Work></rdf:RDF></metadata><defs
     id="defs13998" /><sodipodi:namedview
     pagecolor="#ffffff"
     bordercolor="#666666"
     borderopacity="1"
     objecttolerance="10"
     gridtolerance="10"
     guidetolerance="10"
     inkscape:pageopacity="0"
     inkscape:pageshadow="2"
     inkscape:window-width="768"
     inkscape:window-height="480"
     id="namedview13996"
     showgrid="false"
     inkscape:zoom="1.888"
     inkscape:cx="43.933"
     inkscape:cy="31.028"
     inkscape:window-x="0"
     inkscape:window-y="0"
     inkscape:window-maximized="0"
     inkscape:current-layer="svg13994" /><g
     id="g13988"
     transform="translate(-6.067,-7.5046481)"
     style="fill:#585658;fill-opacity:1"><g
       id="g13986"
       style="fill:#585658;fill-opacity:1"><g
         id="g13984"
         style="fill:#585658;fill-opacity:1"><g
           id="g13982"
           style="fill:#585658;fill-opacity:1"><g
             id="g13980"
             style="fill:#585658;fill-opacity:1"><g
               id="g13978"
               style="fill:#585658;fill-opacity:1"><path
                 d="m 88.164,44.046 c 0.139,0.537 -0.098,1.051 -0.267,0.865 0.536,1.053 0.125,1.124 0.856,1.195 0.396,0.694 -0.059,1.501 -0.396,0.707 l 0.551,2.047 0.051,-1.253 c 0.624,0.314 -0.082,2.001 0.643,2.393 l -0.17,-2.289 0.207,0.104 c -0.244,-0.511 -0.204,-1.527 -0.143,-1.891 0.107,0.045 0.263,-0.007 0.304,0.4 -0.291,-2.776 -1.143,-0.632 -1.666,-2.836 0.035,0.136 0.053,0.311 0.03,0.558 z"
                 id="path13732"
                 inkscape:connector-curvature="0"
                 style="fill:#585658;fill-opacity:1" /><path
                 d="m 89.222,41.467 -0.981,-0.772 -0.215,-1.619 c -0.258,0.051 -0.755,-1.017 -0.777,-0.186 0.078,0.137 0.23,0.41 0.268,0.655 -0.296,-0.011 -0.496,-0.501 -0.676,-0.911 -0.203,-0.404 -0.408,-0.718 -0.599,-0.413 0.54,1.127 0.405,1.361 1.062,1.98 0.217,1.129 0.352,1.954 0.2,2.523 0.136,0.317 0.485,0.301 0.62,0.719 -0.022,-0.094 -0.041,-0.18 -0.066,-0.288 l 0.833,-0.197 c -0.241,-0.331 -0.186,-0.695 -0.302,-1.089 0,0 0.099,0.1 0.216,0.258 0.119,0.159 0.279,0.371 0.438,0.583 0.319,0.434 0.638,0.868 0.638,0.868 0.347,-0.372 0.33,-1.022 0.251,-1.677 -0.111,-0.649 -0.329,-1.292 -0.258,-1.707 -0.465,1.089 -0.532,-0.64 -0.652,1.273 z"
                 id="path13734"
                 inkscape:connector-curvature="0"
                 style="fill:#585658;fill-opacity:1" /><path
                 d="m 88.124,43.443 c 0.002,0.012 0.006,0.031 0.009,0.045 -0.003,-0.014 -0.007,-0.033 -0.009,-0.045 z"
                 id="path13736"
                 inkscape:connector-curvature="0"
                 style="fill:#585658;fill-opacity:1" /><path
                 d="m 22.437,69.438 c 0.22,0.267 0.443,0.23 0.555,0.209 0,0 -0.145,-0.191 -0.362,-0.479 -0.108,-0.144 -0.235,-0.312 -0.37,-0.491 -0.117,-0.192 -0.242,-0.397 -0.367,-0.602 -0.502,-0.819 -1.004,-1.637 -1.004,-1.637 -0.134,0.209 0.211,1.311 -0.295,0.737 -0.038,0.413 0.678,1.185 1.006,1.144 l -0.434,-0.058 c 0.813,0.54 0.476,1.517 -0.082,1.178 l 0.047,0.062 c 0,0 0.723,0.262 1.446,0.524 0.703,0.238 1.407,0.476 1.407,0.476 -0.456,-0.773 -0.873,-0.198 -1.547,-1.063 z"
                 id="path13738"
                 inkscape:connector-curvature="0"
                 style="fill:#585658;fill-opacity:1" /><path
                 d="m 84.088,55.78 c -10e-4,0.522 0.07,0.601 0.16,0.558 -0.033,-0.195 -0.078,-0.382 -0.16,-0.558 z"
                 id="path13740"
                 inkscape:connector-curvature="0"
                 style="fill:#585658;fill-opacity:1" /><path
                 d="m 24.627,70.708 c -0.016,0.018 0.896,0.223 0.896,0.223 C 25.22,70.8 24.88,70.742 24.627,70.708 Z"
                 id="path13742"
                 inkscape:connector-curvature="0"
                 style="fill:#585658;fill-opacity:1" /><path
                 d="m 14.752,70.443 c -0.025,0.012 -0.052,0.016 -0.072,0.056 l 0.45,0.223 c -0.003,-0.006 -0.006,-0.009 -0.006,-0.009 -0.131,-0.102 -0.254,-0.19 -0.372,-0.27 z"
                 id="path13744"
                 inkscape:connector-curvature="0"
                 style="fill:#585658;fill-opacity:1" /><path
                 d="m 39.027,78.722 c 0.076,0.015 0.14,0.027 0.231,0.045 -0.081,-0.026 -0.157,-0.038 -0.231,-0.045 z"
                 id="path13746"
                 inkscape:connector-curvature="0"
                 style="fill:#585658;fill-opacity:1" /><path
                 d="m 7.22,59.302 1.042,2.037 c -0.306,-0.224 0.034,0.795 -0.354,0.417 0.08,0.155 0.374,0.899 0.437,0.654 l -0.13,-0.434 c 0.977,0.925 1.002,0.195 2.15,1.797 C 10.362,63.158 10.231,62.766 10.034,62.462 9.863,62.15 9.626,61.927 9.394,61.67 9.294,61.48 9.229,61.314 9.158,61.148 l -1.4,-1.528 z"
                 id="path13748"
                 inkscape:connector-curvature="0"
                 style="fill:#585658;fill-opacity:1" /><path
                 d="m 74.594,79.725 0.019,0.056 c 0.002,-0.028 -0.007,-0.044 -0.019,-0.056 z"
                 id="path13750"
                 inkscape:connector-curvature="0"
                 style="fill:#585658;fill-opacity:1" /><path
                 d="m 74.689,80.009 -0.076,-0.228 c -0.008,0.156 -0.271,0.481 0.076,0.228 z"
                 id="path13752"
                 inkscape:connector-curvature="0"
                 style="fill:#585658;fill-opacity:1" /><path
                 d="m 24.109,70.77 c 0.115,-0.063 0.297,-0.084 0.518,-0.062 l -0.645,-0.206 c 0.042,0.07 0.085,0.172 0.127,0.268 z"
                 id="path13754"
                 inkscape:connector-curvature="0"
                 style="fill:#585658;fill-opacity:1" /><path
                 d="m 22.108,70.642 -0.979,-1.14 -0.592,-0.272 c 0.39,0.436 0.914,0.897 1.571,1.412 z"
                 id="path13756"
                 inkscape:connector-curvature="0"
                 style="fill:#585658;fill-opacity:1" /><path
                 d="m 37.278,77.539 c 2.488,1.084 -0.942,0.462 0.108,1.189 0.733,0.264 1.161,-0.072 1.641,-0.005 -1.085,-0.215 -0.893,-0.485 -0.696,-0.773 0.2,-0.297 0.378,-0.556 -0.606,-0.936 0.286,-0.264 0.689,-0.249 1.114,-0.171 0.43,0.067 0.862,0.257 1.159,0.468 0.522,0.916 -0.827,0.228 -1.258,0.785 0.853,0.19 0.754,0.023 1.223,-0.21 1.2,0.685 2.839,-0.03 3.372,1.112 0.963,0.115 0.978,-0.277 1.575,-0.536 0.116,-0.351 -0.209,-0.496 -0.589,-0.625 -0.372,-0.166 -0.796,-0.347 -0.892,-0.666 0.053,0.077 0.157,0.232 0.095,0.322 l -0.728,-0.347 c 0.665,0.434 -0.282,0.679 -0.703,0.633 -0.295,-0.055 -0.883,-0.17 -0.739,-0.353 -0.004,0.016 0.479,-0.031 0.479,-0.031 -0.489,-0.341 -1.37,0.074 -1.823,-0.49 0.027,-0.164 0.27,-0.158 0.337,-0.241 -0.803,0.214 -1.45,0.038 -2.502,-0.132 l 0.826,-0.399 c -1.033,0.361 -2.699,-0.596 -3.52,-1.687 0.057,0.178 0.232,0.386 0.029,0.425 -0.741,-0.25 -0.96,-0.955 -0.455,-1.097 -0.232,0.028 -0.496,-0.052 -0.741,-0.241 -0.242,-0.194 -0.491,-0.455 -0.748,-0.714 -0.503,-0.535 -1.095,-0.982 -1.689,-1.05 0,0 -1.428,-0.069 -2.99,-0.232 -1.462,-0.24 -3.033,-0.602 -3.033,-0.602 0.2,0.082 0.395,0.185 0.561,0.32 -0.161,0.766 0.081,0.917 -0.933,0.692 0.807,0.389 0.971,-0.191 1.804,0.692 -0.537,-0.138 -1.186,0.293 -0.388,1.202 1.359,0.76 2.602,1.216 3.973,1.353 0.65,0.088 1.297,0.175 1.956,0.263 0.639,0.097 1.328,0.122 1.979,0.264 -0.088,0.233 0.315,0.581 0.837,0.951 0.533,0.348 1.225,0.634 1.635,0.908 -0.556,0.304 -1.31,0.143 -2.039,-0.131 0.403,0.273 1.165,0.618 1.709,0.917 z"
                 id="path13758"
                 inkscape:connector-curvature="0"
                 style="fill:#585658;fill-opacity:1" /><path
                 d="m 30.866,75.612 c 0.031,0.078 0.077,0.142 0.124,0.207 -0.008,-0.057 -0.043,-0.123 -0.124,-0.207 z"
                 id="path13760"
                 inkscape:connector-curvature="0"
                 style="fill:#585658;fill-opacity:1" /><path
                 d="m 34.715,77.309 c -0.017,0.011 -0.022,0.025 -0.034,0.041 l 0.227,0.096 C 34.84,77.398 34.763,77.344 34.715,77.309 Z"
                 id="path13762"
                 inkscape:connector-curvature="0"
                 style="fill:#585658;fill-opacity:1" /><path
                 d="m 23.701,72.024 c -0.234,-0.043 -0.353,-0.121 -0.568,-0.184 0.105,0.061 0.216,0.154 0.345,0.225 0.139,0.054 0.232,0.057 0.223,-0.041 z"
                 id="path13764"
                 inkscape:connector-curvature="0"
                 style="fill:#585658;fill-opacity:1" /><path
                 d="m 23.981,71.006 0.213,-0.05 c -0.028,-0.075 -0.056,-0.122 -0.084,-0.185 -0.097,0.05 -0.155,0.125 -0.129,0.235 z"
                 id="path13766"
                 inkscape:connector-curvature="0"
                 style="fill:#585658;fill-opacity:1" /><path
                 d="m 46.792,84.626 0.306,-0.091 c -0.18,-10e-4 -0.26,0.038 -0.306,0.091 z"
                 id="path13768"
                 inkscape:connector-curvature="0"
                 style="fill:#585658;fill-opacity:1" /><path
                 d="m 39.794,79.449 c -0.925,-0.289 -0.35,0.647 -1.665,0.173 l 0.37,0.182 C 37.408,79.822 35.9,78.809 34.795,78.348 35.042,78.17 34.337,77.675 34.681,77.351 33.946,77.023 33.215,76.699 32.6,76.872 c -0.365,-0.36 -1.199,-0.511 -1.609,-1.053 0.061,0.387 -1.298,0.181 0.181,0.874 -0.125,-0.047 -0.096,0.052 -0.221,0.007 0.598,0.962 1.352,0.593 2.099,1.051 0.316,0.507 -0.975,-0.083 -0.602,0.27 0.548,0.18 1.249,0.718 1.888,1.072 0.667,0.302 1.238,0.455 1.426,-0.017 0.751,0.282 0.755,0.533 0.897,0.808 0.774,-0.167 1.843,0.267 2.764,0.711 0.914,0.463 1.753,0.669 1.929,0.009 -0.226,-0.038 -0.521,-0.087 -0.844,-0.141 -0.316,-0.079 -0.666,-0.138 -1.03,-0.114 z"
                 id="path13770"
                 inkscape:connector-curvature="0"
                 style="fill:#585658;fill-opacity:1" /><path
                 d="m 24.956,73.297 c 0.039,0.053 0.101,0.114 0.129,0.162 -0.039,-0.048 -0.086,-0.107 -0.129,-0.162 z"
                 id="path13772"
                 inkscape:connector-curvature="0"
                 style="fill:#585658;fill-opacity:1" /><path
                 d="m 21.709,60.588 0.975,0.04 c 0.421,0.995 0.832,1.613 1.078,2.271 0.135,0.325 0.266,0.642 0.409,0.987 0.164,0.335 0.383,0.675 0.633,1.077 -0.031,0.187 -0.218,0.031 -0.314,-0.05 0.413,0.533 0.769,1.298 1.264,1.917 0.493,0.62 0.984,1.185 1.432,1.445 0.208,0.37 0.8,1.336 0.296,1.213 0.202,0.102 0.421,0.226 0.561,0.423 -0.198,0.265 -0.432,-0.336 -0.642,-0.17 0.114,0.156 0.117,0.254 0.223,0.218 -0.432,-0.057 -0.584,0.99 -1.628,-0.177 0.196,-0.938 0.787,0.745 1.192,-0.069 -0.336,-0.374 -0.545,-0.123 -0.653,-0.089 -0.409,-0.506 -0.207,-0.645 -0.046,-0.73 -0.35,-0.038 -0.545,-0.906 -1.067,-0.944 -0.809,-0.965 0.552,-0.314 0.054,-0.955 0,0 -0.245,0.027 -0.491,0.054 -0.25,0.028 -0.487,0.044 -0.487,0.044 L 23.925,65.83 c -0.643,-0.769 -0.929,-0.532 -1.247,-0.308 -0.298,0.21 -0.72,0.461 -1.466,-0.507 0.524,0.074 0.777,-1.13 0.473,-2.16 0.335,0.562 1.265,1.403 1.482,2.213 -0.022,-1.304 0.897,1.31 1.236,0.412 -0.589,-0.292 -1.169,-1.059 -1.271,-1.825 l 0.172,0.18 c -0.244,-0.73 -1.313,-0.885 -1.472,-2.006 -0.206,-0.497 0.05,-0.49 0.265,-0.477 -0.268,-0.375 -0.563,-0.698 -0.388,-0.764 z m 0.557,1.022 c -0.021,0.008 0.226,0.674 0.226,0.674 0.057,-0.21 -0.077,-0.437 -0.226,-0.674 z"
                 id="path13774"
                 inkscape:connector-curvature="0"
                 style="fill:#585658;fill-opacity:1" /><path
                 d="m 84.224,29.287 c 0.029,0.092 0.063,0.196 0.09,0.28 0.001,-0.073 -0.04,-0.175 -0.09,-0.28 z"
                 id="path13776"
                 inkscape:connector-curvature="0"
                 style="fill:#585658;fill-opacity:1" /><path
                 d="m 14.663,30.501 0.309,-0.458 c -0.137,0.169 -0.231,0.319 -0.309,0.458 z"
                 id="path13778"
                 inkscape:connector-curvature="0"
                 style="fill:#585658;fill-opacity:1" /><path
                 d="m 20.282,18.738 0.502,-0.726 c -0.244,0.239 -0.387,0.477 -0.502,0.726 z"
                 id="path13780"
                 inkscape:connector-curvature="0"
                 style="fill:#585658;fill-opacity:1" /><path
                 d="M 80.467,23.967 80.454,23.943 C 80.413,23.919 80.376,23.906 80.335,23.879 Z"
                 id="path13782"
                 inkscape:connector-curvature="0"
                 style="fill:#585658;fill-opacity:1" /><path
                 d="m 44.055,9.29 c 0.134,0.052 0.282,0.095 0.478,0.116 -0.034,-0.08 -0.21,-0.114 -0.478,-0.116 z"
                 id="path13784"
                 inkscape:connector-curvature="0"
                 style="fill:#585658;fill-opacity:1" /><path
                 d="m 20.191,18.871 c 0.021,-0.01 0.033,-0.016 0.049,-0.024 l 0.042,-0.11 z"
                 id="path13786"
                 inkscape:connector-curvature="0"
                 style="fill:#585658;fill-opacity:1" /><path
                 d="m 10.074,34.553 c -0.018,0.128 -0.039,0.242 -0.051,0.382 0.046,-0.172 0.054,-0.284 0.051,-0.382 z"
                 id="path13788"
                 inkscape:connector-curvature="0"
                 style="fill:#585658;fill-opacity:1" /><path
                 d="m 12.585,34.69 c -0.024,0.128 -0.042,0.251 -0.041,0.354 z"
                 id="path13790"
                 inkscape:connector-curvature="0"
                 style="fill:#585658;fill-opacity:1" /><path
                 d="m 8.092,53.525 0.164,0.759 C 8.221,53.907 8.161,53.685 8.092,53.525 Z"
                 id="path13792"
                 inkscape:connector-curvature="0"
                 style="fill:#585658;fill-opacity:1" /><path
                 d="m 11.383,36.353 c 0.022,0.054 0.042,0.108 0.069,0.148 0.01,-0.106 -0.02,-0.169 -0.069,-0.148 z"
                 id="path13794"
                 inkscape:connector-curvature="0"
                 style="fill:#585658;fill-opacity:1" /><path
                 d="M 84.118,34.464 C 84.11,34.45 84.102,34.436 84.097,34.427 L 84,34.453 Z"
                 id="path13796"
                 inkscape:connector-curvature="0"
                 style="fill:#585658;fill-opacity:1" /><path
                 d="m 85.932,35.539 c 0.092,0.184 0.188,0.375 0.282,0.563 -0.076,-0.221 -0.179,-0.424 -0.282,-0.563 z"
                 id="path13798"
                 inkscape:connector-curvature="0"
                 style="fill:#585658;fill-opacity:1" /><path
                 d="m 54.839,10.502 c 0.178,0.15 0.605,0.363 0.378,0.471 0.388,-0.121 0.424,-0.55 -0.378,-0.471 z"
                 id="path13800"
                 inkscape:connector-curvature="0"
                 style="fill:#585658;fill-opacity:1" /><path
                 d="m 77.984,34.096 c 0.149,0.024 0.287,0.081 0.424,0.141 -0.224,-0.129 -0.413,-0.242 -0.424,-0.141 z"
                 id="path13802"
                 inkscape:connector-curvature="0"
                 style="fill:#585658;fill-opacity:1" /><path
                 d="m 78.408,34.236 c 0.111,0.063 0.228,0.133 0.337,0.185 -0.107,-0.071 -0.222,-0.134 -0.337,-0.185 z"
                 id="path13804"
                 inkscape:connector-curvature="0"
                 style="fill:#585658;fill-opacity:1" /><path
                 d="m 49.939,17.219 c -0.04,-0.056 -0.102,-0.1 -0.185,-0.111 0.025,0.114 0.092,0.135 0.185,0.111 z"
                 id="path13806"
                 inkscape:connector-curvature="0"
                 style="fill:#585658;fill-opacity:1" /><path
                 d="m 86.261,36.625 c 0.225,0.023 1.586,2.481 0.889,0.263 0.606,-0.119 0.834,1.307 1.094,1.881 0.026,-0.485 0.445,0.107 0.626,-0.09 -0.16,-0.284 -0.401,-0.601 -0.551,-1.099 0.19,-0.316 0.666,0.369 0.696,1.012 0.123,-0.843 0.728,0.814 0.694,-0.322 -0.403,-1.112 -0.926,-1.999 -1.405,-2.791 -0.494,-0.788 -1.043,-1.449 -1.835,-1.973 0.174,0.28 0.354,0.568 0.533,0.856 0.15,0.302 0.295,0.609 0.426,0.915 0.262,0.61 0.465,1.215 0.528,1.759 l -0.667,-0.241 c 0.021,-0.641 -0.12,-1.112 -0.308,-1.556 -0.18,-0.449 -0.425,-0.865 -0.671,-1.401 0,0 0.055,0.157 0.137,0.391 0.092,0.23 0.175,0.554 0.252,0.878 0.16,0.644 0.32,1.289 0.32,1.289 -0.005,1.307 -0.386,0.564 -0.806,-0.294 0.075,0.223 0.118,0.434 0.048,0.523 z"
                 id="path13808"
                 inkscape:connector-curvature="0"
                 style="fill:#585658;fill-opacity:1" /><path
                 d="m 81.262,36.848 -0.001,0.042 c 0.029,0.024 0.054,0.057 0.083,0.068 z"
                 id="path13810"
                 inkscape:connector-curvature="0"
                 style="fill:#585658;fill-opacity:1" /><path
                 d="m 19.058,52.506 0.213,0.16 c -0.1,-0.139 -0.166,-0.181 -0.213,-0.16 z"
                 id="path13812"
                 inkscape:connector-curvature="0"
                 style="fill:#585658;fill-opacity:1" /><path
                 d="m 83.066,34.515 10e-4,0.002 c -0.013,-0.012 -0.014,-0.016 -10e-4,-0.002 z"
                 id="path13814"
                 inkscape:connector-curvature="0"
                 style="fill:#585658;fill-opacity:1" /><path
                 d="m 19.072,48.085 c 0.014,0.007 0.029,0.014 0.045,0.026 -0.016,-0.017 -0.032,-0.018 -0.045,-0.026 z"
                 id="path13816"
                 inkscape:connector-curvature="0"
                 style="fill:#585658;fill-opacity:1" /><path
                 d="m 7.453,45.748 c -0.025,0.009 -0.049,0.01 -0.076,0.034 0.023,0.133 0.052,0.072 0.076,-0.034 z"
                 id="path13818"
                 inkscape:connector-curvature="0"
                 style="fill:#585658;fill-opacity:1" /><path
                 d="m 19.021,48.078 c 0.016,10e-4 0.033,-0.001 0.051,0.006 -0.018,-0.004 -0.035,-0.012 -0.051,-0.006 z"
                 id="path13820"
                 inkscape:connector-curvature="0"
                 style="fill:#585658;fill-opacity:1" /><path
                 d="m 25.911,27.382 c 0,0 -0.117,-0.011 -0.26,0.013 0.008,0.067 0.081,0.075 0.26,-0.013 z"
                 id="path13822"
                 inkscape:connector-curvature="0"
                 style="fill:#585658;fill-opacity:1" /><path
                 d="m 22.391,30.405 c -0.034,0.012 -0.059,0.015 -0.1,0.033 z"
                 id="path13824"
                 inkscape:connector-curvature="0"
                 style="fill:#585658;fill-opacity:1" /><path
                 d="M 53.78,7.919 C 53.496,7.895 53.281,7.897 53.099,7.911 53.306,7.935 53.53,7.946 53.78,7.919 Z"
                 id="path13826"
                 inkscape:connector-curvature="0"
                 style="fill:#585658;fill-opacity:1" /><path
                 d="m 19.117,48.111 c 0.055,0.048 0.112,0.114 0.18,0.221 -0.073,-0.118 -0.13,-0.182 -0.18,-0.221 z"
                 id="path13828"
                 inkscape:connector-curvature="0"
                 style="fill:#585658;fill-opacity:1" /><path
                 d="m 29.53,20.62 c -0.03,0.048 -0.058,0.094 -0.086,0.139 l 0.087,-0.031 z"
                 id="path13830"
                 inkscape:connector-curvature="0"
                 style="fill:#585658;fill-opacity:1" /><path
                 d="m 31.888,19.594 c -0.042,0.098 -0.043,0.173 -0.055,0.246 0.326,-0.329 0.872,-0.66 1.326,-0.975 0.477,-0.273 0.857,-0.548 0.817,-0.849 -0.136,0.074 -0.603,0.208 -1.03,0.274 -0.418,0.08 -0.782,0.122 -0.749,-0.102 -0.478,0.459 -1.505,0.609 -1.756,0.873 1.077,-0.284 0.353,0.357 -0.141,0.886 -0.645,0.194 -0.152,-0.452 -0.69,-0.251 l -1.174,0.953 1.095,-0.723 v 0.695 c 0.027,-0.044 0.046,-0.074 0.075,-0.123 1.68,-1.419 0.594,0.565 2.282,-0.904 z"
                 id="path13832"
                 inkscape:connector-curvature="0"
                 style="fill:#585658;fill-opacity:1" /><path
                 d="m 31.833,19.84 c -0.097,0.1 -0.175,0.197 -0.222,0.295 0.168,-0.112 0.205,-0.201 0.222,-0.295 z"
                 id="path13834"
                 inkscape:connector-curvature="0"
                 style="fill:#585658;fill-opacity:1" /><path
                 d="m 40.082,17.142 c 0.099,-0.045 0.204,-0.098 0.334,-0.176 -0.064,0.033 -0.207,0.109 -0.334,0.176 z"
                 id="path13836"
                 inkscape:connector-curvature="0"
                 style="fill:#585658;fill-opacity:1" /><path
                 d="m 20.058,68.261 c 0.118,-0.122 -0.23,-1.344 -0.592,-1.114 0.154,0.338 0.309,0.679 0.464,1.022 z"
                 id="path13838"
                 inkscape:connector-curvature="0"
                 style="fill:#585658;fill-opacity:1" /><path
                 d="m 63.836,15.898 c -0.132,-0.062 -0.267,-0.117 -0.407,-0.161 -0.037,0.009 -0.074,0.021 -0.104,0.033 0.061,0.089 0.359,0.115 0.511,0.128 z"
                 id="path13840"
                 inkscape:connector-curvature="0"
                 style="fill:#585658;fill-opacity:1" /><path
                 d="m 32.442,17.803 c -0.173,0.181 -0.23,0.295 -0.246,0.384 0.116,-0.109 0.21,-0.231 0.246,-0.384 z"
                 id="path13842"
                 inkscape:connector-curvature="0"
                 style="fill:#585658;fill-opacity:1" /><path
                 d="m 63.529,16.868 c 0.123,0.177 0.301,0.433 0.268,0.605 0.326,0.162 0.647,0.067 1.017,0.157 -0.413,-0.111 -0.81,-0.412 -1.285,-0.762 z"
                 id="path13844"
                 inkscape:connector-curvature="0"
                 style="fill:#585658;fill-opacity:1" /><path
                 d="M 64.845,17.636 64.814,17.63 c 0.01,0.004 0.02,0.004 0.031,0.006 z"
                 id="path13846"
                 inkscape:connector-curvature="0"
                 style="fill:#585658;fill-opacity:1" /><path
                 d="m 20.29,68.993 c 0.081,0.077 0.163,0.156 0.248,0.236 l -0.185,-0.086 c 0.12,0.266 0.215,0.547 0.353,0.802 0.085,0.068 0.174,0.144 0.27,0.246 -0.046,-0.036 -0.109,-0.045 -0.164,-0.04 l 0.126,0.251 c 0.785,0.298 2.033,1.464 2.542,1.662 0.577,0.35 1.176,0.848 1.477,1.232 -0.296,-0.339 -0.765,-0.722 -0.828,-0.427 0.215,0.426 0.265,0.849 0.457,1.264 0.19,0.415 0.514,0.836 1.346,1.133 0,0 -0.176,-0.157 -0.353,-0.314 -0.179,-0.155 -0.346,-0.32 -0.346,-0.32 0,0 0.13,0.058 0.343,0.124 0.208,0.068 0.486,0.16 0.763,0.251 0.546,0.175 1.091,0.349 1.091,0.349 0.278,0.786 -1.083,-0.344 -1.542,-0.297 0.77,0.382 1.188,1.027 1.568,1.578 0.362,0.569 0.772,0.929 1.317,0.847 -0.214,0.449 -0.562,1.206 0.365,1.839 -0.314,-0.93 0.737,0.105 0.56,-0.771 0.452,0.005 0.878,0.864 1.147,0.574 l -0.198,0.116 c 1.189,1.615 2.336,0.926 3.189,0.94 2.042,0.755 2.783,1.528 4.504,2.012 -0.05,0.33 0.113,1.348 0.821,1.571 0.452,-0.276 2.103,-0.111 2.392,-0.608 -1.165,-0.544 -1.133,0.201 -1.923,0.135 -0.42,-0.788 0.119,-0.583 -0.576,-1.216 0.561,0.547 3.075,0.536 3.674,1.295 L 42.45,83.38 c 0.548,0.335 0.827,0.81 1.248,1.159 0.417,0.353 0.99,0.581 2.075,0.318 0,0 0.255,-0.049 0.51,-0.097 0.253,-0.045 0.509,-0.134 0.509,-0.134 -0.053,0.054 -0.064,0.12 -0.094,0.169 1.607,0.139 1.147,0.761 2.962,0.345 -0.139,0.032 -0.053,0.099 -0.195,0.13 1.033,0.375 2.063,-0.398 2.813,-0.544 0.502,0.448 -0.079,0.47 -0.358,0.826 1.863,0.177 3.708,-1.058 4.67,-1.754 0,0 0.074,0.006 0.184,0.016 0.112,0.014 0.258,0.02 0.403,0.013 0.292,-0.004 0.584,-0.008 0.584,-0.008 -0.605,0.39 -1.353,0.988 -1.092,1.237 0.626,-0.185 0.453,-0.392 1.356,-0.528 -0.083,0.331 -0.392,0.711 -0.746,1.181 1.995,0.023 0.175,-1.148 1.699,-0.579 0.591,-0.146 0.812,-0.659 0.773,-1.026 0,0 1.184,0.197 1.179,0.165 -0.025,-0.485 1.209,-0.967 1.998,-1.33 0.023,-0.222 -0.829,-0.225 -1.071,0.055 -0.061,-0.367 0.724,-0.838 1.27,-1.028 0.604,0.867 3.378,-1.764 3.278,-0.423 0.582,-0.331 1.153,-0.817 1.771,-1.247 0.602,-0.457 1.262,-0.855 1.819,-1.351 0.56,-0.491 1.092,-0.965 1.555,-1.4 0.227,-0.221 0.44,-0.429 0.637,-0.62 0.175,-0.215 0.327,-0.417 0.454,-0.601 0.595,-0.178 1.478,-0.961 1.265,-0.149 0.399,-0.361 0.707,-0.724 0.968,-1.081 0.253,-0.366 0.425,-0.762 0.621,-1.128 0.37,-0.754 0.801,-1.422 1.552,-2.156 0.098,-0.032 -0.038,0.162 -0.17,0.376 -0.147,0.202 -0.283,0.43 -0.134,0.508 0.339,-0.616 0.734,-1.093 1.28,-1.587 0.264,-0.254 0.547,-0.525 0.832,-0.852 0.142,-0.163 0.287,-0.339 0.425,-0.535 0.121,-0.207 0.239,-0.433 0.351,-0.68 -0.173,0.318 -0.059,0.52 -0.002,0.62 -0.153,-0.058 0.179,-0.942 0.332,-1.495 0.234,-0.223 -0.115,0.416 0.081,0.331 1.345,-1.624 1.901,-3.442 2.401,-5.19 0.188,-0.904 0.36,-1.802 0.574,-2.705 0.184,-0.914 0.303,-1.866 0.581,-2.838 -0.3,1.109 0.214,1.708 0.465,1.794 l 0.3,-1.121 c -0.215,-0.511 0.054,-1.337 -0.113,-2.1 0.133,-0.064 0.314,-0.39 0.41,-0.008 0.483,-1.076 0.364,-2.016 0.127,-2.986 -0.287,-0.983 -0.612,-1.984 -0.372,-3.344 0,0 0.283,0.842 0.565,1.683 0.282,0.873 0.565,1.745 0.565,1.745 L 86.04,52.61 c 0,0 0.128,0.395 0.256,0.791 0.145,0.4 0.211,0.798 0.211,0.798 0.493,-0.888 -0.354,-1.765 0.16,-1.838 0.128,0.205 0.06,0.675 0.322,0.712 0.237,-0.886 -0.123,-0.982 -0.185,-1.655 0.987,1.814 0.515,5.399 0.253,7.308 0.001,0.312 -0.17,-0.307 -0.255,-0.379 -0.162,0.766 -0.578,1.139 -0.656,2.132 0.251,0.71 0.415,-0.366 0.579,-0.827 0.337,0.158 0.254,0.392 0.17,0.938 -0.418,0.002 -1.111,2.8 -1.912,3.234 -0.409,1.381 -0.162,1.371 0.167,1.376 0.302,-0.007 0.568,-0.04 -0.153,1.217 l -0.874,0.527 c -0.082,0.419 -0.183,0.868 -0.302,1.331 -0.149,0.447 -0.332,0.901 -0.528,1.358 -0.415,0.898 -0.828,1.852 -1.464,2.566 l 0.224,-0.331 c -0.039,-0.347 -0.422,-0.078 -0.637,0.005 -1.046,0.975 -1.238,2.454 -2.247,2.735 -0.313,0.788 -0.85,1.765 -1.451,2.751 -0.639,0.947 -1.397,1.846 -1.996,2.608 -0.861,-0.226 1.428,-2.107 1.633,-2.985 0,0 -0.071,0.078 -0.178,0.195 -0.117,0.107 -0.272,0.249 -0.427,0.391 -0.311,0.284 -0.622,0.569 -0.622,0.569 0.764,-0.709 0.885,-1.177 0.984,-1.936 -1.082,0.961 -1.045,1.686 -1.945,2.79 -0.051,-0.224 -0.27,-0.192 -0.748,0.233 l 0.177,0.498 c -0.033,-0.021 -0.11,-0.002 -0.291,0.092 l -1.824,1.738 c 0.55,-0.148 0.824,0.178 1.357,-0.214 -0.36,-0.086 0.051,-0.465 0.579,-0.852 -0.263,0.594 0.685,-0.171 0.836,0.03 -1.063,0.801 -2.338,1.824 -2.967,2.459 l -0.491,-0.223 c -1.134,0.561 -2.145,1.467 -2.944,1.795 l 0.114,-0.349 c -1.381,0.587 -2.615,1.471 -3.993,1.628 -1.055,0.919 -2.502,1.969 -3.438,2.786 -0.209,0.355 -1.253,0.439 -2.384,0.569 -1.125,0.18 -2.379,0.176 -3.085,0.715 -0.111,-0.046 0.991,-0.594 1.463,-0.891 -1.018,0.068 -1.723,0.906 -2.128,0.348 2.297,-0.142 -0.192,-0.464 0.796,-0.791 -1.044,0.152 -2.126,0.488 -2.633,0.695 1.72,-0.171 -0.529,0.956 1.193,0.452 -0.646,0.389 -1.452,0.57 -2.299,0.715 -0.848,0.13 -1.741,0.189 -2.567,0.106 0.017,-0.263 -0.186,-0.395 -0.793,-0.533 l -0.504,0.359 c -0.762,-0.107 1.493,-0.381 -0.04,-0.592 -0.799,0.271 -2,0.173 -3.067,0.011 -1.069,-0.182 -2.029,-0.283 -2.483,0.259 -1.115,-0.655 2.361,-0.128 0.651,-0.982 1.097,-0.286 2.457,0.468 2.862,-0.164 -1.028,0.115 -0.318,-0.535 -0.958,-0.617 l -1.158,0.205 0.243,0.06 c -1.97,0.346 -4.903,-0.586 -7.226,-1.288 -1.069,-0.065 -2.032,-0.022 -3.032,-0.086 -0.971,-0.128 -1.971,-0.391 -3.113,-0.98 0.423,0.007 -0.018,-0.302 -0.338,-0.596 -0.317,-0.305 -0.506,-0.597 0.345,-0.511 -0.861,-0.831 -2.003,-1.128 -2.171,-0.909 0.833,0.612 0.265,0.26 0.944,0.823 -0.662,-0.024 -1.83,-0.751 -2.189,-1.218 0.208,0.154 0.158,0.052 0.261,-0.003 -0.931,-0.824 -0.678,-0.044 -1.487,-0.458 0.03,-0.534 -1.52,-1.283 -2.029,-1.958 0,0 -0.347,-0.041 -0.663,-0.127 -0.325,-0.078 -0.651,-0.157 -0.651,-0.157 0.762,0.123 -0.751,-0.886 -0.628,-1.298 -0.817,-0.362 -1.762,-0.439 -2.548,-1.515 0.523,0.249 -0.576,-1.102 -0.27,-1.4 -0.296,-0.478 -0.649,-0.837 -1.032,-1.143 -0.352,-0.332 -0.734,-0.61 -1.113,-0.893 -0.744,-0.571 -1.522,-1.144 -1.852,-2.203 0.119,0.002 0.573,0.208 0.341,-0.376 -0.353,-0.347 -0.753,-1.1 -1.061,-1.52 l 0.019,0.008 -0.024,-0.017 c -0.152,-0.205 -0.28,-0.316 -0.373,-0.27 -0.409,-0.279 -0.775,-0.464 -1.178,-0.76 -0.378,-0.311 -0.799,-0.729 -1.351,-1.467 -0.373,0.325 0.439,1.653 0.916,2.143 l 0.714,0.252 c -0.356,0.837 0.95,1.323 0.952,1.8 -0.645,-0.228 -1.338,-1.051 -2.042,-1.992 -0.65,-0.972 -1.252,-2.089 -1.912,-2.842 -0.059,0.667 0.17,1.6 0.553,2.614 0.367,1.022 1.054,2.029 1.656,2.98 l -0.265,-0.999 0.618,0.996 -0.145,-1.235 c 0.512,0.972 1.055,1.754 1.643,2.549 -0.712,-0.922 -0.314,-1.714 -0.084,-1.09 0.327,1.325 1.037,0.899 1.58,1.693 -0.288,-0.459 -0.697,-1.024 -0.202,-0.826 0.686,1.86 1.225,2.092 1.948,3.773 0.461,-0.7 1.532,1.564 2.188,1.289 L 19.85,78.682 c 0,0 0.374,0.226 0.747,0.452 0.375,0.221 0.78,0.405 0.78,0.405 0.696,1.535 -1.502,-0.458 -0.05,1.504 1.603,1.564 2.09,0.896 3.51,1.864 -0.373,0.021 -0.9,-0.095 -1.476,-0.328 -0.563,-0.249 -1.138,-0.66 -1.662,-1.136 l 0.484,0.751 c -0.514,-0.101 -1.971,-1.456 -2.637,-2.182 0.764,0.388 0.663,0.215 0.339,-0.143 -0.308,-0.375 -0.825,-0.959 -0.912,-1.376 -0.437,0.213 0.324,0.941 -0.785,0.277 0.808,0.839 0.892,0.989 1.851,2.127 -1.088,-1.174 -1.809,-1.482 -2.57,-1.716 -0.371,-0.125 -0.732,-0.247 -1.102,-0.49 -0.379,-0.235 -0.75,-0.606 -1.096,-1.251 0.963,0.923 0.246,-0.788 0.338,-1.045 -0.413,-0.454 -1.246,-1.388 -1.646,-1.737 l -0.275,0.761 c -0.638,-0.582 -0.673,-1.245 -0.791,-1.872 -0.114,-0.634 -0.276,-1.251 -1.072,-1.901 -0.481,-0.015 0.759,1.522 0.513,1.263 -1.787,-2.032 -1.154,-3.483 -1.691,-5.726 -0.228,-0.043 -0.649,0.175 -1.267,-0.452 0.469,0.08 0.433,-0.547 1.049,0.173 -0.138,-0.77 -0.708,-1.515 -1.096,-2.1 0.333,1.596 -0.772,-0.416 -1.105,-0.631 -0.221,-0.818 0.47,0.116 0.756,0.557 -0.131,-0.673 0.17,-1.597 -0.535,-1.772 0.4,-0.141 1.691,1.4 2.211,2.481 l -0.217,-0.788 c 0.397,0.45 0.374,0.566 0.593,1.347 0.031,-0.863 0.4,-0.917 0.744,-0.862 -0.023,0.118 -0.113,-0.016 -0.137,0.098 0.115,0.64 0.407,1.047 0.562,0.82 0.741,0.297 0.003,-0.947 0.139,-1.453 -0.146,-0.286 -0.292,-0.572 -0.435,-0.852 0,0 -0.714,-0.623 -1.429,-1.246 C 9.799,61.852 9.158,61.146 9.158,61.146 8.606,59.792 8.815,59.062 8.91,57.954 L 8.381,57.753 c -0.147,-1.257 -0.165,-2.44 0.569,-1.739 -0.156,0.067 -0.092,0.224 -0.075,0.493 0.071,0.025 0.127,0.078 0.177,0.149 0.032,0.021 0.063,0.03 0.094,0.047 -0.362,-1.285 -0.587,-2.087 -0.609,-2.163 1.037,2.129 0.901,10e-4 1.822,0.274 0,0 -0.038,-0.133 -0.094,-0.332 C 10.205,54.283 10.131,54.017 10.09,53.746 9.99,53.205 9.89,52.664 9.89,52.664 9.685,54.015 9.466,52.721 9.324,52.247 9.818,52.092 9.203,50.466 9.295,49.681 l 0.098,0.058 C 9.595,49.022 9.609,47.773 9.524,46.867 9.366,46.901 8.593,45.672 8.236,45.044 7.845,46.606 7.789,45.652 7.453,45.745 7.485,45.58 7.548,45.284 7.487,45.242 7.382,45 7.257,45.537 7.089,45.567 7.209,47.318 7.195,49.099 7.848,49.793 8.18,49.279 7.592,48.9 7.827,48.321 c 0.209,0.43 0.279,0.908 0.288,1.457 0.02,0.549 0.042,1.166 0.067,1.866 l -0.387,0.479 0.297,1.403 C 7.844,52.952 7.433,53.344 7.275,51.839 c -0.377,0.212 0.163,1.493 0.088,2.423 0,0 0.148,0.104 0.295,0.207 0.152,0.102 0.305,0.203 0.305,0.203 -0.329,-0.151 -0.097,1.82 -0.714,0.475 0,0 -0.049,-0.14 -0.121,-0.349 C 7.05,54.589 6.959,54.308 6.896,54.023 6.753,53.453 6.61,52.882 6.61,52.882 L 6.274,53.558 6.067,51.581 6.371,52.037 C 5.867,48.867 7.331,51.098 6.814,47.933 6.229,46.914 6.116,45.8 6.617,43.88 c -0.064,1.425 0.439,0.206 0.739,0.779 0.483,-1.368 0.02,-1.921 -0.116,-2.711 0.4,-0.298 0.718,-0.494 0.472,0.75 0.7,0.286 0.114,-1.677 0.927,-1.627 C 9.136,39.062 8.759,38.094 8.546,37.038 8.405,36.015 8.39,34.86 9.75,32.7 l 0.198,0.288 c 0.503,-1.507 1.05,-2.644 1.601,-3.735 0.626,-1.052 1.277,-2.05 1.947,-3.371 0,0 0.116,-0.096 0.29,-0.241 0.187,-0.134 0.436,-0.312 0.685,-0.49 0.498,-0.347 0.995,-0.693 0.995,-0.693 -0.215,0.485 -0.546,1.9 0.134,1.605 -1.297,0.425 -1.622,1.614 -2.612,2.402 0.113,0.205 0.489,-0.134 0.704,-0.248 -0.368,0.605 -0.875,0.731 -1.217,1.621 0.142,0.022 0.853,-0.75 0.535,-0.048 0,0 -0.258,0.22 -0.501,0.453 -0.247,0.233 -0.494,0.466 -0.494,0.466 -0.543,1.651 0.665,1.256 -0.386,2.95 -0.238,-0.497 -0.475,-1.441 -0.224,-2.197 -0.488,0.8 0.307,-1.232 -0.292,-0.579 0.015,1.499 -0.821,1.831 -1.038,3.671 -0.01,-0.228 -0.107,-0.325 0.01,-0.752 l -1.147,2.351 c 0.285,-0.244 0.198,0.296 0.12,0.882 -0.066,0.592 -0.059,1.249 0.228,1.207 0.213,-0.646 0.375,-1.075 0.513,-1.404 0.126,-0.332 0.202,-0.572 0.284,-0.822 0.166,-0.499 0.358,-1.046 1.042,-2.432 -0.193,0.87 -0.056,2.122 0.257,2.771 -0.03,0.017 -0.061,0.052 -0.102,0.136 0.359,0.607 0.657,0.217 1.553,0.542 -0.157,-1.462 0.573,-2.136 0.934,-3.682 -0.327,-0.483 -1.042,0.541 -1.183,1.341 0,0 0.01,-0.09 0.026,-0.226 0.013,-0.137 0.038,-0.317 0.079,-0.491 0.073,-0.353 0.145,-0.706 0.145,-0.706 l 0.1,0.348 c 0,0 0.425,-0.784 0.851,-1.569 0.214,-0.39 0.427,-0.78 0.587,-1.072 0.152,-0.296 0.29,-0.473 0.29,-0.473 -0.317,0.594 -0.116,0.958 -0.074,1.368 0.222,-0.394 0.514,-0.746 0.905,-1.067 -0.487,-0.157 -0.762,-0.381 -0.523,-0.759 0.641,-0.948 1.224,-1.63 1.754,-2.118 0.538,-0.483 1.087,-0.731 1.552,-0.899 0.042,-0.075 0.088,-0.16 0.126,-0.228 -0.638,0.004 0.211,-1.826 0.255,-2.725 0.383,0.362 1.032,-0.673 1.674,-0.977 -0.213,-0.666 -1.14,-0.89 -2.076,-0.593 -0.65,1.546 -0.169,1.031 -0.019,2.108 l -1.067,2.3 -0.062,-0.725 c -0.955,0.858 -1.018,2.245 -1.499,1.825 0.003,-0.391 0.178,-0.805 0.404,-1.183 0.228,-0.378 0.456,-0.754 0.485,-1.144 l -0.689,0.542 c 0.39,-1.559 0.933,-0.262 1.664,-1.953 -0.814,0.2 0.06,-0.158 0.262,-0.992 -0.682,0.253 -1.8,2.642 -2.207,1.666 0.127,-0.503 0.827,-0.994 1.491,-1.536 0.66,-0.549 1.386,-1.063 1.462,-1.843 l 0.035,0.115 c 0.668,-0.649 1.019,-1.179 1.237,-1.646 0.223,-0.462 0.343,-0.827 0.487,-1.189 0.793,-0.328 1.334,-1.378 1.968,-1.991 l 0.154,0.217 c 0,0 0.2,-0.239 0.434,-0.438 0.228,-0.207 0.456,-0.415 0.456,-0.415 -0.181,0.709 -1.13,0.888 -1.866,1.66 l 0.423,0.279 c -1.278,0.389 -1.306,1.561 -1.632,2.514 0.646,-1.257 2.851,-2.462 2.462,-3.415 -0.01,-0.016 0.967,-0.14 0.967,-0.14 l 0.207,-0.381 c 0.732,-0.073 0.559,0.746 -0.277,1.572 -0.232,0.042 -0.348,0.064 -0.368,-0.056 -0.269,0.537 -0.386,1.155 -1.434,1.959 l 0.344,-0.665 c -1.283,1.05 -2.134,2.324 -2.149,3.058 0.426,-0.404 0.849,-0.806 1.269,-1.205 0.441,-0.376 0.879,-0.749 1.314,-1.119 0.875,-0.732 1.67,-1.525 2.567,-2.159 -0.167,-1.262 0.105,-2.242 -0.212,-3.29 0.289,-0.27 0.602,-0.57 0.949,-0.849 0.358,-0.261 0.736,-0.522 1.118,-0.762 0.765,-0.482 1.55,-0.886 2.226,-1.07 l -0.009,0.241 c 0.613,-0.257 1.155,-0.531 1.555,-0.871 0.748,-0.062 -0.184,0.694 0.318,0.614 l 1.85,-1.271 c 0.06,0.486 -1.605,1.286 -2.379,1.702 0.131,-0.107 0.397,-0.323 0.272,-0.332 -1.054,0.23 -2.245,1.962 -2.983,1.601 -0.37,0.363 0.616,-0.959 -0.865,-0.096 -1.131,0.376 -1.085,1.113 -1.06,1.351 0.116,0.192 1.681,-0.667 1.333,-0.07 0.72,-0.48 0.843,-0.954 1.927,-1.312 -0.73,0.477 -1.433,1.535 -2.045,1.429 -1.141,1.352 -0.17,2.253 0.465,1.843 -0.402,-0.244 2.295,-1.974 0.165,-1.274 0.282,-0.466 0.814,-0.938 1.396,-1.409 0.58,-0.475 1.208,-0.952 1.737,-1.355 l -0.007,0.115 1.409,-0.82 c -0.148,0.225 -0.538,0.543 -0.435,0.786 l 1.731,-1.613 c -0.481,0.492 -0.267,0.482 0.136,0.345 0.408,-0.128 1.036,-0.324 1.34,-0.33 0.075,-0.459 0.811,-1.044 -0.074,-0.966 -1.012,0.061 -0.448,0.398 -1.251,0.73 l 0.927,-1.024 0.123,0.021 0.529,-0.75 c 1.626,-0.552 -0.294,1.395 1.587,0.172 l -0.49,-0.579 c 2.485,-0.72 5.815,-0.654 7.519,-1.17 -0.43,0.474 -0.527,1.147 0.175,1.43 C 43.309,9.31 41.811,9.47 40.804,9.853 40.691,9.817 40.966,9.53 41.424,9.235 41.883,8.95 42.541,8.729 43.135,8.707 42.759,8.181 42.039,8.456 41.399,8.755 c -0.635,0.338 -1.203,0.66 -1.412,0.104 -1.524,0.177 -2.001,0.599 -2.413,0.965 -0.408,0.397 -0.746,0.754 -2.06,0.863 0.15,0.507 -0.588,0.49 -0.543,0.969 0.505,0.272 1.275,-0.019 2.134,-0.413 0.845,-0.433 1.851,-0.767 2.666,-0.845 -0.144,0.077 -0.431,0.232 -0.465,0.344 1.151,-0.137 1.576,-0.366 2.318,-0.755 L 41.513,9.951 c 1.285,-0.768 0.936,0.238 1.779,0.332 0.301,-0.126 1.445,-0.146 1.213,-0.501 0,0 0.383,0.069 0.766,0.138 0.381,0.067 0.758,0.152 0.758,0.152 L 45.9,9.489 c 0.839,-0.081 1.047,0.297 1.784,-0.1 L 47.69,8.862 c 0,0 -0.532,-0.018 -1.064,-0.036 C 46.359,8.818 46.092,8.81 45.892,8.804 45.691,8.795 45.559,8.813 45.559,8.813 c 1.057,-0.269 0.248,-0.53 1.436,-0.714 -1.29,0.646 0.965,0.24 1.115,0.724 L 48.969,8.484 48.75,8.635 C 49.437,8.888 49.558,8.369 50.359,8.466 49.423,8.15 48.776,7.854 47.584,8.275 c 0.858,-0.33 2.624,-0.785 3.062,-0.728 0.945,-0.178 1.588,0.256 2.452,0.362 -1.677,0.126 0.467,1.618 -2.778,1.083 0.061,-0.098 0.326,-0.063 0.427,0.004 -0.428,-0.74 -1.969,0.062 -2.647,0.355 0.195,0.378 -0.521,0.51 0.712,0.663 C 48.394,9.813 49.836,9.031 51.02,9.46 l -0.224,0.819 1.676,0.181 -0.159,0.031 c 0.59,0.571 1.8,-0.049 2.905,0.48 0.431,-0.085 1.431,0.052 2.171,0.08 0.742,0.013 1.222,-10e-4 0.629,-0.587 0.918,0.746 1.95,0.341 3.115,0.525 l -1.321,-0.691 c 1.83,-0.134 1.24,0.086 2.87,-0.429 0.068,0.265 0.304,0.548 -0.037,0.679 1.092,0.429 2.418,0.949 3.631,1.425 1.184,0.539 2.292,0.952 3.075,0.956 0.755,0.362 1.021,0.878 1.406,1.329 0.38,0.465 0.844,0.919 1.931,1.361 0.239,0.078 0.266,-0.132 0.38,-0.238 0.114,-0.108 0.323,-0.114 0.872,0.452 0.043,0.109 -1.535,-0.373 -0.131,0.587 1.343,0.236 2.107,1.92 3.586,2.6 0.467,0.732 1.588,1.641 1.014,1.8 -0.883,-0.963 -2.323,-2.132 -2.689,-2.119 0.338,-0.126 -0.555,-0.788 0.363,-0.389 -1.351,-1.497 -1.218,-0.528 -2.485,-1.797 -0.212,0.094 0.402,0.995 0.811,1.076 -0.402,0.534 -2.969,-1.757 -2.184,-0.181 1.406,1.138 2.77,0.306 3.566,1.897 -0.738,-0.113 -1.355,-0.964 -2.428,-0.879 l 0.866,0.995 c 0,0 1.07,0.17 1.056,0.192 l -0.107,0.04 c 1.27,2.028 2.072,0.854 3.817,2.112 -0.496,-1.243 1.056,-0.63 0.613,-1.519 1.067,1.004 1.716,1.877 1.207,2.336 -2.22,-1.59 -0.637,0.351 -2.793,-0.929 0.095,0.455 -1.082,0.302 -0.184,1.376 1.422,0.829 0.092,-0.752 1.33,0.269 0.018,0.111 0.038,0.226 -0.075,0.253 0.761,0.305 0.475,0.715 1.372,1.118 l -0.247,-0.068 c 0.383,1.093 1.107,0.651 1.326,1.678 0.181,-0.612 0.716,0.256 1.332,0.55 -0.432,-0.879 -0.128,-1.784 -1.4,-3.287 -0.467,0.086 -0.545,0.335 -1.223,-0.123 l 0.876,0.897 C 80.897,24.159 80.68,24.074 80.454,23.944 l -0.647,-1.026 c 1.241,0.938 1.098,0.136 1.861,0.353 0.789,1.202 0.818,0.859 1.269,1.65 -0.521,0.298 0.864,2.764 1.287,4.367 -0.109,-0.224 -0.288,-0.489 -0.365,-0.644 -0.917,-0.782 -0.006,0.941 -0.127,1.058 l 0.688,0.563 c -0.117,-0.115 -0.349,-0.23 -0.238,0.115 0.687,0.903 1.152,0.578 1.754,1.559 -0.257,0.219 -1.113,-0.41 -0.961,0.298 -0.147,0.352 -0.504,1.354 0.385,2.543 0.17,0.039 0.375,0.364 0.572,0.76 -0.038,-0.051 -0.076,-0.118 -0.107,-0.135 l 0.003,1.04 C 85.036,35.88 85.506,34.778 84.609,34.272 l -0.512,0.158 c -0.275,-0.567 -0.852,-1.235 -1.263,-1.456 0.33,0.892 0.54,1.007 1.101,1.919 -0.243,0.268 -0.79,-0.295 -0.868,-0.374 l 0.342,0.013 c -0.074,-0.659 -0.395,-1.033 -0.765,-1.41 -0.354,-0.388 -0.809,-0.752 -1.177,-1.431 -0.102,-0.21 0.005,-0.109 0.119,-0.115 -1.089,-0.796 -1.105,-2.259 -2.426,-2.813 l 0.463,0.152 C 78.922,28.398 77.626,27.361 76.15,26.59 l -0.162,0.129 c 0.023,0.21 -0.362,-0.224 -0.51,-0.512 l 0.003,-0.001 c -0.349,-0.201 -0.691,-0.398 -1.013,-0.584 -0.337,-0.163 -0.655,-0.317 -0.939,-0.455 0.055,0.221 0.161,0.462 0.347,0.67 0.359,-0.025 1.13,1.166 1.411,0.644 0.187,0.707 1.262,1.156 1.41,1.66 -0.144,-0.445 0.056,-0.418 0.33,-0.276 0.264,0.148 0.604,0.408 0.771,0.377 -0.096,0.452 0.811,1.04 0.365,1.224 0.007,0.212 -0.011,-0.532 -0.459,-0.664 -0.891,-0.465 0.695,1.569 -0.317,0.907 1.19,0.913 1.978,2.655 3.148,3.711 l -0.271,-0.812 c 0.337,0.579 1.078,1.981 0.934,2.183 -0.272,-0.417 -0.491,-0.956 -0.883,-1.461 -0.439,0.204 0.667,1.357 0.416,1.563 l 1.592,1.292 -0.328,-0.747 c 0.569,0.312 0.799,2.08 1.152,3.282 -0.466,-0.223 -0.631,-0.658 -0.772,-1.189 -0.142,-0.528 -0.239,-1.164 -0.683,-1.688 -0.661,-0.739 -0.383,0.808 -0.927,0.08 -0.057,0.277 0.221,0.776 0.496,0.968 l -0.003,0.376 c -0.865,-0.485 -1.546,-2.076 -2.513,-2.845 0.105,0.056 0.207,0.099 0.288,0.092 -0.195,-0.89 -0.706,-1.645 -1.286,-2.29 0.059,0.499 0.27,0.575 0.47,0.758 -0.122,0.111 -0.6,-0.542 -0.907,-0.702 0.245,0.776 -0.25,0.335 -0.087,0.814 -0.407,-0.34 -0.534,-0.74 -0.853,-1.268 0.011,-0.397 0.441,0.018 0.67,-0.216 -0.546,-0.4 -0.096,-1.095 -0.969,-1.637 0.646,1.093 -0.765,0.159 -1.18,-0.037 l 0.105,0.18 c -0.522,-0.083 -0.736,-0.319 -0.662,-0.736 0.477,0.256 0.654,0.744 0.878,0.379 C 75.01,29.49 74.768,29.254 74.42,29.052 l 0.447,0.075 -1.191,-1.186 c -0.429,0.035 -1.069,0.046 -1.576,0.235 -0.038,-0.507 -0.646,-0.665 -0.989,-0.828 l 0.223,0.011 c -0.341,-0.679 -1.648,-1.615 -1.975,-1.409 -0.059,-0.127 0.165,-0.153 0.492,-0.146 0.319,0.017 0.719,0.097 1.051,0.116 0.65,0.057 1.015,-0.147 -0.511,-1.25 -1.146,-0.849 -1.3,0.236 -2.125,0.035 0,0 0.093,-0.054 0.068,-0.151 -0.445,-0.413 -0.689,-0.172 -1.185,-0.306 0.223,0.305 0.611,0.642 0.83,0.621 -0.189,0.11 -0.428,-0.081 -0.689,-0.304 -0.267,-0.213 -0.585,-0.416 -0.86,-0.403 0.84,-0.219 -0.854,-0.794 -0.294,-0.829 -0.411,-0.468 -0.935,-0.814 -1.488,-0.932 -0.554,-0.119 -1.085,-0.109 -1.459,-0.036 -0.391,-1.056 -1.28,-0.547 -2.367,-1.287 0.178,0.09 0.561,0.104 0.793,0.276 0.89,-0.205 -1.182,-0.703 0.07,-0.731 -0.262,-0.013 -0.113,0.239 0.154,0.252 0.445,0.08 0.9,0.091 0.891,-0.171 0,0 -0.194,-0.239 -0.416,-0.42 -0.218,-0.195 -0.437,-0.39 -0.437,-0.39 l 0.409,0.02 -1.384,-1.15 c -0.076,0.078 0.034,0.25 0.089,0.337 -0.444,-0.223 -0.907,-0.46 -1.404,-0.604 -0.5,-0.134 -1.012,-0.249 -1.515,-0.358 -0.503,-0.108 -0.998,-0.214 -1.474,-0.316 -0.484,-0.055 -0.946,-0.118 -1.37,-0.203 -0.278,0.691 -1.314,0.599 -2.485,0.613 -1.171,0.049 -2.472,-0.072 -3.137,0.407 0.352,-0.426 0.562,-1.131 0.33,-1.418 0.307,-0.055 0.963,-0.575 1.68,-0.424 0.107,0.23 0.963,0.527 0.385,0.755 1.96,-0.066 -0.22,-0.624 0.389,-1.115 -1.117,0.031 -2.003,0.164 -2.765,0.466 -0.763,0.304 -1.405,0.624 -2.068,0.821 L 47.51,17.562 c 0,0 -0.996,0.342 -0.989,0.377 0.416,-0.011 0.634,0.228 0.609,0.396 -0.024,0.184 -0.286,0.291 -0.816,0.252 l 0.121,-0.059 c -0.634,-0.236 -1.818,0.342 -2.746,0.425 -0.007,-0.018 -0.515,0.599 -0.515,0.599 -0.9,0.182 -1.151,-0.636 -1.585,-1.051 -1.503,0.269 -2.081,1.322 -2.907,2.045 -0.281,-0.079 -0.974,-0.006 -1.437,0.103 -0.469,0.09 -0.767,0.084 -0.322,-0.383 -0.546,0.447 -0.539,1.088 -0.703,1.612 -0.082,0.262 -0.207,0.494 -0.467,0.659 -0.13,0.082 -0.295,0.148 -0.507,0.192 -0.204,0.06 -0.449,0.111 -0.757,0.136 l 0.323,-0.62 c -0.453,0.301 -0.935,0.665 -1.417,1.04 -0.48,0.378 -0.976,0.744 -1.381,1.173 -0.833,0.823 -1.612,1.444 -2.091,1.641 -0.208,-1.526 -2.902,0.822 -4.079,0.278 0.282,0.118 -0.227,0.825 -0.197,1.021 -0.234,0.037 -0.554,0.176 -0.583,0.595 0.783,-0.484 0.568,1.327 1.307,-0.246 0.081,1.236 -0.176,2.368 -1.21,3.781 l -0.407,-0.337 0.967,-1.033 c -0.403,-0.144 0.103,-0.673 0.177,-1.009 -0.516,0.434 -0.797,0.608 -0.969,0.643 -0.181,0.029 -0.268,-0.094 -0.346,-0.209 -0.157,-0.231 -0.278,-0.427 -1.095,0.724 0.112,0.42 0.104,0.197 -0.223,0.857 0.19,-0.282 -0.066,-0.546 -0.406,-0.105 l 0.027,0.662 c -0.609,0.179 -0.55,-0.265 -0.367,-0.663 0.167,-0.405 0.376,-0.814 -0.133,-0.65 0.324,-1.132 1.341,-2.851 0.623,-2.978 -1.367,1.343 -0.029,2.117 -1.427,3.467 l -0.344,0.017 c -0.191,0.692 0.145,1.032 0.195,1.491 -0.155,-0.057 -0.347,0.023 -0.612,0.367 0.008,0.661 -0.089,1.137 -0.094,1.644 -0.008,0.504 -0.002,0.997 0.115,1.607 0.163,-0.657 0.335,-1.106 0.512,-1.443 0.196,-0.327 0.416,-0.533 0.622,-0.748 0.431,-0.42 0.817,-0.858 1.364,-2.134 -0.09,0.462 -0.908,2.209 -0.347,2.656 l -0.444,-0.287 c -0.257,0.866 -0.344,1.779 -0.976,2.675 l 0.021,-0.727 c -0.146,0.734 -0.596,1.182 -0.961,1.645 -0.317,0.479 -0.569,0.962 -0.353,1.648 0.183,-0.362 0.279,-0.674 0.289,-0.938 -0.028,0.788 -0.416,1.628 -0.758,2.369 l 0.434,1.83 c -0.249,-0.08 -0.528,0.926 -0.808,0.345 -0.173,0.267 -0.266,0.514 -0.306,0.743 -0.015,0.234 0.019,0.45 0.072,0.651 0.105,0.402 0.285,0.746 0.298,1.091 -0.738,1.118 -0.088,-1.07 -0.789,-1.331 -0.246,0.826 -0.387,1.706 -0.427,2.495 0.01,0.796 0.178,1.507 0.382,1.993 0.124,-0.34 0.223,-0.5 0.35,-0.475 -0.168,0.04 -0.159,0.721 -0.185,1.098 l 0.328,0.266 c -0.267,0.618 -0.464,0.539 -0.692,-0.007 -0.137,0.615 0.62,1.317 0.142,1.954 -0.22,-0.509 -0.307,-1.104 -0.275,-1.633 0.036,-0.53 0.086,-0.995 -0.028,-1.273 0.108,1.096 -0.194,1.634 -0.381,2.271 -0.206,0.63 -0.435,1.369 -0.112,2.756 -0.157,0.054 -0.549,-0.392 -0.468,0.153 0.322,1.244 0.752,0.241 1.19,0.58 -0.383,-0.91 -0.183,-1.389 0.229,-1.964 l 0.29,0.228 c -0.136,0.048 -0.138,0.638 -0.242,0.823 l 0.587,0.088 c -0.635,-0.008 -0.96,0.996 -0.616,1.705 0.336,-0.815 0.344,-0.607 1.021,-0.905 0.837,0.884 -0.517,1.256 0.422,2.237 -0.244,-0.031 -0.551,-0.993 -0.552,-0.109 0.157,0.702 0.609,0.502 0.88,0.923 C 19.912,56.876 19.57,57.1 18.81,56.648 18.505,55.365 18.728,56.128 18.3,54.887 l -0.271,1.167 c -0.252,-1.111 -0.714,-0.726 -0.925,-0.787 -0.237,2.079 1.02,1.328 1.185,2.569 0.499,0.497 -0.22,-1.15 0.381,-0.327 0.214,1.138 0.4,0.178 0.934,1.357 l -0.283,-0.142 c -0.196,0.467 0.24,0.747 0.467,1.147 0.317,0.404 1.547,-1.061 2.245,0.737 -0.169,-0.037 -0.268,-0.038 -0.324,-0.017 0,0 -1.19,-0.058 -2.408,-0.188 -0.608,-0.063 -1.221,-0.14 -1.684,-0.205 -0.463,-0.064 -0.749,-0.121 -0.749,-0.121 0.351,1.075 0.777,2.216 1.138,3.436 0.511,1.155 0.921,2.42 1.458,3.639 -0.204,0.476 -0.626,0.168 -0.984,-0.257 -0.339,-0.433 -0.655,-0.952 -0.792,-0.791 l -0.382,-1.198 c 0.363,-0.087 1.225,2.283 1.317,0.992 -0.575,-0.913 -0.906,-1.627 -1.226,-2.324 -0.284,-0.716 -0.619,-1.387 -1.33,-2.239 -0.297,0.438 -0.022,1.079 0.303,1.786 0.171,0.35 0.321,0.732 0.481,1.095 0.162,0.363 0.273,0.735 0.271,1.113 -0.19,-0.544 -0.512,-0.929 -0.794,-1.323 0.436,1.211 0.908,2.526 1.494,3.892 l 0.353,0.182 c -0.462,-0.88 -0.617,-1.569 -0.65,-1.65 0.46,1.244 1.541,1.899 2.095,1.657 l -0.098,-0.205 0.406,0.291 z M 84.375,58.477 c 0.039,0.089 0.092,0.166 0.166,0.231 -0.077,-0.068 -0.147,-0.032 -0.166,-0.231 z M 12.977,44.959 c -0.085,0.441 -0.196,0.88 -0.271,1.324 l -0.164,1.337 c -0.098,0.89 -0.241,1.777 -0.269,2.645 1.353,-3.139 2.411,-5.012 2.155,-0.116 l 0.107,0.322 c 0.088,-0.645 0.234,-1.743 0.175,-2.79 -0.189,-0.432 -0.705,-1.376 -1.02,-2.233 -0.353,-0.857 -0.68,-1.638 -0.753,-1.634 -0.392,0.259 -0.086,0.777 -0.278,1.331 z m 2.246,-0.912 c 0.28,-0.923 -0.024,-0.758 -0.244,-0.954 -0.02,0.343 -0.041,0.685 -0.061,1.023 0.081,-0.117 0.177,-0.164 0.305,-0.069 z m -0.496,-0.944 c -0.023,0.107 -0.048,0.198 -0.088,0.24 z m 1.059,18.831 c -0.021,-0.039 -0.029,-0.053 -0.049,-0.09 0.062,0.225 0.124,0.451 0.189,0.687 0.005,-0.103 -0.028,-0.283 -0.14,-0.597 z m -0.03,-2.07 -0.495,-0.1 c 0.038,0.214 0.076,0.433 0.115,0.656 0.179,-0.13 0.331,-0.257 0.38,-0.556 z m 0.26,-6.344 c -0.565,-0.325 -0.651,-1.626 -1.285,-1.676 -0.165,-0.076 -0.213,0.206 -0.249,0.524 0.001,0.352 0.003,0.729 0.004,1.128 0.095,0.005 0.174,0.076 0.276,0.198 0.045,-0.398 0.198,-0.67 0.587,-0.548 -0.773,1.075 0.708,0.814 0.634,1.876 0.489,0.262 0.26,-1.207 0.033,-1.502 z M 72.541,22.198 c -0.01,0.061 -0.013,0.235 -0.005,0.459 l -0.805,-0.214 c -0.999,-0.884 -1.33,-2.382 -2.839,-2.327 -0.385,-0.462 -0.438,-0.978 -0.523,-1.427 0.234,0.171 0.447,0.34 0.611,0.5 1.832,0.409 2.013,1.006 2.112,1.495 0.099,0.507 0.084,0.982 1.449,1.514 z M 58.717,14.166 c 0.151,-0.002 0.227,-0.088 0.227,-0.088 -3.354,0.339 -5.836,0.487 -7.493,0.387 0.305,0.488 1.737,0.869 2.389,1.153 -0.001,-0.015 -0.651,0.443 -0.65,0.458 l -0.34,-0.426 -1.072,0.422 c 0.269,0.365 1.102,0.333 1.626,0.627 0.049,-0.096 1.878,-0.426 2.444,-0.667 l -1.385,-0.577 c 0.366,0.229 2.309,0.325 3.082,0.413 0.034,-0.119 -0.245,-0.387 -0.584,-0.505 -0.339,-0.115 -0.723,-0.131 -0.854,0.136 -0.095,-0.407 1.45,-0.176 0.551,-0.733 1.249,-0.225 2.997,0.668 3.777,1.039 l -0.05,0.659 c 0.798,0.552 0.842,-0.531 1.776,0.21 -1.333,-0.353 -0.026,0.752 -1.056,0.426 0.242,0.351 -0.214,0.656 0.794,0.973 1.137,-0.479 0.86,0.836 1.897,0.509 0.389,0.488 -0.742,0.217 0.185,0.795 1.308,0.128 1.402,-0.189 1.752,-0.717 -1.018,-0.683 -1.562,0.15 -2.37,-0.402 0,0 0.538,-0.04 1.091,-0.074 0.559,-0.029 1.117,-0.059 1.117,-0.059 -0.263,-0.296 -0.503,-0.429 -0.726,-0.489 0.387,0.117 0.762,0.121 1.125,0.052 0.206,-0.038 0.394,-0.064 0.565,-0.082 -1.037,-0.506 -1.952,-0.963 -2.011,-1.289 l 0.267,-0.21 C 64.537,15.646 63.798,15.642 63.43,15.736 62.431,15.405 61.325,15.453 61.234,15 l 0.46,-0.129 C 61.077,14.676 60.721,14.619 60.326,14.545 59.932,14.466 59.502,14.366 58.717,14.166 Z M 20.435,26.81 c 0.684,0.032 1.309,0.011 2.106,-0.297 0.391,-0.161 0.805,-0.408 1.259,-0.786 0.463,-0.37 0.922,-0.913 1.563,-1.517 l -0.151,0.242 c 0.898,-0.342 1.367,-1.081 1.903,-1.869 0.56,-0.748 1.241,-1.484 2.329,-1.824 -0.59,0.966 -0.579,0.912 -0.885,2.341 l 0.68,-0.901 c 0.124,0.666 0.8,-0.231 1.455,-0.688 l -0.143,1.011 c -0.493,0.111 -1.521,0.784 -1.39,0.891 0.082,-0.111 -0.379,-0.051 -0.959,0.141 -0.542,0.235 -1.193,0.618 -1.507,1.045 0.415,0.287 1.876,-1.315 1.684,-0.057 0.394,-0.836 0.833,-0.462 1.411,-1.136 -0.464,0.764 0.242,0.653 -0.026,1.296 l 1.015,-0.964 c 0.119,0.117 -1.395,1.491 -0.121,1.294 0.283,-0.528 1.631,-1.141 1.355,-1.594 l 0.118,0.114 c 0.935,-0.437 -0.02,-0.859 1.231,-1.268 -0.123,-0.236 -0.429,-0.264 -0.796,0.022 -0.266,0.311 -0.139,0.618 -0.749,1.126 -0.258,-0.061 -0.063,-0.201 0.102,-0.341 0.172,-0.13 0.306,-0.279 -0.127,-0.425 -0.441,-0.147 -1.536,1.517 -1.53,0.522 l 0.919,-0.548 c -0.291,-0.468 0.387,-0.864 0.141,-1.201 0.472,-0.513 1.318,-0.33 1.666,-1.08 0.076,-0.442 -0.673,-0.742 0.457,-1.088 1.194,0.32 3.413,-1.023 4.34,-1.38 l 0.695,-0.613 c -0.178,-0.279 -1.545,0.612 -1.17,0.027 l 1.243,-0.59 -0.033,0.228 c 0.441,-0.105 0.798,-0.498 1.167,-0.715 -0.302,0.474 -1.26,0.693 -0.901,1.138 0.633,-0.102 0.768,0.017 1.297,-0.224 -0.111,0.068 -0.2,0.147 -0.162,0.217 1.288,-0.083 1.02,-0.895 1.291,-1.15 1.099,-1.021 -1.452,-0.312 -1.457,-0.896 0,0 3.741,-1.304 3.774,-1.191 -0.304,0.227 -0.602,0.452 -0.434,0.655 0.991,0.106 0.101,0.416 1.412,0.19 -0.106,-0.364 0.294,-0.544 0.835,-0.704 0.272,-0.077 0.574,-0.164 0.868,-0.248 0.295,-0.08 0.582,-0.145 0.814,-0.269 0.473,0.284 0.565,0.341 -0.406,0.399 0.157,0.48 1.431,0.229 1.895,0.25 0.261,-0.135 0.716,-0.229 1.004,-0.352 -0.392,-0.218 -0.239,-0.551 0.622,-0.775 l 0.051,-0.1 c -0.705,-0.069 -1.614,-0.164 -2.464,-0.217 -0.848,-0.041 -1.635,-0.032 -2.044,0.313 l 0.223,-0.278 c -1.715,-0.146 -3.401,1.347 -4.309,0.704 -0.013,-0.373 -0.342,0.001 -0.437,-0.519 l -1.093,0.706 0.186,-0.295 c 0,0 -0.5,0.16 -1,0.32 -0.506,0.139 -0.98,0.373 -0.98,0.373 l 0.021,-0.113 c -0.789,0.796 -1.368,1.424 -1.819,1.928 0.083,0.214 0.167,0.259 -0.068,0.525 -0.258,0.211 -0.475,0.314 -0.678,0.388 v 0.003 l -0.001,-0.002 c -0.468,0.151 -0.901,-0.007 -1.513,0.138 0,0 0.42,-0.218 0.839,-0.436 0.21,-0.109 0.42,-0.218 0.578,-0.3 0.156,-0.087 0.268,-0.125 0.268,-0.125 -0.005,-0.41 -0.317,-0.758 -1.284,-0.582 0.345,-0.182 0.373,-0.533 -0.085,-0.363 -0.009,0.117 -1.052,0.783 -0.497,0.861 -0.794,0.468 -2,0.749 -3.194,1.36 -0.607,0.283 -1.235,0.602 -1.834,0.979 -0.581,0.404 -1.101,0.916 -1.555,1.478 1.36,-1.575 -1.624,0.561 0.096,-0.925 -0.823,0.224 -1.01,0.557 -1.149,0.936 -0.133,0.389 -0.258,0.782 -0.867,1.295 -0.248,-0.083 0.656,-0.566 0.694,-1.111 -1.147,0.72 -1.777,1.739 -2.43,2.654 -0.655,0.924 -1.125,1.967 -2.068,2.825 l -0.443,-0.236 c -0.297,0.39 -0.575,0.861 -0.848,1.358 z m -2.324,4.494 c -0.196,0.447 -0.429,0.88 -0.598,1.353 0.026,-0.042 0.049,-0.08 0.075,-0.123 l -0.278,1.479 c 0.556,-0.716 1.271,-0.967 0.973,0.229 -0.136,-0.182 -0.512,0.029 -0.433,-0.406 -0.615,0.602 -1.666,2.131 -0.783,1.995 0.046,-1.698 1.012,0.06 1.071,-1.252 0.155,0.794 -0.331,1.271 -0.381,1.912 -0.126,-0.743 -0.902,-0.227 -1.404,0.637 -0.035,0.441 -0.539,1.487 -0.596,2.209 0.515,-0.098 0.554,0.542 1.049,-0.477 -0.015,0.212 -0.055,0.473 -0.149,0.757 -0.065,0.292 -0.181,0.607 -0.381,0.922 -0.004,-0.295 0.066,-0.792 -0.099,-0.806 -0.512,0.331 -0.633,0.873 -0.879,1.122 -0.037,0.241 -0.075,0.485 -0.111,0.722 0.056,-0.06 0.121,-0.107 0.194,-0.134 l 0.188,0.864 c 0.058,-1.074 0.324,-0.424 0.578,-0.352 -0.506,-0.148 -0.236,0.64 -0.308,0.986 l 0.737,-0.628 c 0.09,0.21 -0.09,0.502 -0.219,0.737 -0.108,0.239 -0.164,0.418 0.12,0.375 0.558,-1.532 0.663,-2.128 0.85,-3.599 l -0.561,0.454 c 0.167,-1.7 1.032,-0.753 1.615,-2.486 -0.168,-0.894 1.084,-2.537 0.382,-2.919 0.128,0.315 1.111,-0.738 1.108,-1.459 -0.268,-0.947 0.792,-2.883 0.169,-2.492 -0.319,0.509 -0.388,1.388 -1.046,1.563 l 0.473,-1.068 -0.737,0.454 c 0.328,-0.268 -0.022,-0.434 -0.619,-0.569 z M 9.371,58.128 C 9.37,58.143 9.37,58.163 9.369,58.182 L 9.362,58.124 Z"
                 id="path13848"
                 inkscape:connector-curvature="0"
                 style="fill:#585658;fill-opacity:1" /><path
                 d="m 84.364,35.138 c 0.342,0.233 0.575,1.079 0.888,0.77 -0.195,0.089 -0.344,-0.271 -0.478,-0.571 -0.159,-0.291 -0.303,-0.519 -0.41,-0.199 z"
                 id="path13850"
                 inkscape:connector-curvature="0"
                 style="fill:#585658;fill-opacity:1" /><path
                 d="m 84.362,36.253 c 0.116,0.019 0.252,-0.082 0.4,0.277 l -0.467,-0.958 z"
                 id="path13852"
                 inkscape:connector-curvature="0"
                 style="fill:#585658;fill-opacity:1" /><path
                 d="m 81.997,38.263 c 0.471,0.362 0.753,0.611 1.002,1.369 -0.888,0.593 -0.727,-1.134 -1.758,-1.133 0.196,0.678 0.547,1.043 0.914,1.384 0.342,0.347 0.668,0.678 0.863,1.243 0.119,-0.336 0.15,-1.136 -0.08,-1.788 -0.223,-0.654 -0.564,-1.192 -0.941,-1.075 z"
                 id="path13854"
                 inkscape:connector-curvature="0"
                 style="fill:#585658;fill-opacity:1" /><polygon
                 points="81.069,38.689 80.583,38.042 80.553,38.136 81.038,38.782 "
                 id="polygon13856"
                 style="fill:#585658;fill-opacity:1" /><path
                 d="m 76.629,17.738 c 0.139,-0.308 -0.558,-0.431 -0.867,-0.566 0.2,0.178 0.445,0.467 0.867,0.566 z"
                 id="path13858"
                 inkscape:connector-curvature="0"
                 style="fill:#585658;fill-opacity:1" /><path
                 d="m 80.211,79.393 c 0,0 0.305,-0.363 0.762,-0.907 0.447,-0.552 1.081,-1.254 1.638,-2.015 1.077,-1.555 2.124,-3.114 2.124,-3.114 -0.6,0.899 -1.203,1.749 -1.884,2.73 -0.326,0.503 -0.729,0.991 -1.177,1.525 -0.444,0.539 -0.926,1.127 -1.463,1.781 z"
                 id="path13860"
                 inkscape:connector-curvature="0"
                 style="fill:#585658;fill-opacity:1" /><path
                 d="m 53.7,10.476 c 0.967,-0.078 1.68,-0.142 2.409,-0.244 0.725,-0.072 1.475,-0.184 2.465,-0.029 C 57.351,9.608 56.421,9.774 55.589,9.889 54.748,10.014 53.99,10.138 52.922,9.777 Z"
                 id="path13862"
                 inkscape:connector-curvature="0"
                 style="fill:#585658;fill-opacity:1" /><path
                 d="m 54.654,7.967 c 0.263,0.614 -1.621,0.581 -1.364,1.06 1.347,-0.072 0.679,-0.564 1.89,-0.34 z"
                 id="path13864"
                 inkscape:connector-curvature="0"
                 style="fill:#585658;fill-opacity:1" /><polygon
                 points="60.246,19.725 60.397,19.565 59.857,19.705 "
                 id="polygon13866"
                 style="fill:#585658;fill-opacity:1" /><polygon
                 points="44.621,8.287 45.442,8.501 45.648,8.331 "
                 id="polygon13868"
                 style="fill:#585658;fill-opacity:1" /><path
                 d="m 45.857,8.172 c 0,0 -0.209,0.154 -0.208,0.16 -0.002,-0.006 0.208,-0.16 0.208,-0.16 z"
                 id="path13870"
                 inkscape:connector-curvature="0"
                 style="fill:#585658;fill-opacity:1" /><polygon
                 points="60.42,20.812 59.429,20.605 60.015,20.963 "
                 id="polygon13872"
                 style="fill:#585658;fill-opacity:1" /><path
                 d="m 54.033,16.103 0.683,-0.093 c -0.134,0.018 -1.009,-0.371 -0.683,0.093 z"
                 id="path13874"
                 inkscape:connector-curvature="0"
                 style="fill:#585658;fill-opacity:1" /><polygon
                 points="38.533,9.908 39.428,9.434 39.317,9.4 38.418,9.876 "
                 id="polygon13876"
                 style="fill:#585658;fill-opacity:1" /><path
                 d="m 48.898,17.59 c 0.448,0.448 -1.245,0.191 -0.338,0.561 0.782,-0.114 0.459,-0.343 0.338,-0.561 z"
                 id="path13878"
                 inkscape:connector-curvature="0"
                 style="fill:#585658;fill-opacity:1" /><path
                 d="m 38.8,16.162 c -0.107,0.039 -0.214,0.096 -0.306,0.186 0.123,-0.067 0.223,-0.13 0.306,-0.186 z"
                 id="path13880"
                 inkscape:connector-curvature="0"
                 style="fill:#585658;fill-opacity:1" /><path
                 d="m 38.8,16.162 c 0.345,-0.13 0.742,-0.084 0.95,-0.264 -0.509,-0.102 -0.636,0.063 -0.95,0.264 z"
                 id="path13882"
                 inkscape:connector-curvature="0"
                 style="fill:#585658;fill-opacity:1" /><path
                 d="m 34.944,17.831 0.313,-0.114 c -0.208,0.358 -0.078,0.257 0.117,-0.044 0.31,-0.167 0.232,-0.295 0.229,-0.406 0.039,-0.084 0.08,-0.17 0.123,-0.262 -0.072,0.105 -0.138,0.201 -0.194,0.282 -0.496,0.235 -0.788,0.402 -0.588,0.544 z"
                 id="path13884"
                 inkscape:connector-curvature="0"
                 style="fill:#585658;fill-opacity:1" /><path
                 d="m 16.592,22.189 c 1.135,-1.003 1.457,-1.225 1.673,-0.921 1.029,-0.957 0.427,-1.228 0.905,-1.963 -1.039,1.233 -1.388,1.364 -2.578,2.884 z"
                 id="path13886"
                 inkscape:connector-curvature="0"
                 style="fill:#585658;fill-opacity:1" /><path
                 d="m 19.17,19.304 c 0.117,-0.138 0.246,-0.253 0.387,-0.408 -0.178,0.154 -0.303,0.276 -0.387,0.408 z"
                 id="path13888"
                 inkscape:connector-curvature="0"
                 style="fill:#585658;fill-opacity:1" /><path
                 d="m 40.679,19.843 c 0,0 -0.12,0.183 -0.234,0.377 -0.113,0.191 -0.226,0.382 -0.226,0.382 l 0.205,-0.159 c 0,0 0.249,-0.614 0.255,-0.6 z"
                 id="path13890"
                 inkscape:connector-curvature="0"
                 style="fill:#585658;fill-opacity:1" /><path
                 d="m 15.091,23.845 c 0.186,-0.21 0.442,-0.578 0.673,-0.676 -0.241,-0.291 -0.859,0.887 -0.673,0.676 z"
                 id="path13892"
                 inkscape:connector-curvature="0"
                 style="fill:#585658;fill-opacity:1" /><path
                 d="m 23.961,24.441 c 0.229,0.046 0.729,-0.588 1.032,-0.745 -0.369,0.285 -1.156,0.046 -1.032,0.745 z"
                 id="path13894"
                 inkscape:connector-curvature="0"
                 style="fill:#585658;fill-opacity:1" /><path
                 d="m 13.962,28.204 c 0.16,-0.22 0.584,-0.442 0.748,-0.13 0.049,-0.423 -0.218,-1.225 -0.748,0.13 z"
                 id="path13896"
                 inkscape:connector-curvature="0"
                 style="fill:#585658;fill-opacity:1" /><polygon
                 points="22.983,25.255 22.363,26.102 22.577,26.051 "
                 id="polygon13898"
                 style="fill:#585658;fill-opacity:1" /><path
                 d="m 28.232,27.709 c 0.326,-0.883 -1.739,0.159 -0.905,-1.095 -1.685,1.034 0.512,0.309 -0.494,1.285 0.641,-0.523 1.34,-0.368 1.399,-0.19 z"
                 id="path13900"
                 inkscape:connector-curvature="0"
                 style="fill:#585658;fill-opacity:1" /><path
                 d="m 26.833,27.899 c -0.096,0.072 -0.192,0.159 -0.287,0.262 0.118,-0.101 0.21,-0.186 0.287,-0.262 z"
                 id="path13902"
                 inkscape:connector-curvature="0"
                 style="fill:#585658;fill-opacity:1" /><path
                 d="m 17.787,36.841 c 0.004,-0.144 -0.011,-0.249 -0.029,-0.349 -0.004,0.114 0.003,0.226 0.029,0.349 z"
                 id="path13904"
                 inkscape:connector-curvature="0"
                 style="fill:#585658;fill-opacity:1" /><path
                 d="m 24.284,31.54 0.24,-1.414 c -0.085,0.479 -0.452,1.141 -0.721,1.712 -0.289,0.559 -0.359,1.105 -0.068,1.213 0.428,-0.529 0.823,-1.24 0.787,-1.688 z"
                 id="path13906"
                 inkscape:connector-curvature="0"
                 style="fill:#585658;fill-opacity:1" /><path
                 d="M 7.131,42.846 6.993,42.06 6.773,42.977 c 0.137,-0.25 0.535,0.306 0.358,-0.131 z"
                 id="path13908"
                 inkscape:connector-curvature="0"
                 style="fill:#585658;fill-opacity:1" /><path
                 d="M 6.731,43.155 6.772,42.977 C 6.751,43.014 6.735,43.07 6.731,43.155 Z"
                 id="path13910"
                 inkscape:connector-curvature="0"
                 style="fill:#585658;fill-opacity:1" /><path
                 d="m 18.606,34.323 c 0.239,-0.386 0.373,-0.721 0.457,-1.144 -0.189,0.09 -0.778,1.065 -0.457,1.144 z"
                 id="path13912"
                 inkscape:connector-curvature="0"
                 style="fill:#585658;fill-opacity:1" /><polygon
                 points="7.466,48.227 7.535,48.12 7.486,46.907 "
                 id="polygon13914"
                 style="fill:#585658;fill-opacity:1" /><path
                 d="m 6.53,53.839 -0.11,0.224 c 0,0 0.064,0.252 0.155,0.501 0.095,0.248 0.19,0.495 0.19,0.495 l 0.091,-0.228 c 0,0 -0.104,-0.245 -0.18,-0.493 C 6.603,54.088 6.53,53.839 6.53,53.839 Z"
                 id="path13916"
                 inkscape:connector-curvature="0"
                 style="fill:#585658;fill-opacity:1" /><path
                 d="m 19.293,47.373 c 0.071,-0.587 -0.397,-1.109 -0.553,-0.97 0,0 -0.01,0.073 -0.025,0.182 -0.02,0.108 -0.034,0.255 -0.031,0.403 -0.007,0.294 -0.014,0.589 -0.014,0.589 0.535,-0.255 -0.024,-0.329 0.183,-0.992 -0.025,-10e-4 0.44,0.788 0.44,0.788 z"
                 id="path13918"
                 inkscape:connector-curvature="0"
                 style="fill:#585658;fill-opacity:1" /><path
                 d="m 29.57,87.502 c -0.471,0.119 -1.879,-0.963 -1.782,-1.286 0.274,0.003 1.142,0.37 0.746,-0.112 l -1.613,0.001 c -1.27,-1.392 1.78,-0.201 2.666,-0.019 -0.75,-0.515 -1.308,-0.725 -1.892,-0.937 -0.584,-0.209 -1.202,-0.408 -1.971,-1.011 0.422,0.398 0.584,0.807 0.751,1.111 -0.293,0.561 -1.629,-0.778 -2.716,-1.531 0.519,0.71 0,0.593 -0.644,0.398 C 23.014,84.062 22.933,84.044 22.867,84.042 22.791,84.02 22.719,84 22.645,83.979 l 0.13,0.097 c -0.051,0.045 -0.072,0.129 -0.047,0.286 1.013,0.55 1.419,1.467 2.015,1.916 -0.008,-0.623 0.497,-0.254 1.189,0.2 0.689,0.458 1.519,1.092 1.989,1.203 l 0.957,0.465 0.342,0.201 c 0.019,0.131 -0.142,0.197 -0.758,0.047 0.506,0.139 2.023,0.895 2.014,0.563 0,0 0.868,0.413 1.736,0.826 0.435,0.204 0.866,0.418 1.21,0.529 0.338,0.125 0.564,0.208 0.564,0.208 0.098,0.078 0.192,0.165 0.251,0.261 0.147,-0.01 0.186,-0.049 0.187,-0.1 0,0 0.986,0.354 2.464,0.884 0.751,0.226 1.644,0.436 2.594,0.682 0.951,0.247 1.965,0.504 3.005,0.628 1.034,0.151 2.069,0.303 3.039,0.445 0.976,0.05 1.888,0.097 2.669,0.137 0.781,0.032 1.432,0.068 1.888,0.071 0.456,-0.022 0.716,-0.034 0.716,-0.034 -0.824,-0.011 -1.531,-0.298 -2.366,-0.437 1.276,-0.577 -1.367,-0.182 -0.965,-0.768 0.57,-0.19 1.374,-0.082 1.858,0.087 0.183,-0.296 -0.497,-0.598 -0.407,-0.958 -0.994,-0.239 -1.578,-0.001 -2.179,0.256 -0.598,0.266 -1.211,0.542 -2.188,0.262 0.127,-0.351 0.767,-0.577 -0.516,-0.72 l 0.335,-0.029 c -2.116,0.086 -1.439,-1.044 -2.908,-0.284 l 0.14,-0.508 c -0.983,0.164 -2.761,-0.289 -3.776,-0.483 l 0.089,-0.081 c -1.464,-0.149 -1.854,-0.299 -2.277,-0.454 -0.415,-0.185 -0.882,-0.349 -2.429,-0.881 0,0 0.1,0.005 0.25,0.012 0.148,0.011 0.35,0.015 0.556,0.004 0.406,-0.013 0.813,-0.026 0.813,-0.026 -0.949,-0.604 -1.424,-0.123 -2.127,-0.531 0.093,-0.068 0.089,-0.498 0.803,-0.263 0,0 -0.98,-0.21 -1.959,-0.42 -0.497,-0.111 -0.994,-0.223 -1.367,-0.306 -0.376,-0.084 -0.609,-0.175 -0.609,-0.175 -1.008,-0.144 -0.023,0.437 0,0.711 z"
                 id="path13920"
                 inkscape:connector-curvature="0"
                 style="fill:#585658;fill-opacity:1" /><path
                 d="m 25.724,84.138 c -0.152,-0.148 -0.335,-0.299 -0.572,-0.45 0.208,0.175 0.393,0.317 0.572,0.45 z"
                 id="path13922"
                 inkscape:connector-curvature="0"
                 style="fill:#585658;fill-opacity:1" /><path
                 d="m 51.97,93.433 -1.17,0.06 c 0.363,0.016 0.742,0.007 1.17,-0.06 z"
                 id="path13924"
                 inkscape:connector-curvature="0"
                 style="fill:#585658;fill-opacity:1" /><path
                 d="m 20.562,81.388 c 0.336,0.676 -0.652,-0.078 -0.885,-0.019 l 1.896,1.712 c 0.125,-0.162 0.459,-0.166 0.541,-0.342 z"
                 id="path13926"
                 inkscape:connector-curvature="0"
                 style="fill:#585658;fill-opacity:1" /><path
                 d="m 21.879,83.87 c 0.15,-0.045 0.449,0.021 0.766,0.11 0,0 -0.289,-0.199 -0.549,-0.433 -0.261,-0.233 -0.522,-0.465 -0.522,-0.465 -0.093,0.121 -0.067,0.331 0.305,0.788 z"
                 id="path13928"
                 inkscape:connector-curvature="0"
                 style="fill:#585658;fill-opacity:1" /><path
                 d="m 28.656,75.393 0.267,0.217 0.516,0.188 c 0,0 -0.2,-0.094 -0.401,-0.189 -0.202,-0.094 -0.382,-0.216 -0.382,-0.216 z"
                 id="path13930"
                 inkscape:connector-curvature="0"
                 style="fill:#585658;fill-opacity:1" /><path
                 d="m 32.592,79.257 c -0.201,-0.483 -1.002,-0.695 -1.277,-0.77 0.795,0.469 0.392,0.362 1.277,0.77 z"
                 id="path13932"
                 inkscape:connector-curvature="0"
                 style="fill:#585658;fill-opacity:1" /><polygon
                 points="34.147,76.065 33.401,75.889 34.179,76.156 "
                 id="polygon13934"
                 style="fill:#585658;fill-opacity:1" /><path
                 d="m 60.035,90.179 c 0.169,-0.055 0.333,-0.109 0.504,-0.165 -0.235,0.058 -0.385,0.112 -0.504,0.165 z"
                 id="path13936"
                 inkscape:connector-curvature="0"
                 style="fill:#585658;fill-opacity:1" /><path
                 d="m 50.869,91.911 c 2.641,0.467 -1.709,0.574 -0.889,1.288 l 1.451,-0.315 -0.117,0.209 1.773,-0.156 c -0.388,-0.328 -0.658,-0.336 -0.602,-0.705 2.344,-0.007 0.766,0.448 2.542,0.7 l 2.626,-0.466 -0.194,0.141 c 0.221,-0.043 0.311,-0.103 0.376,-0.174 0,0 0.138,-0.025 0.379,-0.07 0.242,-0.039 0.586,-0.107 0.989,-0.231 0.809,-0.23 1.888,-0.536 2.966,-0.843 1.08,-0.297 2.099,-0.78 2.886,-1.066 0.778,-0.311 1.297,-0.518 1.297,-0.518 1.387,-0.862 -1.075,-0.28 -0.182,-1.207 -1.727,0.642 -4.375,1.218 -4.346,1.883 0.032,-0.113 0.092,-0.336 -0.291,-0.325 l -0.873,0.846 1.043,-0.073 c -0.441,0.424 -1.536,0.828 -2.605,1.09 -1.072,0.25 -2.135,0.228 -2.473,0.11 1.933,-0.541 0.823,-0.962 3.565,-1.262 -0.166,-0.148 -0.722,-0.342 -0.155,-0.591 -1.5,0.551 -3.004,0.713 -4.502,0.961 -1.496,0.313 -3.019,0.354 -4.664,0.774 z"
                 id="path13938"
                 inkscape:connector-curvature="0"
                 style="fill:#585658;fill-opacity:1" /><path
                 d="m 79.468,79.358 0.03,0.065 c 0.013,-0.067 0.007,-0.099 -0.03,-0.065 z"
                 id="path13940"
                 inkscape:connector-curvature="0"
                 style="fill:#585658;fill-opacity:1" /><path
                 d="M 78.625,80.018 77.956,81.592 79.724,79.9 79.497,79.423 C 79.438,79.662 78.98,80.418 78.603,80.5 Z"
                 id="path13942"
                 inkscape:connector-curvature="0"
                 style="fill:#585658;fill-opacity:1" /><path
                 d="m 76.854,83.126 c 0.855,-0.975 0.381,-1.4 -0.286,-1.143 0.67,-0.972 0.865,0.074 1.04,-0.924 -0.307,-0.306 -1.164,0.839 -1.381,1.089 z"
                 id="path13944"
                 inkscape:connector-curvature="0"
                 style="fill:#585658;fill-opacity:1" /><polygon
                 points="68.178,87.864 68.784,87.915 68.995,87.541 "
                 id="polygon13946"
                 style="fill:#585658;fill-opacity:1" /><path
                 d="m 68.995,87.541 0.812,-0.323 c -0.139,-0.134 -0.276,-0.264 -0.46,-0.313 z"
                 id="path13948"
                 inkscape:connector-curvature="0"
                 style="fill:#585658;fill-opacity:1" /><path
                 d="m 71.862,86.212 c 0.339,-0.154 0.706,-0.339 1.14,-0.586 z"
                 id="path13950"
                 inkscape:connector-curvature="0"
                 style="fill:#585658;fill-opacity:1" /><path
                 d="m 70.933,86.598 0.064,0.051 0.865,-0.438 c -0.329,0.147 -0.628,0.269 -0.929,0.387 z"
                 id="path13952"
                 inkscape:connector-curvature="0"
                 style="fill:#585658;fill-opacity:1" /><path
                 d="m 69.806,87.219 c 0.323,0.308 0.686,0.623 1.722,-0.147 l -0.532,-0.421 c 0,-10e-4 -1.175,0.597 -1.19,0.568 z"
                 id="path13954"
                 inkscape:connector-curvature="0"
                 style="fill:#585658;fill-opacity:1" /><polygon
                 points="39.076,79.088 38.3,79.056 38.349,79.141 39.126,79.174 "
                 id="polygon13956"
                 style="fill:#585658;fill-opacity:1" /><path
                 d="m 42.319,80.801 c 0.197,-0.025 0.35,-0.063 0.49,-0.108 -0.198,-0.004 -0.364,0.024 -0.49,0.108 z"
                 id="path13958"
                 inkscape:connector-curvature="0"
                 style="fill:#585658;fill-opacity:1" /><path
                 d="m 45.867,78.62 c 0.747,0.537 -1.193,0.371 0.28,0.787 0.089,0.406 -0.702,0.785 -1.402,0.487 0.121,-0.35 0.739,-0.125 0.36,-0.558 -0.544,0.345 -0.68,0.035 -0.611,0.6 -0.882,0.234 -1.046,0.545 -1.686,0.757 0.264,0.001 0.579,0.09 0.937,0.17 0.361,0.068 0.762,0.143 1.17,0.219 0.821,0.122 1.681,0.303 2.363,-0.053 0.763,-0.626 0.392,-1.544 0.478,-2.493 -0.04,-0.128 -0.485,-0.184 -0.923,-0.238 -0.438,-0.048 -0.889,0.015 -0.966,0.322 z"
                 id="path13960"
                 inkscape:connector-curvature="0"
                 style="fill:#585658;fill-opacity:1" /><path
                 d="m 44.793,77.499 c -0.347,-0.095 -0.464,-0.068 -0.691,-0.056 -0.012,0.345 0.401,0.041 0.691,0.056 z"
                 id="path13962"
                 inkscape:connector-curvature="0"
                 style="fill:#585658;fill-opacity:1" /><path
                 d="m 53.802,84.968 c 0.073,-0.148 0.854,-0.438 0.651,-0.643 0,0 -1.187,0.361 -1.193,0.324 0.29,0.015 0.407,0.162 0.542,0.319 z"
                 id="path13964"
                 inkscape:connector-curvature="0"
                 style="fill:#585658;fill-opacity:1" /><path
                 d="m 52.728,84.749 0.531,-0.1 c -0.135,-0.005 -0.299,0.022 -0.531,0.1 z"
                 id="path13966"
                 inkscape:connector-curvature="0"
                 style="fill:#585658;fill-opacity:1" /><path
                 d="m 53.869,85.044 -0.067,-0.075 c -0.014,0.031 -0.008,0.06 0.067,0.075 z"
                 id="path13968"
                 inkscape:connector-curvature="0"
                 style="fill:#585658;fill-opacity:1" /><path
                 d="m 75.012,84.407 c 0.137,0.224 0.583,-0.303 0.803,-0.565 -0.232,0.146 -0.589,0.305 -0.803,0.565 z"
                 id="path13970"
                 inkscape:connector-curvature="0"
                 style="fill:#585658;fill-opacity:1" /><path
                 d="m 88.971,64.296 0.394,-0.473 c -0.187,0.152 -0.281,0.229 -0.394,0.473 z"
                 id="path13972"
                 inkscape:connector-curvature="0"
                 style="fill:#585658;fill-opacity:1" /><path
                 d="m 84.036,54.728 c -0.048,-0.021 -0.085,-0.061 -0.118,-0.113 0.025,0.051 0.063,0.089 0.118,0.113 z"
                 id="path13974"
                 inkscape:connector-curvature="0"
                 style="fill:#585658;fill-opacity:1" /><path
                 d="m 83.918,54.614 c -0.166,-0.346 0.337,-1.298 -0.011,-1.691 l 0.099,0.054 -0.163,-0.681 c -0.006,0.312 -0.014,0.795 -0.022,1.247 -0.038,0.449 -0.033,0.87 0.097,1.071 z"
                 id="path13976"
                 inkscape:connector-curvature="0"
                 style="fill:#585658;fill-opacity:1" /></g></g></g></g></g></g></svg>