<?xml version="1.0" encoding="UTF-8" standalone="no"?>
<svg
   xmlns:dc="http://purl.org/dc/elements/1.1/"
   xmlns:cc="http://creativecommons.org/ns#"
   xmlns:rdf="http://www.w3.org/1999/02/22-rdf-syntax-ns#"
   xmlns:svg="http://www.w3.org/2000/svg"
   xmlns="http://www.w3.org/2000/svg"
   xmlns:sodipodi="http://sodipodi.sourceforge.net/DTD/sodipodi-0.dtd"
   xmlns:inkscape="http://www.inkscape.org/namespaces/inkscape"
   version="1.0"
   x="0px"
   y="0px"
   viewBox="0 0 63.557999 80.452003"
   enable-background="new 0 0 100 100"
   xml:space="preserve"
   id="svg76"
   sodipodi:docname="fingerprint.svg"
   width="63.557999"
   height="80.452003"
   inkscape:version="0.92.3 (2405546, 2018-03-11)"><metadata
     id="metadata82"><rdf:RDF><cc:Work
         rdf:about=""><dc:format>image/svg+xml</dc:format><dc:type
           rdf:resource="http://purl.org/dc/dcmitype/StillImage" /><dc:title></dc:title></cc:Work></rdf:RDF></metadata><defs
     id="defs80" /><sodipodi:namedview
     pagecolor="#ffffff"
     bordercolor="#666666"
     borderopacity="1"
     objecttolerance="10"
     gridtolerance="10"
     guidetolerance="10"
     inkscape:pageopacity="0"
     inkscape:pageshadow="2"
     inkscape:window-width="776"
     inkscape:window-height="480"
     id="namedview78"
     showgrid="false"
     inkscape:zoom="1.888"
     inkscape:cx="31.393"
     inkscape:cy="26.522"
     inkscape:window-x="251"
     inkscape:window-y="147"
     inkscape:window-maximized="0"
     inkscape:current-layer="svg76" /><g
     id="g70"
     transform="translate(-18.607,-8.57)"
     style="fill:#5a5a5a;fill-opacity:1"><path
       d="m 49.05,75.254 c -2.166,1.06 -4.355,3.329 -4.046,5.809 0.248,1.98 -10e-4,7.856 -0.004,7.916 l 1,0.043 c 0.01,-0.245 0.254,-6.02 -0.004,-8.084 -0.249,-1.992 1.637,-3.877 3.493,-4.785 1.607,-0.788 3.808,-1.148 5.157,0.201 l 10,10 0.707,-0.707 -10,-10 C 53.914,74.208 51.5,74.058 49.05,75.254 Z"
       id="path2"
       inkscape:connector-curvature="0"
       style="fill:#5a5a5a;fill-opacity:1" /><path
       d="M 51.625,77.5 C 49.334,77.5 47,79.771 47,82 v 7 h 1 v -7 c 0,-1.701 1.863,-3.5 3.625,-3.5 1.112,0 5.833,4.492 9.754,8.835 l 0.742,-0.67 C 60.739,85.135 53.74,77.5 51.625,77.5 Z"
       id="path4"
       inkscape:connector-curvature="0"
       style="fill:#5a5a5a;fill-opacity:1" /><path
       d="M 51.625,80.5 C 49.664,80.5 49.051,82.775 49,84 v 5 h 1 v -4.979 c 10e-4,-0.024 0.122,-2.521 1.625,-2.521 1.204,0 4.655,3.974 6.722,6.795 l 0.807,-0.59 C 58.272,86.502 53.77,80.5 51.625,80.5 Z"
       id="path6"
       inkscape:connector-curvature="0"
       style="fill:#5a5a5a;fill-opacity:1" /><path
       d="m 51.982,84.07 c -0.61,0.099 -0.898,0.645 -0.93,0.706 L 51,84.882 V 88 h 1 v -2.847 c 0.037,-0.042 0.089,-0.087 0.143,-0.096 0.089,-0.014 0.265,0.057 0.504,0.296 0.93,0.93 1.896,2.851 1.906,2.87 l 0.895,-0.447 C 55.406,87.691 54.399,85.691 53.354,84.646 52.898,84.19 52.437,84 51.982,84.07 Z"
       id="path8"
       inkscape:connector-curvature="0"
       style="fill:#5a5a5a;fill-opacity:1" /><path
       d="M 54.849,72.553 C 52.923,71.59 50.177,71.827 47.504,73.19 45.042,74.443 43.276,76.299 43,78 v 11 h 1 L 43.993,78.082 c 0.213,-1.275 1.843,-2.922 3.965,-4.002 2.392,-1.217 4.8,-1.452 6.443,-0.633 3.87,1.935 11.896,10.799 11.978,10.888 l 0.742,-0.67 C 66.787,83.295 58.887,74.571 54.849,72.553 Z"
       id="path10"
       inkscape:connector-curvature="0"
       style="fill:#5a5a5a;fill-opacity:1" /><path
       d="M 41.515,75.879 C 40.512,79.893 40.5,87.671 40.5,88 h 1 c 0,-0.079 0.012,-7.983 0.985,-11.879 0.951,-3.805 6.776,-6.387 9.75,-5.798 2.547,0.51 12.209,7.468 16.962,11.075 l 0.605,-0.797 C 69.233,80.169 55.838,70.024 52.43,69.342 48.734,68.597 42.545,71.761 41.515,75.879 Z"
       id="path12"
       inkscape:connector-curvature="0"
       style="fill:#5a5a5a;fill-opacity:1" /><path
       d="M 39.542,72.65 C 37.856,76.51 37.514,85.863 37.5,86.26 l 1,0.035 c 0.003,-0.096 0.348,-9.558 1.958,-13.244 1.607,-3.681 6.121,-6.029 11.01,-5.719 4.958,0.32 20.077,11.817 20.229,11.934 l 0.607,-0.795 C 71.672,77.99 56.79,66.674 51.533,66.334 46.236,66.008 41.315,68.592 39.542,72.65 Z"
       id="path14"
       inkscape:connector-curvature="0"
       style="fill:#5a5a5a;fill-opacity:1" /><path
       d="M 37.602,69.434 C 35.194,72.601 35.167,84.495 35.167,85 h 1 c 0,-0.12 0.025,-12.06 2.231,-14.961 2.306,-3.034 10.448,-6.131 14.712,-4.892 4.478,1.302 20.486,10.153 20.647,10.242 l 0.484,-0.875 C 73.579,74.148 57.972,65.52 53.388,64.186 48.723,62.829 40.132,66.104 37.602,69.434 Z"
       id="path16"
       inkscape:connector-curvature="0"
       style="fill:#5a5a5a;fill-opacity:1" /><path
       d="M 35.344,67.618 C 31.375,70.982 31.493,81.537 31.5,81.984 l 1,-0.016 c -0.002,-0.104 -0.119,-10.527 3.49,-13.587 3.807,-3.227 10.929,-6.354 15.457,-5.885 4.609,0.485 23.891,9.821 24.084,9.916 l 0.438,-0.9 C 75.169,71.124 56.335,62.005 51.553,61.502 46.604,60.979 39.29,64.271 35.344,67.618 Z"
       id="path18"
       inkscape:connector-curvature="0"
       style="fill:#5a5a5a;fill-opacity:1" /><path
       d="m 33.854,64.312 c -3.023,3.912 -5.967,13.989 -6.091,14.416 l 0.961,0.279 c 0.029,-0.104 3.014,-10.322 5.921,-14.084 2.93,-3.791 11.598,-5.152 16.832,-4.925 5.332,0.243 25.1,10.085 25.299,10.185 l 0.447,-0.895 C 76.403,68.878 57.064,59.251 51.522,59 46.074,58.748 37.003,60.237 33.854,64.312 Z"
       id="path20"
       inkscape:connector-curvature="0"
       style="fill:#5a5a5a;fill-opacity:1" /><path
       d="m 31.605,61.641 c -2.018,2.574 -6.259,12.689 -6.438,13.118 l 0.922,0.387 c 0.044,-0.104 4.369,-10.419 6.304,-12.888 1.103,-1.407 4.977,-4.712 17.119,-5.008 9.955,-0.253 29.191,9.893 29.385,9.995 l 0.469,-0.883 C 78.569,65.938 59.714,55.985 49.489,56.25 37.371,56.546 33.083,59.755 31.605,61.641 Z"
       id="path22"
       inkscape:connector-curvature="0"
       style="fill:#5a5a5a;fill-opacity:1" /><path
       d="M 30.709,58.521 C 34.741,55.622 46,54.167 50,54.167 v -1 c -4,0 -15.465,1.372 -19.875,4.542 -4.439,3.191 -6.499,13.702 -6.595,14.148 l 0.977,0.211 C 24.53,71.963 26.579,61.49 30.709,58.521 Z"
       id="path24"
       inkscape:connector-curvature="0"
       style="fill:#5a5a5a;fill-opacity:1" /><path
       d="m 54.66,53.168 -0.07,0.998 c 4.215,0.298 9.706,1.942 14.689,4.397 4.399,2.169 9.492,6.154 9.543,6.194 L 79.439,63.97 C 79.387,63.93 74.215,59.881 69.72,57.666 64.628,55.156 58.998,53.475 54.66,53.168 Z"
       id="path26"
       inkscape:connector-curvature="0"
       style="fill:#5a5a5a;fill-opacity:1" /><path
       d="m 58.669,52.16 c 5.934,0.976 17.979,7.235 18.1,7.299 l 0.463,-0.887 c -0.5,-0.261 -12.309,-6.397 -18.4,-7.398 -6.036,-0.993 -21.062,-0.356 -24.358,1.032 l 0.389,0.922 c 2.869,-1.209 17.583,-1.991 23.806,-0.968 z"
       id="path28"
       inkscape:connector-curvature="0"
       style="fill:#5a5a5a;fill-opacity:1" /><path
       d="m 30.111,55.516 -0.557,-0.83 c -2.905,1.947 -7.922,11.481 -8.135,11.886 l 0.887,0.465 c 0.051,-0.099 5.109,-9.714 7.805,-11.521 z"
       id="path30"
       inkscape:connector-curvature="0"
       style="fill:#5a5a5a;fill-opacity:1" /><path
       d="m 60.186,48.754 c -6.055,-0.936 -12.918,-1.998 -19.27,-0.913 -7.119,1.215 -14.232,5.714 -15.61,6.878 -1.476,1.244 -5.305,5.719 -5.467,5.908 l 0.76,0.65 c 0.039,-0.046 3.938,-4.603 5.352,-5.795 1.279,-1.081 8.315,-5.492 15.134,-6.656 6.188,-1.057 12.969,-0.01 18.949,0.916 l 1.642,0.252 c 6.435,0.978 19.497,7.141 19.629,7.203 l 0.428,-0.904 C 81.192,56.037 68.407,50.005 61.827,49.006 Z"
       id="path32"
       inkscape:connector-curvature="0"
       style="fill:#5a5a5a;fill-opacity:1" /><path
       d="m 42.55,45.831 -0.1,-0.995 c -0.051,0.005 -5.128,0.53 -10.625,2.574 -5.512,2.05 -12.826,7.787 -13.135,8.03 l 0.619,0.785 C 19.383,56.166 26.81,50.342 32.172,48.347 37.545,46.35 42.5,45.836 42.55,45.831 Z"
       id="path34"
       inkscape:connector-curvature="0"
       style="fill:#5a5a5a;fill-opacity:1" /><path
       d="m 67.028,47.402 c -4.687,-1.474 -13.6,-2.241 -18.495,-2.567 l -0.066,0.998 c 4.852,0.323 13.675,1.081 18.261,2.523 4.562,1.436 15.003,5.08 15.107,5.116 l 0.33,-0.943 C 82.06,52.491 71.604,48.842 67.028,47.402 Z"
       id="path36"
       inkscape:connector-curvature="0"
       style="fill:#5a5a5a;fill-opacity:1" /><path
       d="m 19.253,51.809 c 0.969,0 3.477,-1.026 10.861,-6.062 4.299,-2.931 14.99,-3.247 19.386,-3.247 7.341,0 32.107,7.404 32.356,7.479 l 0.287,-0.958 C 81.12,48.714 56.987,41.5 49.5,41.5 c -4.489,0 -15.421,0.333 -19.948,3.42 -6.218,4.239 -9.679,6.004 -10.271,5.875 0.015,0.003 0.068,0.025 0.113,0.082 l -0.787,0.617 c 0.109,0.14 0.247,0.315 0.646,0.315 z"
       id="path38"
       inkscape:connector-curvature="0"
       style="fill:#5a5a5a;fill-opacity:1" /><path
       d="m 25.815,45.797 c 1.465,-0.592 2.628,-1.424 3.858,-2.305 2.647,-1.895 5.647,-4.042 12.857,-4.493 6.825,-0.427 20.21,2.745 29.073,4.842 5.879,1.391 8.994,2.111 9.976,1.988 L 81.454,44.837 C 80.61,44.94 76.54,43.982 71.834,42.868 62.38,40.631 49.428,37.564 42.468,38.001 c -7.496,0.468 -10.62,2.705 -13.377,4.678 -1.181,0.845 -2.296,1.644 -3.651,2.19 -4.153,1.678 -6.036,0.151 -6.114,0.085 l -0.656,0.755 c 0.063,0.056 1.106,0.939 3.221,0.939 1.044,10e-4 2.347,-0.214 3.924,-0.851 z"
       id="path40"
       inkscape:connector-curvature="0"
       style="fill:#5a5a5a;fill-opacity:1" /><path
       d="m 30.216,40.024 c 2.847,-1.771 5.79,-3.601 9.366,-4.197 7.606,-1.267 16.276,1.202 22.608,3.005 1.053,0.3 2.035,0.579 2.931,0.818 6.1,1.627 10.805,2.193 16.256,1.959 L 81.334,40.61 C 76.002,40.839 71.374,40.282 65.379,38.684 64.488,38.446 63.512,38.168 62.465,37.87 56.04,36.041 47.242,33.535 39.418,34.841 c -3.772,0.628 -6.938,2.598 -9.73,4.334 -3.712,2.309 -6.92,4.303 -10.479,2.674 l -0.416,0.909 c 1.052,0.481 2.071,0.687 3.071,0.687 2.852,0 5.544,-1.675 8.352,-3.421 z"
       id="path42"
       inkscape:connector-curvature="0"
       style="fill:#5a5a5a;fill-opacity:1" /><path
       d="m 63.359,35.46 c 5.394,1.583 10.242,1.785 13.451,1.918 0.864,0.036 1.63,0.067 2.28,0.12 l 0.08,-0.997 C 78.508,36.448 77.731,36.416 76.852,36.379 73.502,36.24 68.916,36.049 63.64,34.5 61.978,34.013 60.515,33.529 59.101,33.062 54.77,31.631 51.348,30.5 46,30.5 v 1 c 5.188,0 8.541,1.108 12.788,2.512 1.422,0.47 2.893,0.956 4.571,1.448 z"
       id="path44"
       inkscape:connector-curvature="0"
       style="fill:#5a5a5a;fill-opacity:1" /><path
       d="m 22.556,39.556 c 0.288,0.066 0.581,0.097 0.88,0.097 2.237,0 4.75,-1.738 7.19,-3.426 l 0.408,-0.282 c 3.496,-2.411 7.376,-3.908 11.53,-4.45 l -0.129,-0.991 c -4.313,0.562 -8.341,2.116 -11.97,4.618 l -0.408,0.283 c -2.587,1.789 -5.261,3.64 -7.277,3.177 -0.846,-0.194 -1.541,-0.792 -2.126,-1.828 l -0.871,0.492 c 0.721,1.276 1.655,2.053 2.773,2.31 z"
       id="path46"
       inkscape:connector-curvature="0"
       style="fill:#5a5a5a;fill-opacity:1" /><path
       d="m 28.109,32.519 0.27,0.963 c 1.033,-0.289 2.151,-0.835 3.445,-1.469 3.358,-1.643 7.959,-3.894 15.684,-4.013 6.364,-0.101 12.848,2.262 18.051,4.158 3.662,1.335 6.825,2.488 9.253,2.592 l 0.043,-0.999 C 72.582,33.653 69.486,32.525 65.901,31.219 60.621,29.294 54.039,26.891 47.492,27 c -7.948,0.122 -12.664,2.43 -16.107,4.115 -1.25,0.611 -2.329,1.139 -3.276,1.404 z"
       id="path48"
       inkscape:connector-curvature="0"
       style="fill:#5a5a5a;fill-opacity:1" /><path
       d="m 26.117,34.708 -0.4,-0.916 c -0.828,0.363 -2.951,-0.27 -4.095,-0.752 l -0.389,0.921 c 0.273,0.116 2.265,0.934 3.815,0.934 0.398,-0.001 0.766,-0.054 1.069,-0.187 z"
       id="path50"
       inkscape:connector-curvature="0"
       style="fill:#5a5a5a;fill-opacity:1" /><path
       d="m 66.738,28.813 c 6.835,1.988 11.847,2.675 11.896,2.682 l 0.133,-0.991 C 78.718,30.498 73.781,29.82 67.017,27.853 Z"
       id="path52"
       inkscape:connector-curvature="0"
       style="fill:#5a5a5a;fill-opacity:1" /><path
       d="m 57.906,26.681 c 1.648,0.503 3.204,0.978 4.651,1.304 l 0.219,-0.976 c -1.41,-0.317 -2.948,-0.787 -4.578,-1.284 -4.293,-1.31 -9.16,-2.795 -13.613,-2.052 l 0.164,0.986 c 4.226,-0.705 8.972,0.744 13.157,2.022 z"
       id="path54"
       inkscape:connector-curvature="0"
       style="fill:#5a5a5a;fill-opacity:1" /><path
       d="m 34.312,27.73 c 1.953,-0.989 3.797,-1.924 5.494,-2.417 l -0.279,-0.96 c -1.786,0.519 -3.671,1.474 -5.667,2.484 -3.792,1.921 -7.71,3.913 -11.126,2.921 l -0.277,0.961 c 0.726,0.21 1.463,0.304 2.209,0.304 3.146,0 6.44,-1.669 9.646,-3.293 z"
       id="path56"
       inkscape:connector-curvature="0"
       style="fill:#5a5a5a;fill-opacity:1" /><path
       d="m 41.062,22.496 c 9.763,-1.238 16.609,1.355 21.611,3.25 0.518,0.196 1.014,0.384 1.487,0.557 4.159,1.525 11.121,2.67 12.753,2.67 0.169,0 0.281,-0.013 0.327,-0.038 L 76.954,28.415 76.94,28 c -0.007,0 -0.015,0 -0.024,0 C 76.159,28 69.119,27.053 64.505,25.363 64.034,25.19 63.542,25.005 63.028,24.811 57.926,22.879 50.94,20.234 40.936,21.505 30.431,22.839 23.994,27.422 23.725,27.616 l 0.586,0.811 c 0.064,-0.048 6.498,-4.629 16.751,-5.931 z"
       id="path58"
       inkscape:connector-curvature="0"
       style="fill:#5a5a5a;fill-opacity:1" /><path
       d="m 47.406,18.681 c 1.612,0.307 3.195,0.605 4.733,0.895 7.468,1.407 13.918,2.623 17.211,3.651 4.003,1.251 6.254,1.936 6.254,1.936 l 0.291,-0.957 c -10e-4,0 -2.25,-0.684 -6.246,-1.933 -3.35,-1.047 -9.826,-2.267 -17.325,-3.68 -1.537,-0.29 -3.119,-0.588 -4.73,-0.895 -9.493,-1.81 -17.787,-0.016 -17.869,0.003 l 0.217,0.977 c 0.08,-0.019 8.173,-1.769 17.464,0.003 z"
       id="path60"
       inkscape:connector-curvature="0"
       style="fill:#5a5a5a;fill-opacity:1" /><path
       d="m 40.009,20.5 -0.018,-1 c -4.739,0.083 -12.607,1.598 -12.939,1.662 l 0.189,0.981 c 0.081,-0.015 8.115,-1.561 12.768,-1.643 z"
       id="path62"
       inkscape:connector-curvature="0"
       style="fill:#5a5a5a;fill-opacity:1" /><path
       d="m 70.12,20.02 c 0.895,0 1.629,-0.062 2.143,-0.204 L 71.997,18.852 C 68.494,19.821 52.575,16.609 49.226,15.605 45.847,14.591 36.92,13.584 34.137,13.538 l -0.016,1 c 2.738,0.045 11.508,1.032 14.817,2.025 2.514,0.753 15.304,3.457 21.182,3.457 z"
       id="path64"
       inkscape:connector-curvature="0"
       style="fill:#5a5a5a;fill-opacity:1" /><path
       d="m 62.838,16.457 c 3.885,0 5.5,-0.787 5.598,-0.836 l -0.45,-0.893 C 67.952,14.746 64.5,16.379 55.341,14.684 45.718,12.904 40.537,11.314 40.035,10.913 l -0.736,0.677 c 0.709,0.772 7.676,2.563 15.86,4.078 3.198,0.59 5.726,0.789 7.679,0.789 z"
       id="path66"
       inkscape:connector-curvature="0"
       style="fill:#5a5a5a;fill-opacity:1" /><path
       d="m 55.938,12.824 c 3.565,0 6.677,-0.636 6.831,-0.667 l -0.203,-0.979 c -0.044,0.009 -4.388,0.899 -8.59,0.575 C 49.833,11.433 44.969,8.599 44.92,8.57 l -0.507,0.862 c 0.207,0.121 5.109,2.979 9.486,3.317 0.685,0.052 1.37,0.075 2.039,0.075 z"
       id="path68"
       inkscape:connector-curvature="0"
       style="fill:#5a5a5a;fill-opacity:1" /></g></svg>