<?xml version="1.0" encoding="UTF-8" standalone="no"?>
<svg
   xmlns:dc="http://purl.org/dc/elements/1.1/"
   xmlns:cc="http://creativecommons.org/ns#"
   xmlns:rdf="http://www.w3.org/1999/02/22-rdf-syntax-ns#"
   xmlns:svg="http://www.w3.org/2000/svg"
   xmlns="http://www.w3.org/2000/svg"
   xmlns:sodipodi="http://sodipodi.sourceforge.net/DTD/sodipodi-0.dtd"
   xmlns:inkscape="http://www.inkscape.org/namespaces/inkscape"
   version="1.1"
   x="0px"
   y="0px"
   viewBox="0 0 100 125"
   id="svg10"
   sodipodi:docname="pat.svg"
   inkscape:version="0.92.3 (2405546, 2018-03-11)">
  <metadata
     id="metadata16">
    <rdf:RDF>
      <cc:Work
         rdf:about="">
        <dc:format>image/svg+xml</dc:format>
        <dc:type
           rdf:resource="http://purl.org/dc/dcmitype/StillImage" />
        <dc:title></dc:title>
      </cc:Work>
    </rdf:RDF>
  </metadata>
  <defs
     id="defs14" />
  <sodipodi:namedview
     pagecolor="#ffffff"
     bordercolor="#666666"
     borderopacity="1"
     objecttolerance="10"
     gridtolerance="10"
     guidetolerance="10"
     inkscape:pageopacity="0"
     inkscape:pageshadow="2"
     inkscape:window-width="1600"
     inkscape:window-height="872"
     id="namedview12"
     showgrid="false"
     inkscape:zoom="1.888"
     inkscape:cx="-39.512712"
     inkscape:cy="62.5"
     inkscape:window-x="0"
     inkscape:window-y="0"
     inkscape:window-maximized="1"
     inkscape:current-layer="svg10" />
  <g
     transform="translate(0,-943.8876)"
     id="g4"
     style="stroke:none;stroke-opacity:1;fill:#faf6fa;fill-opacity:1">
    <path
       style="color:#000000;text-indent:0;text-transform:none;direction:ltr;baseline-shift:baseline;display:inline;overflow:visible;visibility:visible;fill:#faf6fa;fill-opacity:1;stroke:none;enable-background:accumulate;stroke-opacity:1"
       d="m 49.656058,959.66386 c -0.65258,-0.006 -1.313467,0.004 -1.983584,0.029 -5.595384,0.20974 -10.508653,1.49204 -14.732421,3.56431 0,0.002 0,0.002 -0.0092,0.004 -1.175935,0.48859 -2.35741,1.04525 -3.542575,1.67156 -4.940959,2.61189 -8.806593,5.88903 -11.711357,9.57981 -0.857491,0.95916 -1.687291,1.98181 -2.491247,3.07117 -3.313664,4.49102 -5.3720126,9.11582 -6.3882648,13.69523 -0.3590572,1.24184 -0.669194,2.53204 -0.9211792,3.86895 -1.0384045,5.48721 -0.8842591,10.54731 0.1873743,15.11651 0.2159872,1.2725 0.4975102,2.5641 0.8491832,3.8762 1.4482285,5.4044 3.7880995,9.9059 6.7445525,13.561 0,0.01 0.0092,0.012 0.0092,0.019 0.738421,1.0385 1.544223,2.0662 2.418329,3.082 3.6478,4.238 7.7045,7.2757 11.951343,9.2861 1.125169,0.6217 2.302951,1.2071 3.542576,1.7478 5.11818,2.2325 10.08683,3.2083 14.779495,3.1799 1.288544,0.073 2.613087,0.087 3.970859,0.036 5.591692,-0.2096 10.499422,-1.4908 14.721344,-3.5607 0,0 0.01846,0 0.01846,-0.01 1.177781,-0.4886 2.358332,-1.0452 3.543497,-1.6715 4.941882,-2.6124 8.807516,-5.8918 11.711357,-9.5834 0.856568,-0.9587 1.688214,-1.979 2.491247,-3.0676 3.314587,-4.4911 5.372013,-9.1158 6.389187,-13.6952 0.358135,-1.2419 0.667348,-2.5321 0.920258,-3.869 1.040246,-5.4974 0.882409,-10.56611 -0.195682,-15.14189 -0.215065,-1.26418 -0.491973,-2.54746 -0.840877,-3.85077 -1.448228,-5.40443 -3.787176,-9.90591 -6.744552,-13.56107 0,-0.006 -0.0092,-0.0121 -0.0092,-0.0182 -0.737498,-1.03855 -1.545146,-2.06628 -2.418329,-3.08206 -3.653338,-4.24396 -7.716499,-7.28665 -11.969804,-9.29696 0,-0.002 0,-0.006 -0.0092,-0.007 -1.115939,-0.61541 -2.285413,-1.19373 -3.513961,-1.72957 -5.128333,-2.23723 -10.107136,-3.21263 -14.808109,-3.17998 -0.645195,-0.0361 -1.296852,-0.0597 -1.958661,-0.0653 z m 1.889434,0.64178 c 0,0 0.0092,0 0.01846,0 3.110598,0.17093 6.012592,0.69642 8.701368,1.52291 -0.750421,-0.0936 -1.499918,-0.16962 -2.251261,-0.21029 -0.966409,-0.0523 -1.93374,-0.0575 -2.896456,-0.0254 -2.176496,-0.58997 -4.432372,-0.96733 -6.751937,-1.09504 1.044866,-0.11619 2.106346,-0.18219 3.183517,-0.19218 z m -6.60979,0.17406 c -0.01846,0.006 -0.04615,0.01 -0.06461,0.0145 -0.06461,0.004 -0.132916,0.0106 -0.200297,0.0145 0.0923,-0.01 0.176298,-0.0198 0.265832,-0.029 z m 1.761134,0.53302 c 2.230031,0.007 4.408373,0.25106 6.512873,0.69618 -2.302951,0.20647 -4.579133,0.65009 -6.802703,1.2981 -2.500478,-0.23629 -5.026801,-0.20904 -7.538355,0.10515 0.296291,-0.13366 0.58889,-0.27034 0.887951,-0.39523 1.690984,-0.70394 3.451195,-1.25871 5.269556,-1.66431 0.560277,-0.0271 1.115939,-0.0417 1.670678,-0.0399 z m -5.036031,0.37709 c -0.719038,0.24198 -1.431614,0.50033 -2.128499,0.79047 -0.889797,0.37055 -1.757441,0.78463 -2.607549,1.22919 -2.219877,0.4124 -4.420372,1.05078 -6.569178,1.94351 0.894413,-0.56062 1.828516,-1.08111 2.79954,-1.55915 0,-0.003 0.0092,-0.006 0.0092,-0.007 2.872457,-1.19224 5.710763,-1.97547 8.488149,-2.39675 z m 15.349002,0.7796 c 0.322136,0.007 0.644273,0.0114 0.968255,0.029 1.829438,0.099 3.658876,0.36268 5.474468,0.78683 2.593704,1.09805 4.95019,2.49854 7.074073,4.13721 -2.159881,-0.81102 -4.39822,-1.39618 -6.679018,-1.7767 -2.150651,-1.29871 -4.438833,-2.36944 -6.837778,-3.17634 z m -1.907895,0.004 c 2.53463,0.69846 4.953882,1.69758 7.230064,2.95152 -2.395253,-0.29976 -4.823735,-0.37732 -7.248524,-0.22842 -2.313104,-0.79949 -4.696358,-1.37262 -7.113763,-1.70784 2.338025,-0.58105 4.72774,-0.93272 7.132223,-1.01526 z m 8.31462,0.18855 c 0.06461,0.0221 0.125532,0.0428 0.18922,0.0652 -0.01846,-0.004 -0.03692,-0.007 -0.05538,-0.011 -0.04615,-0.0196 -0.09507,-0.0351 -0.141223,-0.0545 z m -20.613021,1.04427 c 0.715346,-0.006 1.428845,0.0189 2.143267,0.058 -2.288182,0.76913 -4.509906,1.75112 -6.628251,2.93702 -2.430328,0.28375 -4.829273,0.80189 -7.151608,1.54829 1.858053,-1.54102 3.861943,-2.89098 5.997825,-4.0103 1.870051,-0.33941 3.756717,-0.51796 5.638767,-0.53303 z m 3.698566,0.17768 c 2.401714,0.23931 4.776661,0.72173 7.09161,1.43225 -1.103016,0.10895 -2.20234,0.26139 -3.296126,0.4605 -1.226702,0.22343 -2.444173,0.50942 -3.646877,0.84484 -0.130146,-0.0123 -0.25937,-0.0289 -0.388594,-0.0399 -2.145112,-0.18311 -4.299456,-0.19129 -6.439953,-0.0254 2.14419,-1.1027 4.382528,-1.99815 6.67994,-2.67233 z m 20.192121,0.34809 c 0.995022,0.34998 1.985429,0.75435 2.962914,1.2147 0,0.002 0,0.002 0.0092,0.004 2.722005,1.50146 5.103412,3.23386 7.16453,5.14163 -0.635042,-0.40916 -1.2747,-0.80202 -1.932817,-1.16394 -0.845492,-0.46519 -1.713137,-0.88451 -2.592781,-1.2727 -1.706675,-1.47855 -3.57488,-2.79989 -5.611999,-3.92331 z m -31.447502,0.40973 c -1.98266,1.18354 -3.837944,2.5728 -5.559388,4.11909 -2.358332,0.87282 -4.622515,1.99785 -6.751013,3.37213 0.208604,-0.24886 0.411669,-0.50046 0.627658,-0.7433 1.22024,-1.37185 2.575243,-2.63913 4.041931,-3.79639 0,-0.003 0,-0.005 0.0092,-0.007 2.470019,-1.33704 5.030494,-2.30695 7.629736,-2.94427 z m 22.966737,1.06604 c 1.8359,0.0325 3.661645,0.19983 5.464315,0.49674 2.062964,1.25951 4.000396,2.72904 5.779067,4.37654 -1.044865,-0.38253 -2.103576,-0.72638 -3.178902,-1.02252 -1.203626,-0.33113 -2.425713,-0.60313 -3.655183,-0.82309 -0.110764,-0.0667 -0.219681,-0.13742 -0.330444,-0.20305 -1.850667,-1.09494 -3.788099,-2.03525 -5.786451,-2.81374 0.568584,-0.0149 1.139014,-0.0209 1.707598,-0.011 z m -3.190901,0.0725 c 2.068502,0.7254 4.07793,1.63751 6.005208,2.70497 -2.21434,-0.30585 -4.451755,-0.4292 -6.686401,-0.3626 -1.99466,-0.59754 -4.032702,-1.03664 -6.091973,-1.31622 0.712576,-0.17034 1.428844,-0.32923 2.149728,-0.46049 1.530377,-0.27872 3.076446,-0.46692 4.623438,-0.56566 z m 10.149596,0.70344 c 2.362024,0.49152 4.667743,1.21829 6.874699,2.19007 1.976199,1.72739 3.718872,3.67539 5.224328,5.79067 -2.026965,-1.30907 -4.180385,-2.43639 -6.428877,-3.35402 -1.737136,-1.72365 -3.638569,-3.27635 -5.67015,-4.62672 z m -22.072325,0.53301 c 0.670117,0.005 1.339311,0.0305 2.009428,0.0688 -2.126653,0.68435 -4.197923,1.54505 -6.18243,2.57444 -2.059271,0.3273 -4.090852,0.81887 -6.06982,1.46126 0.57043,-0.46405 1.150091,-0.91688 1.74452,-1.34887 1.257161,-0.91499 2.565089,-1.75628 3.915477,-2.51641 1.519301,-0.17032 3.049678,-0.24916 4.582825,-0.23931 z m -15.844669,0.1124 c -0.0092,0.01 -0.01846,0.0194 -0.03692,0.029 -0.04615,0.0227 -0.08307,0.0496 -0.123685,0.0725 0.05538,-0.0333 0.106148,-0.0683 0.159683,-0.10153 z m 19.446317,0.0797 c 1.959584,0.19166 3.909939,0.52647 5.822449,1.00802 -2.06481,0.15804 -4.118543,0.48325 -6.135355,0.97901 -1.894973,-0.0672 -3.789946,0.0137 -5.67015,0.2248 1.931894,-0.895 3.933015,-1.63596 5.983056,-2.21183 z m -9.660392,0.24293 c -0.950717,0.57895 -1.878358,1.19299 -2.780155,1.84925 -1.008868,0.73333 -1.980814,1.52202 -2.919533,2.34599 -0.121839,0.045 -0.245525,0.0845 -0.366441,0.13054 -2.011274,0.76557 -3.960706,1.69279 -5.815988,2.77023 1.453766,-1.92299 3.082907,-3.70136 4.85881,-5.30477 2.270645,-0.82761 4.626208,-1.42693 7.023307,-1.79124 z m 19.021723,1.22922 c 2.128499,0.0317 4.254228,0.23568 6.349498,0.60554 1.686368,1.02517 3.300741,2.17413 4.819119,3.44102 -1.931893,-0.75538 -3.923784,-1.35516 -5.958134,-1.78397 -1.678984,-0.88315 -3.423504,-1.63681 -5.210483,-2.26259 z m -1.812823,0.0145 c 1.690984,0.50855 3.346893,1.13436 4.952959,1.87099 -1.842361,-0.27814 -3.711489,-0.41033 -5.594462,-0.3916 -1.703907,-0.40586 -3.427196,-0.69144 -5.159717,-0.84848 1.914357,-0.36115 3.854558,-0.56927 5.80122,-0.63091 z m -29.551607,0.67805 c -0.540894,0.52799 -1.067019,1.06672 -1.566376,1.62805 -0.642426,0.72259 -1.248854,1.47544 -1.822976,2.2481 -1.822977,1.33656 -3.527807,2.86574 -5.077568,4.60497 0.563046,-0.89239 1.176859,-1.76339 1.842361,-2.61433 0,-0.006 0,-0.01 0.0092,-0.0145 2.072194,-2.32452 4.292072,-4.26514 6.614406,-5.85228 z m 49.048689,0.10877 c 0.291676,0.14902 0.58243,0.29518 0.870414,0.45325 1.606065,0.88318 3.138289,1.91918 4.590209,3.08932 1.858975,2.11358 3.380122,4.3979 4.582825,6.79505 -1.594066,-1.66869 -3.359815,-3.16712 -5.250173,-4.49981 -1.378078,-2.10754 -2.977682,-4.06711 -4.793275,-5.83781 z m -9.761002,0.11603 c 0.716269,0.15597 1.428845,0.32409 2.135883,0.51852 1.498994,0.41284 2.972144,0.91174 4.408373,1.4939 1.551607,1.55261 2.968452,3.24414 4.242228,5.04371 -1.860821,-1.23614 -3.827789,-2.3171 -5.869523,-3.22711 -1.537762,-1.40359 -3.183518,-2.68391 -4.916961,-3.82902 z m -19.630921,0.15592 c -1.775902,0.54762 -3.512114,1.23953 -5.196637,2.07042 -1.712214,0.37341 -3.390275,0.86862 -5.021263,1.4794 1.570991,-1.15803 3.230592,-2.18834 4.960343,-3.08931 1.738981,-0.2742 3.494577,-0.42693 5.257557,-0.46051 z m 2.084193,0.0145 c 1.633757,0.0598 3.267513,0.22391 4.884655,0.50401 -1.621757,0.12479 -3.246283,0.36873 -4.869886,0.73607 -1.6836,0.007 -3.346893,0.14313 -4.985265,0.38797 1.619911,-0.67002 3.281359,-1.20907 4.970496,-1.62805 z m -17.864249,0.0363 c -1.729751,1.68691 -3.309972,3.53571 -4.706511,5.52596 -2.068502,1.31125 -4.003164,2.82147 -5.772606,4.50345 1.005176,-2.1942 2.224493,-4.27989 3.662568,-6.2149 2.12573,-1.54517 4.416681,-2.81711 6.816549,-3.81451 z m 8.75675,0.72882 c -1.791594,1.03769 -3.501038,2.21875 -5.101566,3.53894 -1.741751,0.76334 -3.419813,1.65975 -5.026801,2.66871 1.353156,-1.64603 2.841074,-3.17794 4.439757,-4.58685 1.850667,-0.67885 3.753024,-1.22427 5.68861,-1.6208 z m 16.225877,0.21029 c 1.484226,0.35697 2.950915,0.80943 4.390836,1.36701 -1.400231,-0.20919 -2.831844,-0.33179 -4.296687,-0.36623 -1.549761,-0.32315 -3.093061,-0.53367 -4.626207,-0.64179 1.513763,-0.22617 3.026603,-0.3411 4.532058,-0.35899 z m 2.314027,0.0399 c 1.75375,0.0987 3.489962,0.33944 5.199407,0.69619 1.443613,0.76144 2.839228,1.61837 4.173001,2.5708 -1.513763,-0.59014 -3.082908,-1.07407 -4.702818,-1.44676 -1.522994,-0.72522 -3.085677,-1.32973 -4.66959,-1.82023 z m -9.348409,0.79409 c 1.316235,-0.003 2.646316,0.0798 3.981012,0.23569 -1.161167,0.0744 -2.339872,0.20484 -3.535191,0.39521 -1.377155,0.0611 -2.72385,0.19055 -4.03547,0.39524 1.19255,-0.4177 2.389715,-0.75139 3.589649,-1.02614 z m -2.61401,0.1124 c -1.357772,0.42038 -2.707236,0.9301 -4.046547,1.53741 -1.533147,0.38087 -3.012758,0.85811 -4.438833,1.425 1.267315,-0.86145 2.580781,-1.62211 3.931168,-2.2916 1.492534,-0.32236 3.012758,-0.5486 4.554212,-0.67081 z m 19.159254,0.2647 c 1.883897,0.5059 3.725334,1.16415 5.507697,1.95439 1.301467,1.19057 2.521708,2.46982 3.6478,3.82902 -1.538685,-1.0493 -3.162288,-1.97774 -4.866194,-2.77749 -1.360541,-1.10715 -2.794,-2.11113 -4.289303,-3.00592 z m 8.822285,0.2393 c 2.200494,0.9894 4.298532,2.18422 6.258117,3.56071 1.308851,2.02575 2.412791,4.18465 3.299819,6.43606 -0.773496,-0.79504 -1.578375,-1.56091 -2.41556,-2.29159 -0.938717,-0.81923 -1.920817,-1.59306 -2.932454,-2.32426 -0.07384,-0.10905 -0.138454,-0.22161 -0.21045,-0.32995 -1.195319,-1.7919 -2.535553,-3.48123 -3.999472,-5.05097 z m -18.648822,0.10879 c 0.110764,0.002 0.219681,0.008 0.329521,0.0109 0.557508,0.11716 1.115015,0.24859 1.672523,0.39524 -1.063326,-0.17188 -2.111884,-0.29879 -3.143827,-0.38798 0.382133,-0.008 0.764266,-0.0224 1.141783,-0.0182 z m 26.208406,0.14142 c 0.05538,0.0491 0.096,0.0992 0.144915,0.14866 -0.01846,-0.0108 -0.02769,-0.0219 -0.03692,-0.0326 -0.02769,-0.0389 -0.07384,-0.0774 -0.105225,-0.11603 z m -22.774748,0.0689 c 1.254392,0.14064 2.478325,0.35838 3.677336,0.63093 1.187935,0.56919 2.350948,1.2232 3.488116,1.94351 -1.076248,-0.4358 -2.191264,-0.82862 -3.346893,-1.1748 -1.271007,-0.54446 -2.544783,-1.01408 -3.818559,-1.39964 z m -26.523159,0.22119 c -1.619911,1.53912 -3.111521,3.21183 -4.452678,5.00019 -1.71129,1.18674 -3.327509,2.50627 -4.830196,3.94142 0.31106,-0.66277 0.633196,-1.32087 0.979331,-1.96526 0.735652,-1.37047 1.55253,-2.69556 2.439558,-3.9668 1.858975,-1.16595 3.825944,-2.16839 5.863985,-3.00955 z m 17.860558,0.011 c 2.419252,-0.0398 4.935421,0.15122 7.542047,0.59829 1.654063,0.28347 3.229669,0.66188 4.743432,1.11316 2.497708,1.07453 4.985264,2.45651 7.43313,4.19888 1.364232,0.9711 2.619548,1.99538 3.78533,3.05667 1.786056,2.05331 3.429965,4.38178 4.880962,7.01626 0.807648,1.4678 1.490688,2.93523 2.080501,4.39822 0.719038,2.62435 1.188858,5.4318 1.353157,8.43398 0.0923,1.6732 0.07384,3.2916 -0.02769,4.8659 -0.49105,2.6763 -1.284852,5.4113 -2.439558,8.1875 -0.647042,1.5537 -1.370694,3.0086 -2.150651,4.3874 -1.601451,2.1924 -3.503808,4.3027 -5.743069,6.2983 -1.254393,1.1173 -2.53463,2.1141 -3.833328,3.0168 -2.396176,1.2819 -5.024954,2.3639 -7.911257,3.1909 -1.609758,0.4611 -3.193671,0.8015 -4.749893,1.0515 -2.719235,0.1163 -5.56031,-0.05 -8.52507,-0.5584 -1.655909,-0.284 -3.233361,-0.6645 -4.749893,-1.1168 -2.495863,-1.0742 -4.979726,-2.4542 -7.425745,-4.1953 -1.365157,-0.9715 -2.61955,-1.9984 -3.786255,-3.0602 -1.786055,-2.0533 -3.429042,-4.3783 -4.880039,-7.0126 -0.81134,-1.4729 -1.497149,-2.9449 -2.088808,-4.4129 -0.715346,-2.6201 -1.180551,-5.4229 -1.34485,-8.4194 -0.0923,-1.6732 -0.07384,-3.2917 0.02769,-4.86601 0.49105,-2.6761 1.284853,-5.41112 2.439558,-8.1874 0.647042,-1.55483 1.373463,-3.01137 2.154343,-4.39103 1.600528,-2.19061 3.497347,-4.30051 5.735685,-6.29466 1.254394,-1.11731 2.538323,-2.11408 3.837021,-3.0168 2.396176,-1.28187 5.024955,-2.36389 7.911257,-3.19084 1.609758,-0.4612 3.192748,-0.80157 4.750816,-1.05153 0.326752,-0.014 0.650734,-0.0344 0.9821,-0.0399 z m -10.884325,0.1668 c -1.405769,0.81568 -2.76354,1.73938 -4.065007,2.77385 -1.516532,0.73896 -2.961069,1.58249 -4.333609,2.51642 1.173166,-1.31148 2.447866,-2.51894 3.793639,-3.6332 1.493456,-0.65265 3.030295,-1.20872 4.604977,-1.65707 z m 4.582825,0.49313 c -1.02179,0.30347 -2.014043,0.63697 -2.973067,1.00076 0.437514,-0.2219 0.876875,-0.43387 1.315312,-0.63454 0.546432,-0.13418 1.098401,-0.25751 1.657755,-0.36622 z m 21.103148,0.39885 c 1.464843,0.45383 2.879842,1.00461 4.24592,1.64256 1.182397,0.96517 2.302028,2.01324 3.35797,3.14009 -1.17409,-0.79811 -2.41556,-1.53655 -3.724411,-2.20459 -1.251623,-0.95958 -2.549398,-1.8179 -3.879479,-2.57806 z m -25.751508,0.84848 c -1.013482,0.57091 -2.020504,1.19947 -3.01368,1.88912 -1.21101,0.65107 -2.364793,1.35177 -3.454888,2.10306 0.89072,-0.89173 1.821132,-1.71337 2.781079,-2.48016 1.184242,-0.5732 2.418328,-1.07324 3.687489,-1.51202 z m 33.152332,0.029 c 1.90328,0.95211 3.729949,2.05703 5.456008,3.29961 1.073479,1.65305 2.026965,3.38438 2.843843,5.18151 -1.41223,-1.51668 -2.946299,-2.91688 -4.591132,-4.18436 -1.128861,-1.52322 -2.372177,-2.95849 -3.708719,-4.29676 z m -50.005868,0.1269 c -1.273776,1.92823 -2.343563,3.98604 -3.223207,6.12788 -1.746366,1.81018 -3.302588,3.80256 -4.623438,5.96473 0.08307,-0.31506 0.156914,-0.62982 0.246448,-0.94278 0.503972,-1.76181 1.170397,-3.48745 1.987275,-5.16338 1.649448,-2.2857 3.539806,-4.27879 5.612922,-5.98645 z m 61.511389,0.47499 c 0.744883,0.7476 1.460228,1.53909 2.142344,2.37864 0,0.004 0,0.007 0,0.011 1.806362,2.54157 3.208439,5.13856 4.238536,7.75956 -0.397824,-0.65188 -0.809494,-1.29218 -1.251623,-1.91088 -0.559354,-0.78675 -1.159321,-1.5416 -1.783287,-2.27347 -0.895335,-2.06993 -2.007582,-4.07058 -3.354277,-5.96471 z m -51.083039,0.17769 c -1.364232,1.26508 -2.631547,2.64163 -3.789022,4.12272 -1.382694,1.08026 -2.678622,2.25476 -3.884094,3.51355 0.911026,-1.72002 1.954969,-3.36577 3.118905,-4.92406 1.453766,-1.00628 2.97399,-1.91432 4.554211,-2.71221 z m 34.442723,0.78321 c 0.45136,0.20582 0.895336,0.41673 1.331004,0.63817 0.443976,0.34244 0.879644,0.70097 1.312543,1.06965 -0.877798,-0.61199 -1.757442,-1.18224 -2.643547,-1.70782 z m 4.053931,0.25381 c 1.533147,0.84819 2.992451,1.81248 4.373298,2.87177 0.971947,1.31429 1.857129,2.69446 2.646316,4.13359 -1.108554,-1.18956 -2.31218,-2.30728 -3.610878,-3.34677 -1.055019,-1.31137 -2.196802,-2.53087 -3.408736,-3.65859 z m -46.096851,0.0689 c -0.604583,0.93226 -1.169475,1.89123 -1.696523,2.87176 -0.590736,1.09838 -1.126091,2.22592 -1.613449,3.37576 -0.0923,0.0939 -0.186452,0.18448 -0.275985,0.2792 -1.479611,1.56228 -2.828152,3.24302 -4.031779,5.01835 0.474436,-2.3648 1.171321,-4.67612 2.077732,-6.89298 1.6836,-1.72759 3.541652,-3.28573 5.540004,-4.65209 z m 56.333212,0.0833 c 1.911587,1.46513 3.671798,3.1137 5.235404,4.94218 1.034713,2.41774 1.765749,4.9319 2.20511,7.4949 -1.258085,-2.05715 -2.710928,-4.00065 -4.3373,-5.80157 -0.817801,-2.30958 -1.857129,-4.53487 -3.103214,-6.63551 z m -48.301962,0.75057 c -1.043019,0.97019 -2.041733,2.01913 -2.987835,3.15097 -1.211934,1.00617 -2.33618,2.07516 -3.371815,3.20171 0.766112,-1.32293 1.615296,-2.5775 2.538322,-3.76373 1.208241,-0.94107 2.48294,-1.80828 3.821328,-2.58895 z m 38.036064,1.00076 c 1.067019,0.66994 2.074963,1.39645 3.035834,2.16108 0.821493,1.02618 1.584836,2.11685 2.295566,3.25612 -0.78088,-0.85887 -1.615296,-1.69638 -2.506016,-2.50916 -0.906412,-1.03822 -1.847899,-2.01073 -2.825384,-2.90804 z m 7.847569,0.54028 c 0.576891,0.45094 1.145476,0.91121 1.696522,1.39237 1.17132,1.02137 2.280798,2.10984 3.321048,3.25611 0.724576,2.0729 1.271931,4.21361 1.639295,6.38891 -1.139937,-1.92082 -2.442327,-3.74757 -3.886863,-5.45341 -0.777188,-1.93244 -1.70483,-3.7996 -2.770002,-5.58398 z m -52.31251,0.26832 c -1.163936,1.7131 -2.189418,3.52124 -3.059832,5.40631 -1.236855,1.44243 -2.359255,2.97821 -3.368122,4.58317 0.503972,-2.06702 1.178704,-4.09186 2.004813,-6.05169 1.375309,-1.41662 2.850304,-2.73963 4.423141,-3.93779 z m 5.20033,0.6853 c -0.788265,0.71556 -1.534993,1.44702 -2.242031,2.19008 0.298137,-0.38888 0.598121,-0.77122 0.907335,-1.14217 0.432899,-0.35758 0.877798,-0.70748 1.334696,-1.04791 z m -15.751442,0.62366 c 0,0.0137 -0.01846,0.0263 -0.01846,0.0399 -0.02769,0.0352 -0.05538,0.0735 -0.07384,0.10878 0.02769,-0.0496 0.06461,-0.0991 0.09507,-0.14867 z m 61.013878,0.14868 c 1.476842,1.27207 2.850305,2.66091 4.112081,4.14446 0.655349,1.63636 1.199011,3.31658 1.624526,5.02925 -0.929487,-1.6104 -1.990967,-3.15112 -3.176133,-4.60863 -0.745805,-1.58653 -1.602373,-3.11121 -2.560474,-4.56508 z m -49.606198,0.7687 c -0.913796,1.34601 -1.737135,2.7693 -2.462634,4.26776 -1.044865,1.32295 -1.978968,2.70878 -2.809691,4.14445 0.487358,-1.6908 1.108554,-3.33217 1.837745,-4.92042 1.063326,-1.23649 2.209725,-2.40454 3.43458,-3.49179 z m 48.573331,0.7832 c 1.119631,1.04157 2.15619,2.15031 3.10783,3.31412 0.647964,1.38872 1.21101,2.82365 1.674369,4.304 -0.712576,-1.23085 -1.51284,-2.43577 -2.40356,-3.6078 -0.712576,-1.40942 -1.509148,-2.74693 -2.378639,-4.01032 z m -57.638371,0.14142 c -0.825185,2.2659 -1.440844,4.61477 -1.834976,7.009 -1.295929,2.07931 -2.383254,4.27906 -3.249052,6.563 -0.04615,-2.41012 0.146761,-4.81848 0.601813,-7.18308 1.244239,-2.31341 2.753387,-4.44981 4.482215,-6.38892 z m 9.746234,0.68894 c -0.665502,0.95483 -1.296852,1.96016 -1.892204,3.01317 -0.809494,1.11231 -1.545146,2.24385 -2.201417,3.39394 0.416284,-1.19182 0.899027,-2.33941 1.431613,-3.44833 0.817801,-1.02953 1.710368,-2.01306 2.662008,-2.95878 z m 59.621954,0.0254 c 0.196605,0.25912 0.394132,0.51784 0.583353,0.7832 1.067018,1.49644 2.00112,3.09693 2.80323,4.78625 0,0 0,0.009 0,0.0111 0.75319,2.70253 1.127938,5.41253 1.17132,8.08589 -0.713499,-2.19625 -1.654986,-4.31302 -2.781077,-6.33454 -0.326752,-2.49319 -0.914719,-4.95142 -1.780518,-7.33167 z m -73.034448,0.55477 c -0.260293,0.71623 -0.505818,1.43954 -0.713499,2.16832 -0.266755,0.92878 -0.484589,1.86574 -0.668271,2.81009 -1.06148,1.99373 -1.9318942,4.11134 -2.5743205,6.34913 0.1199934,-1.05115 0.2944454,-2.10672 0.526125,-3.16552 0,-9.3e-4 0,0 0,0 0.8611835,-2.99975 2.0223505,-5.71703 3.4299655,-8.15839 z m 6.356882,0.68892 c -0.790111,2.08808 -1.407615,4.24398 -1.839592,6.43608 -1.025482,1.81107 -1.907895,3.69773 -2.638932,5.64199 0,-0.73315 0,-1.46548 0.02769,-2.19735 0.06461,-1.55502 0.229834,-3.10275 0.479051,-4.63396 1.165782,-1.85381 2.498632,-3.60722 3.967166,-5.24676 z m 63.823569,0.38799 c 1.553453,1.84572 2.92507,3.83089 4.093621,5.92117 0.30183,2.39839 0.363673,4.82586 0.185529,7.24471 -0.353519,-1.05637 -0.746729,-2.09967 -1.186089,-3.12561 -0.490127,-1.14585 -1.041174,-2.26677 -1.635602,-3.36489 -0.01846,-0.12914 -0.02769,-0.2591 -0.05538,-0.38795 -0.299061,-2.13302 -0.77165,-4.23771 -1.410384,-6.28743 z m -7.896489,0.68892 c 0.314752,0.37897 0.62212,0.76311 0.917488,1.14945 0.252909,0.50441 0.497511,1.01771 0.728268,1.54106 -0.526125,-0.93327 -1.075326,-1.83156 -1.645756,-2.69051 z m 5.303709,0.82309 c 1.303313,1.6843 2.470941,3.47137 3.489039,5.34105 0.249217,1.95783 0.356288,3.93375 0.311059,5.91029 -0.612889,-1.97802 -1.385462,-3.90677 -2.316795,-5.76159 -0.356288,-1.86636 -0.857492,-3.69995 -1.483303,-5.48975 z m -59.602571,0.33722 c -0.681194,1.73041 -1.223933,3.52025 -1.625449,5.35559 -0.776265,1.57247 -1.436229,3.19137 -1.975276,4.84783 0.07384,-1.94408 0.301829,-3.87874 0.673809,-5.78701 0.872259,-1.53573 1.850667,-3.0134 2.926916,-4.41641 z m 57.844206,0.83757 c 1.014405,1.43152 1.913433,2.9331 2.698005,4.48895 0.304599,1.60302 0.50028,3.22985 0.587045,4.8661 -0.48182,-1.55059 -1.077172,-3.07792 -1.794363,-4.57599 -0.382133,-1.64142 -0.887028,-3.23512 -1.490687,-4.77906 z m -56.619351,0.73611 c -0.515971,1.3215 -0.959947,2.69505 -1.319927,4.1191 -0.656272,1.43299 -1.204549,2.88621 -1.649448,4.35114 0.116302,-1.52853 0.34152,-3.03048 0.659964,-4.50344 0.676578,-1.3647 1.447305,-2.68915 2.309411,-3.9668 z m 67.67905,0.10153 c 0.01846,0.0554 0.03692,0.11104 0.05538,0.16679 0,-0.0129 -0.0092,-0.0268 -0.01846,-0.0397 -0.0092,-0.0425 -0.02769,-0.084 -0.03692,-0.12691 z m -11.911652,0.85934 c 0.67104,1.06729 1.263622,2.15683 1.798055,3.26336 0.296291,1.28328 0.511356,2.59739 0.657194,3.93421 -0.331366,-1.11354 -0.720883,-2.2304 -1.172243,-3.3504 -0.365518,-1.3298 -0.791957,-2.61373 -1.283006,-3.84717 z m -66.674798,1.41048 c -0.309214,2.28679 -0.378441,4.59934 -0.242756,6.90743 -0.788264,2.39009 -1.3245428,4.8633 -1.576529,7.386 -0.064612,-0.3185 -0.1338388,-0.6363 -0.1892204,-0.9571 -0.3092137,-1.7991 -0.4578209,-3.63582 -0.4495137,-5.49341 0.493819,-2.78068 1.3310041,-5.40041 2.4580191,-7.84292 z m 3.314587,0.34807 c -0.139377,1.10301 -0.237218,2.21212 -0.286138,3.32502 -0.05538,1.24543 -0.04615,2.49457 0.0092,3.74201 -0.03692,0.12359 -0.08307,0.24589 -0.126454,0.36985 -0.656272,2.05078 -1.14363,4.14998 -1.457459,6.27298 -0.598121,-2.3358 -0.974715,-4.71768 -1.121477,-7.10693 0.768881,-2.29009 1.768519,-4.5024 2.977683,-6.60293 z m 7.581737,0.0323 c -0.405208,1.0002 -0.766112,1.99494 -1.084556,2.98424 0.09969,-0.48062 0.202143,-0.95921 0.32029,-1.42866 0.239987,-0.52142 0.494742,-1.03979 0.764266,-1.55558 z m 68.498697,0.86663 c 0.347981,0.99853 0.648888,2.02808 0.899028,3.08208 0,0 0,0.009 0,0.009 0.525202,3.07568 0.66181,6.02635 0.452283,8.83645 -0.07384,-0.7598 -0.167991,-1.5179 -0.296292,-2.2662 -0.164298,-0.9525 -0.375671,-1.89395 -0.620273,-2.82464 0.0923,-2.25612 -0.04615,-4.54126 -0.434746,-6.83489 z m -2.712774,0.21756 c 1.087325,2.15111 1.958662,4.40191 2.57432,6.72976 -0.116301,2.62651 -0.548277,5.20631 -1.264545,7.70521 -0.241833,-2.3986 -0.706115,-4.783 -1.389155,-7.11051 0.264909,-2.43584 0.290753,-4.89109 0.08307,-7.32446 z m -70.778572,0.58012 c -0.305521,2.04921 -0.444898,4.12427 -0.4089,6.2004 -0.486435,1.83025 -0.83257,3.69545 -1.044866,5.57305 -0.442129,-2.0802 -0.718114,-4.19672 -0.823339,-6.31996 0.623043,-1.86873 1.38177,-3.69503 2.277105,-5.45349 z m 67.606131,0.43512 c 0.324906,0.65775 0.639658,1.32057 0.927642,1.99429 0.612889,1.43023 1.137168,2.89735 1.577452,4.38379 -0.246448,2.17855 -0.682117,4.33805 -1.294083,6.45415 -0.193836,-2.2249 -0.576892,-4.4322 -1.139015,-6.59556 0.139377,-2.07927 0.113533,-4.1654 -0.07384,-6.23667 z m -2.410944,0.75789 c 0.779034,1.78772 1.409461,3.63707 1.902357,5.52226 -0.11907,1.75818 -0.357211,3.50868 -0.717191,5.23578 -0.138454,-1.8534 -0.428284,-3.7026 -0.86303,-5.52949 0.01846,-1.75458 -0.0923,-3.5011 -0.322136,-5.22855 z m -63.458051,0.43872 c -0.239987,1.61243 -0.364596,3.25604 -0.367365,4.92404 -0.364595,1.63588 -0.606428,3.27978 -0.731036,4.92388 -0.2926,-1.7268 -0.446745,-3.4675 -0.479051,-5.2067 0.421823,-1.57782 0.944256,-3.12792 1.577452,-4.64122 z m 61.851062,0.51486 c 0.559354,1.42829 1.010714,2.87834 1.36331,4.34392 -0.0092,1.52584 -0.135685,3.05544 -0.359057,4.58314 -0.107071,-1.4131 -0.305522,-2.8412 -0.598121,-4.27854 -0.02769,-1.57976 -0.169837,-3.13208 -0.406132,-4.64852 z m -60.531135,0.62729 c -0.185528,1.14898 -0.322136,2.32821 -0.402439,3.53535 -0.246448,1.35306 -0.416285,2.69292 -0.507665,4.01382 -0.142146,-1.2537 -0.205834,-2.4941 -0.20768,-3.72381 0.290753,-1.28346 0.669193,-2.55878 1.117784,-3.82536 z m 60.034547,2.66512 c 0.119071,0.47757 0.232603,0.95312 0.329521,1.42857 0.0092,0.55981 0,1.12258 -0.01846,1.68978 -0.06461,-1.06268 -0.175375,-2.10238 -0.314752,-3.11835 z m -72.0292715,0.3154 c 0,0.0129 0,0.0268 0,0.0397 0,0.0443 -0.00923,0.0895 -0.018461,0.13421 0,-0.0582 0.018461,-0.11594 0.018461,-0.17409 z m 2.9112245,0.63458 c 0.239986,2.40047 0.705192,4.78827 1.389154,7.11767 -0.264909,2.4358 -0.291676,4.891 -0.08307,7.3244 -1.088248,-2.1534 -1.961431,-4.4064 -2.5780129,-6.7371 0.1172246,-2.626 0.5528929,-5.2065 1.2691609,-7.70497 z m 3.270281,0.59101 c 0.194759,2.22656 0.575969,4.43776 1.139015,6.60286 -0.138454,2.0771 -0.11261,4.1639 0.07384,6.233 -0.324906,-0.6578 -0.639657,-1.3206 -0.928565,-1.9943 -0.611966,-1.4281 -1.14086,-2.8923 -1.581144,-4.3765 0.247372,-2.1824 0.685809,-4.3455 1.297775,-6.46506 z m 76.541025,1.02246 c 0.06461,0.3186 0.132916,0.6363 0.188297,0.9573 0.309214,1.7991 0.457821,3.6358 0.449514,5.4933 -0.492896,2.7807 -1.330081,5.4004 -2.458019,7.8429 0.310137,-2.2868 0.379364,-4.5993 0.241833,-6.9074 0.79011,-2.3898 1.324543,-4.8634 1.578375,-7.3861 z m -3.278589,0.2431 c 0.597198,2.3332 0.974715,4.7128 1.120554,7.0995 -0.767958,2.2894 -1.771288,4.4995 -2.980452,6.5993 0.139377,-1.1019 0.24091,-2.2097 0.290753,-3.3215 0.05538,-1.245 0.04615,-2.495 -0.01846,-3.7419 0.03692,-0.1237 0.08307,-0.246 0.126454,-0.3699 0.655349,-2.0474 1.14363,-4.1463 1.458382,-6.2655 z m -70.825647,0.054 c 0.139377,1.8543 0.427362,3.7017 0.86303,5.5295 -0.0092,1.7535 0.0923,3.4987 0.323059,5.2251 -0.778111,-1.7875 -1.411307,-3.6339 -1.904203,-5.5187 0.119993,-1.7582 0.358134,-3.5086 0.718114,-5.2359 z m 67.834119,0.174 c 0.443052,2.0818 0.718114,4.1987 0.824262,6.3237 -0.623965,1.8705 -1.385462,3.6971 -2.28172,5.4571 0.305521,-2.0481 0.44859,-4.1218 0.413515,-6.1969 0.487358,-1.8333 0.831647,-3.7029 1.043943,-5.5839 z m -2.091577,0.2974 c 0.291676,1.7269 0.445821,3.4676 0.47905,5.2069 -0.421823,1.5742 -0.947025,3.1204 -1.577452,4.6304 0.237218,-1.6065 0.363673,-3.2408 0.365519,-4.9023 0.367364,-1.6394 0.607351,-3.2873 0.732883,-4.935 z m -74.2057691,0.3518 c 0.073842,0.7596 0.1689138,1.5178 0.2972145,2.2662 0.1642986,0.9525 0.3747486,1.894 0.6202736,2.8246 -0.092303,2.2558 0.046151,4.5416 0.4356683,6.835 -0.3479808,-0.9986 -0.6488874,-2.0282 -0.8990275,-3.0821 0,0 0,-0.01 0,-0.01 -0.5261249,-3.0758 -0.6627318,-6.0264 -0.4541289,-8.8364 z m 10.2511291,0.054 c 0.107994,1.4131 0.304599,2.8411 0.598121,4.2785 0.02769,1.5811 0.17076,3.131 0.406132,4.6486 -0.558431,-1.4282 -1.010714,-2.8783 -1.362387,-4.3439 0.0092,-1.5258 0.134762,-3.0553 0.358134,-4.5832 z m 62.445492,0.7505 c 0.142146,1.254 0.206758,2.4941 0.206758,3.7238 -0.289831,1.283 -0.667348,2.5558 -1.115939,3.8219 0.185528,-1.148 0.322136,-2.3258 0.402439,-3.5317 0.246448,-1.3529 0.415362,-2.6933 0.506742,-4.014 z m -61.259403,1.7658 c 0.06461,1.0627 0.174452,2.1024 0.314752,3.1183 -0.119071,-0.4774 -0.23168,-0.9532 -0.329521,-1.4285 -0.0092,-0.5598 0,-1.1227 0.0092,-1.6898 z m 72.377253,2.5454 c -0.0092,0.091 -0.01846,0.1836 -0.02769,0.2757 0,-0.023 0,-0.046 0,-0.069 0.0092,-0.068 0.01846,-0.1383 0.02769,-0.2067 z m -79.223338,0.6926 c 0.351673,1.0528 0.747651,2.0958 1.185165,3.1183 0.49105,1.146 1.041174,2.2668 1.635603,3.3649 0.0092,0.1291 0.02769,0.2591 0.05538,0.388 0.299061,2.1304 0.770727,4.2329 1.407615,6.2801 -1.55253,-1.8451 -2.922301,-3.828 -4.090852,-5.9175 -0.299983,-2.395 -0.361826,-4.8185 -0.184605,-7.2338 z m 3.070908,0.3952 c 0.614735,1.9818 1.383616,3.9146 2.317718,5.7726 0.356289,1.8644 0.857492,3.6948 1.482381,5.4824 -1.303313,-1.6849 -2.470019,-3.4742 -3.488116,-5.3447 -0.250141,-1.9578 -0.356289,-3.9335 -0.311983,-5.9103 z m 67.004318,0.7071 c -0.07384,1.9461 -0.30183,3.8805 -0.674733,5.7906 -0.872259,1.5367 -1.849744,3.0164 -2.925993,4.4202 0.680271,-1.7313 1.223933,-3.5228 1.624527,-5.3591 0.776265,-1.5729 1.436228,-3.1948 1.976199,-4.8517 z m -73.2116698,0.022 c 0.7125768,2.1962 1.6549868,4.313 2.7810778,6.3346 0.325829,2.492 0.914719,4.9488 1.780518,7.328 -0.196605,-0.2588 -0.395055,-0.5145 -0.584276,-0.7796 -1.063326,-1.4922 -1.998351,-3.0875 -2.798615,-4.7717 -0.758727,-2.711 -1.1353226,-5.4295 -1.1787048,-8.1113 z m 8.4816878,0.01 c 0.479974,1.5457 1.078095,3.0679 1.79344,4.5615 0.382133,1.6414 0.887028,3.2351 1.490687,4.7791 -1.012559,-1.429 -1.909741,-2.9289 -2.69339,-4.4819 -0.304599,-1.6006 -0.503972,-3.2246 -0.590737,-4.8587 z m 62.873776,0.1341 c -0.117224,1.5271 -0.338751,3.0282 -0.657195,4.5 -0.678424,1.368 -1.450997,2.697 -2.315872,3.9777 0.515048,-1.319 0.956255,-2.6907 1.315312,-4.1119 0.659041,-1.4379 1.21101,-2.8957 1.657755,-4.3658 z m 4.362222,0.2031 c 0,0.7324 0,1.4662 -0.02769,2.1974 -0.07384,1.555 -0.23168,3.1027 -0.479051,4.6339 -1.167628,1.8554 -2.501401,3.6098 -3.970858,5.2504 0.79011,-2.087 1.405769,-4.2377 1.838668,-6.4288 1.028251,-1.8139 1.910664,-3.7051 2.643547,-5.6529 z m -65.554244,0.1087 c 0.330443,1.1136 0.720883,2.2304 1.170397,3.3504 0.366442,1.3298 0.791957,2.6138 1.284853,3.8473 -0.671963,-1.0674 -1.265469,-2.1568 -1.798978,-3.2633 -0.296292,-1.2834 -0.511357,-2.5974 -0.656272,-3.9344 z m 68.849447,0.3554 c 0.05538,2.4086 -0.143992,4.8162 -0.598121,7.1794 -1.245162,2.3155 -2.756156,4.4519 -4.484984,6.3926 0.824262,-2.2659 1.439921,-4.6147 1.834976,-7.009 1.295006,-2.0787 2.383254,-4.2799 3.248129,-6.563 z m 2.538322,0.9754 c -0.119993,1.0595 -0.29906,2.1237 -0.532586,3.191 -0.861183,2.9938 -2.020504,5.7068 -3.427196,8.1438 0.262139,-0.7198 0.50951,-1.4431 0.719037,-2.1755 0.264909,-0.9286 0.483666,-1.8659 0.665502,-2.8101 1.062403,-1.9937 1.93374,-4.1114 2.575243,-6.3492 z m -12.070413,1.0951 c -0.10061,0.4815 -0.205835,0.9584 -0.323059,1.4287 -0.238141,0.5163 -0.49105,1.0302 -0.757805,1.541 0.403363,-0.9954 0.764266,-1.985 1.080864,-2.9697 z m -62.729784,3.8835 c 1.14086,1.9203 2.442327,3.7442 3.887786,5.4497 0.777188,1.9351 1.706676,3.8046 2.772771,5.5913 -0.578737,-0.4522 -1.146398,-0.9134 -1.700214,-1.396 -1.172243,-1.0231 -2.282644,-2.115 -3.32474,-3.2635 -0.723653,-2.0707 -1.269161,-4.2086 -1.635603,-6.3815 z m 2.767233,0.1305 c 0.929487,1.6123 1.992813,3.1531 3.179825,4.6122 0.743959,1.5855 1.594989,3.1084 2.55309,4.5615 -1.475919,-1.2723 -2.847536,-2.6609 -4.108389,-4.1445 -0.655349,-1.6366 -1.199011,-3.3163 -1.624526,-5.0292 z m 60.618822,0 c -0.48828,1.6907 -1.109477,3.332 -1.838668,4.9204 -1.060557,1.2337 -2.205109,2.3957 -3.426273,3.4809 0.912873,-1.346 1.734366,-2.7695 2.458019,-4.2677 1.042096,-1.3199 1.978045,-2.7016 2.806922,-4.1336 z m -58.624163,0.015 c 0.711653,1.2292 1.510071,2.4335 2.399868,3.6041 0.711653,1.4095 1.508225,2.7469 2.378639,4.0104 -1.123323,-1.0446 -2.160805,-2.1576 -3.114291,-3.3251 -0.647041,-1.3836 -1.202703,-2.8148 -1.664216,-4.2894 z m 56.763343,0.3733 c -0.415362,1.1904 -0.896259,2.337 -1.427922,3.4447 -0.82057,1.0327 -1.716829,2.0213 -2.673084,2.9696 0.667348,-0.9565 1.303313,-1.9615 1.900511,-3.0167 0.809494,-1.1133 1.544223,-2.2465 2.200495,-3.3976 z m 3.873017,0.2612 c -0.503972,2.0671 -1.178704,4.0919 -2.005735,6.0517 -1.373463,1.4153 -2.847536,2.7333 -4.41945,3.9306 1.16209,-1.7101 2.184803,-3.5142 3.053371,-5.3956 1.237778,-1.4436 2.362024,-2.9803 3.371814,-4.5867 z m -68.60023,0.1087 c 1.258085,2.0575 2.710928,4.0041 4.3373,5.8052 0.817802,2.3094 1.85436,4.535 3.100445,6.6355 -1.911587,-1.4653 -3.671798,-3.1134 -5.236327,-4.9421 -1.034713,-2.4185 -1.762057,-4.9349 -2.201418,-7.4986 z m -2.907532,0.6816 c 0,0.016 0.01846,0.031 0.02769,0.047 0.01846,0.055 0.02769,0.111 0.05538,0.1667 -0.02769,-0.071 -0.05538,-0.1421 -0.07384,-0.214 z m 74.298994,0.2973 c -0.474436,2.3648 -1.171321,4.6762 -2.077732,6.893 -1.6836,1.7277 -3.541652,3.2859 -5.540003,4.6523 0.603659,-0.9324 1.170397,-1.8913 1.697445,-2.8718 0.590736,-1.0991 1.125169,-2.2289 1.613449,-3.3794 0.0923,-0.093 0.18276,-0.1818 0.272293,-0.2756 1.479611,-1.5623 2.831845,-3.243 4.034548,-5.0185 z m -61.274172,0.025 c 0.525202,0.9332 1.074403,1.8315 1.645756,2.6905 -0.314752,-0.379 -0.62212,-0.7632 -0.917488,-1.1494 -0.252909,-0.5045 -0.496588,-1.0178 -0.728268,-1.5411 z m 64.331234,1.1857 c -0.08307,0.315 -0.155991,0.6298 -0.245525,0.9428 -0.503049,1.7572 -1.165782,3.477 -1.979891,5.1489 -1.652217,2.291 -3.54442,4.2863 -5.621229,5.9973 1.273776,-1.9275 2.344486,-3.9834 3.223207,-6.1242 1.747289,-1.8103 3.301665,-3.8027 4.623438,-5.9648 z m -75.746299,1.4685 c 0.398748,0.6519 0.810417,1.2922 1.250701,1.9109 0.5612,0.7869 1.160244,1.5415 1.78421,2.2735 0.897181,2.0738 2.011274,4.0746 3.360738,5.9721 -0.747651,-0.7498 -1.465766,-1.5437 -2.148805,-2.386 0,0 0,-0.01 0,-0.011 -1.807285,-2.5416 -3.209362,-5.1386 -4.239459,-7.7596 z m 13.67371,1.6136 c 0.779958,0.8588 1.615296,1.6963 2.506016,2.5091 0.905489,1.0383 1.846976,2.0107 2.823538,2.9081 -1.066096,-0.67 -2.07404,-1.3965 -3.033987,-2.1612 -0.821494,-1.0261 -1.585759,-2.1167 -2.295567,-3.256 z m 49.726191,0.066 c -0.764266,1.3214 -1.61345,2.5751 -2.53463,3.7602 -1.209164,0.9426 -2.484786,1.8108 -3.82502,2.5925 1.037481,-0.965 2.027888,-2.0113 2.969375,-3.1365 1.219317,-1.0104 2.349102,-2.0841 3.390275,-3.2162 z m -51.444865,0.2501 c 1.108554,1.1895 2.313103,2.3075 3.611801,3.3468 1.053173,1.3095 2.190341,2.5288 3.400429,3.655 -1.531301,-0.8478 -2.98599,-1.8096 -4.364991,-2.8681 -0.971947,-1.3143 -1.858052,-2.6946 -2.647239,-4.1337 z m -2.360178,0.3373 c 1.410384,1.5153 2.939838,2.9141 4.582825,4.1809 1.130707,1.5262 2.377715,2.9633 3.717026,4.3039 -1.904203,-0.9521 -3.729949,-2.057 -5.457854,-3.2996 -1.072556,-1.6539 -2.025119,-3.3869 -2.841997,-5.1852 z m 55.549563,0.069 c -0.91195,1.7219 -1.956816,3.368 -3.122598,4.9277 -1.450997,1.0049 -2.972144,1.9116 -4.549596,2.7086 1.36331,-1.2651 2.630625,-2.6417 3.788099,-4.1228 1.382694,-1.0802 2.678622,-2.2547 3.884095,-3.5135 z m -58.482941,0.9065 c 0.773496,0.795 1.577452,1.5609 2.414637,2.2917 0.938718,0.8191 1.92174,1.5931 2.933377,2.3242 0.07384,0.109 0.137531,0.2216 0.21045,0.33 1.195319,1.7934 2.536476,3.4837 4.003165,5.0545 -2.200495,-0.9891 -4.29761,-2.1844 -6.259041,-3.5607 -1.310697,-2.0277 -2.414636,-4.1858 -3.302588,-6.4397 z m 53.853041,0.1052 c -0.29906,0.3895 -0.60089,0.7706 -0.910104,1.1422 -0.435668,0.3587 -0.880567,0.7102 -1.338388,1.0515 0.790111,-0.7171 1.539608,-1.4488 2.248492,-2.1937 z m 6.729784,0.4024 c -0.312906,0.6653 -0.638734,1.3223 -0.986715,1.969 -0.734729,1.3672 -1.547915,2.6911 -2.433097,3.9595 -1.860821,1.1683 -3.826866,2.1781 -5.866754,3.0205 1.618065,-1.5389 3.111521,-3.2121 4.452678,-5.0002 1.712214,-1.1878 3.329355,-2.512 4.833888,-3.9488 z m 6.877468,1.0009 c -0.02769,0.055 -0.06461,0.1113 -0.104302,0.1667 0,-0.014 0.0092,-0.027 0.01846,-0.04 0.02769,-0.041 0.05538,-0.086 0.08307,-0.1269 z m -4.107466,0.8485 c -1.004253,2.1921 -2.221724,4.2779 -3.658876,6.2112 -2.126652,1.5462 -4.415757,2.8166 -6.816548,3.8144 1.727905,-1.6858 3.307202,-3.5334 4.702818,-5.5223 2.068502,-1.3111 4.002242,-2.8216 5.772606,-4.5033 z m -65.699159,0.01 c 1.596835,1.6709 3.361661,3.1729 5.253865,4.5071 1.376232,2.1059 2.975836,4.0645 4.790506,5.8341 -0.290753,-0.1486 -0.584276,-0.2919 -0.870414,-0.4496 -1.603296,-0.8818 -3.133674,-1.9141 -4.583748,-3.082 -1.86359,-2.1175 -3.38566,-4.4076 -4.590209,-6.8096 z m 53.200461,1.1821 c -0.89072,0.8904 -1.818361,1.7106 -2.778309,2.4765 -1.185165,0.5739 -2.416482,1.0763 -3.687489,1.5155 1.014405,-0.5712 2.019581,-1.2026 3.01368,-1.8927 1.208241,-0.6502 2.362947,-1.3493 3.452118,-2.0993 z m -39.823966,0.058 c 1.17409,0.7981 2.414638,1.5365 3.723489,2.2046 1.252546,0.9594 2.545706,1.8181 3.875787,2.578 -1.46392,-0.4536 -2.877073,-1.0051 -4.242228,-1.6425 -1.181474,-0.9653 -2.302029,-2.0133 -3.357048,-3.1401 z m 41.67648,0.3915 c -1.170398,1.3086 -2.439559,2.5139 -3.781639,3.626 -1.49161,0.6517 -3.029372,1.209 -4.601285,1.6571 1.403923,-0.8153 2.759848,-1.7401 4.060392,-2.7739 1.513763,-0.737 2.953684,-1.5782 4.322532,-2.5092 z m -38.983088,0.243 c 0.878721,0.6126 1.761134,1.1817 2.647239,1.7078 -0.448591,-0.2048 -0.89349,-0.4142 -1.327312,-0.6345 -0.445821,-0.3439 -0.885182,-0.7029 -1.319927,-1.0733 z m 51.481785,0.1087 c -0.563046,0.8927 -1.175935,1.7669 -1.84236,2.618 0,0 0,0.01 0,0.01 -2.069425,2.3211 -4.286534,4.2597 -6.605175,5.8451 0.539047,-0.5281 1.066095,-1.0667 1.565452,-1.6281 0.643349,-0.7226 1.248854,-1.4754 1.8239,-2.2481 1.819284,-1.3335 3.519499,-2.8596 5.065568,-4.594 z m -55.981539,0.1052 c 1.535916,1.048 3.162288,1.9749 4.862503,2.7738 1.361464,1.1082 2.796769,2.1141 4.292995,3.0097 -1.882051,-0.5056 -3.722565,-1.1615 -5.504006,-1.9509 -1.301467,-1.1917 -2.523554,-2.4718 -3.651492,-3.8326 z m 45.016911,0.9971 c -1.35131,1.6433 -2.836459,3.1763 -4.430525,4.5833 -1.85436,0.6798 -3.759486,1.2275 -5.696918,1.6244 1.79344,-1.039 3.506576,-2.2203 5.10895,-3.5426 1.738058,-0.7624 3.414274,-1.658 5.018493,-2.6651 z m -47.565386,0.087 c 1.861744,1.2364 3.826866,2.3169 5.870446,3.2271 1.537763,1.4037 3.183519,2.6839 4.916039,3.829 -0.715346,-0.156 -1.429768,-0.324 -2.13496,-0.5185 -1.499917,-0.4128 -2.973068,-0.9117 -4.409297,-1.4938 -1.550684,-1.5526 -2.968452,-3.2441 -4.242228,-5.0438 z m 10.936015,1.57 c 1.079941,0.4373 2.200494,0.8316 3.360738,1.1785 1.264546,0.5409 2.532784,1.0086 3.800099,1.3923 -1.256238,-0.1409 -2.48294,-0.361 -3.683797,-0.6345 -1.186089,-0.568 -2.343564,-1.218 -3.47704,-1.9363 z m 28.412592,0.4315 c -1.265469,0.8609 -2.578935,1.6225 -3.926553,2.2916 -1.495303,0.323 -3.015527,0.5485 -4.557904,0.6708 1.356849,-0.4203 2.706313,-0.93 4.046547,-1.5374 1.533147,-0.3807 3.012758,-0.858 4.43791,-1.425 z m 10.264974,0.1052 c -1.452843,1.9237 -3.084753,3.7009 -4.862502,5.3048 -2.266952,0.826 -4.618823,1.4234 -7.01223,1.7875 0.948871,-0.5777 1.874667,-1.1946 2.773694,-1.8492 1.007945,-0.7331 1.977122,-1.5186 2.91584,-2.3423 0.121839,-0.045 0.246448,-0.084 0.36921,-0.1305 2.012197,-0.7657 3.960706,-1.6929 5.815988,-2.7703 z m -52.112213,0.083 c 2.026965,1.3086 4.180386,2.4366 6.428877,3.354 1.738982,1.7246 3.64134,3.2758 5.674766,4.6267 -2.364793,-0.4915 -4.670513,-1.2179 -6.878392,-2.1901 -1.977122,-1.7268 -3.720718,-3.6762 -5.225251,-5.7906 z m 38.515115,0.062 c -0.431977,0.2188 -0.863953,0.4328 -1.297775,0.6309 -0.546432,0.1342 -1.098401,0.2575 -1.656832,0.3662 1.014406,-0.3017 1.999274,-0.6358 2.954607,-0.9971 z m -26.48716,0.3517 c 1.51284,0.5902 3.081985,1.0741 4.702819,1.4468 1.517455,0.7224 3.072754,1.3234 4.651128,1.8129 -1.748211,-0.099 -3.477962,-0.3334 -5.180945,-0.6889 -1.443613,-0.7614 -2.839229,-1.6184 -4.173002,-2.5708 z m 31.105983,0.747 c -1.570068,1.1576 -3.230592,2.1849 -4.95942,3.0856 -1.740827,0.2744 -3.498269,0.4306 -5.261249,0.4641 1.776825,-0.5477 3.514883,-1.2389 5.199406,-2.0704 1.713137,-0.3734 3.390275,-0.8685 5.021263,-1.4793 z m -33.089566,0.5765 c 1.929125,0.7543 3.921015,1.352 5.953519,1.7803 1.68083,0.8839 3.426273,1.6365 5.214175,2.2626 -2.130345,-0.031 -4.255151,-0.2316 -6.35319,-0.6019 -1.685445,-1.0246 -3.297972,-2.1749 -4.814504,-3.441 z m 11.983649,0.018 c 1.058711,0.1712 2.103577,0.2987 3.132751,0.3879 -0.494742,0.01 -0.987638,0.014 -1.475919,0 -0.55197,-0.1164 -1.103939,-0.2463 -1.656832,-0.3916 z m 12.309477,0.1051 c -1.187012,0.4161 -2.379561,0.7519 -3.57488,1.0261 -1.321774,0 -2.654624,-0.079 -3.995781,-0.2356 1.166705,-0.075 2.350025,-0.2073 3.549036,-0.3989 1.373463,-0.062 2.71462,-0.1876 4.021625,-0.3916 z m -36.661678,0.011 c 0.0092,0.011 0.02769,0.022 0.03692,0.032 0.02769,0.039 0.07384,0.078 0.105225,0.116 -0.05538,-0.049 -0.09692,-0.099 -0.144915,-0.1486 z m 56.659963,0.4605 c -0.208603,0.2488 -0.411669,0.5004 -0.627657,0.7433 -1.221164,1.3719 -2.576166,2.6391 -4.042855,3.7964 0,0 0,0.01 -0.0092,0.01 -2.470018,1.337 -5.02957,2.3069 -7.628812,2.9443 1.981737,-1.1836 3.837943,-2.5729 5.558464,-4.1191 2.358332,-0.8727 4.623438,-1.9983 6.751013,-3.3722 z m -35.005768,0.022 c 1.397462,0.2083 2.828153,0.3318 4.289303,0.3663 1.551607,0.3234 3.098599,0.5339 4.634514,0.6418 -1.514686,0.2264 -3.027525,0.3406 -4.532981,0.3589 -1.483303,-0.3566 -2.949992,-0.8098 -4.390836,-1.367 z m 16.473249,0.7143 c -1.620834,0.6705 -3.284128,1.2089 -4.975112,1.6281 -1.629141,-0.06 -3.257359,-0.2253 -4.869886,-0.504 1.618065,-0.1251 3.239822,-0.3696 4.85881,-0.7361 1.682677,-0.01 3.348739,-0.1433 4.986188,-0.388 z m 8.60445,0.2756 c -0.569507,0.4634 -1.14363,0.9175 -1.737136,1.3489 -1.257161,0.915 -2.565089,1.7562 -3.9164,2.5163 -2.181111,0.2447 -4.389912,0.2967 -6.59133,0.1705 2.127576,-0.6848 4.198846,-1.5479 6.185199,-2.5781 2.055579,-0.3269 4.084391,-0.8167 6.059667,-1.4576 z m -43.976661,0.5221 c 0.636888,0.411 1.280237,0.8079 1.940201,1.1713 0.845492,0.4651 1.713137,0.8844 2.592781,1.2726 1.707598,1.4793 3.577649,2.7996 5.616615,3.9233 -0.996868,-0.3503 -1.986353,-0.7537 -2.965684,-1.2147 0,0 0,0 -0.0092,0 -2.72662,-1.5032 -5.109873,-3.2384 -7.172837,-5.1489 z m 7.386979,0.022 c 1.04302,0.3815 2.103577,0.7234 3.176134,1.0189 1.202703,0.3311 2.423867,0.6031 3.655183,0.8231 0.109841,0.066 0.218758,0.1374 0.329521,0.203 1.852513,1.095 3.789022,2.0353 5.787374,2.8138 -2.408175,0.063 -4.812659,-0.1008 -7.171913,-0.4895 -2.061118,-1.2585 -3.997627,-2.7235 -5.776299,-4.3693 z m 10.250206,0.011 c 1.837746,0.2774 3.702259,0.4058 5.580617,0.3879 1.706675,0.4075 3.433657,0.6946 5.170793,0.8521 -1.914357,0.3609 -3.856404,0.5659 -5.802143,0.6273 -1.689138,-0.5083 -3.344124,-1.1313 -4.949267,-1.8673 z m 18.485446,1.1458 c -1.931894,0.895 -3.933938,1.636 -5.983056,2.2118 -1.963277,-0.1919 -3.914554,-0.529 -5.829833,-1.0116 2.063886,-0.1577 4.11762,-0.4801 6.134432,-0.9754 1.895896,0.067 3.796407,-0.014 5.678457,-0.2248 z m -20.313037,0.9355 c 2.214339,0.3062 4.453601,0.4292 6.690093,0.3625 1.993737,0.5972 4.033625,1.0369 6.09105,1.3163 -0.713499,0.1706 -1.427921,0.3254 -2.149728,0.4569 -1.530377,0.2786 -3.076446,0.4704 -4.622515,0.5692 -2.070348,-0.7258 -4.080699,-1.6368 -6.0089,-2.7049 z m 29.86082,0.2356 c -1.853437,1.5366 -3.850865,2.8859 -5.980287,4.0031 -2.588165,0.4711 -5.202175,0.6246 -7.799571,0.4823 2.288182,-0.7693 4.512675,-1.7508 6.632866,-2.9371 2.428482,-0.2835 4.824658,-0.8025 7.146992,-1.5483 z m -39.371683,0.8195 c 2.164497,0.8136 4.405605,1.4026 6.690095,1.784 2.152497,1.3 4.444371,2.369 6.846085,3.1763 -0.323982,-0.01 -0.647965,-0.011 -0.971947,-0.029 -1.829438,-0.099 -3.659799,-0.3627 -5.475391,-0.7869 -2.597396,-1.0997 -4.961266,-2.5022 -7.088842,-4.1444 z m 43.44592,0.1995 c -0.05538,0.035 -0.113532,0.07 -0.169836,0.1051 0.0092,-0.01 0.01846,-0.019 0.03692,-0.029 0.04615,-0.025 0.0923,-0.052 0.133838,-0.076 z m -19.554309,0.6091 c 0.129223,0.012 0.258447,0.029 0.387671,0.04 2.145112,0.1831 4.300379,0.1913 6.43903,0.025 -2.14142,1.1022 -4.378836,1.9982 -6.674402,2.6723 -2.40356,-0.2391 -4.783122,-0.7212 -7.099917,-1.4322 1.104862,-0.109 2.206032,-0.2612 3.299818,-0.4605 1.226702,-0.2234 2.444173,-0.5095 3.6478,-0.8449 z m 16.302488,0.9609 c -0.898104,0.5624 -1.83313,1.0871 -2.805999,1.5664 0,0 -0.01846,0.01 -0.01846,0.01 -2.873381,1.193 -5.713532,1.9753 -8.490918,2.3968 0.718114,-0.242 1.431614,-0.5003 2.127575,-0.7904 0.89349,-0.3723 1.763904,-0.7897 2.617703,-1.2365 2.220801,-0.4132 4.418526,-1.05 6.567331,-1.9435 z m -31.984703,0.2357 c 2.392484,0.2994 4.822812,0.3769 7.244832,0.2284 2.313104,0.7996 4.70005,1.3727 7.117455,1.7078 -2.335256,0.5805 -4.722202,0.9324 -7.124839,1.0153 -2.536476,-0.6985 -4.95942,-1.6964 -7.237448,-2.9515 z m 23.467017,2.0124 c -0.296291,0.1342 -0.591659,0.2699 -0.892566,0.3952 -1.689138,0.704 -3.449349,1.2587 -5.26771,1.6643 -2.816153,0.1365 -5.555695,-0.1005 -8.184473,-0.6563 2.302027,-0.2064 4.576363,-0.6504 6.79901,-1.2981 2.50417,0.2367 5.032339,0.2096 7.545739,-0.1051 z m -24.754639,0.678 c 0.0092,0 0.03692,0.01 0.05538,0.015 0.05538,0.021 0.101533,0.037 0.151376,0.058 -0.06461,-0.024 -0.134762,-0.048 -0.203066,-0.073 z m 3.357969,0.6056 c 0.750421,0.094 1.499918,0.1696 2.252184,0.2103 0.96364,0.053 1.928202,0.053 2.889072,0.022 2.179265,0.5911 4.436064,0.9709 6.759321,1.0987 -1.050404,0.1167 -2.116499,0.1826 -3.198286,0.1922 0,-3e-4 -0.0092,2e-4 -0.0092,0 -3.105983,-0.1718 -6.002439,-0.6977 -8.688445,-1.5229 z m 15.588067,1.3198 c -0.08307,0.01 -0.173529,0.019 -0.261217,0.029 0.01846,0 0.04615,-0.01 0.05538,-0.015 0.06461,0 0.132916,-0.011 0.200297,-0.015 z"
       marker="none"
       visibility="visible"
       display="inline"
       overflow="visible"
       id="path2"
       inkscape:connector-curvature="0" />
  </g>
</svg>
