<?xml version="1.0" encoding="UTF-8" standalone="no"?>
<svg
   xmlns:dc="http://purl.org/dc/elements/1.1/"
   xmlns:cc="http://creativecommons.org/ns#"
   xmlns:rdf="http://www.w3.org/1999/02/22-rdf-syntax-ns#"
   xmlns:svg="http://www.w3.org/2000/svg"
   xmlns="http://www.w3.org/2000/svg"
   xmlns:sodipodi="http://sodipodi.sourceforge.net/DTD/sodipodi-0.dtd"
   xmlns:inkscape="http://www.inkscape.org/namespaces/inkscape"
   version="1.1"
   x="0px"
   y="0px"
   viewBox="0 0 100 125"
   id="svg4608"
   sodipodi:docname="pat2.svg"
   inkscape:version="0.92.3 (2405546, 2018-03-11)">
  <metadata
     id="metadata4614">
    <rdf:RDF>
      <cc:Work
         rdf:about="">
        <dc:format>image/svg+xml</dc:format>
        <dc:type
           rdf:resource="http://purl.org/dc/dcmitype/StillImage" />
        <dc:title></dc:title>
      </cc:Work>
    </rdf:RDF>
  </metadata>
  <defs
     id="defs4612" />
  <sodipodi:namedview
     pagecolor="#ffffff"
     bordercolor="#666666"
     borderopacity="1"
     objecttolerance="10"
     gridtolerance="10"
     guidetolerance="10"
     inkscape:pageopacity="0"
     inkscape:pageshadow="2"
     inkscape:window-width="774"
     inkscape:window-height="480"
     id="namedview4610"
     showgrid="false"
     inkscape:zoom="1.888"
     inkscape:cx="50"
     inkscape:cy="62.5"
     inkscape:window-x="0"
     inkscape:window-y="0"
     inkscape:window-maximized="0"
     inkscape:current-layer="svg4608" />
  <g
     transform="matrix(1.0715567,0,0,1.0596528,-4.6882712,-996.22367)"
     id="g4602"
     style="fill:#fefbfb;fill-opacity:1">
    <path
       style="color:#000000;text-indent:0;text-transform:none;direction:ltr;baseline-shift:baseline;display:inline;overflow:visible;visibility:visible;fill:#fefbfb;fill-opacity:1;stroke:none;enable-background:accumulate"
       d="m 42.351439,957.25691 c -0.736481,0.002 -1.422855,0.0779 -2.05276,0.24141 -1.257425,0.32719 -2.282612,1.01227 -2.949103,2.08881 -0.66649,1.07655 -0.972694,2.52845 -0.86612,4.39018 0.02386,0.43061 0.07158,0.8887 0.144751,1.36455 -3.30064,-0.0539 -6.476413,0.15809 -9.275993,0.64815 -4.060185,0.71056 -7.343328,1.97844 -9.106586,3.88897 -0.880436,0.95526 -1.372749,2.0851 -1.350479,3.351 0.02386,1.2659 0.547986,2.65355 1.645548,4.16188 0.253712,0.34905 0.544009,0.7078 0.859757,1.07063 -2.805147,1.73912 -5.364535,3.63434 -7.454675,5.56053 -3.031818,2.79258 -5.1052567,5.63505 -5.5554164,8.19517 -0.2250798,1.28001 -0.02386,2.49711 0.6720582,3.55037 0.7022808,1.05335 1.8960789,1.93498 3.6346822,2.61101 0.401644,0.15644 0.838283,0.30127 1.301168,0.43561 -1.419673,2.97942 -2.5474585,5.95662 -3.2648511,8.70682 -1.0395031,3.988 -1.2502669,7.5014 -0.2441678,9.8983 0.5034471,1.1984 1.3250285,2.1177 2.4854219,2.6241 1.160394,0.5063 2.64449,0.6018 4.471374,0.2309 0.423119,-0.086 0.870097,-0.2019 1.330596,-0.3385 0.416755,3.2745 1.076884,6.3882 1.959706,9.09 1.281284,3.9172 3.004775,6.9875 5.146613,8.4602 1.070521,0.7363 2.261137,1.0647 3.510609,0.8633 1.250267,-0.2014 2.546663,-0.9226 3.883621,-2.2226 0.309385,-0.3007 0.623543,-0.6409 0.936905,-1.0051 2.121158,2.5302 4.358436,4.7937 6.563105,6.5892 3.195656,2.6028 6.305416,4.2516 8.903776,4.3324 1.298782,0.041 2.476673,-0.3251 3.419146,-1.1703 0.942472,-0.8452 1.646343,-2.1538 2.067871,-3.9703 0.09703,-0.4198 0.177359,-0.873 0.244168,-1.3488 3.151913,0.9817 6.259287,1.673 9.084317,1.9917 4.095976,0.462 7.603403,0.1688 9.832727,-1.1677 1.114265,-0.6683 1.904828,-1.6135 2.241255,-2.8341 0.336426,-1.2206 0.223489,-2.7023 -0.40403,-4.4584 -0.145547,-0.4063 -0.326088,-0.8304 -0.527308,-1.2674 3.182136,-0.8783 6.171008,-1.9763 8.720058,-3.2356 3.695119,-1.8255 6.488336,-3.9683 7.640776,-6.2979 0.576618,-1.1649 0.731709,-2.3864 0.35472,-3.595 -0.376989,-1.2086 -1.273332,-2.3938 -2.750269,-3.5321 -0.341199,-0.2633 -0.72296,-0.5232 -1.12858,-0.782 2.201487,-2.459 4.121426,-4.9972 5.584842,-7.4342 2.120364,-3.5334 3.312571,-6.8479 3.022274,-9.43112 -0.143956,-1.29154 -0.674444,-2.40437 -1.645549,-3.21713 -0.970308,-0.81275 -2.363735,-1.32097 -4.221638,-1.48003 -0.429481,-0.0366 -0.891571,-0.0509 -1.372748,-0.0501 0.52333,-3.25963 0.766703,-6.43195 0.680011,-9.27362 -0.125663,-4.11947 -0.915431,-7.55112 -2.556207,-9.56757 -0.819982,-1.00823 -1.866643,-1.65698 -3.122477,-1.81591 -1.25663,-0.15891 -2.704141,0.16316 -4.353669,1.03392 -0.38017,0.20114 -0.777837,0.43998 -1.180277,0.70063 -1.322642,-3.02453 -2.834574,-5.82552 -4.443537,-8.1689 -2.331922,-3.39764 -4.85393,-5.85836 -7.323445,-6.66791 -1.235156,-0.4048 -2.465539,-0.38271 -3.60764,0.16268 -1.143692,0.54541 -2.188762,1.60102 -3.104988,3.22506 -0.21156,0.37552 -0.415165,0.79024 -0.613999,1.22811 -2.747883,-1.83001 -5.532351,-3.36984 -8.15298,-4.47153 -2.849686,-1.1978 -5.502923,-1.8943 -7.712364,-1.89201 z m 0,0.50384 c 2.104456,0.003 4.707588,0.66865 7.518302,1.85 2.61029,1.09729 5.398735,2.64076 8.150594,4.47939 -0.582981,1.38146 -1.103925,3.03388 -1.548517,5.02521 -4.48569,-1.89155 -9.933735,-3.06376 -15.335651,-3.54257 -1.342526,-0.11899 -2.68028,-0.19049 -4.002126,-0.22305 -0.07158,-0.49363 -0.126459,-0.96148 -0.151909,-1.40128 -0.102599,-1.79215 0.196447,-3.13533 0.792949,-4.0989 0.596501,-0.96355 1.490458,-1.56408 2.650056,-1.86575 0.579799,-0.15083 1.224816,-0.22424 1.926302,-0.22305 z m 21.373039,1.46428 c 0.539237,-0.0198 1.094381,0.0705 1.663841,0.25714 2.27784,0.74648 4.766443,3.12272 7.066552,6.47374 1.603396,2.33395 3.114533,5.14037 4.435584,8.17416 -1.237541,0.84708 -2.572113,1.9551 -4.0236,3.39037 -2.750269,-4.01598 -6.698312,-7.94755 -10.984373,-11.27063 -1.064953,-0.826 -2.152177,-1.60952 -3.245762,-2.35123 0.203606,-0.45612 0.413574,-0.87577 0.629905,-1.25958 0.882822,-1.56335 1.861084,-2.53222 2.883885,-3.02038 0.511401,-0.24407 1.034731,-0.37376 1.573968,-0.39359 z m -5.277048,5.14851 c 1.054614,0.71738 2.101275,1.47616 3.128848,2.27251 4.28288,3.32174 8.214221,7.26918 10.926314,11.25488 -1.301964,1.31786 -2.691414,2.8847 -4.172328,4.71557 -0.516173,-0.13804 -1.081656,-0.21532 -1.676567,-0.23618 0.468453,-2.74316 -0.216331,-5.17877 -1.742579,-7.25834 -1.744965,-2.37771 -4.561246,-4.30252 -7.970053,-5.80195 0.435049,-1.96676 0.945654,-3.59565 1.506365,-4.94649 z m -22.748174,1.45378 c 0.336427,0 0.678421,0.01 1.018029,0.0158 0.256098,1.47665 0.711825,3.15006 1.414106,5.06458 -4.795871,0.83363 -10.011678,2.79344 -14.815502,5.31124 -1.194593,0.62606 -2.358169,1.29129 -3.487544,1.97858 -0.33086,-0.37518 -0.624338,-0.74263 -0.884413,-1.09951 -1.05541,-1.45195 -1.531815,-2.74278 -1.550903,-3.87583 -0.01591,-1.13305 0.408006,-2.12119 1.220839,-3.00202 1.624869,-1.76161 4.820526,-3.03858 8.825038,-3.73937 2.502124,-0.43801 5.31761,-0.65579 8.26035,-0.65341 z m 1.529429,0.0236 c 1.276513,0.0336 2.568137,0.10558 3.862943,0.22042 5.39953,0.47855 10.838826,1.67446 15.275205,3.56094 -0.383351,1.81193 -0.70228,3.88243 -0.958378,6.2218 -0.509015,0.16303 -1.024392,0.40392 -1.537383,0.70853 -1.088018,-2.56019 -2.984893,-4.23749 -5.392372,-5.16165 -2.752655,-1.05661 -6.161461,-1.15536 -9.838295,-0.5747 -0.697509,-1.8908 -1.15244,-3.5351 -1.41172,-4.97534 z m 19.610577,3.99129 c 3.305413,1.46739 6.017506,3.32718 7.667826,5.57628 1.472961,2.0078 2.126726,4.30848 1.645548,6.95393 -1.758486,0.0363 -3.771479,0.57285 -5.775723,1.70569 0.400849,-1.61418 0.544009,-2.99031 0.471634,-4.13562 -0.140775,-2.24506 -1.130172,-3.64062 -2.532347,-4.14088 -0.72296,-0.25805 -1.538974,-0.27655 -2.387596,-0.0866 0.246554,-2.20139 0.551167,-4.15558 0.910658,-5.87281 z m -13.795086,1.1415 c 1.93664,0.014 3.714214,0.29003 5.256369,0.8817 2.324765,0.89267 4.118245,2.47549 5.142637,4.96224 -1.45785,0.98079 -2.864797,2.51935 -3.9385,4.55549 -0.534465,-1.57319 -1.157212,-2.8076 -1.837224,-3.73153 -1.332186,-1.81253 -2.919675,-2.45209 -4.368775,-2.11504 -0.747615,0.17389 -1.445919,0.59869 -2.057532,1.21759 -0.981444,-1.9834 -1.77996,-3.79439 -2.406684,-5.43194 1.458645,-0.2255 2.874341,-0.34815 4.209709,-0.33851 z m -4.717928,0.41725 c 0.656947,1.73071 1.503978,3.64409 2.553025,5.74945 -0.340403,0.4126 -0.641835,0.89666 -0.908272,1.43015 -2.300109,-1.56619 -4.800643,-1.9544 -7.325832,-1.43015 -2.887861,0.59937 -5.809922,2.36179 -8.589618,4.83889 -1.608963,-1.21274 -2.879113,-2.35306 -3.875668,-3.42449 1.091199,-0.66144 2.215008,-1.29862 3.366653,-1.90249 4.801438,-2.51673 10.026789,-4.45023 14.779712,-5.26136 z m 44.0218,1.16772 c 0.147933,0.005 0.292684,0.0163 0.433458,0.0341 1.124604,0.14224 2.04083,0.7052 2.797194,1.63484 1.511924,1.85929 2.32237,5.20286 2.445647,9.26581 0.0859,2.83005 -0.160658,6.00986 -0.690351,9.27629 -1.497616,0.0438 -3.218713,0.25419 -5.213413,0.67699 -0.143161,-4.86562 -1.340936,-10.30689 -3.149531,-15.41935 -0.45016,-1.2711 -0.939291,-2.51843 -1.45944,-3.73414 0.418346,-0.27334 0.823172,-0.51339 1.212886,-0.719 1.389453,-0.73344 2.591206,-1.04459 3.62355,-1.01554 z m -5.253192,2.03108 c 0.499471,1.17419 0.970309,2.37686 1.403767,3.60292 1.8078,5.10956 2.980124,10.55604 3.107378,15.37479 -1.807798,0.40458 -3.823975,0.97357 -6.059662,1.71347 -0.359492,-0.39513 -0.793745,-0.76528 -1.282876,-1.10472 1.877787,-2.05412 2.618243,-4.4738 2.458381,-7.04838 -0.181336,-2.94238 -1.510341,-6.08424 -3.565487,-9.18706 1.429217,-1.42048 2.735953,-2.5174 3.938499,-3.35102 z m -33.213193,1.35405 c 1.107107,-0.0731 2.283407,0.49945 3.38256,1.99434 0.706258,0.96171 1.362409,2.32152 1.915167,4.09888 -0.991783,2.11959 -1.62646,4.7196 -1.639981,7.74119 -1.134943,-2.94631 -2.590406,-6.08754 -4.426835,-9.43375 -0.597296,-1.08828 -1.129375,-2.11815 -1.632823,-3.11747 0.586162,-0.63192 1.247086,-1.05579 1.931074,-1.21497 0.15509,-0.036 0.312567,-0.0578 0.470838,-0.0682 z m 13.298003,0.13645 c 0.343585,0.0142 0.669672,0.074 0.968718,0.18106 1.199365,0.42793 2.066281,1.58653 2.199897,3.70266 0.07158,1.19086 -0.108961,2.68863 -0.604455,4.482 -1.978793,1.24638 -3.91782,3.09119 -5.563369,5.62351 0.637859,-3.09056 1.111083,-6.5206 1.375135,-10.32594 0.0859,-1.237 0.193266,-2.39188 0.31018,-3.50321 0.456523,-0.11793 0.899524,-0.1772 1.313894,-0.16008 z m -1.836429,0.32015 c -0.108165,1.05257 -0.205196,2.14711 -0.285525,3.30902 -0.04772,0.72611 -0.116119,1.42427 -0.181336,2.12293 -0.01591,-0.83449 -0.07158,-1.636 -0.18929,-2.36959 -0.14157,-0.88518 -0.355515,-1.69413 -0.632292,-2.43782 0.432663,-0.26283 0.865325,-0.47175 1.288443,-0.62454 z m -1.715538,0.90007 c 0.242578,0.68332 0.435844,1.42692 0.566279,2.24101 0.558325,3.48162 0,8.2186 -2.044011,14.41171 -0.306999,0.73776 -0.586162,1.52259 -0.845441,2.34067 0.04772,-6.30119 -0.58139,-10.94202 -1.579536,-14.22534 1.04348,-2.15216 2.451223,-3.76481 3.902709,-4.76805 z m -18.485177,0.12334 c 1.591465,0.068 3.138392,0.57067 4.613738,1.5981 -0.697509,1.61374 -1.048251,3.66772 -0.850213,5.96201 -1.300373,-1.03444 -2.49258,-1.73378 -3.563896,-2.14391 -2.10048,-0.80457 -3.783409,-0.4848 -4.820526,0.58255 -0.535261,0.55076 -0.890776,1.28457 -1.070521,2.13605 -1.89926,-1.13816 -3.550376,-2.2275 -4.962891,-3.26705 2.708911,-2.39697 5.527579,-4.0935 8.258759,-4.66045 0.808061,-0.16778 1.606577,-0.24102 2.39555,-0.2073 z m 5.985691,0.22306 c 0.477997,0.94303 0.98542,1.91625 1.546132,2.93638 0.349152,0.63595 0.672058,1.25796 0.994169,1.87889 -0.466862,-0.6891 -0.943268,-1.33196 -1.437966,-1.88414 -0.597297,-0.66747 -1.215272,-1.23228 -1.84995,-1.70831 0.222694,-0.45623 0.47402,-0.86472 0.747615,-1.22282 z m 31.657518,0.67701 c 1.986747,3.02099 3.262464,6.05166 3.435052,8.83545 0.154295,2.48525 -0.536851,4.77395 -2.372485,6.73875 -1.497615,-0.92013 -3.481181,-1.55854 -5.780495,-1.68993 1.208909,-1.13977 2.071053,-2.22098 2.629378,-3.22244 1.095972,-1.96477 1.018824,-3.67327 0.110551,-4.852 -0.468452,-0.60761 -1.144487,-1.06537 -1.9605,-1.36456 1.395813,-1.71663 2.709706,-3.19586 3.938499,-4.44527 z m -53.041692,0.50121 c 1.014848,1.10417 2.3017,2.26639 3.92816,3.49797 -3.582985,3.29416 -6.911462,7.76334 -9.59015,12.47772 -0.666491,1.17201 -1.287648,2.35928 -1.865856,3.54775 -0.481178,-0.13671 -0.927361,-0.28361 -1.338549,-0.44348 -1.6725904,-0.65074 -2.7717436,-1.48186 -3.4008537,-2.42465 -0.62911,-0.94279 -0.8032884,-2.00536 -0.5957059,-3.18564 0.4143695,-2.3606 2.4138424,-5.16014 5.4027116,-7.91439 2.082187,-1.91819 4.646348,-3.81649 7.460243,-5.55528 z m 20.426591,0.50384 c 0.575027,0.4436 1.136534,0.96729 1.686906,1.58235 2.352601,2.62705 4.445127,6.91029 6.072383,13.22556 0.140774,0.78666 0.329269,1.59902 0.553553,2.42728 -3.372221,-5.32151 -6.404038,-8.88797 -9.0191,-11.11047 -0.285525,-2.37621 0.02386,-4.49586 0.706258,-6.12472 z m -16.067359,3.30378 c 1.488867,1.10028 3.235423,2.25249 5.255574,3.45597 -0.06363,0.53144 -0.05567,1.1019 0.008,1.69519 -2.780491,-0.0733 -5.094121,0.95196 -6.935322,2.75792 -2.105252,2.06514 -3.611616,5.12583 -4.610557,8.71207 -2.008221,-0.15032 -3.691946,-0.42192 -5.109233,-0.78459 0.559916,-1.14584 1.160394,-2.29168 1.803025,-3.42185 2.677893,-4.71322 6.02864,-9.16292 9.58856,-12.41471 z m 25.298813,0.14695 c 0.948835,3.44086 1.51909,8.34352 1.377521,15.00212 -0.186109,0.48722 -0.361878,0.95917 -0.536852,1.43271 -0.444592,-2.46665 -1.151645,-5.12386 -2.168083,-7.97464 -0.20122,-3.32336 0.355515,-6.16404 1.327414,-8.46019 z m 17.149015,0.0866 c 0.506629,0.0128 0.983034,0.073 1.422855,0.17319 -0.660129,0.82622 -1.333777,1.69405 -2.0289,2.62676 -0.432662,0.58088 -0.863734,1.13194 -1.29401,1.68205 0.432662,-0.7101 0.821581,-1.41059 1.118241,-2.08879 0.358696,-0.82115 0.612408,-1.6184 0.781814,-2.39321 z m -0.503447,0.003 c -0.16543,0.70643 -0.408007,1.43573 -0.738071,2.19115 -1.410924,3.22739 -4.434788,6.90634 -9.493915,11.00558 -0.663309,0.45843 -1.328209,0.97087 -1.9947,1.52458 3.441415,-5.2796 5.428957,-9.51953 6.363476,-12.82144 2.04242,-1.2471 4.099952,-1.84056 5.86321,-1.89987 z m -32.875175,0.0105 c 0.585366,0.009 1.24629,0.14335 1.989133,0.42774 1.114264,0.42692 2.399526,1.2177 3.825561,2.41419 0.311772,2.31779 1.184254,4.84705 2.805147,7.3948 -2.546663,-1.86419 -5.470315,-3.71822 -8.821857,-5.53952 -1.090404,-0.59215 -2.094912,-1.17139 -3.057268,-1.73981 0.150319,-0.84819 0.475611,-1.56119 0.965537,-2.0652 0.554349,-0.57065 1.317075,-0.90665 2.293747,-0.8922 z m 35.33117,0.30702 c 0.8184,0.27029 1.478528,0.69496 1.907213,1.25172 0.777838,1.00832 0.880436,2.45164 -0.151909,4.30357 -0.58139,1.04293 -1.546131,2.20366 -2.933991,3.44547 -2.339876,-0.0207 -4.968458,0.48372 -7.722703,1.72667 2.20944,-2.25636 4.462625,-4.88764 6.744441,-7.94848 0.741252,-0.99463 1.457054,-1.90708 2.156949,-2.77895 z m -8.975357,2.00747 c -1.062567,3.40809 -3.233832,7.84072 -6.953614,13.36726 -0.419142,0.30827 -0.822377,0.61018 -1.224816,0.91321 0.960765,-2.31801 1.806206,-4.93864 2.491785,-7.89076 1.627255,-2.89954 3.629909,-4.98511 5.686645,-6.38971 z m -19.95098,1.03127 c 2.65801,2.38179 5.788449,6.19776 9.268835,11.87414 0.106575,0.51124 0.216331,1.00483 0.325292,1.49833 -1.70838,-1.83619 -3.739666,-3.69218 -6.138396,-5.54205 -1.964478,-2.68616 -3.031817,-5.37385 -3.455731,-7.83042 z m -9.735697,0.15483 c 0.91225,0.53511 1.866652,1.07918 2.890248,1.63483 0.633882,0.34503 1.239927,0.69215 1.844382,1.03917 -0.762726,-0.32552 -1.511137,-0.6091 -2.222962,-0.80561 -0.864529,-0.23866 -1.687701,-0.37807 -2.479854,-0.43562 -0.06363,-0.5038 -0.07158,-0.98354 -0.03181,-1.43277 z m -1.111878,1.89724 c 0.229852,-0.008 0.465271,-0.006 0.703076,0.003 0.286321,1.73542 1.100744,3.65218 2.508487,5.47652 -1.654297,-0.16773 -3.035794,-0.11333 -4.158807,0.12073 -2.202283,0.45883 -3.443801,1.63768 -3.739666,3.0964 -0.152704,0.75215 -0.05567,1.56204 0.251326,2.37487 -2.211827,0.0692 -4.19062,0.0453 -5.940358,-0.066 0.982239,-3.4811 2.437702,-6.4302 4.429221,-8.38408 1.620893,-1.58982 3.577418,-2.54152 5.946721,-2.62147 z m 1.217658,0.0368 c 0.722164,0.0624 1.479323,0.19773 2.275453,0.41723 3.394491,0.93762 7.465016,3.40817 12.243389,7.83294 0.547986,0.59045 1.15085,1.1755 1.792685,1.75554 -5.715278,-2.65427 -10.194605,-4.01779 -13.595458,-4.47408 -1.526248,-1.8439 -2.406684,-3.79457 -2.716069,-5.53163 z m 37.576401,4.38229 c 2.393959,0.0549 4.444332,0.668 5.960241,1.57182 -0.520944,0.50512 -1.119832,0.98638 -1.805411,1.44322 -2.9324,1.95231 -7.46581,3.41191 -13.939838,4.12516 -0.803288,0.027 -1.63839,0.0997 -2.494966,0.20461 5.747092,-2.58075 9.708656,-5.07325 12.279974,-7.34481 z m -0.783405,0 c -2.736748,2.29152 -6.957591,4.84725 -13.071332,7.48391 -0.520945,0.033 -1.023596,0.07 -1.527043,0.1076 2.059122,-1.42877 4.181871,-3.17573 6.353136,-5.28496 2.937968,-1.56299 5.752659,-2.23664 8.245239,-2.30655 z m 21.024679,0.55101 c 0.498675,-0.008 0.969513,0.0119 1.408538,0.0501 1.788709,0.1531 3.074766,0.64239 3.943271,1.3698 0.869302,0.7275 1.336959,1.69566 1.470575,2.88651 0.267233,2.38187 -0.862939,5.63399 -2.955465,9.11879 -1.457054,2.4275 -3.38256,4.9672 -5.594387,7.4289 -1.284458,-0.7731 -2.845701,-1.526 -4.752119,-2.2488 2.510077,-4.1703 4.446718,-9.3962 5.689024,-14.67413 0.309385,-1.31262 0.56946,-2.62715 0.790563,-3.93086 z m -0.512196,0.0263 c -0.214741,1.25718 -0.468452,2.52391 -0.765908,3.78921 -1.243101,5.27669 -3.201215,10.49099 -5.700159,14.61379 -1.738606,-0.6366 -3.740464,-1.2486 -6.019099,-1.8343 -0.08908,-0.5275 -0.257689,-1.0734 -0.48595,-1.6243 2.689823,-0.713 4.620897,-2.3484 5.878325,-4.6001 1.437171,-2.5747 2.022538,-5.93664 1.970841,-9.65936 1.967659,-0.42129 3.660927,-0.63372 5.12195,-0.68494 z m -38.913356,0.31757 c 0.516968,1.65502 0.937701,3.24624 1.246291,4.75746 -0.03181,-0.0541 -0.06363,-0.10888 -0.09703,-0.16265 -0.116915,-0.34867 -0.238601,-0.69758 -0.341199,-1.03918 -0.237805,-1.12301 -0.489926,-2.18701 -0.753182,-3.20401 -0.01591,-0.11842 -0.03977,-0.2343 -0.05567,-0.35162 z m 4.453082,0.11541 c -0.460499,1.67418 -0.969514,3.24131 -1.527044,4.68142 0,-0.0628 0,-0.12614 0,-0.18897 0.08987,-0.35719 0.178951,-0.71708 0.278368,-1.0601 0.407211,-1.0753 0.769884,-2.1074 1.098357,-3.10698 0.04772,-0.11071 0.09783,-0.21649 0.144751,-0.32537 z m 28.818175,0.37524 c 0.03977,3.61662 -0.526512,6.85638 -1.886536,9.29208 -1.21448,2.1743 -3.035002,3.7268 -5.641315,4.3875 -0.763521,-1.5841 -2.086959,-3.1938 -3.949634,-4.5476 1.633619,-0.3054 2.94274,-0.7476 3.954406,-1.2885 1.983566,-1.0607 2.843323,-2.54242 2.71607,-4.0254 -0.06363,-0.76511 -0.387329,-1.51344 -0.91384,-2.20689 2.104456,-0.68996 4.010082,-1.22458 5.720849,-1.61119 z m -51.973561,0.084 c 0.813628,-0.027 1.744965,0.0286 2.771743,0.1601 1.515113,1.78163 3.618774,3.43768 6.360294,4.70497 -3.151117,-0.19168 -6.614006,-0.17259 -10.42048,0.10761 -1.237541,0.0911 -2.395549,0.15207 -3.512995,0.19422 -0.33245,-0.79637 -0.444592,-1.57484 -0.304613,-2.26464 0.252121,-1.24788 1.277308,-2.27028 3.353133,-2.70279 0.519353,-0.10816 1.103129,-0.17767 1.752918,-0.19947 z m 3.542423,0.26771 c 3.524925,0.5674 8.222969,2.08569 14.220591,4.98055 0.364263,0.37079 0.719778,0.72622 1.076088,1.08112 -2.431339,-0.62149 -5.145022,-1.08398 -8.164114,-1.34358 -3.101012,-1.1965 -5.448841,-2.88261 -7.132565,-4.71809 z m 40.729904,0.10228 c 0.419142,0.28513 0.788177,0.59102 1.104721,0.91321 -1.002122,0.33881 -2.038444,0.70625 -3.128053,1.11522 -0.679216,0.25498 -1.339344,0.48611 -2.000268,0.71643 0.74841,-0.3641 1.453873,-0.74403 2.071053,-1.15466 0.746024,-0.49661 1.391041,-1.03012 1.952547,-1.5902 z m 1.468984,1.32257 c 0.541623,0.66967 0.86612,1.38595 0.92577,2.08616 0.108961,1.26856 -0.58298,2.54016 -2.452813,3.53996 -1.053024,0.5626 -2.489399,1.0178 -4.327418,1.312 -1.956525,-1.2832 -4.440356,-2.2799 -7.42843,-2.7238 3.076356,-0.70387 6.392903,-1.70035 9.966344,-3.04136 1.161984,-0.43617 2.256366,-0.81769 3.316547,-1.17296 z m -30.851843,0.0318 c 1.331391,1.11418 2.548254,2.22694 3.626728,3.33261 -0.05567,-0.0278 -0.112937,-0.0541 -0.167816,-0.0814 -0.299841,-0.24035 -0.600478,-0.48118 -0.882026,-0.72423 -0.800903,-0.80918 -1.582717,-1.56196 -2.348625,-2.26989 -0.07953,-0.0855 -0.151909,-0.17147 -0.228261,-0.25713 z m 11.948319,0.328 c -1.294805,1.16095 -2.572114,2.20403 -3.821585,3.11485 0.03977,-0.0533 0.07158,-0.10666 0.110552,-0.1601 0.269618,-0.25252 0.540827,-0.50711 0.811241,-0.74261 0.920998,-0.68176 1.783142,-1.35199 2.596769,-2.01275 0.101803,-0.0692 0.20122,-0.13267 0.303023,-0.19939 z m -43.984416,2.71074 c 1.450691,0.38009 3.163048,0.66243 5.19672,0.81871 -1.23436,4.70897 -1.620098,10.26917 -1.325029,15.68437 0.07158,1.3461 0.195653,2.6789 0.350743,3.9913 -0.477996,0.1451 -0.933723,0.2639 -1.366386,0.3517 -1.759281,0.357 -3.131234,0.2511 -4.169941,-0.2021 -1.037913,-0.4532 -1.7616676,-1.254 -2.2253483,-2.3591 -0.9273608,-2.2101 -0.7611356,-5.6448 0.2656419,-9.578 0.7142113,-2.7401 1.8459734,-5.7215 3.2735994,-8.70688 z m 18.02627,0.58512 c -0.825558,0.13879 -1.611349,0.30358 -2.322379,0.52486 -0.85578,0.2663 -1.62646,0.597 -2.322378,0.9762 -0.322906,-0.3919 -0.591729,-0.7907 -0.803289,-1.18873 1.057001,-0.043 2.155358,-0.10347 3.316548,-0.18897 0.727731,-0.0533 1.429217,-0.0884 2.131498,-0.12336 z m 5.287387,0.17585 c 2.086164,0.0636 4.451491,0.32831 7.076892,0.79511 0.780224,0.2006 1.603395,0.3683 2.45679,0.5091 -6.245766,0.8569 -10.749749,2.1317 -13.857919,3.5872 -2.27943,-0.7265 -4.075296,-1.8923 -5.274662,-3.1857 0.64104,-0.3379 1.348889,-0.6342 2.13627,-0.8791 1.985952,-0.61847 4.453877,-0.91855 7.462629,-0.82661 z m -17.588835,0.0866 c 1.846768,0.12097 3.94009,0.14554 6.291896,0.066 0.234624,0.48131 0.548781,0.95801 0.923384,1.42231 -2.379643,1.4419 -3.77307,3.5544 -4.345711,6.0696 -0.653765,2.8747 -0.265642,6.263 0.832716,9.8195 -1.772007,0.9597 -3.335635,1.6437 -4.723495,2.1045 -0.148728,-1.2671 -0.260075,-2.5565 -0.33086,-3.8548 -0.295069,-5.4124 0.115324,-10.9671 1.35207,-15.62673 z m 24.351569,0.11023 c 1.722696,0.21758 3.346771,0.49748 4.851544,0.84498 -0.06363,0.01 -0.126458,0.016 -0.188494,0.024 -0.374603,-0.039 -0.750001,-0.078 -1.111083,-0.1287 -1.110288,-0.2478 -2.174446,-0.4583 -3.200428,-0.64021 -0.120096,-0.031 -0.233829,-0.0668 -0.351539,-0.0997 z m 15.639469,0.43298 c -1.712356,0.2762 -3.349156,0.4655 -4.888924,0.5563 0.05567,-0.025 0.117709,-0.048 0.175769,-0.073 0.357901,-0.065 0.718983,-0.1347 1.068135,-0.1863 1.154031,-0.076 2.250003,-0.1745 3.301436,-0.2913 0.116119,0 0.229056,0 0.343584,-0.01 z m 2.366918,0.073 c 3.317342,0.2741 6.048523,1.2301 8.182407,2.5191 -3.541627,0.4491 -8.475886,0.3134 -15.046944,-0.7741 -0.455727,-0.2539 -0.897138,-0.494 -1.340935,-0.7348 2.50451,-0.088 5.238076,-0.4096 8.205472,-1.0102 z m -13.687717,0.9079 c 0.506628,0.115 0.998941,0.2196 1.490458,0.3254 -2.378052,0.7906 -4.906422,1.871 -7.58352,3.2828 -3.260874,0.6725 -6.151122,0.5253 -8.562578,-0.1102 3.272009,-1.4285 8.044815,-2.6903 14.65564,-3.498 z m -21.134439,0.3464 c 1.177891,1.3044 2.901382,2.475 5.069466,3.2486 -1.480914,0.7531 -2.614267,1.5477 -3.431871,2.3513 -1.604986,1.5766 -2.012993,3.2393 -1.472165,4.6263 0.278367,0.7155 0.798516,1.3433 1.497616,1.8605 -1.822908,1.254 -3.50027,2.3016 -5.032085,3.1542 -1.05541,-3.4578 -1.427627,-6.725 -0.808856,-9.4442 0.552758,-2.4281 1.86347,-4.4285 4.177895,-5.7967 z m 21.87251,0.7479 c -0.04772,0.04 -0.101008,0.08 -0.150318,0.1207 -0.333246,0.1679 -0.666491,0.3394 -0.994169,0.4907 -1.082451,0.397 -2.102866,0.8 -3.075561,1.2071 -0.112142,0.037 -0.221898,0.068 -0.333245,0.1023 1.572377,-0.7512 3.093853,-1.3981 4.553293,-1.9208 z m 4.326623,0.065 c 2.154562,1.2801 4.627259,2.4856 7.447517,3.5845 2.643694,2.0239 4.427631,4.3038 5.525989,6.542 -3.221108,-1.5367 -7.299586,-4.3136 -12.238617,-8.7803 -0.246554,-0.4611 -0.490721,-0.9027 -0.734889,-1.3462 z m 1.088813,0.073 c 0.06363,0.01 0.123277,0.021 0.184518,0.032 0.343585,0.1414 0.689556,0.2817 1.018029,0.4303 1.000532,0.5536 1.966864,1.0562 2.904564,1.522 0.104984,0.063 0.204401,0.1279 0.306999,0.1916 -1.589875,-0.6935 -3.068403,-1.4189 -4.41411,-2.1754 z m -4.130175,0.097 c -1.575558,1.9525 -3.120099,4.2292 -4.610557,6.8673 -2.378847,2.3266 -4.88972,3.7632 -7.260614,4.5319 1.979589,-2.9707 5.312838,-6.6122 10.438773,-10.8665 0.489131,-0.1778 0.960765,-0.3554 1.432398,-0.5327 z m 6.193275,0.2361 c 6.235427,0.9375 10.91836,0.9829 14.312054,0.4618 1.982771,1.3399 3.377788,2.9653 4.164375,4.5451 -0.711825,0.1436 -1.477733,0.2254 -2.300904,0.2387 -3.52413,0.057 -8.12912,-1.1678 -13.963698,-4.0699 -0.691147,-0.4115 -1.43399,-0.8007 -2.211827,-1.1757 z m -4.070525,0.2625 c 1.121422,2.2422 2.549049,4.5935 4.327418,7.0431 1.129376,3.1305 1.395813,6.0101 1.109492,8.4864 -1.879376,-3.0356 -3.806473,-7.5797 -5.546667,-14.0102 0.04772,-0.5173 0.07158,-1.0182 0.109757,-1.5193 z m -1.133353,0.063 c -0.269618,2.4932 -0.340403,5.2448 -0.167815,8.2686 -0.743639,3.2449 -2.078211,5.8124 -3.658542,7.7412 0.06363,-3.5691 0.896343,-8.4344 2.907745,-14.7844 0.316544,-0.4147 0.61718,-0.8206 0.918612,-1.2254 z m -1.212886,0.4986 c -0.01591,0.063 -0.03977,0.1262 -0.06363,0.1889 -0.186903,0.3168 -0.375398,0.6361 -0.567073,0.9368 -0.691147,0.913 -1.32821,1.798 -1.923916,2.6609 -0.07158,0.093 -0.151909,0.1796 -0.228261,0.2702 0.912249,-1.4738 1.83961,-2.8342 2.778901,-4.0568 z m -2.678688,0.053 c -4.789508,4.0967 -7.89211,7.6047 -9.71979,10.5096 -2.309653,0.6206 -4.450695,0.6125 -6.159075,0.1732 0.357105,-0.6316 0.792949,-1.2627 1.322642,-1.8947 2.26591,-2.702 6.210772,-5.3831 12.231458,-7.8933 0.75875,-0.2516 1.536588,-0.5543 2.324765,-0.8948 z m 5.896614,0.026 c 0.04772,0.044 0.09385,0.088 0.14157,0.1312 0.213945,0.3059 0.42789,0.6125 0.624338,0.9158 0.544804,1.0105 1.088018,1.9587 1.627255,2.8603 0.04772,0.1053 0.09703,0.2101 0.147137,0.3149 -0.964741,-1.4453 -1.81734,-2.8567 -2.5403,-4.2222 z m -1.621688,0.4355 c 0.008,0.065 0.03977,0.1279 0.04772,0.1916 0.01591,0.3589 0.02386,0.7197 0.03181,1.0681 -0.08987,1.1539 -0.147137,2.2511 -0.180541,3.309 -0.01591,0.121 -0.03181,0.2375 -0.04772,0.3569 -0.02386,-1.7374 0.01591,-3.3856 0.144751,-4.9256 z m -18.754797,0.9185 c 2.238073,0.6791 4.902446,0.9383 7.893701,0.5222 -2.754245,1.5423 -5.657218,3.43 -8.707329,5.7232 -0.991782,0.7459 -1.93505,1.4229 -2.852866,2.0626 -0.709439,-0.49 -1.221635,-1.0843 -1.476938,-1.7398 -0.462089,-1.1865 -0.155885,-2.6023 1.356047,-4.0884 0.852599,-0.837 2.105252,-1.6792 3.787385,-2.4798 z m 21.940114,0.05 c 4.737015,4.1579 8.649269,6.7309 11.785275,8.127 0.943267,2.1982 1.239132,4.3187 1.046661,6.0722 -0.676035,-0.2637 -1.364,-0.607 -2.065485,-1.0418 -2.996028,-1.8577 -6.208386,-5.3776 -9.548793,-10.9767 -0.357901,-0.717 -0.767499,-1.4472 -1.217658,-2.1807 z m -5.41146,0.5248 c -1.813364,6.0356 -2.525189,10.6625 -2.491785,14.0943 -1.608963,1.7717 -3.415964,2.9207 -5.09094,3.4743 -0.04772,-0.7243 -0.01591,-1.4913 0.08908,-2.3093 0.444592,-3.4958 2.314425,-7.8793 6.01671,-13.2413 0.505037,-0.6244 0.995759,-1.3021 1.476937,-2.018 z m 2.782082,0.5328 c 1.737012,6.058 3.641044,10.3351 5.523602,13.2046 -0.394486,2.3598 -1.29401,4.3044 -2.403503,5.676 -0.426299,-0.5872 -0.818399,-1.2473 -1.173119,-1.9918 -1.515113,-3.1812 -2.31522,-7.879 -2.098889,-14.3907 0.08749,-0.7988 0.134412,-1.6351 0.151909,-2.4981 z m 10.01645,0.3673 c 2.969781,1.0721 6.297463,2.0304 10.029175,2.8341 1.212886,0.2611 2.340671,0.5313 3.424713,0.8056 0.09464,0.8571 -0.01591,1.6347 -0.345971,2.2568 -0.59491,1.126 -1.86506,1.8203 -3.978266,1.6505 -1.190616,-0.096 -2.646079,-0.4923 -4.351278,-1.2385 -0.952811,-2.1375 -2.503715,-4.3194 -4.778373,-6.3085 z m 12.933739,1.7346 c 0.199629,0.466 0.34438,0.9236 0.436639,1.3645 -1.026778,-0.2565 -2.098094,-0.508 -3.236218,-0.7531 -0.711825,-0.1534 -1.395018,-0.3161 -2.078211,-0.4802 0.829534,0.099 1.631232,0.1616 2.374871,0.1496 0.896342,-0.014 1.728263,-0.1131 2.502919,-0.2808 z m 1.042684,2.0441 c 2.141838,0.5571 4.033144,1.1351 5.681082,1.7347 -1.923123,3.0629 -4.149266,5.4856 -6.610828,6.799 -2.196716,1.1725 -4.566814,1.4934 -7.115863,0.6403 0.21474,-1.7446 -0.02386,-3.8136 -0.863734,-5.9594 1.538973,0.6264 2.879908,0.9605 4.022805,1.0523 2.242049,0.1802 3.766707,-0.5993 4.461034,-1.9156 0.358696,-0.6791 0.492312,-1.4838 0.425504,-2.3513 z m -42.093904,0.1365 c -0.617975,0.5619 -1.191412,1.1257 -1.668613,1.6952 -0.575823,0.6864 -1.044275,1.3805 -1.425241,2.0757 -0.483563,-0.1552 -0.923384,-0.3439 -1.317074,-0.5642 0.865324,-0.6075 1.756099,-1.2525 2.687437,-1.9524 0.58139,-0.4375 1.153236,-0.8459 1.723491,-1.2543 z m 10.806218,0.3411 c -1.484096,2.787 -2.903769,5.9468 -4.230388,9.5257 -0.431071,1.1632 -0.857371,2.2412 -1.282875,3.2749 -0.862143,-0.029 -1.61453,-0.2505 -2.183195,-0.6639 -1.029959,-0.7485 -1.537383,-2.1046 -1.068135,-4.1724 0.264051,-1.1645 0.862939,-2.5504 1.844382,-4.133 2.250003,-0.639 4.62885,-1.8642 6.920211,-3.8313 z m 12.739677,0.5669 c 1.919143,2.5074 4.201755,5.1133 6.907485,7.8067 0.87805,0.8754 1.681338,1.713 2.44486,2.5297 -0.384147,0.7718 -0.899524,1.3653 -1.511137,1.711 -1.108697,0.626 -2.551434,0.5218 -4.23834,-0.7637 -0.948835,-0.7237 -1.962887,-1.8428 -2.993641,-3.393 0.353924,-2.3131 0.229851,-4.9877 -0.609227,-7.8907 z m 24.732539,0.8686 c 1.884944,0.71 3.423917,1.4467 4.681342,2.1937 -0.859757,0.9415 -1.759281,1.8703 -2.694595,2.7738 -3.897941,3.7675 -8.363748,7.0934 -12.695938,9.2107 -1.119036,-1.4759 -2.471106,-3.0719 -4.072116,-4.7969 0.210764,-0.4924 0.36665,-1.042 0.472429,-1.6297 2.647671,0.8545 5.155362,0.5244 7.431611,-0.6901 2.600746,-1.3887 4.908013,-3.9015 6.877267,-7.0615 z m -31.185093,0.7216 c 0.258484,3.1463 0.771475,6.5696 1.589875,10.2971 0.267233,1.2122 0.489927,2.3505 0.690351,3.4507 -0.740457,0.4418 -1.494435,0.6621 -2.196715,0.622 -1.270946,-0.072 -2.429749,-0.9408 -3.153504,-2.9339 -0.408007,-1.1221 -0.65297,-2.6099 -0.682397,-4.4714 1.547722,-1.7541 2.887861,-4.0702 3.75239,-6.9645 z m -21.96954,1.026 c 0.456522,0.2775 0.978262,0.5078 1.54295,0.6955 -1.22243,2.4999 -1.250267,5.0297 -0.372217,7.455 1.004508,2.7723 3.163047,5.4136 6.008756,7.8121 -0.971104,1.7643 -1.915167,3.1839 -2.832983,4.322 -0.809651,-0.9857 -1.603396,-2.0059 -2.365327,-3.0598 -3.174182,-4.3944 -5.831397,-9.2903 -7.31072,-13.879 1.619302,-0.8969 3.396081,-2.0076 5.329541,-3.3458 z m 58.279764,0.7007 c 0.423118,0.2667 0.808061,0.5338 1.157213,0.803 1.421263,1.0957 2.242049,2.2036 2.580067,3.2854 0.337222,1.0817 0.205991,2.1509 -0.326088,3.225 -1.063363,2.1482 -3.768289,4.2718 -7.41331,6.0723 -2.538714,1.2543 -5.53315,2.3495 -8.72483,3.2251 -0.662514,-1.3445 -1.568401,-2.8223 -2.781287,-4.4611 4.36639,-2.1511 8.819471,-5.5022 12.718208,-9.271 0.970308,-0.9373 1.89926,-1.9009 2.790027,-2.8787 z m -50.236541,0.1364 c -0.838283,1.4344 -1.360023,2.713 -1.613735,3.8312 -0.497084,2.1938 0.05567,3.8145 1.262197,4.6894 0.621157,0.4513 1.396608,0.6988 2.264319,0.7557 -0.85578,2.0405 -1.699631,3.829 -2.526779,5.3743 -2.756632,-2.3388 -4.836433,-4.8854 -5.786063,-7.5077 -0.848623,-2.3412 -0.829535,-4.7329 0.377784,-7.135 1.69645,0.4605 3.779432,0.5138 6.022277,-0.01 z m 26.168115,2.4877 c 0.637859,0.5254 1.274127,1.0054 1.900055,1.3934 0.761931,0.4726 1.513523,0.8397 2.256366,1.1179 -0.08431,0.4999 -0.210764,0.9625 -0.373012,1.3829 -0.723755,-0.7702 -1.486481,-1.5616 -2.312039,-2.3827 -0.50981,-0.5081 -0.990988,-1.01 -1.47137,-1.5115 z m -39.999787,0.2808 c 1.507955,4.6291 4.189825,9.5138 7.365598,13.9105 0.789768,1.0925 1.610554,2.1503 2.451223,3.17 -0.323702,0.3802 -0.641836,0.7267 -0.957584,1.0338 -1.286852,1.2516 -2.499738,1.9033 -3.618774,2.0836 -1.119037,0.1803 -2.15854,-0.1004 -3.146346,-0.7793 -1.974817,-1.358 -3.69115,-4.3396 -4.954142,-8.2031 -0.880436,-2.6916 -1.540564,-5.8113 -1.952548,-9.0952 1.426036,-0.4643 3.015911,-1.1516 4.812573,-2.1203 z m 18.476429,0.9368 c -0.213945,0.8012 -0.386533,1.5818 -0.480382,2.3145 -0.112938,0.8894 -0.136798,1.725 -0.08113,2.5165 -0.489131,0.1302 -0.96315,0.2089 -1.411719,0.2362 0.400053,-0.9795 0.802493,-2.0018 1.206523,-3.0939 0.252121,-0.6779 0.509014,-1.3255 0.766703,-1.9733 z m 16.217678,1.4616 c 0.955992,1.3596 1.903237,2.367 2.815486,3.0624 1.788708,1.3638 3.493112,1.5322 4.788712,0.8004 0.668877,-0.3776 1.216863,-0.9815 1.629642,-1.7477 1.500797,1.6264 2.77731,3.137 3.839082,4.5318 -3.273599,1.5368 -6.454144,2.3694 -9.23384,2.144 -2.483036,-0.2013 -4.651119,-1.2121 -6.334844,-3.309 1.123809,-1.3523 2.038444,-3.224 2.495762,-5.4819 z m -11.18957,0.4776 c 0.07158,1.6616 0.322111,3.0204 0.713416,4.0989 0.767498,2.1145 2.109229,3.1768 3.59571,3.2619 0.766703,0.044 1.55488,-0.1683 2.316811,-0.5905 0.383351,2.1802 0.640245,4.1432 0.779428,5.8911 -3.58537,-0.4766 -6.713423,-1.4954 -8.930022,-3.1882 -1.979589,-1.5112 -3.254511,-3.5353 -3.53765,-6.2087 1.676566,-0.5299 3.457321,-1.6124 5.062307,-3.2645 z m 5.906954,0.5957 c 0.254507,0.7949 0.530489,1.5494 0.850213,2.22 0.384942,0.8084 0.819195,1.5219 1.29401,2.1571 -0.341994,0.3748 -0.697508,0.6967 -1.060977,0.963 -0.192471,-1.0394 -0.408802,-2.1175 -0.657742,-3.2539 -0.156681,-0.7105 -0.291888,-1.3979 -0.425504,-2.0862 z m -11.451234,2.8 c 0.32211,2.7642 1.667817,4.9082 3.717396,6.4737 2.344648,1.7896 5.587229,2.8462 9.279174,3.3247 0.136798,2.0098 0.108166,3.7155 -0.04772,5.1696 -1.214477,-0.3914 -2.432135,-0.824 -3.642635,-1.299 -5.046401,-1.9805 -9.928167,-4.6623 -13.653517,-7.7228 0.87805,-1.6302 1.770416,-3.525 2.673917,-5.6969 0.534465,-0.014 1.098357,-0.1019 1.674975,-0.2493 z m 13.904843,1.9812 c 1.766439,2.151 4.054618,3.2264 6.625936,3.4349 2.938763,0.2384 6.239404,-0.6266 9.604467,-2.22 1.200956,1.6162 2.098889,3.0663 2.751859,4.3745 -1.231974,0.3269 -2.490194,0.6244 -3.765116,0.879 -5.31602,1.062 -10.872231,1.4448 -15.660943,0.8844 -0.143161,-1.8465 -0.417551,-3.9236 -0.831921,-6.2402 0.441411,-0.2997 0.870097,-0.6767 1.275718,-1.1126 z m -18.497108,4.4348 c 3.769888,3.0778 8.665971,5.7366 13.713167,7.7175 1.254244,0.4922 2.518031,0.9402 3.776251,1.3436 -0.06363,0.4947 -0.147137,0.9565 -0.247349,1.3855 -0.405621,1.7486 -1.071316,2.954 -1.914372,3.7106 -0.844645,0.7564 -1.873014,1.0816 -3.070788,1.0443 -2.39555,-0.075 -5.450432,-1.6552 -8.601549,-4.2222 -2.19592,-1.7882 -4.438765,-4.0552 -6.560719,-6.5944 0.948039,-1.1614 1.916757,-2.599 2.905359,-4.3849 z m 37.71638,1.6085 c 0.210764,0.4527 0.388919,0.8866 0.537646,1.3016 0.60366,1.6906 0.696714,3.0641 0.396077,4.1567 -0.300636,1.0925 -0.990192,1.9212 -2.017765,2.5375 -2.055941,1.2324 -5.481449,1.5551 -9.520161,1.0994 -2.8131,-0.3172 -5.925246,-1.0108 -9.082726,-1.9995 0.170201,-1.4898 0.203606,-3.2228 0.07158,-5.2588 4.836433,0.5515 10.395029,0.1389 15.713435,-0.9237 1.322642,-0.2642 2.626992,-0.5719 3.905095,-0.9132 z"
       marker="none"
       visibility="visible"
       display="inline"
       overflow="visible"
       id="path4600"
       inkscape:connector-curvature="0" />
  </g>
</svg>
