<?xml version="1.0" encoding="UTF-8" standalone="no"?>
<svg
   xmlns:dc="http://purl.org/dc/elements/1.1/"
   xmlns:cc="http://creativecommons.org/ns#"
   xmlns:rdf="http://www.w3.org/1999/02/22-rdf-syntax-ns#"
   xmlns:svg="http://www.w3.org/2000/svg"
   xmlns="http://www.w3.org/2000/svg"
   xmlns:sodipodi="http://sodipodi.sourceforge.net/DTD/sodipodi-0.dtd"
   xmlns:inkscape="http://www.inkscape.org/namespaces/inkscape"
   data-name="Your Icon"
   viewBox="0 0 88.05 112.5"
   x="0px"
   y="0px"
   version="1.1"
   id="svg4135"
   sodipodi:docname="pat6.svg"
   inkscape:version="0.92.3 (2405546, 2018-03-11)">
  <metadata
     id="metadata4141">
    <rdf:RDF>
      <cc:Work
         rdf:about="">
        <dc:format>image/svg+xml</dc:format>
        <dc:type
           rdf:resource="http://purl.org/dc/dcmitype/StillImage" />
        <dc:title>hub</dc:title>
      </cc:Work>
    </rdf:RDF>
  </metadata>
  <defs
     id="defs4139" />
  <sodipodi:namedview
     pagecolor="#ffffff"
     bordercolor="#666666"
     borderopacity="1"
     objecttolerance="10"
     gridtolerance="10"
     guidetolerance="10"
     inkscape:pageopacity="0"
     inkscape:pageshadow="2"
     inkscape:window-width="1117"
     inkscape:window-height="633"
     id="namedview4137"
     showgrid="false"
     inkscape:zoom="5.9466667"
     inkscape:cx="14.933073"
     inkscape:cy="56.25"
     inkscape:window-x="318"
     inkscape:window-y="23"
     inkscape:window-maximized="0"
     inkscape:current-layer="svg4135">
    <inkscape:grid
       type="xygrid"
       id="grid5352" />
  </sodipodi:namedview>
  <title
     id="title3947">hub</title>
  <path
     d="M 79.83,69.52 79.5,69.36 A 36.45,36.45 0 0 0 83.24,53.18 36.85,36.85 0 0 0 46.43,16.37 v -0.38 a 37.22,37.22 0 0 1 37.18,37.19 36.82,36.82 0 0 1 -3.78,16.34 z"
     id="path3949"
     inkscape:connector-curvature="0"
     style="fill:#595456;fill-opacity:1" />
  <path
     d="M 46.43,94.43 A 41.26,41.26 0 0 1 17.25,24 41.26,41.26 0 1 1 75.6,82.35 41,41 0 0 1 46.43,94.43 Z m 0,-81.77 A 40.52,40.52 0 0 0 17.78,81.83 40.52,40.52 0 0 0 75.03,24.53 40.25,40.25 0 0 0 46.43,12.66 Z"
     id="path3951"
     inkscape:connector-curvature="0"
     style="fill:#595456;fill-opacity:1" />
  <path
     d="M 46.43,99.6 A 46.42,46.42 0 0 1 0.03,53.18 h 0.53 a 45.87,45.87 0 0 0 45.87,45.86 z"
     id="path3953"
     inkscape:connector-curvature="0"
     style="fill:#595456;fill-opacity:1" />
  <path
     d="M 56.03,94.77 55.64,93.14 A 41.82,41.82 0 0 0 83.26,71.36 l 1.49,0.76 A 43.49,43.49 0 0 1 56.03,94.77 Z"
     id="path3955"
     inkscape:connector-curvature="0"
     style="fill:#595456;fill-opacity:1" />
  <path
     d="M 8.78,37.06 5.54,35.67 a 44.44,44.44 0 0 1 27.68,-25 l 1,3.37 A 40.91,40.91 0 0 0 8.78,37.06 Z"
     id="path3957"
     inkscape:connector-curvature="0"
     style="fill:#595456;fill-opacity:1" />
  <path
     d="M 79.25,29.31 A 42.12,42.12 0 0 0 67.59,18.51 41,41 0 0 0 53.03,12.89 L 53.64,9.6 a 44.3,44.3 0 0 1 15.71,6.07 45.45,45.45 0 0 1 12.59,11.66 z"
     id="path3959"
     inkscape:connector-curvature="0"
     style="fill:#595456;fill-opacity:1" />
  <path
     d="M 88.03,53.18 H 86.57 A 40.14,40.14 0 0 0 46.43,13.03 v -1.48 a 41.63,41.63 0 0 1 41.6,41.63 z"
     id="path3961"
     inkscape:connector-curvature="0"
     style="fill:#595456;fill-opacity:1" />
  <path
     d="m 46.43,95.18 a 42,42 0 0 1 -42,-42 h 2.23 a 39.77,39.77 0 0 0 39.77,39.77 z"
     id="path3963"
     inkscape:connector-curvature="0"
     style="fill:#595456;fill-opacity:1" />
  <path
     d="M 46.43,82.03 A 28.86,28.86 0 1 1 75.28,53.18 28.89,28.89 0 0 1 46.43,82.03 Z m 0,-57.34 A 28.49,28.49 0 1 0 74.91,53.18 28.52,28.52 0 0 0 46.43,24.69 Z"
     id="path3965"
     inkscape:connector-curvature="0"
     style="fill:#595456;fill-opacity:1" />
  <path
     d="M 46.43,35.96 A 17.22,17.22 0 1 0 63.64,53.18 17.22,17.22 0 0 0 46.43,35.96 Z m 0,32.39 A 15.17,15.17 0 1 1 61.6,53.18 15.17,15.17 0 0 1 46.43,68.35 Z"
     id="path3967"
     inkscape:connector-curvature="0"
     style="fill:#595456;fill-opacity:1" />
  <path
     d="m 47.61,86.6 v -0.39 h 0.37 l 0.05,0.39 z"
     id="path3969"
     inkscape:connector-curvature="0"
     style="fill:#595456;fill-opacity:1" />
  <path
     d="m 45.03,86.6 h -0.37 v -0.37 h 0.37 z"
     id="path3971"
     inkscape:connector-curvature="0"
     style="fill:#595456;fill-opacity:1" />
  <path
     d="m 50.6,86.34 v -0.37 h 0.37 v 0.37 z"
     id="path3973"
     inkscape:connector-curvature="0"
     style="fill:#595456;fill-opacity:1" />
  <path
     d="m 42.03,86.31 -0.37,-0.05 0.05,-0.37 0.32,0.05 z"
     id="path3975"
     inkscape:connector-curvature="0"
     style="fill:#595456;fill-opacity:1" />
  <path
     d="m 53.56,85.84 -0.08,-0.36 0.36,-0.08 0.08,0.36 z"
     id="path3977"
     inkscape:connector-curvature="0"
     style="fill:#595456;fill-opacity:1" />
  <path
     d="m 39.03,85.78 -0.37,-0.08 0.09,-0.36 0.36,0.08 z"
     id="path3979"
     inkscape:connector-curvature="0"
     style="fill:#595456;fill-opacity:1" />
  <path
     d="m 56.46,85.07 -0.11,-0.35 0.35,-0.12 0.12,0.35 z"
     id="path3981"
     inkscape:connector-curvature="0"
     style="fill:#595456;fill-opacity:1" />
  <path
     d="m 36.16,84.99 -0.36,-0.12 0.12,-0.35 0.35,0.08 z"
     id="path3983"
     inkscape:connector-curvature="0"
     style="fill:#595456;fill-opacity:1" />
  <path
     d="m 59.27,84.04 -0.14,-0.34 0.34,-0.1 0.15,0.34 z"
     id="path3985"
     inkscape:connector-curvature="0"
     style="fill:#595456;fill-opacity:1" />
  <path
     d="m 33.34,83.94 -0.31,-0.14 0.15,-0.34 0.31,0.14 z"
     id="path3987"
     inkscape:connector-curvature="0"
     style="fill:#595456;fill-opacity:1" />
  <path
     d="m 62.03,82.77 -0.17,-0.33 0.33,-0.17 0.12,0.33 z"
     id="path3989"
     inkscape:connector-curvature="0"
     style="fill:#595456;fill-opacity:1" />
  <path
     d="m 30.64,82.6 -0.33,-0.18 0.18,-0.32 0.33,0.18 z"
     id="path3991"
     inkscape:connector-curvature="0"
     style="fill:#595456;fill-opacity:1" />
  <path
     d="m 64.57,81.26 -0.2,-0.31 0.31,-0.2 0.21,0.31 z"
     id="path3993"
     inkscape:connector-curvature="0"
     style="fill:#595456;fill-opacity:1" />
  <path
     d="m 28.03,81.11 -0.31,-0.21 0.24,-0.3 0.31,0.21 z"
     id="path3995"
     inkscape:connector-curvature="0"
     style="fill:#595456;fill-opacity:1" />
  <path
     d="m 67.03,79.52 -0.23,-0.29 0.23,-0.24 0.23,0.29 z"
     id="path3997"
     inkscape:connector-curvature="0"
     style="fill:#595456;fill-opacity:1" />
  <path
     d="m 25.63,79.35 -0.29,-0.24 0.23,-0.29 0.29,0.23 z"
     id="path3999"
     inkscape:connector-curvature="0"
     style="fill:#595456;fill-opacity:1" />
  <path
     d="m 69.28,77.6 -0.25,-0.31 0.27,-0.26 0.26,0.27 z"
     id="path4001"
     inkscape:connector-curvature="0"
     style="fill:#595456;fill-opacity:1" />
  <path
     d="m 23.37,77.38 -0.27,-0.26 0.26,-0.27 0.27,0.26 z"
     id="path4003"
     inkscape:connector-curvature="0"
     style="fill:#595456;fill-opacity:1" />
  <path
     d="m 71.38,75.42 -0.28,-0.25 0.25,-0.28 0.28,0.24 z"
     id="path4005"
     inkscape:connector-curvature="0"
     style="fill:#595456;fill-opacity:1" />
  <path
     d="m 21.3,75.21 -0.27,-0.28 0.28,-0.24 0.24,0.28 z"
     id="path4007"
     inkscape:connector-curvature="0"
     style="fill:#595456;fill-opacity:1" />
  <path
     d="m 73.27,73.09 -0.3,-0.22 0.22,-0.3 0.3,0.22 z"
     id="path4009"
     inkscape:connector-curvature="0"
     style="fill:#595456;fill-opacity:1" />
  <path
     d="m 19.42,72.87 -0.22,-0.27 0.3,-0.22 0.22,0.3 z"
     id="path4011"
     inkscape:connector-curvature="0"
     style="fill:#595456;fill-opacity:1" />
  <path
     d="m 74.95,70.6 -0.32,-0.19 0.19,-0.32 0.32,0.19 z"
     id="path4013"
     inkscape:connector-curvature="0"
     style="fill:#595456;fill-opacity:1" />
  <path
     d="m 17.76,70.38 -0.19,-0.32 0.32,-0.19 0.19,0.32 z"
     id="path4015"
     inkscape:connector-curvature="0"
     style="fill:#595456;fill-opacity:1" />
  <path
     d="m 76.4,67.98 -0.37,-0.16 0.16,-0.33 0.38,0.11 z"
     id="path4017"
     inkscape:connector-curvature="0"
     style="fill:#595456;fill-opacity:1" />
  <path
     d="m 16.33,67.74 -0.16,-0.34 0.34,-0.16 0.16,0.36 z"
     id="path4019"
     inkscape:connector-curvature="0"
     style="fill:#595456;fill-opacity:1" />
  <path
     d="m 77.61,65.23 -0.35,-0.13 0.13,-0.35 0.35,0.13 z"
     id="path4021"
     inkscape:connector-curvature="0"
     style="fill:#595456;fill-opacity:1" />
  <path
     d="m 15.15,64.99 -0.12,-0.39 0.35,-0.13 0.13,0.35 z"
     id="path4023"
     inkscape:connector-curvature="0"
     style="fill:#595456;fill-opacity:1" />
  <path
     d="m 78.57,62.39 -0.36,-0.1 0.1,-0.36 0.36,0.1 z"
     id="path4025"
     inkscape:connector-curvature="0"
     style="fill:#595456;fill-opacity:1" />
  <path
     d="m 14.22,62.14 -0.1,-0.36 0.36,-0.1 0.1,0.36 z"
     id="path4027"
     inkscape:connector-curvature="0"
     style="fill:#595456;fill-opacity:1" />
  <path
     d="M 79.26,59.47 78.9,59.4 78.97,59.04 79.33,59.1 Z"
     id="path4029"
     inkscape:connector-curvature="0"
     style="fill:#595456;fill-opacity:1" />
  <path
     d="m 13.55,59.22 -0.07,-0.37 0.37,-0.06 0.06,0.37 z"
     id="path4031"
     inkscape:connector-curvature="0"
     style="fill:#595456;fill-opacity:1" />
  <path
     d="m 79.69,56.51 h -0.37 v -0.37 h 0.37 z"
     id="path4033"
     inkscape:connector-curvature="0"
     style="fill:#595456;fill-opacity:1" />
  <path
     d="m 13.14,56.25 v -0.37 h 0.37 v 0.37 z"
     id="path4035"
     inkscape:connector-curvature="0"
     style="fill:#595456;fill-opacity:1" />
  <path
     d="m 79.85,53.51 h -0.37 q 0,-0.17 0,-0.33 v 0 h 0.37 v 0 c 0,0.11 0,0.22 0,0.33 z"
     id="path4037"
     inkscape:connector-curvature="0"
     style="fill:#595456;fill-opacity:1" />
  <path
     d="m 13.03,53.25 v -0.07 q 0,-0.19 0,-0.37 h 0.37 q 0,0.19 0,0.37 v 0.08 h -0.37 z"
     id="path4039"
     inkscape:connector-curvature="0"
     style="fill:#595456;fill-opacity:1" />
  <path
     d="m 79.38,50.54 v -0.37 h 0.37 v 0.37 z"
     id="path4041"
     inkscape:connector-curvature="0"
     style="fill:#595456;fill-opacity:1" />
  <path
     d="M 13.5,50.21 H 13.13 V 49.84 H 13.5 Z"
     id="path4043"
     inkscape:connector-curvature="0"
     style="fill:#595456;fill-opacity:1" />
  <path
     d="m 79.03,47.6 -0.06,-0.37 0.37,-0.07 0.06,0.37 z"
     id="path4045"
     inkscape:connector-curvature="0"
     style="fill:#595456;fill-opacity:1" />
  <path
     d="m 13.9,47.28 -0.37,-0.07 0.07,-0.37 0.36,0.07 z"
     id="path4047"
     inkscape:connector-curvature="0"
     style="fill:#595456;fill-opacity:1" />
  <path
     d="m 78.39,44.7 -0.1,-0.36 0.36,-0.1 0.09,0.36 z"
     id="path4049"
     inkscape:connector-curvature="0"
     style="fill:#595456;fill-opacity:1" />
  <path
     d="m 14.56,44.38 -0.36,-0.1 0.1,-0.36 0.36,0.1 z"
     id="path4051"
     inkscape:connector-curvature="0"
     style="fill:#595456;fill-opacity:1" />
  <path
     d="m 77.5,41.88 -0.13,-0.35 0.35,-0.13 0.13,0.35 z"
     id="path4053"
     inkscape:connector-curvature="0"
     style="fill:#595456;fill-opacity:1" />
  <path
     d="m 15.47,41.6 -0.35,-0.13 0.13,-0.35 0.35,0.13 z"
     id="path4055"
     inkscape:connector-curvature="0"
     style="fill:#595456;fill-opacity:1" />
  <path
     d="M 76.36,39.14 76.2,38.81 76.54,38.6 76.7,38.94 Z"
     id="path4057"
     inkscape:connector-curvature="0"
     style="fill:#595456;fill-opacity:1" />
  <path
     d="m 16.64,38.84 -0.33,-0.16 0.17,-0.34 0.33,0.17 z"
     id="path4059"
     inkscape:connector-curvature="0"
     style="fill:#595456;fill-opacity:1" />
  <path
     d="m 75.03,36.52 -0.19,-0.32 0.32,-0.19 0.19,0.32 z"
     id="path4061"
     inkscape:connector-curvature="0"
     style="fill:#595456;fill-opacity:1" />
  <path
     d="m 18.03,36.22 -0.32,-0.19 0.19,-0.32 0.32,0.19 z"
     id="path4063"
     inkscape:connector-curvature="0"
     style="fill:#595456;fill-opacity:1" />
  <path
     d="m 73.37,34.03 -0.22,-0.3 0.3,-0.22 0.22,0.3 z"
     id="path4065"
     inkscape:connector-curvature="0"
     style="fill:#595456;fill-opacity:1" />
  <path
     d="m 19.68,33.75 -0.3,-0.22 0.22,-0.3 0.3,0.22 z"
     id="path4067"
     inkscape:connector-curvature="0"
     style="fill:#595456;fill-opacity:1" />
  <path
     d="m 71.55,31.69 -0.24,-0.28 0.28,-0.24 0.24,0.28 z"
     id="path4069"
     inkscape:connector-curvature="0"
     style="fill:#595456;fill-opacity:1" />
  <path
     d="m 21.53,31.43 -0.28,-0.24 0.25,-0.28 0.28,0.25 z"
     id="path4071"
     inkscape:connector-curvature="0"
     style="fill:#595456;fill-opacity:1" />
  <path
     d="M 69.52,29.53 69.25,29.27 69.51,29 69.78,29.26 Z"
     id="path4073"
     inkscape:connector-curvature="0"
     style="fill:#595456;fill-opacity:1" />
  <path
     d="m 23.58,29.29 -0.26,-0.27 0.27,-0.26 0.25,0.27 z"
     id="path4075"
     inkscape:connector-curvature="0"
     style="fill:#595456;fill-opacity:1" />
  <path
     d="m 67.31,27.6 -0.28,-0.28 0.23,-0.29 0.29,0.24 z"
     id="path4077"
     inkscape:connector-curvature="0"
     style="fill:#595456;fill-opacity:1" />
  <path
     d="m 25.82,27.33 -0.23,-0.29 0.29,-0.23 0.23,0.29 z"
     id="path4079"
     inkscape:connector-curvature="0"
     style="fill:#595456;fill-opacity:1" />
  <path
     d="m 64.93,25.78 -0.31,-0.18 0.2,-0.31 0.31,0.21 z"
     id="path4081"
     inkscape:connector-curvature="0"
     style="fill:#595456;fill-opacity:1" />
  <path
     d="m 28.21,25.6 -0.18,-0.32 0.31,-0.2 0.2,0.31 z"
     id="path4083"
     inkscape:connector-curvature="0"
     style="fill:#595456;fill-opacity:1" />
  <path
     d="m 62.4,24.23 -0.37,-0.18 0.18,-0.33 0.33,0.18 z"
     id="path4085"
     inkscape:connector-curvature="0"
     style="fill:#595456;fill-opacity:1" />
  <path
     d="m 30.75,24.07 -0.18,-0.33 0.34,-0.14 0.17,0.33 z"
     id="path4087"
     inkscape:connector-curvature="0"
     style="fill:#595456;fill-opacity:1" />
  <path
     d="m 59.74,22.91 -0.34,-0.15 0.15,-0.34 0.34,0.18 z"
     id="path4089"
     inkscape:connector-curvature="0"
     style="fill:#595456;fill-opacity:1" />
  <path
     d="m 33.42,22.78 -0.15,-0.34 0.34,-0.15 0.15,0.31 z"
     id="path4091"
     inkscape:connector-curvature="0"
     style="fill:#595456;fill-opacity:1" />
  <path
     d="m 56.97,21.84 -0.35,-0.12 0.11,-0.35 0.36,0.12 z"
     id="path4093"
     inkscape:connector-curvature="0"
     style="fill:#595456;fill-opacity:1" />
  <path
     d="m 36.19,21.74 -0.16,-0.36 0.36,-0.11 0.16,0.33 z"
     id="path4095"
     inkscape:connector-curvature="0"
     style="fill:#595456;fill-opacity:1" />
  <path
     d="m 54.12,21.02 -0.36,-0.08 0.08,-0.34 0.37,0.08 z"
     id="path4097"
     inkscape:connector-curvature="0"
     style="fill:#595456;fill-opacity:1" />
  <path
     d="m 39.03,20.95 -0.06,-0.35 0.37,-0.08 0.08,0.36 z"
     id="path4099"
     inkscape:connector-curvature="0"
     style="fill:#595456;fill-opacity:1" />
  <path
     d="m 51.21,20.47 -0.37,-0.05 v -0.37 l 0.37,0.05 z"
     id="path4101"
     inkscape:connector-curvature="0"
     style="fill:#595456;fill-opacity:1" />
  <path
     d="m 41.97,20.42 v -0.37 h 0.37 v 0.37 z"
     id="path4103"
     inkscape:connector-curvature="0"
     style="fill:#595456;fill-opacity:1" />
  <path
     d="M 48.26,20.17 H 47.89 V 19.8 h 0.37 z"
     id="path4105"
     inkscape:connector-curvature="0"
     style="fill:#595456;fill-opacity:1" />
  <path
     d="m 44.92,20.16 v -0.37 h 0.37 v 0.37 z"
     id="path4107"
     inkscape:connector-curvature="0"
     style="fill:#595456;fill-opacity:1" />
  <path
     d="m 50.27,87.32 -0.24,-2.22 1,-0.13 0.32,2.21 z"
     id="path4109"
     inkscape:connector-curvature="0"
     style="fill:#595456;fill-opacity:1" />
  <path
     d="m 32.21,84.46 -1,-0.48 1,-2 0.94,0.45 z"
     id="path4111"
     inkscape:connector-curvature="0"
     style="fill:#595456;fill-opacity:1" />
  <path
     d="m 68.11,79.82 -1.41,-1.73 0.79,-0.67 1.46,1.68 z"
     id="path4113"
     inkscape:connector-curvature="0"
     style="fill:#595456;fill-opacity:1" />
  <path
     d="m 17.56,71.81 c -0.2,-0.31 -0.4,-0.63 -0.59,-0.94 l 1.91,-1.15 c 0.18,0.29 0.36,0.59 0.55,0.88 z"
     id="path4115"
     inkscape:connector-curvature="0"
     style="fill:#595456;fill-opacity:1" />
  <path
     d="m 79.08,63.87 -2.12,-0.69 c 0.11,-0.33 0.21,-0.66 0.31,-1 l 2.14,0.62 c -0.1,0.37 -0.21,0.72 -0.33,1.07 z"
     id="path4117"
     inkscape:connector-curvature="0"
     style="fill:#595456;fill-opacity:1" />
  <path
     d="m 12.03,53.26 v -0.09 c 0,-0.36 0,-0.74 0,-1.11 l 2.23,0.07 c 0,0.34 0,0.69 0,1 v 0.07 h -2.23 z"
     id="path4119"
     inkscape:connector-curvature="0"
     style="fill:#595456;fill-opacity:1" />
  <path
     d="m 77.53,45.09 c -0.09,-0.33 -0.18,-0.67 -0.28,-1 l 2.14,-0.63 c 0.1,0.35 0.2,0.71 0.3,1.07 z"
     id="path4121"
     inkscape:connector-curvature="0"
     style="fill:#595456;fill-opacity:1" />
  <path
     d="M 19.39,35.81 17.52,34.6 c 0.2,-0.31 0.41,-0.62 0.62,-0.92 l 1.83,1.27 c -0.2,0.28 -0.39,0.57 -0.58,0.86 z"
     id="path4123"
     inkscape:connector-curvature="0"
     style="fill:#595456;fill-opacity:1" />
  <path
     d="m 68.22,29.6 -0.77,-0.69 1.46,-1.68 0.83,0.74 z"
     id="path4125"
     inkscape:connector-curvature="0"
     style="fill:#595456;fill-opacity:1" />
  <path
     d="m 33.03,23.95 -0.93,-2 1,-0.44 0.93,2.03 z"
     id="path4127"
     inkscape:connector-curvature="0"
     style="fill:#595456;fill-opacity:1" />
  <path
     d="m 52.03,21.53 -1,-0.16 0.31,-2.21 1.1,0.17 z"
     id="path4129"
     inkscape:connector-curvature="0"
     style="fill:#595456;fill-opacity:1" />
</svg>
