<?xml version="1.0" encoding="UTF-8" standalone="no"?>
<svg
   xmlns:dc="http://purl.org/dc/elements/1.1/"
   xmlns:cc="http://creativecommons.org/ns#"
   xmlns:rdf="http://www.w3.org/1999/02/22-rdf-syntax-ns#"
   xmlns:svg="http://www.w3.org/2000/svg"
   xmlns="http://www.w3.org/2000/svg"
   xmlns:sodipodi="http://sodipodi.sourceforge.net/DTD/sodipodi-0.dtd"
   xmlns:inkscape="http://www.inkscape.org/namespaces/inkscape"
   version="1.1"
   x="0px"
   y="0px"
   viewBox="0 0 78.789001 78.903999"
   enable-background="new 0 0 100 100"
   xml:space="preserve"
   id="svg15002"
   sodipodi:docname="circle2.svg"
   width="78.789001"
   height="78.903999"
   inkscape:version="0.92.2 2405546, 2018-03-11"><metadata
     id="metadata15008"><rdf:RDF><cc:Work
         rdf:about=""><dc:format>image/svg+xml</dc:format><dc:type
           rdf:resource="http://purl.org/dc/dcmitype/StillImage" /></cc:Work></rdf:RDF></metadata><defs
     id="defs15006" /><sodipodi:namedview
     pagecolor="#ffffff"
     bordercolor="#666666"
     borderopacity="1"
     objecttolerance="10"
     gridtolerance="10"
     guidetolerance="10"
     inkscape:pageopacity="0"
     inkscape:pageshadow="2"
     inkscape:window-width="768"
     inkscape:window-height="480"
     id="namedview15004"
     showgrid="false"
     inkscape:zoom="1.888"
     inkscape:cx="39.898"
     inkscape:cy="27.426"
     inkscape:window-x="0"
     inkscape:window-y="0"
     inkscape:window-maximized="0"
     inkscape:current-layer="svg15002" /><g
     id="g14996"
     transform="translate(-10.102,-11.022)"
     style="fill:#5e5c5f;fill-opacity:1"><g
       id="g14994"
       style="fill:#5e5c5f;fill-opacity:1"><g
         id="g14992"
         style="fill:#5e5c5f;fill-opacity:1"><g
           id="g14990"
           style="fill:#5e5c5f;fill-opacity:1"><g
             id="g14988"
             style="fill:#5e5c5f;fill-opacity:1"><path
               d="m 74.904,21.724 c 0.037,-0.011 0.076,-0.031 0.119,-0.069 -0.064,0.014 -0.1,0.039 -0.119,0.069 z"
               id="path14908"
               inkscape:connector-curvature="0"
               style="fill:#5e5c5f;fill-opacity:1" /><path
               d="m 58.669,12.455 0.23,-0.006 c -0.143,-0.027 -0.203,-0.019 -0.23,0.006 z"
               id="path14910"
               inkscape:connector-curvature="0"
               style="fill:#5e5c5f;fill-opacity:1" /><path
               d="m 81.779,30.426 c -0.017,-0.007 -0.024,-0.003 -0.04,-0.006 0.084,0.149 0.199,0.35 0.384,0.677 z"
               id="path14912"
               inkscape:connector-curvature="0"
               style="fill:#5e5c5f;fill-opacity:1" /><path
               d="m 20.901,23.342 0.173,-0.196 c -0.081,0.086 -0.142,0.134 -0.173,0.196 z"
               id="path14914"
               inkscape:connector-curvature="0"
               style="fill:#5e5c5f;fill-opacity:1" /><path
               d="m 42.153,11.922 c -0.062,0.072 -0.181,0.123 -0.297,0.17 0.153,-0.029 0.272,-0.071 0.297,-0.17 z"
               id="path14916"
               inkscape:connector-curvature="0"
               style="fill:#5e5c5f;fill-opacity:1" /><path
               d="m 81.873,36.701 c 0,0 0.07,-0.346 0.063,-0.344 -0.076,0.039 -0.099,0.161 -0.063,0.344 z"
               id="path14918"
               inkscape:connector-curvature="0"
               style="fill:#5e5c5f;fill-opacity:1" /><path
               d="m 85.137,46.673 c 0.013,-0.01 0.025,-0.013 0.042,-0.032 -0.019,-0.014 -0.031,0.004 -0.042,0.032 z"
               id="path14920"
               inkscape:connector-curvature="0"
               style="fill:#5e5c5f;fill-opacity:1" /><path
               d="m 85.257,42.413 c -0.039,-0.085 -0.098,-0.181 -0.157,-0.277 0.037,0.124 0.078,0.283 0.157,0.277 z"
               id="path14922"
               inkscape:connector-curvature="0"
               style="fill:#5e5c5f;fill-opacity:1" /><path
               d="m 85.017,42.007 0.082,0.129 c -0.026,-0.077 -0.05,-0.139 -0.082,-0.129 z"
               id="path14924"
               inkscape:connector-curvature="0"
               style="fill:#5e5c5f;fill-opacity:1" /><path
               d="m 88.477,51.815 c 0.025,-0.333 -0.106,-0.623 -0.21,-0.924 z"
               id="path14926"
               inkscape:connector-curvature="0"
               style="fill:#5e5c5f;fill-opacity:1" /><path
               d="m 11.303,58.433 -0.095,-0.056 c 0.043,0.063 0.072,0.069 0.095,0.056 z"
               id="path14928"
               inkscape:connector-curvature="0"
               style="fill:#5e5c5f;fill-opacity:1" /><path
               d="m 86.842,51.34 0.051,-0.224 c -0.036,0.082 -0.049,0.154 -0.051,0.224 z"
               id="path14930"
               inkscape:connector-curvature="0"
               style="fill:#5e5c5f;fill-opacity:1" /><path
               d="m 78.896,32.1 c -0.311,-0.153 -0.436,-0.791 -0.586,-0.688 0.186,0.251 0.296,0.703 0.586,0.688 z"
               id="path14932"
               inkscape:connector-curvature="0"
               style="fill:#5e5c5f;fill-opacity:1" /><path
               d="m 20.232,63.175 0.091,0.165 c -0.038,-0.081 -0.066,-0.13 -0.091,-0.165 z"
               id="path14934"
               inkscape:connector-curvature="0"
               style="fill:#5e5c5f;fill-opacity:1" /><path
               d="M 86.842,51.34 86.784,51.6 C 86.82,51.58 86.85,51.551 86.881,51.525 86.857,51.466 86.843,51.404 86.842,51.34 Z"
               id="path14936"
               inkscape:connector-curvature="0"
               style="fill:#5e5c5f;fill-opacity:1" /><path
               d="m 36.013,87.115 c 0,0 -0.007,-0.003 -0.013,-0.005 -0.031,0.001 -0.054,0.003 -0.087,0.004 z"
               id="path14938"
               inkscape:connector-curvature="0"
               style="fill:#5e5c5f;fill-opacity:1" /><path
               d="m 37.891,88.122 c -0.145,-0.031 -0.286,-0.062 -0.442,-0.096 0.218,0.1 0.346,0.113 0.442,0.096 z"
               id="path14940"
               inkscape:connector-curvature="0"
               style="fill:#5e5c5f;fill-opacity:1" /><path
               d="m 88.267,50.891 -0.121,-0.522 c 0.011,0.187 0.062,0.356 0.121,0.522 z"
               id="path14942"
               inkscape:connector-curvature="0"
               style="fill:#5e5c5f;fill-opacity:1" /><path
               d="m 60.271,88.34 c -0.069,0.023 -0.133,0.047 -0.195,0.074 0.088,-0.02 0.152,-0.045 0.195,-0.074 z"
               id="path14944"
               inkscape:connector-curvature="0"
               style="fill:#5e5c5f;fill-opacity:1" /><path
               d="m 43.712,11.79 c 0.052,0.01 0.122,0.009 0.183,0.013 0.013,-0.045 -0.004,-0.074 -0.183,-0.013 z"
               id="path14946"
               inkscape:connector-curvature="0"
               style="fill:#5e5c5f;fill-opacity:1" /><polygon
               points="32.167,21.341 32.169,21.335 32.165,21.337 "
               id="polygon14948"
               style="fill:#5e5c5f;fill-opacity:1" /><path
               d="m 32.656,20.768 c -0.213,0.08 -0.416,0.361 -0.487,0.567 0.191,-0.116 0.348,-0.258 0.487,-0.567 z"
               id="path14950"
               inkscape:connector-curvature="0"
               style="fill:#5e5c5f;fill-opacity:1" /><path
               d="m 30.826,22.068 c 0.027,-0.011 0.048,-0.019 0.08,-0.031 -0.031,0.007 -0.056,0.016 -0.08,0.031 z"
               id="path14952"
               inkscape:connector-curvature="0"
               style="fill:#5e5c5f;fill-opacity:1" /><path
               d="m 44.033,17.044 c -0.001,-0.006 0,-0.014 -0.004,-0.02 l -0.005,0.019 z"
               id="path14954"
               inkscape:connector-curvature="0"
               style="fill:#5e5c5f;fill-opacity:1" /><path
               d="m 41.31,17.695 c -0.058,-0.023 -0.131,-0.033 -0.209,-0.033 0.056,0.023 0.126,0.038 0.209,0.033 z"
               id="path14956"
               inkscape:connector-curvature="0"
               style="fill:#5e5c5f;fill-opacity:1" /><polygon
               points="25.846,27.024 25.858,27.019 25.855,27.011 "
               id="polygon14958"
               style="fill:#5e5c5f;fill-opacity:1" /><path
               d="m 18.067,50.899 c -0.026,-0.316 -0.076,-0.644 -0.097,-0.982 -0.004,-0.338 -0.008,-0.685 -0.012,-1.038 -0.015,-0.711 -0.03,-1.445 -0.045,-2.178 0.075,-0.729 0.15,-1.457 0.223,-2.161 0.046,-0.352 0.092,-0.697 0.136,-1.033 0.078,-0.329 0.173,-0.646 0.264,-0.95 -0.236,-0.624 -0.045,-1.421 0.074,-2.241 l 0.509,0.067 0.079,-0.684 c 0.242,-0.208 -0.089,0.516 0.262,0.123 l -0.212,-0.341 c 0.194,0.007 0.709,-1.585 0.667,-0.4 0,0 0.222,-0.609 0.444,-1.219 0.096,-0.311 0.251,-0.597 0.357,-0.817 0.107,-0.219 0.178,-0.365 0.178,-0.365 0.263,-0.509 -0.238,-0.484 0.153,-1.007 0.19,-0.051 -0.008,0.252 0.179,0.286 0.577,-0.775 0.585,-1.384 0.659,-1.966 0.05,-0.591 0.086,-1.197 0.655,-1.915 l -0.023,0.169 c 0.037,-0.344 0.374,-0.83 0.332,-0.868 -0.574,-0.105 0.038,0.421 -0.501,0.73 -0.337,-0.277 0.163,-0.729 -0.123,-0.879 0.391,-0.258 0.342,-0.603 0.55,-0.924 0.607,-0.356 1.009,-1.219 1.561,-1.394 0.097,-0.324 0.018,-0.856 0.467,-1.379 0.582,-0.136 0.165,0.301 0.704,-0.104 l -0.113,-0.25 c 0.395,-0.378 0.388,-0.266 0.461,-0.169 0.409,-0.409 0.05,-0.629 0.711,-1.001 l -0.129,0.447 c 0.33,-0.43 0.525,-0.546 1.094,-1.033 0.085,0.118 -0.143,0.311 -0.334,0.428 0.554,0.001 0.404,-0.584 0.596,-0.704 -0.119,-0.04 -0.539,0.275 -0.517,-0.081 0.307,-0.217 0.369,-0.797 0.763,-0.754 l -0.145,0.459 c 0.458,-0.664 0.087,-0.545 0.853,-1.03 -0.027,0.044 0.031,0.078 0.048,0.131 0.256,-0.591 1.038,-0.809 1.72,-1.291 l -0.088,0.15 c 0.22,-0.272 0.242,-0.569 0.399,-0.665 -0.468,0.171 -0.406,0.032 -0.581,-0.14 0.738,-0.058 0.536,-0.967 1.584,-1.313 0.06,0.131 -0.063,0.411 -0.394,0.432 -0.071,0.554 0.07,0.848 -0.326,1.378 0.249,-0.324 0.632,-0.581 0.64,-0.391 l -0.111,-0.395 c 0.198,-0.132 0.372,-0.209 0.526,-0.302 -0.043,-0.267 -0.634,-0.095 -0.243,-0.525 0.475,-0.438 0.498,0.173 0.489,-0.031 0.659,-0.585 0.092,-0.554 0.874,-0.877 -0.056,0.073 -0.161,0.217 -0.241,0.222 0.573,-0.201 1.27,-0.757 1.642,-0.411 -0.031,0.133 0.019,0.268 -0.201,0.328 l -0.025,-0.069 c -0.425,0.587 0.446,-0.317 0.458,0.153 -0.157,-0.209 0.618,-0.516 0.972,-0.635 l -0.23,-0.214 c 0.767,-1.34 0.182,0.555 1.235,-0.081 0.645,-0.466 -0.308,0.026 0.057,-0.335 0.517,-0.134 0.795,0.043 1.47,-0.338 0.241,0.035 0.7,0.033 0.84,0.33 0.194,-0.142 0.533,-0.228 0.84,-0.327 0.312,-0.086 0.602,-0.154 0.683,-0.344 -0.85,-0.08 -0.65,0.535 -1.647,0.445 l 0.141,-0.391 c 0.599,-0.237 1.36,-0.582 1.824,-0.578 -0.104,-0.038 -0.165,-0.107 -0.128,-0.187 0.863,-0.345 1.053,-0.724 1.955,-0.857 0.175,0.256 -0.347,0.34 -0.714,0.461 0.619,0.107 0.581,-0.189 1.495,-0.214 0.096,0.249 -0.605,0.061 -0.65,0.354 -0.007,-0.031 0.961,-0.245 0.961,-0.245 -10e-4,0.015 0.006,0.032 0.009,0.051 0.069,-0.442 0.755,-0.076 1.333,-0.293 1.416,-0.242 1.587,-0.764 2.382,-1.155 0.227,0.104 0.297,0.21 0.212,0.322 -0.371,-0.172 -0.299,-0.026 -0.416,0.091 0.493,-0.068 1.096,0.365 0.831,0.551 0.766,-0.163 -0.289,-0.211 0.178,-0.368 l 1.065,-0.027 c -0.127,-0.213 -0.509,-0.24 0.047,-0.436 0.47,-0.101 0.698,-0.002 1.312,0.032 -0.091,0.103 0.183,0.342 -0.274,0.304 0.293,0.098 0.749,0.132 0.937,-0.071 -0.663,-0.233 1.111,-0.131 0.632,-0.496 l 0.662,0.232 c -0.154,-0.012 -0.182,0.132 -0.405,0.078 0.165,0.34 0.556,-0.067 0.798,-0.086 0.234,0.058 0.837,0.212 0.872,0.338 0.221,-0.059 0.727,0.093 0.797,0.275 0.321,-0.017 0.057,-0.21 0.164,-0.302 l 1.062,0.19 c 0.024,0.19 0.018,0.704 -0.152,0.748 0.426,-0.107 0.241,-0.513 0.842,-0.4 -0.408,0.26 0.72,0.47 0.144,0.757 0.278,0.343 1.216,0.576 1.761,0.618 0.398,-0.189 -0.522,-0.299 -0.417,-0.572 1.502,0.276 1.845,-0.483 2.876,0.065 l -0.254,-0.18 c 0.728,0.094 0.64,0.099 1.12,0.015 -0.314,0.287 0.441,1.14 1.519,1.547 0.163,-0.122 -0.452,-0.6 -0.171,-0.778 l 0.73,0.292 c 0.039,0.051 -0.063,0.068 -0.173,0.066 0.69,0.193 0.973,0.988 1.34,0.699 l 0.398,0.774 -0.148,-0.32 c 0.165,-0.111 0.908,0.163 1.068,0.211 0.783,0.247 0.96,0.535 1.214,0.957 -0.04,-0.198 -0.168,-0.669 0.406,-0.385 -0.312,0.491 1.022,0.873 0.84,1.114 0.217,0.134 0.466,0.563 0.631,0.38 l -0.242,0.27 c 0.336,-0.379 1.069,0.2 1.696,0.556 -0.555,0.447 0.668,0.422 0.513,1.107 0.396,-0.268 1.045,0.705 1.402,0.494 0.423,0.355 0.088,0.636 0.088,0.837 l 0.306,0.044 c 0.027,0.172 0.222,0.434 0.454,0.716 0.221,0.293 0.448,0.636 0.598,0.907 l 0.679,0.137 0.002,0.281 c 0.138,-0.004 0.5,0.304 0.418,-0.013 l 0.188,0.243 c 0.354,-0.274 0.389,0.234 0.943,0.578 0.03,0.161 -0.076,0.198 -0.203,0.129 0.18,0.249 -0.077,0.289 -0.095,0.517 -0.045,-0.252 1.293,0.389 0.953,-0.407 0.108,-0.161 0.51,0.154 0.631,0.451 l -0.21,0.393 0.562,0.042 c 0.339,0.354 0.252,0.67 0.447,1.007 -0.262,-0.308 -1.159,-0.252 -0.547,0.547 -0.361,-0.394 -0.699,-0.471 -0.93,-0.638 0.111,0.175 0.14,0.279 -0.19,0.124 0.566,0.547 0.356,0.063 0.861,0.65 -0.323,0.17 -0.275,0.399 -0.048,1.041 l -0.035,-0.572 c 0.049,-0.005 0.093,0.007 0.13,0.028 -0.065,-0.185 -0.046,-0.262 0.042,-0.372 0.084,0.123 0.842,0.522 0.727,0.75 0.065,-0.979 1.083,0.948 1.113,0.341 0.137,0.023 0.445,0.49 0.318,0.629 -0.579,-0.428 -0.099,0.629 -0.376,0.658 0.218,0.157 -0.034,-0.571 0.257,-0.357 0.229,0.322 0.182,0.675 0.165,0.929 l -0.13,-0.114 0.115,0.615 c 0.203,0.008 0.02,-0.666 0.343,-0.209 -0.004,0.166 0.32,0.626 0.184,0.674 -0.336,-0.127 -0.549,0.191 -0.805,-0.2 0.188,0.334 0.758,1.422 0.85,0.831 l 0.191,0.423 c 0.013,-0.323 -0.097,-1.186 0.357,-0.357 l -0.07,0.023 0.535,0.48 -0.047,0.333 c 0.078,-0.042 0.213,0.013 0.285,0.247 -0.078,0.102 -0.04,0.334 -0.18,0.371 0.257,0.654 0.409,0.535 0.539,0.584 0.16,0.364 0.14,0.529 -0.123,0.43 0.138,0.523 0.511,1.392 0.45,1.794 0.333,0.65 0.036,-0.167 0.374,0.171 -0.473,0.789 0.397,2.352 0.684,3.504 0.494,-0.421 0.109,0.306 0.637,0.434 -0.209,-0.22 -0.253,1.183 -0.561,0.186 l 0.151,0.613 c -0.236,0.467 -0.379,-0.986 -0.693,-0.281 0.12,0.677 0.789,1.052 0.713,1.895 -0.216,-0.116 -0.158,0.037 -0.108,0.2 0.035,0.165 0.066,0.338 -0.153,0.256 -0.14,-0.157 -0.127,-0.385 -0.198,-0.61 l -0.054,0.15 c 0.008,1.52 0.493,0.392 0.81,1.176 0.096,0.94 -0.271,0.758 -0.452,0.822 -0.069,0.148 0.016,0.611 0.13,0.854 -0.268,-0.557 0.192,-1.062 0.451,-0.812 -0.425,0.433 0.035,1.395 0.224,1.658 0.401,-1.366 -0.025,-0.933 0.415,-2.243 -0.149,-0.169 -0.547,-0.111 -0.42,-0.889 0.22,0.465 0.22,-0.052 0.278,-0.195 -0.21,0.169 -0.127,-0.525 -0.278,-0.744 0.153,-0.236 0.598,0.402 0.571,-0.392 l -0.559,-0.079 c 0.035,-0.313 0.412,0.078 0.186,-0.553 0.333,0.312 0.417,-0.17 0.638,0.709 0.296,-1.127 -0.496,-1.601 -0.811,-2.371 0.046,0.077 0.118,0.073 0.166,0.149 -0.173,-0.148 -0.19,-0.469 -0.288,-0.697 -0.012,-0.555 0.344,0.369 0.444,0.206 0.027,-0.006 -0.222,-0.862 -0.222,-0.862 0.013,-0.021 0.021,-0.028 0.032,-0.03 -0.13,-0.211 -0.233,-0.414 -0.123,-0.525 0.235,0.216 0.436,0.277 0.619,0.421 l -0.6,-0.827 c 0.199,0.058 0.104,-0.833 0.397,-0.213 l -0.422,-1.341 0.32,-0.221 c -0.147,-0.31 -0.217,-0.297 -0.159,0.107 -0.031,-0.505 -1.319,-1.8 -0.542,-1.806 -0.331,-0.471 -0.502,-0.806 -0.669,-1.175 -0.083,-0.184 -0.168,-0.375 -0.267,-0.596 -0.12,-0.212 -0.266,-0.448 -0.452,-0.729 0.753,0.793 -0.125,-1.244 0.491,-0.32 -0.135,-0.65 -0.551,-0.603 -0.823,-1.029 -0.066,-0.496 0.343,-0.471 0.689,-0.059 l -0.414,-0.476 0.069,-0.023 -0.412,-0.382 c -0.078,-0.59 0.289,-0.287 0.045,-0.817 l -0.348,0.048 -0.039,-0.428 c -0.052,0.199 -0.286,-0.062 -0.525,-0.407 l 0.067,-0.029 -0.317,-0.405 c 0.43,0.33 -0.183,-0.435 0.135,-0.358 -0.214,-0.384 -0.224,-0.391 -0.684,-1.035 l -0.112,0.24 c -0.71,-0.76 0.265,-0.228 -0.206,-0.92 l -0.177,0.186 c -0.373,-1.215 -1.412,-1.489 -1.724,-2.363 0.351,0.37 0.505,0.084 0.442,0.121 -0.501,-0.584 -1.358,-1.51 -2.097,-1.904 0.075,-0.465 0.109,-0.591 -0.329,-1.319 -0.434,-0.415 -0.542,-0.431 -0.829,-0.415 -0.329,-0.493 -1.275,-1.067 -1.118,-1.286 -0.239,0.069 -0.359,-0.383 -0.712,-0.461 l 0.021,-0.129 -0.127,0.228 c -0.42,-1.111 -1.565,-0.798 -2.083,-1.823 l 0.183,0.052 -0.408,-0.181 c 0.009,-0.132 0.191,-0.081 0.292,-0.187 0,0 -0.403,-0.315 -0.805,-0.63 C 70.83,18.309 70.402,18.03 70.402,18.03 l 0.239,0.369 C 70.26,18.197 69.885,18.257 69.55,17.87 c 0.894,0.099 -0.569,-0.364 -0.533,-0.685 l 0.426,0.142 c -0.525,-0.292 -0.525,-0.292 -0.611,-0.045 -0.71,-0.314 -0.207,-0.722 -0.978,-0.81 0,0 0.114,0.058 0.227,0.117 0.108,0.068 0.217,0.136 0.217,0.136 0.055,0.211 -0.349,0.187 -0.656,0.046 -0.054,-0.07 -0.218,-0.275 0.031,-0.19 -0.593,-0.18 -1.36,-0.695 -1.646,-0.721 -0.264,-0.215 -0.091,-0.332 0.1,-0.315 -1.282,-0.348 -0.501,-0.342 -1.805,-0.629 l 0.075,-0.126 -0.487,0.004 -0.495,-0.508 0.151,0.255 C 63.152,14.416 62.865,14.42 62.422,14.168 l 0.261,-0.131 c -1.179,-0.312 -1.217,-0.846 -2.435,-0.835 -0.067,-0.058 0.127,-0.078 0.227,-0.087 -1.132,0.055 -0.697,-0.575 -1.853,-0.448 0.081,-0.054 -0.014,-0.17 0.041,-0.219 l -0.512,0.012 0.099,-0.273 -0.482,0.317 c 0.002,-0.008 -0.241,-0.345 -0.241,-0.345 l -0.218,0.107 c -0.424,-0.627 -1.242,-0.331 -1.904,-0.852 l 0.073,0.381 C 54.997,11.913 54.506,11.907 54,11.832 53.491,11.789 52.964,11.707 52.422,11.597 51.341,11.413 50.188,11.049 49.08,11.329 l 0.033,-0.29 -0.908,0.385 c -0.503,-0.204 0.285,-0.262 0.125,-0.402 -0.98,0.208 -0.391,0.446 -1.521,0.587 -0.598,-0.164 0.185,-0.222 0.454,-0.339 -1.07,0.14 -2.599,0.579 -3.374,0.528 -0.011,0.041 -0.049,0.098 -0.007,0.109 -0.68,0.249 -1.64,0.209 -2.391,0.458 -0.01,-0.134 0.174,-0.203 0.359,-0.278 -0.278,0.052 -0.675,0.059 -0.879,0.25 l 0.232,-0.316 c -0.604,0.102 -1.678,0.613 -1.889,0.365 0.102,0.089 0.13,0.305 -0.379,0.424 -0.422,-0.385 -1.297,0.621 -2.159,0.68 0.058,-0.133 0.632,-0.366 0.467,-0.312 -0.436,0.035 -0.725,0.36 -1.023,0.615 l 0.044,-0.206 c 0,0 -1.754,0.892 -1.729,0.941 -0.442,-0.279 -1.634,0.857 -1.652,0.508 -0.637,0.29 0.614,-0.08 -0.159,0.349 -0.295,-0.063 -0.676,0.427 -0.776,0.155 l 0.069,-0.071 -0.546,0.29 0.219,-0.419 c -0.464,0.274 -0.643,0.756 -0.565,0.948 -0.507,0.122 -1.052,0.603 -1.382,0.502 l 0.125,-0.156 c -0.578,0.416 -1.183,0.557 -1.74,0.724 -0.539,0.189 -1.01,0.43 -1.322,0.958 -0.091,0.018 -0.125,-0.046 0.018,-0.148 l -0.722,0.516 0.041,-0.297 -0.973,1.14 -0.076,-0.123 c -0.786,0.57 -1.844,1.672 -2.738,2.536 l 0.09,-0.175 c -0.82,1.1 -1.004,0.857 -1.574,1.691 -0.004,-0.052 0.007,-0.086 0.026,-0.119 l -0.599,0.668 0.028,-0.24 c -0.221,0.685 -1.575,1.169 -1.104,1.026 -0.123,0.39 -0.382,1.011 -0.307,1.208 -0.572,0.789 -0.291,0.078 -0.753,0.49 -0.434,0.564 -0.316,0.799 -0.979,1.506 l -0.11,-0.098 c -0.214,0.399 -0.274,0.694 -0.581,1.239 l 0.039,-0.196 c -0.27,1.027 -1.032,0.877 -0.898,1.877 -0.346,0.296 -0.597,1.082 -0.842,0.91 -0.375,1.241 -0.772,2.146 -1.137,3.353 -0.51,0.011 -0.065,0.264 -0.582,0.882 L 13.33,36 c -0.276,0.843 -0.788,1.675 -1.194,2.579 -0.382,0.91 -0.764,1.861 -0.958,2.834 l -0.263,-10e-4 0.176,0.445 c -0.249,1.036 -0.473,2.242 -0.692,3.397 -0.128,0.576 -0.164,1.147 -0.203,1.679 -0.035,0.532 -0.066,1.024 -0.094,1.45 0.13,0.567 0.315,1.41 0.303,2.288 l -0.04,-0.092 c 0.11,0.766 0.212,1.548 0.281,2.348 0.028,0.401 0.056,0.805 0.085,1.214 0.052,0.407 0.093,0.818 0.119,1.237 -0.122,-0.089 -0.172,0.086 -0.268,-0.091 0.338,0.356 0.162,0.971 0.209,1.331 l 0.125,-0.447 c 0.311,0.431 0.185,1.141 0.04,1.418 0,0 0.096,0.173 0.193,0.347 0.111,0.169 0.222,0.338 0.222,0.338 -0.013,0.053 -0.033,0.136 -0.07,0.154 l 0.164,0.1 -0.229,0.462 c 0.113,0.167 0.445,1.116 0.832,1.331 -0.09,0.098 0.002,0.802 -0.193,0.293 0,0 0.133,0.677 0.314,1.341 0.211,0.655 0.423,1.311 0.423,1.311 l -0.034,-0.443 c 0.223,-0.13 0.655,0.584 0.692,1.021 -0.384,-0.451 -0.355,0.082 -0.447,0.376 0.257,0.303 0.098,-0.386 0.297,-0.25 0.33,0.377 0.723,1.276 0.742,1.537 0,0 -0.217,-0.211 -0.21,-0.214 0.35,0.538 0.079,0.98 0.37,1.542 0.43,0.423 0.441,0.88 0.783,0.581 0.433,0.689 -0.129,0.416 -0.052,0.673 0.178,0.125 0.356,0.459 0.484,0.789 0.15,0.317 0.238,0.636 0.18,0.754 0.783,0.057 0.947,2.006 1.492,1.862 l 0.096,0.74 c 0.132,-0.063 0.48,-0.138 0.85,0.26 0.175,0.497 -0.101,0.548 -0.129,0.759 l 0.639,-0.041 c 0.325,0.668 0.723,1.366 1.2,2.046 0.515,0.649 1.08,1.303 1.655,1.961 0.555,0.679 1.195,1.284 1.816,1.891 0.621,0.606 1.19,1.25 1.747,1.854 1.231,0.769 2.783,1.739 4.217,2.635 L 28.804,83.56 30.166,84.559 29.25,83.72 c 0.346,0.137 0.641,0.195 0.939,0.385 0.708,0.603 1.619,1.176 2.615,1.717 0.496,0.273 1.012,0.538 1.54,0.779 0.535,0.223 1.102,0.372 1.657,0.51 1.584,-0.081 0.737,0.858 2.212,0.904 -0.133,0.021 -0.2,0.084 -0.321,0.107 1.523,0.23 2.363,0.305 3.898,0.33 -0.299,0.582 0.964,0.18 0.77,0.461 l 0.171,-0.226 c 0.302,0.201 1.077,0.375 0.936,0.534 l 0.707,-0.206 0.021,0.261 c 0.438,0.068 1.132,0.153 1.772,0.222 0.642,0.05 1.227,0.157 1.447,0.428 1.117,-0.137 2.531,-0.094 4.017,-0.229 0.744,-0.03 1.505,-0.06 2.253,-0.09 0.746,-0.057 1.475,-0.165 2.164,-0.237 0.354,-0.265 1.144,-0.405 1.761,-0.523 0.002,0.018 0.718,0.149 0.718,0.149 0.607,-0.25 1.17,-0.79 1.794,-0.75 0.006,0.035 -0.011,0.066 -0.048,0.093 0.608,-0.233 1.268,-0.2 1.755,-0.671 0.67,-0.226 1.375,-0.311 1.265,0.031 -0.105,-0.499 1.456,-0.457 1.456,-0.457 0,0 0.137,-0.046 0.396,-0.132 0.264,-0.077 0.639,-0.219 1.104,-0.439 0.47,-0.211 1.042,-0.469 1.703,-0.766 0.33,-0.151 0.682,-0.312 1.055,-0.482 0.37,-0.176 0.733,-0.41 1.128,-0.63 3.201,-1.676 7.218,-4.674 10.585,-8.663 3.394,-3.96 5.993,-8.941 7.18,-13.521 0.188,-0.559 0.305,-1.127 0.4,-1.686 0.099,-0.555 0.195,-1.098 0.289,-1.626 0.08,-0.529 0.188,-1.035 0.221,-1.536 0.021,-0.501 0.041,-0.985 0.061,-1.451 0.018,-0.929 0.044,-1.775 -0.026,-2.529 C 88.744,53.024 88.622,52.363 88.477,51.814 88.244,51.51 88.121,50.711 87.809,51.008 87.745,50.398 88.2,50.12 87.956,50 c -0.207,0.826 -0.634,-0.254 -0.984,0.542 l -0.036,-0.509 c -0.172,-0.105 0.167,0.693 -0.149,0.564 l 0.459,0.152 c -0.091,0.414 -0.2,0.638 -0.366,0.776 0.163,0.392 0.782,0.682 0.458,1.602 l -0.015,-0.261 c -0.022,0.764 -0.324,0.44 -0.408,0.592 l 0.012,-0.167 c 0,0 -0.261,0.614 -0.28,0.611 0.208,-0.463 -0.149,-1.287 -0.137,-0.87 -0.175,0.879 0.125,-0.222 0.147,0.453 0.004,0.419 -0.245,0.276 -0.382,0.244 l -0.094,0.735 c -0.211,-0.051 0.086,-0.483 -0.182,-0.213 l 0.088,0.951 c -0.569,0.089 0.107,1.049 -0.467,1.383 -0.027,-0.682 -0.191,0.027 -0.349,-0.111 0,0 -0.055,0.402 -0.111,0.803 -0.093,0.394 -0.187,0.788 -0.187,0.788 -0.113,0.131 -0.059,-0.449 -0.093,-0.205 -0.223,0.26 0.005,0.514 -0.04,0.673 -0.181,0.1 -0.295,1.173 -0.634,1.032 -0.522,0.978 0.37,0.588 -0.165,1.491 -0.252,0.059 0.22,-0.778 -0.145,-0.42 l -0.285,1.014 c -0.068,-0.125 -0.268,-0.308 -0.088,-0.66 -0.312,0.64 -0.646,1.182 -0.979,1.669 -0.33,0.488 -0.653,0.924 -1.03,1.321 -0.738,0.801 -1.283,1.624 -1.791,2.767 -0.412,0.17 -0.022,-0.303 -0.044,-0.597 -0.315,0.849 -0.77,1.321 -1.232,1.73 -0.461,0.412 -0.92,0.769 -1.379,1.363 l 0.16,0.147 c -0.925,0.628 -1.582,1.56 -2.435,2.384 -0.4,0.432 -0.807,0.871 -1.212,1.309 -0.401,0.443 -0.901,0.786 -1.37,1.139 l 0.311,-0.077 c -0.097,0.37 -0.472,0.741 -0.696,1.077 -0.115,-0.043 -0.097,-0.538 -0.541,-0.011 0.154,-0.036 0.42,-0.169 0.426,-0.032 -0.237,0.114 -0.477,0.277 -0.758,0.432 -0.286,0.149 -0.589,0.322 -0.905,0.513 -0.641,0.367 -1.289,0.873 -2.041,1.294 -0.749,0.42 -1.534,0.859 -2.31,1.293 -0.806,0.374 -1.625,0.699 -2.385,0.998 -3.983,2.001 -8.841,2.619 -13.145,2.732 0.659,-0.054 0.389,0.497 -0.117,0.401 -0.686,-0.481 -1.264,-0.482 -1.864,-0.435 -0.594,0.026 -1.217,0.167 -1.868,-0.255 -2.563,-0.054 -4.557,-1.27 -6.96,-1.392 l 0.041,-0.258 c -0.287,-0.23 -0.435,-0.095 -0.789,-0.197 l 0.034,-0.064 C 38.256,80.046 37.791,79.928 37.372,79.809 36.969,79.654 36.606,79.516 36.408,79.352 L 36.258,79.6 C 35.78,79.396 36.113,79.281 35.562,79.2 l 0.078,-0.123 -0.682,-0.023 c 0.146,-0.218 -0.188,-0.364 -0.567,-0.551 -0.372,-0.2 -0.815,-0.402 -0.933,-0.607 -0.607,-0.278 -1.855,-0.706 -2.583,-1.448 0.006,-0.331 -1.006,-1.052 -1.534,-1.649 -0.585,-0.498 -1.296,-1.104 -2.046,-1.742 -0.708,-0.685 -1.379,-1.484 -2.014,-2.227 l -0.227,0.238 c 0,0 -0.367,-0.365 -0.355,-0.375 0.06,-0.04 0.048,-0.119 0.122,-0.079 0.055,-0.552 -0.796,-0.881 -0.861,-1.352 -0.083,0.385 0.178,0.316 0.346,0.555 0.129,0.435 -0.362,0.304 -0.577,-0.255 l 0.065,-0.034 -0.373,-0.211 c 0.181,-0.186 0.065,-0.538 0.246,-0.72 -0.56,-0.631 -0.968,-1.207 -1.445,-1.756 -0.442,-0.568 -0.956,-1.118 -1.246,-1.953 0.332,0.032 -0.608,-1.1 -0.01,-0.999 -0.622,-0.858 -0.288,0.327 -0.813,0.046 -0.121,-0.27 -0.382,-0.495 -0.238,-0.617 0.169,0.076 0.172,-0.337 0.317,-0.141 0,0 -0.349,-0.612 -0.328,-0.621 0.014,-0.078 0.127,0.042 0.187,0.1 -0.377,-0.612 -0.516,-1.241 -0.651,-1.84 -0.125,-0.605 -0.296,-1.166 -0.561,-1.751 -0.195,-0.042 0.076,0.505 -0.119,0.467 -0.668,-1.156 0.032,-1.189 -0.518,-2.286 l 0.303,0.184 c -0.25,-0.335 -0.541,-0.451 -0.454,-1.118 0.137,-0.083 0.213,0.039 0.282,0.214 0.087,0.172 0.167,0.397 0.272,0.529 -0.136,-0.412 -0.346,-1.487 -0.56,-1.108 -0.172,-0.502 0.056,-0.734 0.093,-1.022 -0.072,0.001 -0.119,0.512 -0.299,0.231 0.074,-0.734 -0.174,-1.806 -0.138,-2.684 0.072,0.002 0.178,-0.066 0.217,0.006 -0.414,-0.671 0.24,-0.639 0.109,-1.579 z"
               id="path14960"
               inkscape:connector-curvature="0"
               style="fill:#5e5c5f;fill-opacity:1" /><path
               d="m 44.4,17.035 -0.367,0.01 c 0.012,0.064 0.008,0.139 -0.144,0.234 z"
               id="path14962"
               inkscape:connector-curvature="0"
               style="fill:#5e5c5f;fill-opacity:1" /><path
               d="m 28.795,23.874 c -0.022,0.045 -0.044,0.089 -0.055,0.139 0.063,-0.062 0.066,-0.105 0.055,-0.139 z"
               id="path14964"
               inkscape:connector-curvature="0"
               style="fill:#5e5c5f;fill-opacity:1" /><path
               d="m 26.09,27.084 c 0.153,-0.263 -0.079,-0.122 -0.231,-0.065 0.037,0.045 0.093,0.089 0.231,0.065 z"
               id="path14966"
               inkscape:connector-curvature="0"
               style="fill:#5e5c5f;fill-opacity:1" /><path
               d="m 54.195,16.041 c -0.067,0.018 -0.111,0.05 -0.107,0.112 0.091,-0.039 0.115,-0.075 0.107,-0.112 z"
               id="path14968"
               inkscape:connector-curvature="0"
               style="fill:#5e5c5f;fill-opacity:1" /><path
               d="m 77.191,29.602 c -0.009,-0.036 -0.022,-0.067 -0.03,-0.114 -0.005,0.029 0.007,0.068 0.03,0.114 z"
               id="path14970"
               inkscape:connector-curvature="0"
               style="fill:#5e5c5f;fill-opacity:1" /><path
               d="m 76.637,28.096 c -0.043,-0.062 -0.122,-0.124 -0.24,-0.207 0.079,0.112 0.167,0.165 0.24,0.207 z"
               id="path14972"
               inkscape:connector-curvature="0"
               style="fill:#5e5c5f;fill-opacity:1" /><path
               d="m 47.54,15.989 c -0.101,0.014 -0.199,0.041 -0.281,0.106 0.157,-0.014 0.232,-0.059 0.281,-0.106 z"
               id="path14974"
               inkscape:connector-curvature="0"
               style="fill:#5e5c5f;fill-opacity:1" /><path
               d="M 76.133,27.695 75.897,27.39 c -0.016,0.011 -0.03,0.017 -0.047,0.032 z"
               id="path14976"
               inkscape:connector-curvature="0"
               style="fill:#5e5c5f;fill-opacity:1" /><path
               d="m 77.45,30.008 c -0.082,-0.125 -0.203,-0.286 -0.259,-0.406 0.05,0.199 0.138,0.32 0.259,0.406 z"
               id="path14978"
               inkscape:connector-curvature="0"
               style="fill:#5e5c5f;fill-opacity:1" /><path
               d="m 64.045,18.382 -0.04,-0.012 c -0.323,-0.018 -0.131,0.016 0.04,0.012 z"
               id="path14980"
               inkscape:connector-curvature="0"
               style="fill:#5e5c5f;fill-opacity:1" /><polygon
               points="74.478,26.716 74.636,26.788 74.61,26.743 "
               id="polygon14982"
               style="fill:#5e5c5f;fill-opacity:1" /><path
               d="m 78.31,31.412 c -0.043,-0.058 -0.087,-0.107 -0.143,-0.133 0.023,0.056 0.05,0.12 0.084,0.202 0.021,-0.038 0.039,-0.057 0.059,-0.069 z"
               id="path14984"
               inkscape:connector-curvature="0"
               style="fill:#5e5c5f;fill-opacity:1" /><path
               d="m 68.901,21.549 c 0.152,-0.034 0.229,-0.073 0.263,-0.117 -0.112,-0.064 -0.209,-0.065 -0.263,0.117 z"
               id="path14986"
               inkscape:connector-curvature="0"
               style="fill:#5e5c5f;fill-opacity:1" /></g></g></g></g></g></svg>