<?xml version="1.0" encoding="UTF-8" standalone="no"?>
<svg
   xmlns:dc="http://purl.org/dc/elements/1.1/"
   xmlns:cc="http://creativecommons.org/ns#"
   xmlns:rdf="http://www.w3.org/1999/02/22-rdf-syntax-ns#"
   xmlns:svg="http://www.w3.org/2000/svg"
   xmlns="http://www.w3.org/2000/svg"
   xmlns:sodipodi="http://sodipodi.sourceforge.net/DTD/sodipodi-0.dtd"
   xmlns:inkscape="http://www.inkscape.org/namespaces/inkscape"
   version="1.1"
   x="0px"
   y="0px"
   viewBox="0 0 75.007111 75.006248"
   xml:space="preserve"
   id="svg14"
   sodipodi:docname="circle5.svg"
   width="75.007111"
   height="75.006248"
   inkscape:version="0.92.4 5da689c313, 2019-01-14"><metadata
     id="metadata20"><rdf:RDF><cc:Work
         rdf:about=""><dc:format>image/svg+xml</dc:format><dc:type
           rdf:resource="http://purl.org/dc/dcmitype/StillImage" /><dc:title /></cc:Work></rdf:RDF></metadata><defs
     id="defs18" /><sodipodi:namedview
     pagecolor="#ffffff"
     bordercolor="#666666"
     borderopacity="1"
     objecttolerance="10"
     gridtolerance="10"
     guidetolerance="10"
     inkscape:pageopacity="0"
     inkscape:pageshadow="2"
     inkscape:window-width="772"
     inkscape:window-height="480"
     id="namedview16"
     showgrid="false"
     inkscape:zoom="2.36"
     inkscape:cx="37.479868"
     inkscape:cy="27.526251"
     inkscape:window-x="319"
     inkscape:window-y="66"
     inkscape:window-maximized="0"
     inkscape:current-layer="svg14" /><path
     d="m 11.316868,11.316995 c -14.426,14.426 -14.426,37.9 0,52.326 12.762,12.762 32.719,14.484 47.452,4.093 0.903,-0.637 1.119,-1.885 0.482,-2.787 -0.636,-0.904 -1.885,-1.119 -2.787,-0.482 -13.138,9.266 -30.936,7.73 -42.318,-3.653 -12.867,-12.867 -12.867,-33.802 0,-46.669 12.867,-12.8669997 33.802,-12.8669997 46.669,0 11.382,11.382 12.919,29.18 3.653,42.318 -0.637,0.903 -0.422,2.151 0.482,2.787 0.903,0.637 2.15,0.421 2.787,-0.482 10.391,-14.733 8.669,-34.689 -4.093,-47.452 -14.427,-14.4249997 -37.901,-14.4249997 -52.327,0.001 z"
     id="path2"
     inkscape:connector-curvature="0"
     style="fill:none;fill-opacity:1;stroke:#939695;stroke-opacity:1" /><circle
     transform="rotate(-45)"
     cx="-0.00041769765"
     cy="88.004242"
     id="ellipse4"
     r="1.9999808"
     style="fill:none;fill-opacity:1;stroke:#939695;stroke-width:0.9999904;stroke-opacity:1" /><path
     d="m 37.479868,10.479995 c 7.212,0 13.992,2.809 19.092,7.908 0.78,0.781 2.047,0.781 2.828,0 0.781,-0.781 0.781,-2.047 0,-2.828 -5.855,-5.8549997 -13.639,-9.0799997 -21.92,-9.0799997 -17.093,0 -31,13.9069997 -31,30.9999997 0,1.798 0.155,3.601 0.462,5.358 0.169,0.972 1.014,1.657 1.968,1.657 0.114,0 0.23,-0.01 0.346,-0.03 1.088,-0.19 1.816,-1.226 1.626,-2.314 -0.267,-1.531 -0.402,-3.102 -0.402,-4.671 0,-14.888 12.112,-27 27,-27 z"
     id="path6"
     inkscape:connector-curvature="0"
     style="fill:none;fill-opacity:1;stroke:#939695;stroke-opacity:1" /><circle
     cx="10.549868"
     cy="48.257996"
     r="2"
     id="circle8"
     style="fill:none;fill-opacity:1;stroke:#939695;stroke-opacity:1" /></svg>