<?xml version="1.0" encoding="UTF-8" standalone="no"?>
<svg
   xmlns:dc="http://purl.org/dc/elements/1.1/"
   xmlns:cc="http://creativecommons.org/ns#"
   xmlns:rdf="http://www.w3.org/1999/02/22-rdf-syntax-ns#"
   xmlns:svg="http://www.w3.org/2000/svg"
   xmlns="http://www.w3.org/2000/svg"
   xmlns:sodipodi="http://sodipodi.sourceforge.net/DTD/sodipodi-0.dtd"
   xmlns:inkscape="http://www.inkscape.org/namespaces/inkscape"
   version="1.1"
   x="0px"
   y="0px"
   viewBox="0 0 79.825996 77.331001"
   enable-background="new 0 0 100 100"
   xml:space="preserve"
   id="svg10"
   sodipodi:docname="circle4.svg"
   width="79.825996"
   height="77.331001"
   inkscape:version="0.92.4 5da689c313, 2019-01-14"><metadata
     id="metadata16"><rdf:RDF><cc:Work
         rdf:about=""><dc:format>image/svg+xml</dc:format><dc:type
           rdf:resource="http://purl.org/dc/dcmitype/StillImage" /></cc:Work></rdf:RDF></metadata><defs
     id="defs14" /><sodipodi:namedview
     pagecolor="#ffffff"
     bordercolor="#666666"
     borderopacity="1"
     objecttolerance="10"
     gridtolerance="10"
     guidetolerance="10"
     inkscape:pageopacity="0"
     inkscape:pageshadow="2"
     inkscape:window-width="1600"
     inkscape:window-height="860"
     id="namedview12"
     showgrid="false"
     inkscape:zoom="1.888"
     inkscape:cx="38.666"
     inkscape:cy="27.414"
     inkscape:window-x="0"
     inkscape:window-y="0"
     inkscape:window-maximized="1"
     inkscape:current-layer="svg10" /><g
     id="g4"
     transform="translate(-11.334,-12.583)"
     style="fill:#959698;fill-opacity:1"><path
       d="m 91.16,50.253 c 0,0 -0.064,0.885 -0.185,2.545 -0.042,0.436 -0.037,0.832 -0.128,1.435 -0.098,0.608 -0.206,1.272 -0.321,1.989 -0.129,0.708 -0.235,1.503 -0.421,2.281 -0.209,0.756 -0.431,1.56 -0.665,2.409 -1.021,3.353 -2.604,7.382 -5.404,11.384 -2.753,4.004 -6.585,8.06 -11.598,11.278 -5.01,3.191 -11.186,5.499 -17.912,6.161 -0.836,0.112 -1.689,0.081 -2.54,0.125 L 50.704,89.897 50.06,89.914 49.792,89.909 49.719,89.904 49.573,89.893 49.28,89.872 C 47.692,89.735 46.24,89.73 44.318,89.349 43.419,89.182 42.471,89.069 41.607,88.84 40.75,88.602 39.888,88.362 39.023,88.122 38.148,87.914 37.323,87.539 36.475,87.223 35.642,86.871 34.763,86.619 33.965,86.172 30.644,84.654 27.572,82.548 24.723,80.156 21.92,77.692 19.481,74.795 17.404,71.638 15.381,68.437 13.858,64.921 12.774,61.276 11.756,57.601 11.34,53.789 11.334,49.999 l 0.196,-2.782 c 0.046,-0.454 0.034,-0.859 0.127,-1.354 l 0.242,-1.445 0.249,-1.44 0.127,-0.718 0.187,-0.683 0.761,-2.72 c 1.22,-3.556 2.858,-6.94 4.959,-9.981 2.155,-2.997 4.636,-5.706 7.436,-7.97 2.845,-2.193 5.869,-4.088 9.093,-5.403 3.221,-1.281 6.518,-2.268 9.833,-2.598 1.641,-0.287 3.292,-0.243 4.908,-0.308 l 0.303,-0.008 0.151,-0.004 0.076,-0.002 0.137,0.005 0.583,0.042 1.16,0.084 c 0.778,0.074 1.522,0.07 2.313,0.208 6.35,0.889 11.869,3.254 16.353,6.358 4.462,3.132 7.774,6.958 10.102,10.658 2.373,3.699 3.622,7.355 4.407,10.364 0.178,0.76 0.346,1.479 0.504,2.156 0.134,0.681 0.186,1.333 0.274,1.932 0.078,0.6 0.15,1.155 0.216,1.663 0.063,0.508 0.041,0.977 0.064,1.393 C 86.141,49.112 86.167,50 86.167,50 Z M 86.167,50 c 0,0 -0.064,-0.885 -0.185,-2.544 -0.041,-0.413 -0.039,-0.879 -0.125,-1.382 -0.088,-0.503 -0.184,-1.051 -0.288,-1.644 -0.114,-0.59 -0.193,-1.232 -0.356,-1.901 -0.186,-0.663 -0.384,-1.367 -0.593,-2.111 -0.906,-2.937 -2.293,-6.47 -4.764,-9.972 -2.426,-3.505 -5.798,-7.058 -10.2,-9.866 -2.235,-1.335 -4.629,-2.632 -7.289,-3.504 -0.663,-0.221 -1.324,-0.461 -2,-0.673 -0.69,-0.161 -1.386,-0.322 -2.088,-0.486 L 57.226,15.67 c -0.352,-0.078 -0.709,-0.099 -1.064,-0.153 -0.71,-0.093 -1.425,-0.187 -2.145,-0.281 -0.716,-0.1 -1.517,-0.065 -2.28,-0.105 L 50.575,15.1 49.991,15.083 49.487,15.121 c -1.507,0.132 -3.039,0.15 -4.55,0.489 -3.056,0.435 -6.05,1.49 -8.944,2.786 -0.708,0.361 -1.419,0.724 -2.133,1.088 -0.709,0.371 -1.361,0.85 -2.047,1.27 l -1.02,0.65 -0.958,0.746 c -0.629,0.51 -1.294,0.979 -1.899,1.523 -2.442,2.161 -4.56,4.702 -6.37,7.456 -1.756,2.799 -3.066,5.868 -4.008,9.041 l -0.561,2.421 -0.14,0.604 -0.074,0.596 -0.153,1.189 -0.16,1.185 c -0.068,0.38 -0.04,0.869 -0.065,1.298 L 16.333,50 c 0.162,3.307 0.663,6.58 1.674,9.693 1.077,3.084 2.503,6.021 4.336,8.66 1.888,2.595 4.048,4.947 6.486,6.908 0.604,0.494 1.266,0.912 1.888,1.371 l 0.946,0.669 1.003,0.573 c 0.674,0.368 1.311,0.796 2.001,1.115 0.693,0.313 1.383,0.624 2.07,0.935 0.669,0.35 1.414,0.508 2.109,0.772 0.709,0.227 1.394,0.519 2.124,0.647 0.717,0.166 1.431,0.332 2.142,0.497 0.707,0.158 1.371,0.185 2.049,0.291 1.23,0.245 2.961,0.214 4.496,0.274 l 0.293,0.008 0.146,0.004 0.073,0.002 c 0.067,0.003 -0.314,-0.011 -0.122,-0.008 l 0.523,-0.042 1.041,-0.08 c 0.689,-0.07 1.381,-0.061 2.052,-0.188 5.405,-0.787 10.226,-2.847 14.079,-5.54 3.85,-2.723 6.703,-6.046 8.703,-9.247 2.044,-3.199 3.097,-6.359 3.768,-8.951 0.152,-0.655 0.296,-1.275 0.432,-1.858 0.11,-0.571 0.136,-1.07 0.209,-1.551 0.066,-0.475 0.127,-0.915 0.183,-1.318 0.057,-0.408 0.04,-0.947 0.061,-1.34 0.047,-1.664 0.073,-2.551 0.073,-2.551 z"
       id="path2"
       inkscape:connector-curvature="0"
       style="fill:#959698;fill-opacity:1" /></g></svg>