<?xml version="1.0" encoding="UTF-8" standalone="no"?>
<svg
   xmlns:dc="http://purl.org/dc/elements/1.1/"
   xmlns:cc="http://creativecommons.org/ns#"
   xmlns:rdf="http://www.w3.org/1999/02/22-rdf-syntax-ns#"
   xmlns:svg="http://www.w3.org/2000/svg"
   xmlns="http://www.w3.org/2000/svg"
   xmlns:sodipodi="http://sodipodi.sourceforge.net/DTD/sodipodi-0.dtd"
   xmlns:inkscape="http://www.inkscape.org/namespaces/inkscape"
   version="1.1"
   x="0px"
   y="0px"
   viewBox="0 0 114.02808 90"
   xml:space="preserve"
   id="svg16553"
   sodipodi:docname="diagonal.svg"
   width="114.02808"
   height="90"
   inkscape:version="0.92.2 2405546, 2018-03-11"><metadata
     id="metadata16559"><rdf:RDF><cc:Work
         rdf:about=""><dc:format>image/svg+xml</dc:format><dc:type
           rdf:resource="http://purl.org/dc/dcmitype/StillImage" /></cc:Work></rdf:RDF></metadata><defs
     id="defs16557" /><sodipodi:namedview
     pagecolor="#ffffff"
     bordercolor="#666666"
     borderopacity="1"
     objecttolerance="10"
     gridtolerance="10"
     guidetolerance="10"
     inkscape:pageopacity="0"
     inkscape:pageshadow="2"
     inkscape:window-width="1149"
     inkscape:window-height="672"
     id="namedview16555"
     showgrid="false"
     inkscape:zoom="3.704"
     inkscape:cx="18.596747"
     inkscape:cy="32.5"
     inkscape:window-x="0"
     inkscape:window-y="0"
     inkscape:window-maximized="0"
     inkscape:current-layer="svg16553" /><polygon
     points="62.781227,5 5,62.781158 5,65.846886 65.846886,5 "
     id="polygon16509"
     transform="matrix(1.2669786,0,0,1,-6.334893,-5)"
     style="fill:#000003;fill-opacity:1" /><polygon
     points="54.206162,5 5,54.206226 5,57.271824 57.271824,5 "
     id="polygon16511"
     transform="matrix(1.2669786,0,0,1,-6.334893,-5)"
     style="fill:#000003;fill-opacity:1" /><polygon
     points="79.931221,5 5,79.931221 5,82.99688 82.99688,5 "
     id="polygon16513"
     transform="matrix(1.2669786,0,0,1,-6.334893,-5)"
     style="fill:#000003;fill-opacity:1" /><polygon
     points="45.631958,5 5,45.631958 5,48.697552 48.69762,5 "
     id="polygon16515"
     transform="matrix(1.2669786,0,0,1,-6.334893,-5)"
     style="fill:#000003;fill-opacity:1" /><polygon
     points="88.506218,5 5,88.506218 5,91.571877 91.571877,5 "
     id="polygon16517"
     transform="matrix(1.2669786,0,0,1,-6.334893,-5)"
     style="fill:#000003;fill-opacity:1" /><polygon
     points="71.356224,5 5,71.356224 5,74.421822 74.421883,5 "
     id="polygon16519"
     transform="matrix(1.2669786,0,0,1,-6.334893,-5)"
     style="fill:#000003;fill-opacity:1" /><polygon
     points="37.056961,5 5,37.056892 5,40.12262 40.122555,5 "
     id="polygon16521"
     transform="matrix(1.2669786,0,0,1,-6.334893,-5)"
     style="fill:#000003;fill-opacity:1" /><polygon
     points="11.331901,5 5,11.331901 5,14.397561 14.397561,5 "
     id="polygon16523"
     transform="matrix(1.2669786,0,0,1,-6.334893,-5)"
     style="fill:#000003;fill-opacity:1" /><polygon
     points="19.906899,5 5,19.906899 5,22.972559 22.972559,5 "
     id="polygon16525"
     transform="matrix(1.2669786,0,0,1,-6.334893,-5)"
     style="fill:#000003;fill-opacity:1" /><polygon
     points="28.481897,5 5,28.481962 5,31.547558 31.547558,5 "
     id="polygon16527"
     transform="matrix(1.2669786,0,0,1,-6.334893,-5)"
     style="fill:#000003;fill-opacity:1" /><polygon
     points="95,32.806278 32.80621,95 35.871937,95 95,35.871937 "
     id="polygon16529"
     transform="matrix(1.2669786,0,0,1,-6.334893,-5)"
     style="fill:#000003;fill-opacity:1" /><polygon
     points="95,7.0812168 7.0812831,95 10.146877,95 95,10.146877 "
     id="polygon16531"
     transform="matrix(1.2669786,0,0,1,-6.334893,-5)"
     style="fill:#000003;fill-opacity:1" /><polygon
     points="95,75.681328 75.681267,95 78.746994,95 95,78.746925 "
     id="polygon16533"
     transform="matrix(1.2669786,0,0,1,-6.334893,-5)"
     style="fill:#000003;fill-opacity:1" /><polygon
     points="95,58.531269 58.531269,95 61.596931,95 95,61.596931 "
     id="polygon16535"
     transform="matrix(1.2669786,0,0,1,-6.334893,-5)"
     style="fill:#000003;fill-opacity:1" /><polygon
     points="95,84.255539 84.255539,95 87.321258,95 95,87.321197 "
     id="polygon16537"
     transform="matrix(1.2669786,0,0,1,-6.334893,-5)"
     style="fill:#000003;fill-opacity:1" /><polygon
     points="95,67.10627 67.106331,95 70.171928,95 95,70.171928 "
     id="polygon16539"
     transform="matrix(1.2669786,0,0,1,-6.334893,-5)"
     style="fill:#000003;fill-opacity:1" /><polygon
     points="95,49.956272 49.956272,95 53.021931,95 95,53.021931 "
     id="polygon16541"
     transform="matrix(1.2669786,0,0,1,-6.334893,-5)"
     style="fill:#000003;fill-opacity:1" /><polygon
     points="95,24.231279 24.231279,95 27.296873,95 95,27.29694 "
     id="polygon16543"
     transform="matrix(1.2669786,0,0,1,-6.334893,-5)"
     style="fill:#000003;fill-opacity:1" /><polygon
     points="95,15.656215 15.656215,95 18.721941,95 95,18.721876 "
     id="polygon16545"
     transform="matrix(1.2669786,0,0,1,-6.334893,-5)"
     style="fill:#000003;fill-opacity:1" /><polygon
     points="95,41.381275 41.381275,95 44.446934,95 95,44.446934 "
     id="polygon16547"
     transform="matrix(1.2669786,0,0,1,-6.334893,-5)"
     style="fill:#000003;fill-opacity:1" /></svg>