<svg xmlns="http://www.w3.org/2000/svg" xmlns:xlink="http://www.w3.org/1999/xlink" version="1.1" x="0px" y="0px" viewBox="0 0 100 125" enable-background="new 0 0 100 100" xml:space="preserve"><g><path fill-rule="evenodd" clip-rule="evenodd" d="M82.443,79.387c-1.11,0.895-2.218,1.799-3.285,0.03   c-2.19,1.762-2.345,1.771-4.254,0.319c-2.537,1.713-2.637,1.72-4.414,0.334c-0.832,0.432-1.638,1.14-2.497,1.21   c-0.748,0.061-1.556-0.599-2.625-1.066c-1.046,0.405-2.504,0.896-3.883,1.551c-0.353,0.167-0.635,0.852-0.644,1.305   c-0.045,2.328,0.288,4.697-0.035,6.978c-0.548,3.887-2.042,4.589-5.46,2.145c-0.813-0.582-1.489-1.353-2.319-2.121   c-1.828,1.087-3.739,1.279-5.661-0.041c-0.848,0.769-1.62,1.57-2.492,2.241c-2.939,2.258-4.821,1.597-5.347-2.032   c-0.286-1.973-0.122-4.015-0.116-6.025c0.002-0.735,0.133-1.47,0.211-2.267c-0.892-0.352-1.724-0.67-2.547-1.011   c-0.783-0.324-1.557-0.672-2.326-1.006c-2.003,1.952-2.142,1.956-4.792,0.12c-1.987,1.381-2.27,1.361-4.419-0.312   c-2.309,1.429-2.39,1.424-4.246-0.34c-1.115,1.567-2.287,1.063-3.486-0.089c-1.233,1.609-2.566,1.489-3.998,0.346   c-0.223-0.178-0.725-0.26-0.957-0.131c-1.293,0.715-1.828-0.177-2.638-0.951c-3.289-3.144-3.299-7.281-3.193-11.241   c0.208-7.809,0.699-15.615,1.335-23.402c0.449-5.505,1.319-10.976,2.021-16.459c1.172-9.158,6.324-14.588,15.535-16.321   c7.673-1.444,15.245-0.571,22.786,1.057c0.947,0.205,2.014,0.191,2.965-0.009c7.916-1.674,15.857-2.658,23.868-0.773   c8.69,2.045,13.386,7.19,14.39,16.086c1.245,11.039,2.409,22.09,3.277,33.162c0.334,4.258-0.236,8.588-0.402,12.884   c-0.1,2.567-2.099,4.034-3.455,5.867c-0.16,0.216-0.659,0.443-0.83,0.351c-1.284-0.694-2.193,0.209-3.29,0.537   c-0.778,0.232-1.777-0.276-2.677-0.454C82.509,79.7,82.476,79.543,82.443,79.387z M78.768,36.107   c-3.566-9.111-15.267-19.318-30.813-18.208c-13.453,0.96-23.604,10.865-25.975,18.255c0.419,0.074,0.832,0.142,1.243,0.219   c3.576,0.668,7.066,1.57,9.991,3.896c3.424,2.725,4.593,2.731,8.044,0.124c0.31-0.234,0.925-0.061,1.398-0.077   c-0.006,0.476,0.185,1.178-0.056,1.389c-0.977,0.86-1.992,1.952-3.169,2.24c-1.562,0.382-3.289,0.094-4.993,0.094   c-0.651,5.121-2.033,7.247-5.328,7.921c-3.163,0.647-6.281-0.713-7.75-3.437c-0.951-1.764-1.191-3.738-0.414-5.515   c0.716-1.636,1.984-3.029,2.965-4.466c-0.269-0.051-0.839-0.176-1.416-0.262c-0.518-0.076-1.042-0.107-1.68-0.17   c-2.466,6.493-2.759,13.008-0.997,19.667c6.606-1.617,10.694-0.47,13.248,3.638c2.648,4.26,2.06,8.561-1.998,13.335   c2.381,1.349,4.708,2.667,7.036,3.985c0.127-0.116,0.253-0.232,0.38-0.348c-0.435-2.962-0.721-5.888,1.849-7.891   c-0.952-1.172-1.793-2.125-2.533-3.148c-0.457-0.63-1.046-1.485-0.033-2.014c0.293-0.153,1.256,0.479,1.577,0.969   c1.135,1.737,2.489,2.697,4.718,2.609c3.931-0.155,7.879-0.191,11.807,0.009c2.611,0.133,4.404-0.692,5.641-2.974   c0.203-0.375,0.885-0.491,1.346-0.727c0.086,0.556,0.437,1.273,0.212,1.637c-0.77,1.249-1.741,2.373-2.765,3.715   c2.651,1.969,2.195,4.951,1.828,8.415c2.727-1.557,5.037-2.876,7.38-4.214c-3.983-5.157-4.678-9.061-2.025-13.148   c3.236-4.986,7.903-5.799,13.32-3.794c1.54-5.783,1.52-11.444-0.1-17.094c-0.827-2.884-0.845-2.88-3.804-2.155   c-0.075,0.019-0.134,0.105-0.203,0.163c4.392,2.992,4.153,6.745,3.081,9.343c-1.22,2.958-4.348,4.443-7.783,3.892   c-3.329-0.535-4.79-2.723-5.537-8.345c-0.664,0.193-1.312,0.435-1.98,0.565c-2.5,0.487-4.502-0.431-6.039-2.357   c-0.267-0.334-0.103-1.013-0.139-1.532c0.511,0.057,1.182-0.075,1.506,0.201c2.782,2.365,4.452,2.295,7.483,0.214   c2.025-1.391,4.313-2.449,6.588-3.405C75.375,36.695,77.055,36.515,78.768,36.107z M50.403,70.845c0-0.002,0-0.004,0-0.006   c-2.711,0-5.422-0.01-8.133,0.011c-0.393,0.002-0.969,0.016-1.144,0.254c-0.945,1.293-2.296,2.421-1.838,4.353   c0.181,0.763,0.182,1.592,0.126,2.382c-0.073,1.034,0.352,1.458,1.332,1.765c5.892,1.84,11.809,1.914,17.766,0.414   c2.607-0.657,2.6-0.679,2.743-3.441c0.033-0.637,0.103-1.272,0.125-1.909c0.07-1.933-1.752-3.831-3.64-3.824   C55.294,70.851,52.849,70.845,50.403,70.845z M72.728,71.713c-2.441-2.672-2.923-5.265-1.506-7.615   c1.589-2.638,4.064-3.311,8.004-2.156c0.433-0.717,1.09-1.368-0.229-1.982c-3.329-1.55-7.535-0.159-9.493,3.214   c-1.917,3.301-1.001,7.471,2.236,9.634C72.033,72.484,72.347,72.135,72.728,71.713z M29.036,72.811   c3.458-2.808,4.062-7.194,1.574-10.44c-2.417-3.155-6.674-3.968-9.836-1.788c0.194,0.502,0.398,1.032,0.602,1.561   c3.929-1.375,6.364-0.869,8.159,1.657c1.653,2.324,1.238,4.851-1.375,8.085C28.43,72.17,28.71,72.467,29.036,72.811z M23.188,45.04   c-0.02,2.583,1.667,4.368,4.163,4.403c2.651,0.038,4.436-1.685,4.44-4.286c0.004-2.548-1.722-4.303-4.25-4.318   C24.96,40.824,23.207,42.515,23.188,45.04z M73.372,49.443c2.575,0.025,4.359-1.667,4.397-4.17   c0.039-2.597-1.625-4.388-4.121-4.434c-2.669-0.049-4.467,1.653-4.482,4.243C69.15,47.647,70.859,49.418,73.372,49.443z    M26.068,69.824c2.184-0.874,2.253-3.57,1.229-4.777c-1.243-1.463-3.061-1.624-4.657-0.166   C23.78,66.525,24.938,68.194,26.068,69.824z M74.641,69.749c1.182-1.731,2.35-3.441,3.53-5.168c-1.999-1.163-3.622-0.856-4.667,0.7   C72.548,66.706,72.896,68.322,74.641,69.749z M46.011,83.486c-0.063,0.101-0.126,0.201-0.189,0.303   c0.658,0.271,1.506,0.949,1.942,0.746c1.825-0.854,3.493-0.724,5.233,0.299c0.471-0.418,0.922-0.818,1.52-1.347   C51.501,83.486,48.756,83.486,46.011,83.486z"/><path fill-rule="evenodd" clip-rule="evenodd" fill="#000000" d="M27.494,48.16c1.791-0.002,3-1.199,3.013-2.985   c0.014-1.792-1.174-3.021-2.947-3.051c-1.869-0.032-3.112,1.2-3.089,3.061C24.493,46.971,25.702,48.162,27.494,48.16z"/><path fill-rule="evenodd" clip-rule="evenodd" fill="#000000" d="M76.486,45.154c0.01-1.794-1.176-3.008-2.96-3.03   c-1.799-0.023-3.037,1.153-3.076,2.921c-0.042,1.864,1.191,3.126,3.042,3.115C75.278,48.149,76.476,46.946,76.486,45.154z"/><path fill-rule="evenodd" clip-rule="evenodd" d="M27.494,48.16c-1.792,0.002-3.001-1.188-3.023-2.975   c-0.023-1.861,1.22-3.093,3.089-3.061c1.773,0.03,2.961,1.259,2.947,3.051C30.494,46.96,29.285,48.157,27.494,48.16z"/><path fill-rule="evenodd" clip-rule="evenodd" d="M76.486,45.154c-0.01,1.792-1.208,2.996-2.994,3.006   c-1.851,0.011-3.084-1.25-3.042-3.115c0.039-1.768,1.277-2.945,3.076-2.921C75.31,42.146,76.496,43.359,76.486,45.154z"/></g><text x="0" y="115" fill="#000000" font-size="5px" font-weight="bold" font-family="'Helvetica Neue', Helvetica, Arial-Unicode, Arial, Sans-serif">Created by Josue Gil  </text><text x="0" y="120" fill="#000000" font-size="5px" font-weight="bold" font-family="'Helvetica Neue', Helvetica, Arial-Unicode, Arial, Sans-serif">from the Noun Project</text></svg>