<svg xmlns="http://www.w3.org/2000/svg" xmlns:xlink="http://www.w3.org/1999/xlink" version="1.1" x="0px" y="0px" viewBox="0 0 110 137.5" enable-background="new 0 0 110 110" xml:space="preserve"><rect x="5.125" y="5" width="0.25" height="100.001"/><rect x="14.875" y="5" width="0.25" height="100.001"/><rect x="25.125" y="5" width="0.25" height="100.001"/><rect x="34.875" y="5" width="0.25" height="100.001"/><rect x="45.125" y="5" width="0.25" height="100.001"/><rect x="54.875" y="5" width="0.25" height="100.001"/><rect x="65.125" y="5" width="0.25" height="100.001"/><rect x="74.875" y="5" width="0.25" height="100.001"/><rect x="84.875" y="5" width="0.25" height="100.001"/><rect x="95.125" y="5" width="0.25" height="100.001"/><rect x="104.875" y="5" width="0.25" height="100.001"/><rect x="9.875" y="5" width="0.25" height="100.001"/><rect x="20.125" y="5" width="0.25" height="100.001"/><rect x="29.875" y="5" width="0.25" height="100.001"/><rect x="40.125" y="5" width="0.25" height="100.001"/><rect x="49.875" y="5" width="0.25" height="100.001"/><rect x="60.125" y="5" width="0.25" height="100.001"/><rect x="69.875" y="5" width="0.25" height="100.001"/><rect x="79.875" y="5" width="0.25" height="100.001"/><rect x="90.125" y="5" width="0.25" height="100.001"/><rect x="99.875" y="5" width="0.25" height="100.001"/><text x="0" y="125" fill="#000000" font-size="5px" font-weight="bold" font-family="'Helvetica Neue', Helvetica, Arial-Unicode, Arial, Sans-serif">Created by Qi studio</text><text x="0" y="130" fill="#000000" font-size="5px" font-weight="bold" font-family="'Helvetica Neue', Helvetica, Arial-Unicode, Arial, Sans-serif">from the Noun Project</text></svg>