<?xml version="1.0" encoding="UTF-8" standalone="no"?>
<svg
   xmlns:dc="http://purl.org/dc/elements/1.1/"
   xmlns:cc="http://creativecommons.org/ns#"
   xmlns:rdf="http://www.w3.org/1999/02/22-rdf-syntax-ns#"
   xmlns:svg="http://www.w3.org/2000/svg"
   xmlns="http://www.w3.org/2000/svg"
   xmlns:sodipodi="http://sodipodi.sourceforge.net/DTD/sodipodi-0.dtd"
   xmlns:inkscape="http://www.inkscape.org/namespaces/inkscape"
   version="1.1"
   x="0px"
   y="0px"
   viewBox="0 0 100 125"
   id="svg5271"
   sodipodi:docname="pat3.svg"
   inkscape:version="0.92.3 (2405546, 2018-03-11)">
  <metadata
     id="metadata5277">
    <rdf:RDF>
      <cc:Work
         rdf:about="">
        <dc:format>image/svg+xml</dc:format>
        <dc:type
           rdf:resource="http://purl.org/dc/dcmitype/StillImage" />
      </cc:Work>
    </rdf:RDF>
  </metadata>
  <defs
     id="defs5275" />
  <sodipodi:namedview
     pagecolor="#ffffff"
     bordercolor="#666666"
     borderopacity="1"
     objecttolerance="10"
     gridtolerance="10"
     guidetolerance="10"
     inkscape:pageopacity="0"
     inkscape:pageshadow="2"
     inkscape:window-width="774"
     inkscape:window-height="480"
     id="namedview5273"
     showgrid="false"
     inkscape:zoom="1.888"
     inkscape:cx="50"
     inkscape:cy="62.5"
     inkscape:window-x="0"
     inkscape:window-y="0"
     inkscape:window-maximized="0"
     inkscape:current-layer="svg5271" />
  <g
     transform="translate(-0.52966102,-939.12065)"
     id="g5265"
     style="fill:#fefbfc;fill-opacity:1">
    <path
       style="color:#000000;text-indent:0;text-transform:none;direction:ltr;baseline-shift:baseline;display:inline;overflow:visible;visibility:visible;fill:#fefbfc;fill-opacity:1;stroke:none;enable-background:accumulate"
       d="m 48.190086,956.83796 c -1.683,0.0631 -3.257,0.33061 -4.734,0.76605 -1.537,0.0457 -3.114,0.28278 -4.733,0.74635 -1.895,0.5427 -3.579,1.31894 -5.087,2.28239 -1.757,0.34971 -3.513,0.95991 -5.256,1.88165 -1.489,0.78683 -2.788,1.71003 -3.929,2.74199 -1.366,0.70845 -2.689,1.60524 -3.948,2.72627 -1.471,1.31116 -2.649,2.74354 -3.59,4.26618 -1.431,1.07725 -2.749,2.38443 -3.92,3.97155 -1.002,1.356 -1.774,2.7538 -2.354,4.1798 -0.9229999,1.2302 -1.7219999,2.6096 -2.3689999,4.164 -0.756,1.8184 -1.199,3.6188 -1.386,5.3975 -0.823,1.5928 -1.444,3.3474 -1.811,5.2876 -0.313,1.6541 -0.398,3.2459 -0.303,4.78081 -0.298,1.5099 -0.421,3.1023 -0.33,4.7847 0.108,1.9665 0.493,3.7804 1.096,5.4643 -0.05,1.7911 0.149,3.6407 0.66,5.5468 0.437,1.6278 1.05,3.1006 1.804,4.443 0.386,1.4887 0.963,2.9759 1.775,4.4508 0.9509999,1.7257 2.0839999,3.1951 3.3579999,4.4508 0.733,1.6354 1.719,3.2106 3.006,4.7061 1.099,1.2773 2.29,2.3426 3.551,3.2252 0.994,1.1728 2.161,2.2611 3.532,3.237 1.606,1.1431 3.263,1.9749 4.958,2.5534 1.369,1.1553 2.937,2.1497 4.745,2.9383 1.542,0.6729 3.075,1.111 4.592,1.3592 1.406,0.6274 2.93,1.1018 4.592,1.3868 1.945,0.3335 3.803,0.3638 5.583,0.1492 1.732,0.4465 3.576,0.6631 5.546,0.5893 1.683,-0.063 3.255,-0.3307 4.73,-0.766 1.538,-0.045 3.118,-0.2825 4.738,-0.7464 1.896,-0.5433 3.582,-1.3215 5.091,-2.2863 1.755,-0.3499 3.509,-0.9567 5.252,-1.8777 1.488,-0.7868 2.788,-1.7102 3.928,-2.742 1.367001,-0.7084 2.690001,-1.6054 3.948001,-2.7263 1.474,-1.3125 2.653,-2.7458 3.595,-4.2701 1.429,-1.0766 2.747,-2.3824 3.916,-3.9676 1.001,-1.356 1.773,-2.7539 2.354,-4.1798 0.922,-1.2303 1.721,-2.6097 2.368,-4.164 0.758,-1.8224 1.2,-3.6268 1.387,-5.4093 0.82,-1.5899 1.444,-3.3401 1.811,-5.2758 0.313,-1.6541 0.398,-3.246 0.302,-4.7808 0.298,-1.5099 0.422,-3.1023 0.33,-4.7847 -0.107,-1.96661 -0.493,-3.78051 -1.096,-5.46431 0.05,-1.7912 -0.149,-3.6408 -0.659,-5.5469 -0.437,-1.6288 -1.05,-3.1037 -1.804,-4.4468 -0.387,-1.4875 -0.964,-2.9732 -1.776,-4.4469 -0.951,-1.7263 -2.088,-3.1948 -3.362,-4.4508 -0.732,-1.63509 -1.714,-3.21088 -3.001,-4.70615 -1.1,-1.27702 -2.291,-2.34269 -3.552,-3.22518 -0.994,-1.17277 -2.16,-2.26107 -3.531,-3.23696 -1.605001,-1.14282 -3.264001,-1.97494 -4.958001,-2.55341 -1.369,-1.15535 -2.937,-2.14969 -4.745,-2.93838 -1.543,-0.67287 -3.075,-1.111 -4.592,-1.3592 -1.407,-0.62735 -2.931,-1.10174 -4.593,-1.38671 -1.944,-0.33335 -3.804,-0.3635 -5.582,-0.1493 -1.734,-0.44643 -3.577,-0.66305 -5.547,-0.58924 z m 0.02,0.62853 c 1.343,-0.0503 2.621,0.0462 3.85,0.2475 -0.89,0.19407 -1.761,0.4396 -2.605,0.76209 -1.159,-0.37695 -2.35,-0.63673 -3.571,-0.76997 0.753,-0.11867 1.523,-0.20953 2.326,-0.23962 z m 7.679,0.43999 c 1.077,-0.003 2.184,0.0959 3.32,0.29068 0.791,0.13573 1.54,0.32521 2.271,0.5421 -1.229,-0.0292 -2.442,0.0735 -3.641,0.29467 -0.796,-0.43139 -1.626,-0.794 -2.484,-1.10389 0.179,-0.006 0.354,-0.0234 0.534,-0.0234 z m -2.195,0.15319 c 1.107,0.2909 2.163,0.68449 3.17,1.17459 -1.123,0.26926 -2.23,0.6461 -3.32,1.11563 -1.02,-0.61072 -2.07,-1.12809 -3.15,-1.54383 1.063,-0.35283 2.163,-0.60416 3.3,-0.74639 z m -9.943,0.14928 c 1.668,-0.0261 3.279,0.20055 4.836,0.63641 -1.586,0.70016 -3.093,1.60916 -4.506,2.72624 -1.686,-0.61975 -3.397,-1.01886 -5.119,-1.19026 1.399,-0.93474 2.929,-1.66454 4.597,-2.1606 0.06,-0.003 0.128,-0.0107 0.192,-0.0119 z m -2.577,0.2475 c -1.12,0.50746 -2.173,1.12557 -3.158,1.8463 -0.9,-0.0435 -1.803,-0.01 -2.706,0.0825 1.104,-0.57365 2.289,-1.06351 3.582,-1.43384 0.772,-0.22103 1.53,-0.37341 2.282,-0.49497 z m 8.321,0.67174 c 1.151,0.39046 2.273,0.89913 3.358,1.52025 -1.603,0.75487 -3.162,1.72309 -4.674,2.86376 -1.127,-0.65068 -2.269,-1.20953 -3.422,-1.67347 1.484,-1.13815 3.062,-2.05183 4.738,-2.71054 z m 10.952,0.21606 c 1.079,-0.0375 2.171,0.0356 3.272,0.21211 1.587,0.71107 3.004,1.63625 4.266,2.74595 -1.73,-0.0571 -3.478,0.11049 -5.232,0.5028 -1.251,-1.29141 -2.62,-2.3897 -4.098,-3.29196 0.594,-0.0838 1.19,-0.14802 1.792,-0.1689 z m -2.735,0.32602 c 1.574,0.87432 3.019,1.99065 4.341,3.31555 -1.204,0.30742 -2.408,0.70997 -3.61,1.206 -1.348,-1.32966 -2.766,-2.49352 -4.254,-3.45301 1.157,-0.47204 2.331,-0.83356 3.523,-1.06854 z m 8.341,0.43607 c 0.728,0.21969 1.46,0.47275 2.195,0.79351 1.23,0.53652 2.338,1.17319 3.355,1.8856 -0.883,-0.21021 -1.769,-0.36058 -2.667,-0.43601 -0.88,-0.84281 -1.842,-1.5932 -2.883,-2.2431 z m -28.819,0.79747 c -0.896,0.73031 -1.731,1.55057 -2.51,2.44735 -1.184,-0.10742 -2.355,-0.11755 -3.508,-0.0234 0.804,-0.77885 1.683,-1.48077 2.644,-2.10167 1.126,-0.21905 2.251,-0.32679 3.374,-0.32211 z m 0.955,0.0276 c 1.795,0.1049 3.582,0.48113 5.346,1.09991 -0.951,0.79893 -1.859,1.68796 -2.726,2.65556 -1.794,-0.61428 -3.579,-1.04613 -5.339,-1.26493 0.84,-0.92882 1.745,-1.76078 2.719,-2.49054 z m 15.308,0.10606 c 1.51,0.93526 2.954,2.07468 4.326,3.40978 -1.575,0.69089 -3.143,1.53191 -4.691,2.5102 -0.01,0.006 -0.01,0.0131 -0.03,0.0195 -0.02,-0.008 -0.02,-0.0158 -0.03,-0.0234 -1.404,-1.17351 -2.844,-2.21499 -4.313,-3.10734 1.536,-1.14246 3.119,-2.08075 4.738,-2.80875 z m -21.26,0.58136 c -0.715,0.55954 -1.384,1.16394 -2.003,1.81883 -1.209,0.16313 -2.396,0.4464 -3.556,0.85639 0.628,-0.43363 1.278,-0.85022 1.988,-1.22566 1.187,-0.6272 2.38,-1.09819 3.571,-1.44956 z m 11.966,0.65603 c 1.16,0.4485 2.307,1.00696 3.445,1.65384 -0.952,0.74995 -1.884,1.56668 -2.793,2.45128 -1.138,-0.55766 -2.277,-1.04487 -3.414,-1.46135 0.88,-0.96874 1.799,-1.85644 2.762,-2.64377 z m 23.271,0.61674 c 0.403,0.003 0.806,0.0292 1.206,0.059 0.87,0.85187 1.656,1.79703 2.365,2.82842 -1.772,-0.0149 -3.594,0.18204 -5.452,0.55389 -0.732,-1.07485 -1.519,-2.07492 -2.357,-2.99337 1.422,-0.29628 2.836,-0.4579 4.238,-0.44787 z m 2.161,0.16111 c 1.111,0.14331 2.211,0.39336 3.296,0.75814 0.872,0.74362 1.65,1.55938 2.345,2.43951 -1.129,-0.2447 -2.291,-0.39018 -3.476,-0.43996 -0.654,-0.99199 -1.373,-1.91537 -2.165,-2.75769 z m -7.087,0.43996 c 0.85,0.9069 1.645,1.90622 2.389,2.98161 -1.183,0.26279 -2.377,0.59498 -3.579,0.9978 -0.785,-0.99726 -1.599,-1.9316 -2.443,-2.80092 1.211,-0.4901 2.426,-0.88754 3.633,-1.17849 z m -30.173,0.37319 c 0.613,-0.0137 1.231,0.011 1.854,0.055 -1.116,1.37558 -2.102,2.92384 -2.97,4.60795 -1.296,-0.0973 -2.567,-0.10619 -3.806,-0.0234 0.843,-1.66809 1.87,-3.17864 3.091,-4.49797 0.604,-0.074 1.216,-0.12764 1.831,-0.14141 z m 2.604,0.12569 c 1.768,0.18806 3.565,0.58933 5.382,1.19817 -1.119,1.30589 -2.168,2.7401 -3.139,4.29368 0,0.0103 -0.01,0.0209 -0.02,0.0314 -0.01,-0.003 -0.02,-0.005 -0.03,-0.008 -1.776,-0.44829 -3.528,-0.76045 -5.24,-0.92709 0.889,-1.69662 1.908,-3.2292 3.053,-4.58828 z m -5.374,0.15715 c -1.124,1.31714 -2.084,2.78717 -2.871,4.40366 -1.79,0.1732 -3.504,0.55806 -5.131,1.151 0.854,-1.44676 1.916,-2.76709 3.202,-3.9362 1.544,-0.79492 3.148,-1.32444 4.8,-1.61846 z m 18.628,0.10998 c 1.466,0.87849 2.908,1.91209 4.322,3.08376 -0.908,0.5948 -1.81,1.22676 -2.703,1.90917 -1.447,-0.95395 -2.905,-1.81739 -4.364,-2.5652 -0.01,-0.005 -0.02,-0.011 -0.03,-0.0158 0.905,-0.87204 1.83,-1.67863 2.773,-2.41204 z m 26.254,0.16107 c 1.137,0.5059 2.255,1.12964 3.350001,1.90917 0.654,0.46504 1.248,0.96155 1.811,1.47314 -1.095,-0.55921 -2.232,-0.9948 -3.409001,-1.31599 -0.528,-0.73174 -1.116,-1.41658 -1.752,-2.06632 z m -16.197,0.50678 c 0.838,0.85209 1.649,1.77279 2.432,2.75768 -0.02,0.004 -0.02,0.004 -0.03,0.008 -1.546,0.54866 -3.102,1.21734 -4.662,1.97201 -0.797,-0.79491 -1.607,-1.54497 -2.428,-2.25485 1.555,-0.9752 3.121,-1.8053 4.69,-2.48271 z m -17.304,0.4871 c 1.124,0.40367 2.254,0.8829 3.386,1.42992 0,0.008 -0.02,0.0158 -0.02,0.0234 -1.154,1.16495 -2.268,2.44183 -3.346,3.79868 -1.061,-0.37035 -2.116,-0.69143 -3.163,-0.97421 0.979,-1.55351 2.027,-2.98681 3.147,-4.27798 z m 29.953,0.97422 c 0.175,0 0.345,0.0152 0.519,0.0195 0.955,1.49871 1.762,3.15371 2.419,4.95363 -1.717,-0.0605 -3.496,0.0143 -5.314,0.22392 -0.01,0.003 -0.02,0.003 -0.03,0.004 0,-0.0107 -0.01,-0.0207 -0.02,-0.0314 -0.756,-1.66736 -1.605,-3.22915 -2.541,-4.6708 1.695,-0.32757 3.357,-0.50286 4.969,-0.49888 z m 1.269,0.0511 c 1.25,0.0768 2.467,0.26297 3.645,0.56957 1.038,1.47038 1.859001,3.10449 2.476001,4.87117 -1.220001,-0.24592 -2.480001,-0.40459 -3.779001,-0.47926 -0.639,-1.78513 -1.416,-3.44975 -2.342,-4.96148 z m -49.45,0.57353 c -0.788,0.94145 -1.464,1.95415 -2.039,3.02874 -0.829,0.35077 -1.627,0.77486 -2.4,1.24923 0.745,-0.99376 1.599,-1.94753 2.601,-2.84021 0.599,-0.53393 1.213,-1.00196 1.838,-1.43776 z m 42.56,0.0157 c 0.939,1.42689 1.793,2.98317 2.557,4.65117 -1.075,0.14213 -2.163,0.32268 -3.264,0.54997 -0.89,-1.48681 -1.826,-2.90054 -2.816,-4.20725 0,-0.008 -0.01,-0.0155 -0.02,-0.0234 1.194,-0.39282 2.376,-0.71845 3.543,-0.97029 z m -20.341,0.11002 c 0.07,0.0375 0.149,0.0679 0.223,0.10606 1.38,0.70618 2.758,1.52341 4.13,2.41985 -1.176,0.92265 -2.336,1.91517 -3.477,2.97375 -1.414,-0.65047 -2.824,-1.23333 -4.227,-1.74419 1.024,-1.2784 2.079,-2.4827 3.17,-3.58264 0.06,-0.0599 0.121,-0.1135 0.181,-0.17283 z m 31.788,0.13356 c 1.603001,0.51068 3.129001,1.25193 4.557001,2.247 1.116,1.32634 1.99,2.77359 2.643,4.31723 -1.532,-0.80115 -3.18,-1.40718 -4.929,-1.81491 -0.568,-1.70831 -1.329,-3.29393 -2.271001,-4.74932 z m -23.716,0.49497 c 0.803,0.68742 1.594,1.41233 2.373,2.18414 -0.869,0.43453 -1.743,0.90612 -2.612,1.3985 -0.796,-0.60254 -1.595,-1.18707 -2.4,-1.73239 0.873,-0.66144 1.754,-1.2753 2.639,-1.85025 z m 8.085,0.43996 c 0.06,0.0672 0.106,0.12873 0.157,0.19644 0.937,1.23445 1.825,2.56882 2.672,3.97154 -1.459,0.32124 -2.936,0.71224 -4.424,1.17064 -0.99,-1.19908 -2.009,-2.33685 -3.052,-3.40587 1.478,-0.70775 2.951,-1.33604 4.411,-1.85417 0.08,-0.028 0.157,-0.0512 0.236,-0.0786 z m -32.672,0.85636 c 0.818,-0.0207 1.654,0.0131 2.499,0.0707 -0.532,1.08849 -1.015,2.23052 -1.45,3.42161 -1.269,-0.009 -2.506,0.0466 -3.712,0.16499 0.372,-1.25424 0.817,-2.45158 1.343,-3.57872 0.437,-0.0351 0.874,-0.0675 1.32,-0.0786 z m 3.174,0.11394 c 1.701,0.15547 3.449,0.46135 5.229,0.90353 -0.56,0.9297 -1.094,1.8927 -1.603,2.89516 -1.719,-0.2316 -3.407,-0.37997 -5.048,-0.4203 -0.01,0 -0.02,0 -0.03,0 0.438,-1.18042 0.925,-2.30717 1.458,-3.37839 z m -5.197,0.0353 c -0.51,1.13247 -0.947,2.32679 -1.308,3.57477 -1.882,0.22489 -3.676,0.60887 -5.354,1.17458 0.353,-1.20132 0.805,-2.34524 1.366,-3.42549 1.664,-0.68429 3.438,-1.11633 5.296,-1.32386 z m 23.449,0.81708 c 0.779,0.52435 1.556,1.07805 2.329,1.65775 -1.218,0.70843 -2.431,1.47067 -3.638,2.28237 -0.701,-0.36396 -1.4,-0.71645 -2.102,-1.04886 1.121,-1.03026 2.26,-1.99552 3.411,-2.89126 z m -12.387,0.21998 c 1.02,0.27072 2.048,0.57453 3.084,0.93104 -0.597,0.77049 -1.174,1.57775 -1.744,2.40023 -0.982,-0.198 -1.959,-0.37618 -2.923,-0.51859 0.5,-0.97622 1.035,-1.90938 1.583,-2.81268 z m 18.388,0.17679 c 1.024,1.0401 2.024,2.14992 2.998,3.31946 -0.739,0.23674 -1.481,0.49007 -2.223,0.75815 -1.089,-0.96313 -2.191,-1.87566 -3.304,-2.73804 0.843,-0.47312 1.687,-0.92237 2.529,-1.33957 z m -35.617,0.50283 c -0.491,1.04738 -0.886,2.14908 -1.198,3.29589 -1.113,0.41662 -2.173,0.91237 -3.171,1.49673 0.387,-1.05015 0.874,-2.06473 1.469,-3.04059 0.92,-0.68615 1.886,-1.26916 2.9,-1.75203 z m 62.896001,0.0825 c 0.565,0.5163 1.116,1.06241 1.642,1.6735 0.877,1.0191 1.6,2.07656 2.208,3.16232 -0.706,-0.57418 -1.442,-1.09731 -2.22,-1.55566 -0.428,-1.14492 -0.971,-2.23979 -1.63,-3.28016 z m -41.959001,0.40068 c 1.373,0.49352 2.755,1.05835 4.141,1.68919 -0.562,0.53316 -1.117,1.08706 -1.67,1.64991 -1.398,-0.39586 -2.79,-0.73893 -4.168,-1.03317 0.555,-0.79182 1.12,-1.56464 1.697,-2.30593 z m 30.999,0.5539 c 0.637,-0.0115 1.262,0.003 1.882,0.0276 0.385,1.1298 0.716,2.31027 0.994,3.53552 -0.01,-0.003 -0.02,-0.003 -0.03,-0.004 -1.631,-0.17654 -3.325,-0.25039 -5.059,-0.24747 -0.372,-1.05943 -0.776,-2.08565 -1.206,-3.07981 1.161,-0.12967 2.304,-0.21145 3.421,-0.23175 z m 2.553,0.0707 c 1.307,0.0839 2.575001,0.24826 3.792001,0.51068 0.372,1.1868 0.652,2.43161 0.856,3.72406 -1.18,-0.2764 -2.403001,-0.4933 -3.661001,-0.6521 -0.274,-1.23849 -0.603,-2.43313 -0.987,-3.58264 z m -21.994,0.0668 c 1.085,0.83343 2.158,1.71982 3.221,2.65165 -1.166,0.43497 -2.329,0.91906 -3.497,1.42599 -1.088,-0.65575 -2.179,-1.28942 -3.276,-1.87379 1.179,-0.78477 2.364,-1.51988 3.552,-2.20385 z m 15.371,0.17682 c 0.425,0.96647 0.828,1.9611 1.195,2.99337 -0.975,0.014 -1.964,0.0669 -2.963,0.13357 -0.456,-0.8911 -0.924,-1.76549 -1.414,-2.60842 1.075,-0.21696 2.135,-0.38471 3.182,-0.51852 z m 11.101001,0.42817 c 1.816,0.45111 3.513,1.11669 5.072,2.01523 0.413,1.14332 0.712,2.33532 0.904,3.57082 -1.59,-0.7819 -3.319,-1.395 -5.154,-1.8659 -0.193,-1.28659 -0.465,-2.5287 -0.822,-3.72015 z m -14.931001,0.23571 c 0.476,0.8112 0.934,1.64808 1.379,2.50628 -1.406,0.10982 -2.83,0.27136 -4.27,0.47926 -0.473,-0.63195 -0.95,-1.2544 -1.438,-1.85813 1.458,-0.44264 2.903,-0.81936 4.329,-1.12741 z m -35.925,0.23567 c 0.296,-0.006 0.597,0 0.896,0 0,0.0107 0,0.0207 -0.01,0.0314 -0.535,1.55075 -0.985,3.18437 -1.368,4.87507 -1.116,0.1267 -2.205,0.2953 -3.272,0.495 0.208,-1.8247 0.533,-3.56732 0.982,-5.21687 0.905,-0.0944 1.827,-0.16368 2.773,-0.18465 z m 1.564,0.004 c 0.09,0.003 0.167,-0.003 0.251,0 1.55,0.0381 3.148,0.17603 4.773,0.38891 -0.658,1.34024 -1.277,2.73596 -1.846,4.18366 -1.554,0.027 -3.076,0.1187 -4.561,0.2671 0.369,-1.5962 0.792,-3.14383 1.297,-4.60788 0.03,-0.079 0.06,-0.15322 0.09,-0.23179 z m 16.028,0.19642 c 0.672,0.31536 1.343,0.64491 2.015,0.98997 -0.559,0.38391 -1.115,0.78212 -1.67,1.18631 -0.653,-0.2118 -1.305,-0.41367 -1.956,-0.60492 0.533,-0.53794 1.069,-1.06181 1.611,-1.57136 z m -21.033,0.051 c -0.441,1.66189 -0.758,3.41205 -0.958,5.23255 0,0.012 0,0.024 0,0.035 -0.01,0 -0.02,0.01 -0.03,0.01 -1.794,0.3666 -3.509,0.8457 -5.123,1.4378 0.06,-1.9129 0.318,-3.7366 0.758,-5.45648 1.673,-0.5971 3.463,-1.01715 5.363,-1.25705 z m 10.685,0.22787 c 0.931,0.13411 1.872,0.30007 2.82,0.48709 -0.789,1.16632 -1.555,2.37539 -2.289,3.62979 -0.789,-0.024 -1.571,-0.036 -2.345,-0.031 0.562,-1.4143 1.166,-2.77926 1.814,-4.0855 z m -19.547,0.0825 c -0.401,0.81276 -0.744,1.64572 -1.017,2.50238 -1.021,0.6721 -1.966,1.4449 -2.833,2.3177 0.377,-0.6629 0.784,-1.3215 1.261,-1.9681 0.797,-1.07968 1.668,-2.01853 2.589,-2.85198 z m 43.243,0.52639 c 0.469,0.57538 0.935,1.16167 1.391,1.76379 -0.671,0.1036 -1.345,0.2221 -2.019,0.3458 -0.496,-0.4729 -0.995,-0.94118 -1.497,-1.39463 0.71,-0.25245 1.419,-0.49175 2.125,-0.71496 z m -20.2,0.0119 c 1.341,0.2805 2.695,0.61121 4.059,0.98993 -0.861,0.89706 -1.703,1.83446 -2.534,2.79696 -1.267,-0.1185 -2.525,-0.2086 -3.768,-0.2592 0.723,-1.2193 1.47,-2.39566 2.243,-3.52769 z m 9.491,0.42424 c 1.066,0.56125 2.13,1.15715 3.19,1.78745 -0.419,0.187 -0.838,0.3778 -1.256,0.5735 -1.171,-0.4535 -2.341,-0.8654 -3.509,-1.2571 0.525,-0.37737 1.048,-0.74494 1.575,-1.10385 z m -29.737,0.24358 c -0.409,1.72507 -0.629,3.54927 -0.68,5.44467 -1.211,0.4751 -2.359,1.0174 -3.441,1.6302 0.04,-1.8722 0.307,-3.6797 0.837,-5.4014 1.023,-0.6564 2.122,-1.21214 3.284,-1.67347 z m 66.247001,0.2789 c 0.94,0.61157 1.824,1.31727 2.644,2.11737 0.462,1.0453 0.808,2.1184 1.053,3.2095 -0.911,-0.7104 -1.895,-1.3458 -2.942,-1.9053 -0.159,-1.176 -0.407,-2.3204 -0.755,-3.42157 z m -28.594001,0.004 c 0.475,0.42486 0.95,0.85767 1.418,1.30027 -1.213,0.2345 -2.428,0.4897 -3.649,0.7857 -0.389,-0.2489 -0.777,-0.4943 -1.167,-0.7346 1.134,-0.4848 2.267,-0.93578 3.398,-1.35137 z m -12.657,0.22785 c 0.613,0.17695 1.227,0.36622 1.842,0.56172 -0.988,0.7363 -1.972,1.4911 -2.941,2.2863 -0.462,-0.056 -0.921,-0.1057 -1.38,-0.1532 0.812,-0.9296 1.64,-1.8291 2.479,-2.69482 z m 25.416,0.44782 c 0.09,0 0.17,0 0.256,0 0.469,1.3807 0.886,2.8132 1.257,4.2898 -0.768,-0.1071 -1.545,-0.1946 -2.33,-0.275 -0.563,-1.3412 -1.161,-2.6439 -1.791,-3.9048 0.878,-0.055 1.751,-0.097 2.608,-0.11 z m 0.916,0 c 1.639,0 3.239,0.081 4.781,0.2475 0.08,0.01 0.163,0.022 0.247,0.031 0.01,0.082 0.04,0.161 0.06,0.2436 0.307,1.5189 0.529,3.1055 0.684,4.7375 -1.454,-0.3435 -2.952,-0.6319 -4.491,-0.8642 -0.373,-1.5124 -0.8,-2.9784 -1.277,-4.3958 z m -4.208,0.1571 c 0.617,1.2219 1.203,2.4857 1.756,3.787 -1.238,-0.1137 -2.496,-0.1861 -3.766,-0.2357 -0.698,-1.0641 -1.407,-2.1042 -2.142,-3.1073 1.402,-0.1955 2.786,-0.3429 4.152,-0.444 z m -19.563,0.2043 c 1.104,0.3631 2.21,0.7434 3.316,1.1628 -0.971,0.4669 -1.933,0.9701 -2.895,1.481 -1.074,-0.1859 -2.147,-0.365 -3.214,-0.5068 0.921,-0.7431 1.857,-1.4481 2.793,-2.137 z m 29.462,0 c 1.249001,0.1643 2.457001,0.3839 3.619001,0.6639 0.227,1.6944 0.318,3.4671 0.282,5.3033 -1.031,-0.339 -2.09,-0.6501 -3.182001,-0.9232 -0.156,-1.7258 -0.385,-3.4053 -0.711,-5.0126 0,-0.011 0,-0.021 0,-0.031 z m -14.762,0.3339 c 0.717,0.9684 1.416,1.9693 2.098,2.9973 -0.46,-0.013 -0.92,-0.026 -1.383,-0.031 -0.858,-0.918 -1.735,-1.7936 -2.62,-2.6555 0.636,-0.1127 1.274,-0.2157 1.905,-0.3103 z m -8.69,0.2907 c 0.342,0.2076 0.682,0.4261 1.022,0.6403 -0.362,0.091 -0.722,0.1902 -1.084,0.2868 -0.346,-0.1436 -0.691,-0.2898 -1.037,-0.4282 0.366,-0.168 0.732,-0.3378 1.099,-0.4989 z m 6.043,0.1689 c 0.838,0.8079 1.673,1.6308 2.49,2.4906 -1.078,0 -2.166,0.032 -3.256,0.075 -0.889,-0.634 -1.778,-1.259 -2.679,-1.8502 1.152,-0.2702 2.301,-0.5005 3.445,-0.715 z m 21.676001,0.023 c 1.851,0.4884 3.571,1.1441 5.15,1.9563 0.21,1.7635 0.22,3.6022 0.03,5.5076 -1.522,-0.7997 -3.159,-1.5018 -4.888,-2.1017 -0.01,0 -0.02,-0.01 -0.03,-0.012 0,-0.012 0,-0.024 0,-0.035 0.04,-1.8316 -0.05,-3.6088 -0.262,-5.315 z m -65.359001,0.071 c -0.442,1.6749 -0.668,3.4181 -0.677,5.2169 -1.535,0.9318 -2.913,2.0219 -4.121,3.2605 0.142,-1.6703 0.519,-3.3144 1.168,-4.9222 1.047,-1.3908 2.264,-2.5705 3.63,-3.5552 z m 35.756,0.5932 c 0.272,0.1068 0.543,0.2278 0.816,0.3379 -1.119,0.3137 -2.235,0.6568 -3.351,1.0174 -0.05,-0.01 -0.1,-0.014 -0.145,-0.023 0.892,-0.4617 1.782,-0.9085 2.68,-1.3317 z m 3.636,0.2436 c 0.833,0.5371 1.657,1.095 2.48,1.6695 -0.05,0 -0.1,0.01 -0.15,0.01 -1.058,-0.5043 -2.115,-0.9951 -3.181,-1.4534 0.284,-0.073 0.567,-0.1543 0.851,-0.2239 z m -20.525,0.381 c 0.704,-0.01 1.414,0 2.129,0.019 -0.337,0.5878 -0.662,1.1872 -0.986,1.7914 -0.678,0.092 -1.355,0.1886 -2.023,0.2985 0.246,-0.7135 0.5,-1.4136 0.766,-2.1056 0.03,0 0.08,0 0.114,0 z m -0.797,0.019 c -0.276,0.7257 -0.536,1.4636 -0.789,2.2117 -1.433,0.2504 -2.836,0.5434 -4.204,0.876 0.156,-0.9566 0.334,-1.8954 0.534,-2.8166 1.449,-0.1508 2.938,-0.2381 4.459,-0.2711 z m 3.641,0.028 c 1.204,0.043 2.421,0.1161 3.649,0.2239 -0.297,0.3517 -0.594,0.7053 -0.887,1.0646 -1.252,0.099 -2.484,0.2346 -3.709,0.3889 0.309,-0.5675 0.628,-1.1251 0.947,-1.6774 z m 15.823,0.063 c 0.968,0.4042 1.931,0.8219 2.891,1.2649 -0.292,0.02 -0.586,0.052 -0.879,0.075 -0.696,-0.062 -1.388,-0.1423 -2.086,-0.1885 -0.702,-0.047 -1.404,-0.056 -2.106,-0.086 -0.285,-0.061 -0.57,-0.1307 -0.856,-0.1886 1.012,-0.3129 2.022,-0.6025 3.036,-0.876 z m 36.565001,0.079 c 0.805,0.949 1.544,1.9928 2.192,3.1702 0.388,0.7039 0.708,1.4105 0.994,2.1174 -0.744,-0.9799 -1.579,-1.8664 -2.502,-2.6674 -0.158,-0.8876 -0.392,-1.7594 -0.684,-2.6202 z m -61.152001,0.1689 c -0.203,0.9527 -0.377,1.9307 -0.535,2.9188 -0.969,0.2473 -1.925,0.5076 -2.856,0.7974 0.03,-1.0966 0.102,-2.1693 0.205,-3.2212 1.037,-0.1988 2.098,-0.3668 3.186,-0.495 z m 13.164,0 c 0.399,0.039 0.801,0.088 1.202,0.1336 -0.287,0.2401 -0.572,0.4858 -0.856,0.7307 -0.374,0.021 -0.748,0.037 -1.12,0.063 0.257,-0.3103 0.514,-0.6229 0.774,-0.9271 z m 2.054,0.2318 c 0.985,0.123 1.971,0.267 2.962,0.4282 -0.04,0.023 -0.09,0.043 -0.129,0.067 -1.172,0 -2.34,0.025 -3.501,0.075 0.224,-0.1881 0.444,-0.3845 0.668,-0.5696 z m -19.044,0.3889 c -0.101,1.0805 -0.169,2.1797 -0.192,3.3037 -1.65,0.5369 -3.235,1.1356 -4.73,1.811 -0.01,0 -0.01,0.011 -0.03,0.016 -0.117,-1.253 -0.167,-2.4775 -0.153,-3.673 1.601,-0.5982 3.31,-1.0832 5.107,-1.4574 z m 62.052001,0.039 c 1.092,0.611 2.105,1.3077 3.032,2.0939 0.299,1.7761 0.33,3.6002 0.118,5.4603 -0.991,-0.7496 -2.057,-1.44 -3.193,-2.0702 0.199,-1.8855 0.221,-3.7201 0.04,-5.484 z m -38.231001,0.6836 c 0.778,0.013 1.558,0.065 2.338,0.098 0.08,0.017 0.159,0.038 0.239,0.055 -1.064,0.1316 -2.128,0.2589 -3.189,0.4282 -1.061,0.1692 -2.114,0.3792 -3.167,0.5853 0.07,-0.042 0.145,-0.084 0.216,-0.1257 0.951,-0.3573 1.901,-0.7128 2.86,-1.0371 0.235,0 0.468,-0.01 0.703,0 z m -3.08,0.023 c -0.256,0.1454 -0.507,0.3034 -0.762,0.4517 -0.655,0.2465 -1.315,0.4733 -1.964,0.7346 -0.645,0.2597 -1.274,0.5511 -1.913,0.825 -0.287,0.07 -0.577,0.1317 -0.864,0.2042 0.774,-0.7191 1.556,-1.4172 2.349,-2.1016 1.047,-0.056 2.096,-0.096 3.154,-0.1139 z m 15.725,0.071 c 0.397,0 0.782,0.02 1.175,0.023 0.2,0.2147 0.392,0.4424 0.589,0.6599 -1.144,-0.203 -2.299,-0.3789 -3.46,-0.5382 -0.04,-0.03 -0.08,-0.057 -0.123,-0.086 0.606,-0.018 1.218,-0.055 1.819,-0.059 z m 2.035,0.043 c 0.405,0.01 0.809,0.01 1.21,0.023 0.218,0.3363 0.426,0.6834 0.641,1.0253 -0.366,-0.075 -0.735,-0.1422 -1.104,-0.2121 -0.249,-0.2791 -0.495,-0.5622 -0.747,-0.8368 z m 1.965,0.039 c 1.231,0.055 2.447,0.1392 3.645,0.2553 0.244,0.59 0.48,1.1877 0.711,1.7913 -1.192,-0.3144 -2.394,-0.613 -3.621,-0.876 -0.243,-0.3935 -0.488,-0.784 -0.735,-1.1706 z m -23.924,0.019 c -0.871,0.7668 -1.722,1.5612 -2.569,2.3687 -0.05,0.013 -0.09,0.026 -0.141,0.039 0.602,-0.8014 1.21,-1.5879 1.834,-2.357 0.29,-0.022 0.584,-0.032 0.876,-0.051 z m -1.748,0.11 c -0.672,0.8421 -1.322,1.7141 -1.968,2.5927 -1.047,0.2982 -2.089,0.6038 -3.111,0.9388 0.507,-1.0683 1.038,-2.1124 1.582,-3.1387 1.154,-0.1521 2.317,-0.2907 3.497,-0.3928 z m 15.635,0.075 c 1.01,0.091 2.017,0.1867 3.021,0.3103 0.913,0.4506 1.814,0.9276 2.715,1.4103 0.06,0.049 0.125,0.097 0.187,0.1453 -1.017,-0.3437 -2.033,-0.6896 -3.063,-0.9978 -1.03,-0.308 -2.069,-0.5734 -3.108,-0.8446 0.08,-0.01 0.165,-0.017 0.248,-0.023 z m 14.389,0.1178 c 0.75,0.081 1.493,0.1736 2.228,0.2789 0.173,0.7222 0.333,1.4551 0.482,2.196 -0.647,-0.197 -1.302,-0.3846 -1.963,-0.5657 -0.243,-0.6435 -0.491,-1.2803 -0.747,-1.9092 z m -16.538,0.067 c 1.616,0.3873 3.23,0.8105 4.828,1.2885 1.601,0.4788 3.183,1.0106 4.75,1.5753 1.291,1.0522 2.563,2.134 3.798,3.2605 1.234,1.1257 2.429,2.2928 3.594,3.4805 0.707,1.5092 1.387,3.0361 2.012,4.5883 0.625,1.5523 1.193,3.1238 1.728,4.7022 -0.02,1.66301 -0.07,3.33091 -0.185,4.99691 -0.11,1.6689 -0.277,3.3313 -0.479,4.985 -0.738,1.4914 -1.511,2.9735 -2.333,4.4273 -0.824,1.4555 -1.697,2.8797 -2.597,4.2819 -1.312,1.0235 -2.651,2.0208 -4.022,2.9737 -1.372,0.9531 -2.774,1.8581 -4.192,2.7302 -1.629,0.3536 -3.265,0.6753 -4.918,0.9389 -1.653,0.2638 -3.315,0.4655 -4.974,0.6364 -1.616,-0.3873 -3.229,-0.8105 -4.827,-1.2885 -1.603,-0.4794 -3.187,-1.0139 -4.754,-1.5792 -1.29,-1.0517 -2.56,-2.1307 -3.795,-3.2566 -1.234,-1.1257 -2.428,-2.2928 -3.594,-3.4805 -0.707,-1.5092 -1.386,-3.0361 -2.011,-4.5883 -0.625,-1.5522 -1.193,-3.1239 -1.729,-4.7022 0.01,-1.663 0.07,-3.3309 0.181,-4.9969 0.11,-1.66891 0.281,-3.33131 0.483,-4.98501 0.738,-1.4914 1.511,-2.9735 2.334,-4.4273 0.823,-1.4556 1.697,-2.8798 2.596,-4.2819 1.312,-1.0235 2.651,-2.0208 4.023,-2.9737 1.373,-0.9537 2.777,-1.8576 4.195,-2.7302 1.627,-0.3529 3.265,-0.6757 4.915,-0.9389 1.653,-0.2638 3.314,-0.4655 4.973,-0.6364 z m -17.733,0.2239 c -0.572,1.0936 -1.131,2.2004 -1.662,3.3391 -0.439,0.1495 -0.874,0.3034 -1.307,0.4597 0.328,-1.1907 0.683,-2.3593 1.064,-3.5041 0.629,-0.1065 1.265,-0.2038 1.905,-0.2947 z m 37.174,0.098 c 1.505,0.2336 2.971,0.5192 4.388,0.8603 0.08,0.9375 0.124,1.8931 0.153,2.8598 -1.312,-0.5104 -2.662,-0.9848 -4.05,-1.4221 -0.152,-0.7744 -0.313,-1.5427 -0.491,-2.298 z m -53.457,0.094 c 0,1.2136 0.06,2.4522 0.181,3.7162 -1.146,0.5425 -2.24,1.126 -3.276,1.756 -0.209,-1.2917 -0.327,-2.5626 -0.342,-3.8066 1.073,-0.6274 2.224,-1.1797 3.437,-1.6656 z m 41.542,0.039 c 1.05,0.1576 2.087,0.3366 3.12,0.5303 0.695,0.7825 1.378,1.5778 2.051,2.3924 -0.275,-0.1095 -0.554,-0.2074 -0.829,-0.3143 -0.599,-0.3569 -1.188,-0.7288 -1.796,-1.0724 -0.607,-0.344 -1.232,-0.656 -1.846,-0.986 -0.234,-0.1815 -0.464,-0.3713 -0.7,-0.55 z m -27.871,0.1925 c -0.386,1.1819 -0.738,2.3939 -1.069,3.6219 -1.19,0.4421 -2.364,0.9019 -3.504,1.3946 0.122,-1.4097 0.282,-2.7948 0.487,-4.1483 1.33,-0.329 2.693,-0.6177 4.086,-0.8682 z m 32.012,0.5342 c 0.289,0.058 0.581,0.1083 0.868,0.169 0.516,0.8439 1.014,1.7038 1.505,2.5769 -0.05,-0.019 -0.09,-0.04 -0.137,-0.059 -0.733,-0.912 -1.474,-1.8121 -2.236,-2.6869 z m 12.811,0.1493 c 1.062001,0.2707 2.089001,0.5814 3.091001,0.9153 -0.03,1.0557 -0.107,2.1272 -0.224,3.2173 -0.883,-0.41 -1.798,-0.7976 -2.726001,-1.1706 -0.02,-0.9997 -0.06,-1.9914 -0.141,-2.962 z m 13.042001,0.1493 c 1.222,1.1561 2.272,2.4862 3.126,4.003 0.431,1.6793 0.588,3.3618 0.507,5.0361 -1.034,-1.3886 -2.252,-2.6517 -3.653,-3.7791 0.229,-1.7835 0.235,-3.5421 0.02,-5.26 z m -24.132001,0.047 c 1.154,0.2566 2.288,0.5422 3.41,0.8446 0.405,1.0909 0.796,2.1955 1.159,3.3234 -0.972,-0.4683 -1.965,-0.9126 -2.967,-1.3475 -0.522,-0.9528 -1.05,-1.9002 -1.602,-2.8205 z m -38.482,0.1571 c -0.206,1.3935 -0.37,2.8171 -0.488,4.2662 -0.72,0.3207 -1.432,0.6491 -2.128,0.9899 -0.107,-1.5191 -0.155,-3.0115 -0.138,-4.4704 0.897,-0.2834 1.817,-0.5424 2.754,-0.7857 z m 13.341,0.33 c -0.903,0.5809 -1.809,1.1584 -2.691,1.7717 -0.882,0.6121 -1.74,1.2556 -2.597,1.8974 0.04,-0.066 0.09,-0.1309 0.134,-0.1965 0.703,-0.7362 1.408,-1.4664 2.132,-2.1762 0.921,-0.4326 1.856,-0.8385 2.793,-1.2414 0.08,-0.018 0.152,-0.037 0.229,-0.055 z m -30.5709999,0.051 c -0.301,1.1913 -0.475,2.3991 -0.527,3.618 -0.594,0.6758 -1.13,1.4015 -1.622,2.1645 0.241,-1.2188 0.596,-2.4497 1.112,-3.6887 0.309,-0.7419 0.663,-1.4295 1.037,-2.0938 z m 4.2659999,0.3849 c 0.03,1.2418 0.161,2.5056 0.378,3.787 -1.598,1.0184 -3.05,2.1407 -4.318,3.3783 -0.202,-1.2332 -0.2909999,-2.4585 -0.2549999,-3.673 1.2009999,-1.3384 2.6119999,-2.4989 4.1949999,-3.4923 z m 66.248001,0 c 1.731,0.6082 3.359,1.317 4.867,2.1214 -0.143,1.1857 -0.355,2.3925 -0.637,3.6179 -0.01,-0.01 -0.02,-0.01 -0.03,-0.016 -1.393,-0.8666 -2.887,-1.6702 -4.451,-2.4198 0.125,-1.1183 0.205,-2.2185 0.247,-3.3037 z m -10.654001,0.11 c 0.62,0.1741 1.235,0.3541 1.842,0.5422 0.226,1.1836 0.425,2.388 0.594,3.6101 -0.408,-0.2114 -0.819,-0.4192 -1.234,-0.6246 -0.374,-1.1972 -0.78,-2.3695 -1.202,-3.5277 z m -46.012,0.1179 c -0.01,1.4938 0.03,3.0208 0.152,4.5726 -1.389,0.6995 -2.724,1.4407 -3.999,2.2195 -0.361,-1.5984 -0.644,-3.1752 -0.824,-4.714 -0.01,-0.083 -0.02,-0.1645 -0.02,-0.2475 0.08,-0.035 0.15,-0.075 0.228,-0.11 1.412,-0.6377 2.91,-1.2073 4.466,-1.7206 z m 12.401,0.491 c -0.03,0.04 -0.06,0.078 -0.09,0.1179 -1.053,0.5122 -2.096,1.0347 -3.12,1.5831 0.12,-0.2669 0.232,-0.5405 0.355,-0.8053 0.938,-0.3157 1.889,-0.6112 2.851,-0.8957 z m 36.141,0.1532 c 1.347,0.432 2.658,0.9013 3.932,1.4025 0.02,1.3691 0,2.7621 -0.06,4.1758 -1.066,-0.6399 -2.172,-1.25 -3.296,-1.8463 -0.166,-1.2606 -0.35,-2.5097 -0.577,-3.732 z m -8.705,0.224 c 0.08,0.03 0.158,0.056 0.236,0.086 0.873,0.5215 1.743,1.0465 2.596,1.5949 0.625,0.7995 1.227,1.6167 1.827,2.4395 0.03,0.073 0.07,0.1471 0.106,0.22 -0.767,-0.7507 -1.531,-1.503 -2.326,-2.2274 -0.796,-0.7257 -1.62,-1.4173 -2.439,-2.1134 z m -31.101,0.8053 c -0.153,0.3391 -0.302,0.6827 -0.451,1.0253 -0.329,0.181 -0.658,0.3614 -0.982,0.546 0.1,-0.3906 0.187,-0.784 0.29,-1.1706 0.377,-0.1383 0.761,-0.2676 1.143,-0.4007 z m 2.828,0 c -0.168,0.2438 -0.328,0.4964 -0.494,0.7424 -0.48,0.5034 -0.973,0.9941 -1.442,1.5085 -0.466,0.5115 -0.905,1.046 -1.36,1.5674 -0.232,0.1911 -0.472,0.3765 -0.702,0.5696 0.385,-0.9849 0.788,-1.9533 1.206,-2.9148 0.919,-0.5047 1.846,-0.9977 2.792,-1.4731 z m -16.864,0.4439 c 0,0.01 0,0.018 0,0.027 0.191,1.6297 0.495,3.2991 0.884,4.989 -0.952,0.5988 -1.86,1.2192 -2.734,1.862 -0.605,-1.7329 -1.068,-3.4466 -1.379,-5.1265 1.015,-0.6262 2.093,-1.2087 3.225,-1.752 z m 67.423001,0.1021 c 1.139,0.6421 2.208,1.3417 3.189,2.1056 -0.179,1.2298 -0.467,2.4726 -0.845,3.724 -0.943,-0.7609 -1.948,-1.4873 -3.013,-2.1763 0.291,-1.2331 0.516,-2.4525 0.669,-3.6533 z m -9.013001,0.079 c 0.898001,0.365 1.776001,0.7475 2.629001,1.1471 -0.176,1.4472 -0.42,2.9209 -0.728,4.4115 -0.645,-0.4302 -1.307,-0.8516 -1.979001,-1.2649 0.08,-1.453 0.1,-2.8843 0.08,-4.2937 z m -46.232,0.019 c -0.115,0.444 -0.226,0.8905 -0.334,1.3395 -1.084,0.6317 -2.135,1.2905 -3.17,1.9603 0.03,-0.6447 0.07,-1.2852 0.118,-1.921 1.103,-0.4834 2.232,-0.943 3.386,-1.3788 z m 37.099,0.2632 c 0.917,0.4093 1.82,0.8275 2.711,1.2649 0.09,0.2795 0.159,0.5671 0.244,0.8485 -0.943,-0.6796 -1.907,-1.3402 -2.884,-1.9877 -0.02,-0.043 -0.05,-0.083 -0.07,-0.1257 z m -36.113,1.0685 c -0.452,1.0683 -0.875,2.154 -1.289,3.2487 -0.03,0.034 -0.07,0.068 -0.113,0.1021 0.194,-0.9827 0.4,-1.9559 0.628,-2.9187 0.255,-0.1473 0.517,-0.2871 0.774,-0.4321 z m 48.471001,0.082 c 1.476,0.7141 2.885,1.4759 4.2,2.2941 0.07,0.045 0.137,0.093 0.208,0.1375 -0.01,0.08 -0.03,0.1592 -0.06,0.2397 -0.382,1.5018 -0.873,3.0276 -1.442,4.5647 -1.16,-0.9396 -2.384,-1.85 -3.669,-2.7263 0.32,-1.5229 0.573,-3.0275 0.758,-4.5097 z m -11.690001,0.1336 c 0.876,0.5963 1.732,1.2047 2.577,1.8266 0.288,1.0105 0.56,2.0266 0.813,3.0563 -0.202,-0.2206 -0.412,-0.437 -0.616,-0.656 -0.384,-0.5795 -0.752,-1.1692 -1.148,-1.7403 -0.399,-0.575 -0.825,-1.1276 -1.237,-1.6931 -0.131,-0.2633 -0.255,-0.5321 -0.389,-0.7935 z m -41.805,0.1139 c -0.05,0.6757 -0.08,1.3577 -0.11,2.0427 -0.574,0.3792 -1.141,0.7608 -1.697,1.151 -0.09,-0.7507 -0.163,-1.4951 -0.224,-2.2352 0.665,-0.3289 1.342,-0.648 2.031,-0.9585 z m -17.2299999,0.012 c 0.01,1.156 0.13,2.3198 0.346,3.4883 -0.822,0.8582 -1.559,1.767 -2.204,2.7263 -0.108,-1.1152 -0.111,-2.2429 0,-3.3823 0.531,-1.0153 1.152,-1.959 1.854,-2.8323 z m 5.2949999,0.2278 c 0.323,1.6889 0.794,3.4033 1.403,5.1304 0,0.011 0,0.024 0.01,0.035 0,0.01 -0.01,0.013 -0.03,0.019 -1.458,1.1087 -2.795,2.286 -3.992,3.5198 -0.772,-1.7512 -1.332,-3.5039 -1.681,-5.2443 1.248,-1.2635 2.678,-2.4206 4.286,-3.4609 z m 56.553,0.019 c 0.359,0.1816 0.722,0.36 1.076,0.5461 0.05,0.3964 0.09,0.7985 0.134,1.1981 -0.297,-0.2252 -0.599,-0.4456 -0.9,-0.6678 -0.103,-0.3595 -0.203,-0.7196 -0.31,-1.0764 z m -41.126,0.275 c -0.239,1.048 -0.447,2.1125 -0.648,3.182 -0.815,0.7234 -1.62,1.4503 -2.396,2.1959 0,-1.1836 0.02,-2.3539 0.06,-3.5159 0.971,-0.636 1.961,-1.2592 2.977,-1.862 z m 59.530001,0.2554 c 1.439,1.1934 2.682,2.5298 3.696,4.0147 -0.124,1.2109 -0.374,2.4162 -0.738,3.6141 -1.093,-1.3948 -2.381,-2.7034 -3.83,-3.9244 0.383,-1.2422 0.677,-2.4772 0.872,-3.7044 z m 4.278,0.1846 c 0.282,0.7066 0.542,1.4332 0.75,2.2077 0.348,1.2977 0.54,2.5655 0.617,3.8066 -0.386,-0.8211 -0.824,-1.6125 -1.324,-2.3609 0.11,-1.215 0.1,-2.4327 -0.04,-3.6534 z m -20.934001,0.1689 c 1.087,0.5849 2.147,1.1894 3.178,1.8149 -0.03,0.6366 -0.08,1.2778 -0.138,1.921 -0.939,-0.8015 -1.895,-1.5909 -2.887,-2.361 -0.05,-0.4605 -0.1,-0.9183 -0.153,-1.3749 z m -49.003,0.1297 c 0.06,0.7727 0.152,1.5502 0.249,2.3334 -1.183,0.8472 -2.318,1.7225 -3.407,2.6163 -0.274,-0.9293 -0.523,-1.8532 -0.742,-2.7695 1.241,-0.765 2.544,-1.4905 3.9,-2.1802 z m 8.679,0.5499 c -0.562,0.9164 -1.124,1.8325 -1.654,2.7695 -0.53,0.9355 -1.026,1.8881 -1.521,2.8402 0.01,-0.081 0.02,-0.1625 0.03,-0.2436 0.315,-0.9687 0.633,-1.933 0.978,-2.8873 0.64,-0.7869 1.304,-1.5577 1.972,-2.3256 0.06,-0.051 0.126,-0.102 0.189,-0.1532 z m 39.177,0.5107 c 0.234,0.1767 0.476,0.3478 0.707,0.5264 0.1,0.9863 0.176,1.98 0.24,2.9816 -0.04,-0.038 -0.06,-0.076 -0.1,-0.1139 -0.265,-1.1414 -0.541,-2.2739 -0.848,-3.3941 z m 13.246001,0.2161 c 1.052,0.6894 2.044,1.4119 2.97,2.1684 -0.53,1.6235 -1.215,3.2614 -2.043,4.8986 -0.783,-0.7533 -1.602,-1.4917 -2.467,-2.2116 0.608,-1.6227 1.129,-3.2348 1.532,-4.824 0,-0.011 0,-0.021 0,-0.031 z m -58.591001,0.2553 c -0.04,1.2329 -0.06,2.473 -0.05,3.728 -0.33,0.3243 -0.655,0.6503 -0.977,0.9782 -0.221,-1.2125 -0.409,-2.4163 -0.563,-3.6102 0.522,-0.3693 1.05,-0.7363 1.588,-1.096 z m 50.275,0.5186 c 0.642001,0.3992 1.273001,0.8072 1.890001,1.2216 -0.159,0.7248 -0.333,1.4528 -0.519,2.1842 -0.498,-0.4583 -1.008001,-0.9133 -1.524001,-1.3631 0.06,-0.6835 0.111,-1.3661 0.153,-2.0427 z m -3.532,0.063 c 0.932,0.7337 1.829,1.4859 2.71,2.247 -0.108,1.1575 -0.237,2.3201 -0.4,3.4923 -0.671,-0.8413 -1.374,-1.6662 -2.086,-2.4906 -0.06,-1.0902 -0.124,-2.1749 -0.224,-3.2487 z m -53.724,0.4164 c 0.231,0.9466 0.498,1.9011 0.786,2.8598 -0.767,0.6437 -1.515,1.2954 -2.227,1.9603 -0.451,-0.9998 -0.851,-1.9975 -1.215,-2.9895 0.849,-0.6295 1.731,-1.2424 2.656,-1.8306 z m -9.6399999,0.44 c 0.3799999,1.7302 0.9759999,3.4649 1.7519999,5.1932 -0.884,0.9532 -1.6839999,1.9407 -2.3919999,2.962 -0.78,-1.7013 -1.322,-3.4447 -1.592,-5.2247 0.638,-1.0356 1.385,-2.0104 2.232,-2.9305 z m 14.4529999,0.082 c 0.163,1.2306 0.374,2.472 0.608,3.7201 -0.882,0.9162 -1.739,1.8414 -2.553,2.7813 -0.502,-1.3225 -0.957,-2.6397 -1.359,-3.948 1.055,-0.8731 2.157,-1.7234 3.304,-2.5534 z m 46.212,0.01 c 0.06,0.059 0.114,0.1172 0.17,0.1767 0.562,0.8527 1.12,1.7051 1.653,2.5731 0.216,0.9904 0.402,1.9889 0.586,2.9895 0,0.081 0,0.1623 0,0.2435 -0.367,-1.0108 -0.73,-2.022 -1.132,-3.0209 -0.402,-0.9992 -0.845,-1.979 -1.281,-2.9619 z m -63.7059999,0.031 c 0,0.9084 0.04,1.8102 0.17,2.7027 -0.626,1.0464 -1.143,2.1509 -1.545,3.3116 0.06,-0.7609 0.134,-1.5321 0.283,-2.3217 0.251,-1.3193 0.624,-2.5415 1.092,-3.6926 z m 22.4359999,0.3771 c 0,0.05 -0.02,0.099 -0.03,0.1493 -0.725,0.9168 -1.437,1.8369 -2.121,2.7734 0,-0.2927 -0.03,-0.5883 -0.03,-0.88 0.709,-0.6914 1.438,-1.3695 2.181,-2.0427 z m 49.949001,0.1925 c 1.253,0.8629 2.449,1.7568 3.578,2.6791 -0.337,0.8766 -0.708,1.7577 -1.1,2.6398 -0.961,-1.029 -1.974,-2.0414 -3.032,-3.0366 0.198,-0.7635 0.386,-1.5252 0.554,-2.2823 z m 9.356,0.2043 c 1.457,1.2435 2.721,2.5777 3.791,3.9951 -0.576,1.679 -1.364,3.3432 -2.361,4.97721 -1.024,-1.3816 -2.193,-2.72301 -3.492,-4.01481 0,-0.01 -0.02,-0.015 -0.03,-0.023 0,-0.012 0.01,-0.023 0.02,-0.035 0.832,-1.6309 1.527,-3.2678 2.071,-4.8986 z m 5.276,0.4713 c 0.581,0.9588 1.069,1.9755 1.462,3.0524 -0.04,1.1432 -0.187,2.2606 -0.44,3.3509 -0.513,-1.0356 -1.126,-2.0308 -1.827,-2.9895 0.368,-1.1308 0.64,-2.2685 0.805,-3.4138 z m -77.514001,0.4125 c 0.378,1.016 0.792,2.0385 1.257,3.0602 -1.251,1.1983 -2.418,2.4244 -3.472,3.68091 0,0.01 -0.01,0.016 -0.02,0.023 -0.648,-1.07671 -1.231,-2.15501 -1.737,-3.23701 1.184,-1.2343 2.515,-2.4101 3.972,-3.5276 z m 60.194,0.1022 c 0.484,0.4263 0.959001,0.8587 1.426001,1.2924 -0.31,1.1641 -0.654,2.3342 -1.033001,3.508 -0.276,-0.3679 -0.557,-0.7346 -0.841,-1.0999 0.183,-1.2416 0.327,-2.4733 0.448,-3.7005 z m -47.498,0.047 c -0.05,0.2904 -0.08,0.5845 -0.125,0.876 -0.215,0.6649 -0.448,1.3216 -0.648,1.9916 -0.2,0.669 -0.366,1.3464 -0.55,2.0192 -0.125,0.2677 -0.256,0.5331 -0.377,0.8014 -0.08,-1.0549 -0.136,-2.1031 -0.177,-3.1505 0.61,-0.8535 1.232,-1.6992 1.877,-2.5377 z m -8.536,1.147 c 0.419,1.3441 0.892,2.698 1.415,4.0541 -0.511,0.602 -1.009,1.2053 -1.489,1.81491 -0.756,-1.32261 -1.449,-2.64561 -2.067,-3.96761 0.686,-0.6442 1.404,-1.2762 2.141,-1.9014 z m 5.98,0.079 c 0,0.3725 0.02,0.7459 0.04,1.1196 -0.218,0.306 -0.436,0.6116 -0.649,0.9193 -0.08,-0.3944 -0.168,-0.7894 -0.243,-1.1825 0.279,-0.2873 0.567,-0.5716 0.853,-0.8564 z m 47.049,0.279 c 0.647,0.7655 1.279,1.5347 1.889,2.3138 -0.04,0.2885 -0.1,0.579 -0.145,0.8681 -0.553,-1.0195 -1.137,-2.027 -1.736,-3.0327 0,-0.05 0,-0.099 0,-0.1492 z m 4.950001,0.2356 c 1.027,0.9742 2.008,1.9651 2.938,2.9699 -0.571,1.2431 -1.194,2.48791 -1.866,3.73191 -0.682,-1.0377 -1.412,-2.06441 -2.164,-3.08771 0.397,-1.2077 0.766,-2.4145 1.092,-3.6141 z m -71.3080009,0.09 c 0.33,1.6996 0.881,3.3657 1.654,4.98901 -0.98,1.5067 -1.747,3.0851 -2.298,4.7258 -0.597,-1.5665 -0.967,-3.2153 -1.08,-4.9458 0.341,-1.70431 0.924,-3.29211 1.724,-4.76901 z m 76.1510009,0.027 c 0.84,0.7049 1.631,1.4289 2.389,2.1646 -0.492,0.9355 -1.02,1.8692 -1.599,2.80091 -0.618,-0.75211 -1.275,-1.49701 -1.949,-2.23521 0.411,-0.9121 0.806,-1.8226 1.159,-2.7303 z m -58.230001,0.7582 c 0.09,0.4497 0.182,0.9004 0.279,1.3514 -0.702,1.0393 -1.361,2.0901 -2.003,3.14261 -0.251,-0.59531 -0.498,-1.18891 -0.73,-1.78341 0.784,-0.915 1.603,-1.8167 2.454,-2.7106 z m 48.484,0.3379 c 0.529,0.9156 1.033,1.836 1.525,2.7616 -0.18,1.03421 -0.371,2.06681 -0.59,3.10341 -0.09,-0.2836 -0.183,-0.5653 -0.271,-0.8485 -0.09,-0.6916 -0.169,-1.3845 -0.279,-2.07421 -0.11,-0.6874 -0.255,-1.3663 -0.38,-2.0506 0,-0.2969 0,-0.5955 0,-0.8917 z m -47.022,0.436 c 0.06,1.1578 0.149,2.3196 0.251,3.48441 -0.01,0.047 -0.04,0.094 -0.06,0.1415 -0.251,-0.97021 -0.486,-1.93641 -0.699,-2.90311 0.165,-0.2419 0.339,-0.4817 0.507,-0.7228 z m -8.67,0.1218 c 0.638,1.3512 1.347,2.7019 2.125,4.05011 -0.948,1.2322 -1.83,2.4784 -2.639,3.7319 -1.019,-1.2832 -1.96,-2.581 -2.789,-3.889 -0.05,-0.071 -0.09,-0.1413 -0.131,-0.2122 0.06,-0.065 0.103,-0.1313 0.158,-0.1964 0.995,-1.18661 2.097,-2.34721 3.276,-3.48441 z m 74.933001,0.055 c 0.718,1.0237 1.329,2.0911 1.823,3.20161 -0.502,1.7283 -1.265,3.3863 -2.263,4.9693 -0.567,-1.1053 -1.233,-2.1876 -1.984,-3.2487 0.998,-1.6121 1.819,-3.25581 2.424,-4.92221 z m -80.900001,0.3103 c 0.519,1.0941 1.112,2.1824 1.772,3.26451 -0.798,0.9858 -1.529,1.9889 -2.189,3.0052 -0.748,-1.0728 -1.407,-2.1664 -1.9599999,-3.2802 0.6949999,-1.03041 1.4939999,-2.02551 2.3769999,-2.98951 z m 83.898001,0.2122 c 0.312,1.2032 0.523,2.46551 0.597,3.80651 0.04,0.8011 0.02,1.5737 -0.02,2.3335 -0.245,-1.2038 -0.614,-2.3683 -1.096,-3.4884 0.242,-0.86621 0.411,-1.75201 0.522,-2.65161 z m -9.637,0.3889 c 1.297,1.2994 2.459,2.63971 3.469,4.01861 -0.644,1.0074 -1.363,2.0024 -2.149,2.9856 0,-0.01 -0.01,-0.019 -0.02,-0.027 -0.878,-1.3851 -1.874,-2.7555 -2.957,-4.1091 0.597,-0.95201 1.145,-1.90951 1.653,-2.86761 z m -10.233001,0.023 c 0.246,0.3204 0.495,0.6402 0.735,0.9624 -0.127,0.3799 -0.267,0.7589 -0.401,1.13921 -0.17,-0.33241 -0.348,-0.66251 -0.523,-0.99391 0.06,-0.3698 0.131,-0.7386 0.189,-1.1077 z m -50.393,0.326 c 0.239,1.0492 0.515,2.09871 0.798,3.15051 -0.421,1.0077 -0.834,2.0139 -1.21,3.0248 -0.52,-1.0629 -0.998,-2.1317 -1.461,-3.1976 0.6,-0.9969 1.217,-1.99131 1.873,-2.97771 z m 2.856,0.059 c -0.109,1.0689 -0.219,2.13571 -0.291,3.20941 -0.07,1.0718 -0.104,2.1454 -0.137,3.2174 -0.02,-0.077 -0.05,-0.1544 -0.08,-0.2318 -0.137,-1.0102 -0.266,-2.0181 -0.369,-3.0288 0.234,-0.9813 0.495,-1.95801 0.762,-2.93441 0.04,-0.077 0.07,-0.1544 0.11,-0.2318 z m 53.473001,0.33 c 0.648,0.7162 1.276,1.43631 1.87,2.16451 -0.788,1.2293 -1.646,2.4536 -2.569,3.6651 -0.396,-0.6681 -0.807,-1.3349 -1.234,-1.9995 0.697,-1.2752 1.34,-2.55321 1.933,-3.83011 z m -59.707001,0.6481 c 0.249,0.6303 0.514,1.25891 0.786,1.88961 -0.353,0.5899 -0.698,1.1794 -1.03,1.7717 -0.404,-0.6368 -0.791,-1.2778 -1.167,-1.9171 0.457,-0.5843 0.926,-1.16621 1.411,-1.74421 z m 54.961,0.2004 c 0.725001,0.99811 1.418001,2.00281 2.075001,3.01301 -0.309,0.5572 -0.628,1.114 -0.955,1.6696 -0.498,-1.1281 -1.016,-2.2554 -1.575001,-3.3784 0.156,-0.4348 0.308,-0.86961 0.455,-1.30421 z m -1.552,0.56961 c 0.135,0.2614 0.281,0.5198 0.413,0.7817 -0.339,0.9316 -0.703,1.8592 -1.08,2.7891 -0.01,-0.048 -0.02,-0.097 -0.03,-0.1453 0.256,-1.1425 0.494,-2.2839 0.703,-3.4255 z m -66.4269999,0.825 c 0.567,1.1058 1.2279999,2.1911 1.9789999,3.2526 -0.997,1.6107 -1.8149999,3.2533 -2.4199999,4.9183 -0.718,-1.0247 -1.327,-2.0901 -1.822,-3.2016 0.502,-1.7283 1.266,-3.3863 2.263,-4.9693 z m 85.8490009,0.1885 c 0.599,1.5675 0.968,3.218 1.08,4.9497 -0.339,1.7042 -0.923,3.2922 -1.724,4.769 -0.329,-1.6996 -0.881,-3.3656 -1.654,-4.989 0.98,-1.5073 1.748,-3.0882 2.298,-4.7297 z m -80.971001,0.067 c 0,0.01 0.01,0.019 0.01,0.027 0.879,1.3853 1.875,2.7553 2.958,4.109 -0.598,0.9526 -1.145,1.909 -1.654,2.8677 -1.297,-1.2994 -2.459,-2.6398 -3.469,-4.0187 0.644,-1.0071 1.363,-2.0026 2.149,-2.9855 z m 59.519,0.165 c 0.02,0.077 0.05,0.1547 0.07,0.2318 0.137,1.0116 0.27,2.0205 0.374,3.0327 -0.234,0.9813 -0.495,1.958 -0.763,2.9344 -0.04,0.077 -0.07,0.1543 -0.11,0.2318 0.109,-1.069 0.22,-2.1357 0.291,-3.2095 0.07,-1.073 0.104,-2.148 0.138,-3.2212 z m 10.610001,0.02 c 1.019,1.284 1.959,2.5841 2.789,3.8929 0.05,0.071 0.09,0.1413 0.13,0.2122 -0.06,0.065 -0.103,0.1313 -0.157,0.1964 -0.996,1.1866 -2.097,2.3472 -3.277,3.4845 -0.637,-1.3498 -1.348,-2.6994 -2.125,-4.0462 0.95,-1.2343 1.829,-2.4841 2.64,-3.7398 z m -63.816001,0.2553 c 0.395,0.6672 0.811,1.3319 1.238,1.9956 -0.697,1.2752 -1.34,2.5532 -1.933,3.8301 -0.649,-0.717 -1.276,-1.4394 -1.87,-2.1684 0.786,-1.2269 1.643,-2.448 2.565,-3.6573 z m 56.046,0.039 c 0.519,1.063 0.998001,2.1318 1.461001,3.1977 -0.6,0.9968 -1.218001,1.9913 -1.874001,2.9777 -0.238,-1.0485 -0.514,-2.0995 -0.797,-3.1505 0.421,-1.0077 0.833,-2.0139 1.21,-3.0249 z m -53.115,0.2554 c 0.497,1.1281 1.015,2.2553 1.575,3.3784 -0.156,0.4347 -0.308,0.8695 -0.456,1.3042 -0.726,-0.9981 -1.416,-2.0028 -2.074,-3.0131 0.308,-0.5571 0.627,-1.114 0.955,-1.6695 z m -18.1339999,0.5185 c 0.246,1.2022 0.615,2.3618 1.097,3.4805 -0.244,0.8688 -0.411,1.757 -0.523,2.6595 -0.313,-1.2032 -0.524,-2.4655 -0.597,-3.8066 -0.04,-0.801 -0.02,-1.5736 0.02,-2.3334 z m 21.4729999,0.023 c 0.01,0.047 0.02,0.094 0.04,0.1414 -0.256,1.144 -0.498,2.2863 -0.707,3.4294 -0.134,-0.2613 -0.281,-0.5198 -0.413,-0.7817 0.339,-0.9315 0.704,-1.8591 1.081,-2.7891 z m 63.415001,0.059 c 0.748,1.0724 1.407,2.1667 1.96,3.2802 -0.695,1.0312 -1.493,2.0287 -2.376,2.9934 -0.521,-1.0955 -1.111,-2.185 -1.772,-3.2684 0.797,-0.9861 1.528,-1.9886 2.188,-3.0052 z m -10.434,0.6207 c 0.405,0.6374 0.795,1.2771 1.171,1.917 -0.457,0.5857 -0.928,1.1649 -1.415,1.7442 -0.25,-0.6317 -0.513,-1.2613 -0.785,-1.8935 0.351,-0.5885 0.699,-1.1769 1.029,-1.7677 z m -52.576001,0.7071 c 0.09,0.2821 0.182,0.5628 0.27,0.8446 0.09,0.6927 0.169,1.3871 0.279,2.0781 0.111,0.6912 0.255,1.3742 0.381,2.0623 0,0.2933 0,0.5874 0,0.88 -0.529,-0.916 -1.032,-1.8356 -1.524,-2.7616 0.179,-1.0343 0.371,-2.0669 0.589,-3.1034 z m -5.041,0.3771 c 0.683,1.0377 1.412,2.0644 2.165,3.0877 -0.397,1.2077 -0.767,2.4145 -1.092,3.6141 -1.028,-0.9746 -2.007,-1.9647 -2.939,-2.9699 0.572,-1.2431 1.194,-2.4879 1.866,-3.7319 z m -10.457,0.5068 c 1.023,1.38 2.191,2.7204 3.488,4.0108 0.01,0.01 0.02,0.018 0.03,0.028 0,0.01 -0.01,0.021 -0.02,0.031 -0.831,1.6309 -1.527,3.2678 -2.07,4.8986 -1.456,-1.243 -2.725,-2.5784 -3.7949999,-3.9951 0.576,-1.6783 1.3689999,-3.3399 2.3649999,-4.9732 z m 66.641001,0.821 c 0.252,0.5964 0.497,1.1918 0.73,1.7874 -0.784,0.9145 -1.605,1.8171 -2.455001,2.7105 -0.09,-0.4509 -0.181,-0.903 -0.279,-1.3552 0.703,-1.0394 1.361001,-2.0902 2.004001,-3.1427 z m -3.379001,0.098 c 0.251,0.971 0.487,1.9395 0.699,2.907 -0.164,0.241 -0.339,0.4787 -0.507,0.7189 -0.06,-1.1583 -0.148,-2.3192 -0.251,-3.4845 0.02,-0.047 0.04,-0.094 0.06,-0.1414 z m 6.320001,0 c 0.757,1.3218 1.446,2.6463 2.063,3.9676 -0.685,0.6442 -1.403,1.2762 -2.141,1.9013 -0.418,-1.3434 -0.888,-2.6946 -1.41,-4.05 0.511,-0.6027 1.008,-1.2087 1.488,-1.8189 z m -63.689001,0.1886 c 0.618,0.7535 1.277,1.4995 1.952,2.2391 -0.411,0.9121 -0.806,1.8226 -1.159,2.7302 -0.84,-0.7048 -1.63,-1.4289 -2.388,-2.1645 0.492,-0.9355 1.015,-1.8732 1.595,-2.8048 z m 70.011001,0.2121 c 0.648,1.0767 1.23,2.155 1.736,3.2369 -1.183,1.2343 -2.514,2.4102 -3.972,3.5277 -0.377,-1.016 -0.791,-2.0386 -1.257,-3.0602 1.252,-1.1982 2.419,-2.4244 3.473,-3.6808 0,-0.01 0.01,-0.016 0.02,-0.023 z m -62.175001,0.012 c 0.17,0.3323 0.348,0.6624 0.523,0.9939 -0.06,0.3698 -0.13,0.7386 -0.189,1.1078 -0.246,-0.3205 -0.495,-0.6403 -0.734,-0.9625 0.126,-0.3799 0.267,-0.7589 0.4,-1.1392 z m 67.041001,0.3732 c 0.78,1.7011 1.322,3.4448 1.592,5.2247 -0.638,1.0373 -1.387,2.0129 -2.236,2.9345 -0.379,-1.7299 -0.972,-3.4655 -1.748,-5.1933 0.885,-0.9534 1.684,-1.9444 2.392,-2.9659 z m -85.6370009,0.3849 c 0.513,1.036 1.126,2.0345 1.826,2.9934 -0.368,1.1308 -0.64,2.2685 -0.805,3.4138 -0.581,-0.9588 -1.069,-1.9755 -1.461,-3.0524 0.04,-1.1447 0.185,-2.2632 0.44,-3.3548 z m 67.5399999,0.1572 c 0.08,1.0549 0.136,2.1031 0.176,3.1505 -0.609,0.8535 -1.231,1.6992 -1.877,2.5377 0.05,-0.2917 0.08,-0.5872 0.125,-0.8799 0.215,-0.6644 0.449,-1.3222 0.649,-1.9917 0.199,-0.6671 0.365,-1.3403 0.549,-2.0113 0.126,-0.2687 0.256,-0.5359 0.378,-0.8053 z m -49.592,0.9349 c 0.277,0.3679 0.557,0.7347 0.842,1.1 -0.183,1.2416 -0.327,2.4732 -0.449,3.7005 -0.482,-0.4252 -0.96,-0.8561 -1.426,-1.2885 0.31,-1.1654 0.655,-2.3369 1.033,-3.512 z m 1.654,0.067 c 0.553,1.0186 1.139,2.024 1.737,3.0288 0,0.051 0,0.1019 0,0.1532 -0.648,-0.7655 -1.279,-1.5347 -1.89,-2.3138 0.04,-0.2885 0.1,-0.5791 0.145,-0.8682 z m 52.887001,0.031 c 0.503,1.3225 0.957,2.6397 1.36,3.948 -1.057,0.8742 -2.16,1.7263 -3.308001,2.5574 -0.165,-1.2331 -0.371,-2.4774 -0.605,-3.728 0.881001,-0.9154 1.740001,-1.8384 2.553001,-2.7774 z m 16.924,0.4479 c -0.06,0.7608 -0.134,1.532 -0.283,2.3216 -0.249,1.3192 -0.624,2.5416 -1.092,3.6927 0,-0.9084 -0.04,-1.8103 -0.169,-2.7027 0.626,-1.0464 1.142,-2.151 1.544,-3.3116 z m -67.493001,0.063 c 0.366,1.0108 0.729,2.022 1.131,3.0209 0.403,0.9992 0.845,1.9791 1.281,2.9619 -0.06,-0.061 -0.116,-0.1198 -0.172,-0.1807 -0.562,-0.8496 -1.12,-1.7002 -1.651,-2.5652 -0.216,-0.9916 -0.402,-1.9915 -0.585,-2.9934 0,-0.081 0,-0.1623 0,-0.2435 z m -8.744,0.063 c 0.961,1.029 1.973,2.0415 3.032,3.0366 -0.198,0.7636 -0.386,1.5253 -0.554,2.2824 -1.255,-0.8635 -2.452,-1.7562 -3.582,-2.6791 0.338,-0.878 0.71,-1.7563 1.104,-2.6399 z m -4.318,0.6364 c 0.782,0.7529 1.603,1.4921 2.468,2.2117 -0.608,1.6226 -1.129,3.2348 -1.532,4.8239 0,0.011 0,0.021 0,0.031 -1.053,-0.6894 -2.045,-1.4119 -2.97,-2.1684 0.53,-1.6234 1.215,-3.2614 2.043,-4.8987 z m 60.143,0.1807 c 0.08,0.3947 0.172,0.789 0.248,1.1824 -0.278,0.2866 -0.569,0.5686 -0.853,0.8524 0,-0.3721 -0.02,-0.7461 -0.04,-1.1195 0.215,-0.3045 0.432,-0.6092 0.643,-0.9153 z m -49.677,0.3103 c 0.67,0.8413 1.374,1.6663 2.086,2.4906 0.06,1.088 0.12,2.1731 0.22,3.2448 -0.931,-0.7332 -1.826,-1.4866 -2.708,-2.247 0.109,-1.1561 0.239,-2.3177 0.402,-3.4884 z m 63.465001,0.1808 c 0.773,1.752 1.333,3.503 1.682,5.2443 -1.249,1.2638 -2.678,2.4203 -4.286,3.4608 -0.323,-1.6889 -0.793,-3.4033 -1.402,-5.1304 0,-0.012 -0.01,-0.023 -0.01,-0.035 0.01,-0.01 0.01,-0.016 0.03,-0.023 1.459,-1.1092 2.794,-2.2813 3.991,-3.5158 z m -5.99,0.3221 c 0.451,0.9997 0.85,1.9974 1.214,2.9894 -0.85,0.6295 -1.73,1.2425 -2.656,1.8306 -0.229,-0.9459 -0.499,-1.9018 -0.785,-2.8598 0.766,-0.6437 1.515,-1.2954 2.227,-1.9602 z m -74.5290009,0.2042 c 1.093,1.3948 2.3809999,2.7035 3.8309999,3.9245 -0.383,1.2421 -0.677,2.4771 -0.873,3.7044 -1.438,-1.1934 -2.6819999,-2.5298 -3.6959999,-4.0148 0.124,-1.2111 0.374,-2.4158 0.738,-3.6141 z m 65.4819999,0.7464 c 0,0.294 0.03,0.5908 0.03,0.8839 -0.709,0.6915 -1.438,1.3694 -2.181,2.0427 0,-0.049 0.02,-0.096 0.03,-0.1453 0.726,-0.9189 1.436,-1.8427 2.121,-2.7813 z m 1.649,0.1611 c 0.221,1.2122 0.409,2.4164 0.563,3.6101 -0.521,0.3693 -1.05,0.7364 -1.587,1.096 0.04,-1.234 0.06,-2.4756 0.05,-3.7319 0.329,-0.3238 0.656,-0.6468 0.978,-0.9742 z m -4.018,0.078 c -0.01,0.081 -0.02,0.1625 -0.03,0.2436 -0.314,0.9687 -0.633,1.9329 -0.978,2.8873 -0.642,0.7888 -1.306,1.5599 -1.976,2.3295 -0.06,0.05 -0.124,0.099 -0.185,0.1493 0.562,-0.9163 1.123,-1.8325 1.654,-2.7695 0.529,-0.9355 1.025,-1.8881 1.52,-2.8402 z m -65.7989999,0.4439 c 0.386,0.8227 0.822,1.6113 1.324,2.3609 -0.111,1.2162 -0.1,2.4354 0.04,3.6573 -0.284,-0.7082 -0.542,-1.4391 -0.751,-2.2156 -0.347,-1.2976 -0.539,-2.5615 -0.616,-3.8026 z m 12.2599999,0 c 1.16,0.9397 2.385,1.8499 3.669,2.7263 -0.32,1.5229 -0.572,3.0275 -0.758,4.5097 -1.476,-0.7143 -2.884,-1.4756 -4.2,-2.2941 -0.07,-0.044 -0.137,-0.093 -0.208,-0.1375 0.01,-0.081 0.03,-0.162 0.06,-0.2436 0.381,-1.5012 0.872,-3.0244 1.441,-4.5608 z m 4.887,0.2593 c 0.498,0.4583 1.007,0.9133 1.524,1.3631 -0.06,0.6835 -0.112,1.3661 -0.153,2.0427 -0.643,-0.3992 -1.273,-0.8072 -1.89,-1.2217 0.158,-0.7247 0.332,-1.4527 0.519,-2.1841 z m 70.607001,0.4989 c 0.109,1.1165 0.107,2.2455 0,3.3862 -0.53,1.0151 -1.147,1.9592 -1.85,2.8323 -0.01,-1.1561 -0.134,-2.3197 -0.35,-3.4883 0.823,-0.859 1.562,-1.7699 2.208,-2.7302 z m -13.293,0.01 c 0.274,0.9292 0.523,1.8531 0.743,2.7695 -1.243,0.7659 -2.547,1.4936 -3.905,2.1841 -0.06,-0.7739 -0.148,-1.5529 -0.244,-2.3374 1.182,-0.8471 2.317,-1.7225 3.406,-2.6162 z m -6.242001,0.3103 c 0,1.1836 -0.02,2.354 -0.06,3.5159 -0.971,0.6361 -1.96,1.2593 -2.977,1.862 0.239,-1.048 0.447,-2.1124 0.648,-3.1819 0.815,-0.7235 1.62,-1.4503 2.396,-2.196 z m -45.718,0.071 c 0.03,0.036 0.06,0.074 0.09,0.11 0.265,1.1432 0.544,2.276 0.852,3.398 -0.234,-0.1767 -0.476,-0.3478 -0.707,-0.5264 -0.1,-0.9863 -0.177,-1.9799 -0.24,-2.9816 z m 56.152001,0.821 c 0.604,1.7327 1.067,3.4467 1.378,5.1265 -1.015,0.6265 -2.092,1.2125 -3.225,1.756 0,-0.01 0,-0.018 0,-0.028 -0.19,-1.6297 -0.494,-3.2991 -0.884,-4.989 0.953,-0.599 1.861,-1.223 2.735,-1.8659 z m -59.397001,0.1375 c 0.94,0.8021 1.894,1.5942 2.887,2.3649 0.05,0.4593 0.102,0.9155 0.158,1.3709 -1.087,-0.5846 -2.148,-1.1857 -3.178,-1.8109 0.03,-0.6378 0.08,-1.2804 0.133,-1.9249 z m 4.215,0.1139 c 0.202,0.2207 0.412,0.4371 0.617,0.6561 0.384,0.5794 0.75,1.1691 1.147,1.7402 0.397,0.572 0.821,1.1227 1.23,1.6853 0.132,0.265 0.257,0.5343 0.392,0.7974 -0.873,-0.5954 -1.728,-1.2019 -2.572,-1.8227 -0.289,-1.0105 -0.561,-2.0266 -0.814,-3.0563 z m -16.432,0.6993 c 0.943,0.7606 1.948,1.4836 3.013,2.1724 -0.291,1.2343 -0.515,2.4553 -0.667,3.6572 -1.14,-0.6421 -2.209,-1.3416 -3.19,-2.1056 0.178,-1.2297 0.467,-2.4726 0.844,-3.724 z m 9.455,0.1925 c 0.647,0.4301 1.308,0.8515 1.981,1.2649 -0.08,1.453 -0.1,2.8843 -0.08,4.2937 -0.897,-0.3648 -1.776,-0.7439 -2.628,-1.1432 0.175,-1.4484 0.42,-2.9236 0.726,-4.4154 z m -14.6159999,0.023 c 1.033,1.387 2.2529999,2.6488 3.6529999,3.7751 -0.23,1.784 -0.237,3.5417 -0.02,5.26 -1.217,-1.1518 -2.2659999,-2.4776 -3.1189999,-3.9872 -0.433,-1.6835 -0.595,-3.3694 -0.515,-5.0479 z m 68.5959999,0.6599 c 0.09,0.7507 0.159,1.4952 0.22,2.2353 -0.666,0.329 -1.342,0.6478 -2.031,0.9585 0.05,-0.6757 0.08,-1.3577 0.114,-2.0428 0.573,-0.3791 1.141,-0.7608 1.697,-1.151 z m -5.429,0.1729 c -0.195,0.9841 -0.401,1.9585 -0.628,2.9227 -0.255,0.1469 -0.518,0.2834 -0.775,0.4281 0.452,-1.0683 0.876,-2.1539 1.289,-3.2487 0.04,-0.033 0.08,-0.068 0.114,-0.1021 z m 19.983001,0.063 c 0.203,1.2343 0.292,2.4615 0.256,3.6769 -1.202,1.3386 -2.612,2.4989 -4.196,3.4923 -0.03,-1.2418 -0.161,-2.5056 -0.377,-3.787 1.598,-1.019 3.049,-2.1437 4.317,-3.3822 z m -9.676,0.1492 c 0.362,1.5985 0.646,3.1752 0.826,4.714 0.01,0.083 0.01,0.1645 0.02,0.2475 -0.08,0.036 -0.15,0.075 -0.228,0.11 -1.412,0.6378 -2.91,1.2073 -4.466,1.7207 0.01,-1.4931 -0.04,-3.0176 -0.158,-4.5687 1.392,-0.7002 2.728,-1.4438 4.003,-2.2235 z m -56.261001,0.5657 c 1.067,0.6403 2.172,1.2536 3.296,1.8503 0.166,1.2593 0.351,2.5069 0.578,3.728 -1.348,-0.4322 -2.663,-0.901 -3.936,-1.4025 -0.02,-1.3691 0,-2.7621 0.06,-4.1758 z m 44.85,0.1611 c -0.386,0.9849 -0.789,1.9534 -1.206,2.9148 -0.919,0.5047 -1.847,0.9977 -2.793,1.4731 0.169,-0.2438 0.328,-0.4964 0.495,-0.7424 0.48,-0.5034 0.973,-0.9942 1.441,-1.5085 0.47,-0.5142 0.91,-1.051 1.368,-1.5753 0.23,-0.1888 0.467,-0.371 0.695,-0.5617 z m -41.106,0.079 c 0.298,0.2259 0.602,0.4449 0.904,0.6678 0.103,0.3607 0.206,0.7224 0.314,1.0803 -0.362,-0.1825 -0.724,-0.363 -1.081,-0.55 -0.05,-0.3965 -0.09,-0.7984 -0.137,-1.1981 z m 45.297,0.3653 c -0.03,0.6434 -0.07,1.2825 -0.117,1.917 -1.104,0.4836 -2.233,0.9469 -3.386,1.3828 0.114,-0.444 0.226,-0.8906 0.334,-1.3395 1.083,-0.6318 2.134,-1.2905 3.169,-1.9603 z m -57.522,0.11 c 0.01,0.01 0.01,0.01 0.03,0.016 1.393,0.8666 2.888,1.6702 4.451,2.4198 -0.125,1.1183 -0.205,2.2185 -0.247,3.3038 -1.732,-0.6082 -3.36,-1.317 -4.868,-2.1213 0.144,-1.1852 0.356,-2.3932 0.637,-3.6181 z m 16.294,0.3025 c 0.768,0.7507 1.532,1.503 2.327,2.2273 0.795,0.7258 1.619,1.4173 2.438,2.1135 -0.08,-0.031 -0.16,-0.06 -0.239,-0.09 -0.873,-0.521 -1.741,-1.0432 -2.593,-1.591 -0.625,-0.7995 -1.226,-1.6167 -1.826,-2.4395 -0.04,-0.073 -0.07,-0.1471 -0.107,-0.22 z m 60.599001,0.035 c -0.24,1.22 -0.596,2.4522 -1.112,3.6926 -0.308,0.7419 -0.662,1.4295 -1.037,2.0938 0.302,-1.1913 0.475,-2.3991 0.527,-3.618 0.596,-0.6769 1.13,-1.404 1.622,-2.1684 z m -62.927001,0.4753 c 0.941,0.6784 1.903,1.3334 2.879,1.9799 0.02,0.045 0.05,0.089 0.07,0.1335 -0.916,-0.4087 -1.818,-0.8282 -2.707,-1.2649 -0.09,-0.2795 -0.16,-0.5671 -0.243,-0.8485 z m 46.166,0.436 c 0.106,1.5192 0.153,3.0117 0.136,4.4705 -0.898,0.2834 -1.816,0.5423 -2.754,0.7857 0.206,-1.3935 0.367,-2.8172 0.483,-4.2662 0.723,-0.3212 1.436,-0.6487 2.135,-0.99 z m -47.683,0.2279 c 0.408,0.2113 0.819,0.4191 1.233,0.6246 0.375,1.197 0.78,2.3696 1.202,3.5276 -0.621,-0.174 -1.234,-0.354 -1.842,-0.5421 -0.226,-1.1836 -0.424,-2.388 -0.593,-3.6101 z m -16.951,0.4085 c 0.991,0.7496 2.057,1.44 3.194,2.0703 -0.2,1.884 -0.225,3.7173 -0.05,5.48 -1.09,-0.6104 -2.102,-1.3047 -3.029,-2.0899 -0.298,-1.7764 -0.329,-3.6 -0.118,-5.4604 z m 58.096,0.3811 c -0.1,0.3902 -0.188,0.7843 -0.29,1.1706 -0.378,0.1383 -0.762,0.2676 -1.143,0.4007 0.153,-0.3392 0.301,-0.6827 0.451,-1.0253 0.329,-0.1811 0.658,-0.3613 0.982,-0.546 z m 15.938001,0.035 c 0.208,1.2917 0.327,2.5625 0.341,3.8066 -1.073,0.6277 -2.226,1.1795 -3.441,1.6656 0,-1.2136 -0.06,-2.4522 -0.177,-3.7162 1.147,-0.5426 2.241,-1.1261 3.277,-1.756 z m -55.068001,0.1925 c 0.97,0.4675 1.963,0.9092 2.962,1.3435 0.524,0.9563 1.055,1.9049 1.611,2.8283 -1.156,-0.2568 -2.291,-0.5456 -3.414,-0.8485 -0.405,-1.0909 -0.797,-2.1955 -1.159,-3.3233 z m 35.002,0 c -0.05,0.067 -0.09,0.1339 -0.134,0.2003 -0.705,0.738 -1.411,1.4727 -2.137,2.1842 -0.916,0.4303 -1.845,0.8364 -2.777,1.2374 -0.08,0.019 -0.16,0.036 -0.24,0.055 0.901,-0.5799 1.806,-1.1556 2.687,-1.7677 0.885,-0.6143 1.739,-1.2652 2.601,-1.9092 z m 7.872,0.031 c -0.121,1.4097 -0.282,2.7947 -0.488,4.1483 -1.329,0.329 -2.691,0.6177 -4.085,0.8682 0.387,-1.1819 0.738,-2.394 1.069,-3.6219 1.191,-0.4421 2.364,-0.9019 3.504,-1.3946 z m -52.262,0.2003 c 0.883,0.4103 1.796,0.7974 2.726,1.1707 0.02,0.9997 0.06,1.9914 0.142,2.962 -1.063,-0.2707 -2.091,-0.5814 -3.093,-0.9153 0.03,-1.0557 0.107,-2.1272 0.225,-3.2174 z m 69.543001,0.4715 c -0.141,1.6702 -0.519,3.3144 -1.167,4.9222 -1.048,1.3909 -2.265,2.5704 -3.63,3.5551 0.441,-1.6749 0.668,-3.418 0.676,-5.2168 1.536,-0.9318 2.913,-2.022 4.121,-3.2605 z m -22.914001,0.1178 c -0.12,0.2685 -0.234,0.5429 -0.358,0.8092 -0.938,0.3157 -1.89,0.6074 -2.852,0.8918 0.03,-0.04 0.06,-0.077 0.09,-0.1179 1.054,-0.5122 2.096,-1.0347 3.12,-1.5831 z m -43.271,0.8328 c 1.314,0.5108 2.666,0.9845 4.054,1.4221 0.153,0.7756 0.313,1.5417 0.492,2.298 -1.506,-0.2335 -2.971,-0.5191 -4.389,-0.8603 -0.08,-0.9375 -0.128,-1.8931 -0.157,-2.8598 z m 44.689,0.019 c -0.329,1.1913 -0.684,2.3587 -1.065,3.5041 -0.629,0.1065 -1.265,0.2038 -1.905,0.2946 0.573,-1.0935 1.131,-2.2004 1.661,-3.3391 0.44,-0.1495 0.875,-0.3034 1.309,-0.4596 z m -34.743,0.094 c 0.05,0.019 0.09,0.04 0.138,0.059 0.733,0.9114 1.474,1.8088 2.236,2.6831 -0.289,-0.058 -0.582,-0.1045 -0.869,-0.165 -0.516,-0.844 -1.014,-1.7038 -1.505,-2.577 z m -19.099,0.019 c 1.521,0.7997 3.158,1.5018 4.887,2.1017 0.01,0 0.01,0.01 0.03,0.012 0,0.012 0,0.024 0,0.035 -0.04,1.8303 0.05,3.6061 0.263,5.3111 -1.85,-0.4882 -3.571,-1.1404 -5.15,-1.9524 -0.21,-1.7634 -0.22,-3.6022 -0.03,-5.5075 z m 66.374001,0.067 c 0.117,1.2531 0.167,2.4776 0.152,3.673 -1.599,0.5978 -3.307,1.0794 -5.102,1.4535 0.101,-1.0791 0.164,-2.1773 0.188,-3.2998 1.649,-0.5368 3.235,-1.1356 4.73,-1.8109 0.01,0 0.01,-0.011 0.03,-0.016 z m -45.931001,0.4636 c 0.278,0.1111 0.561,0.2097 0.84,0.3182 0.596,0.3546 1.181,0.727 1.784,1.0685 0.61,0.3451 1.233,0.6589 1.85,0.9899 0.233,0.1803 0.461,0.3684 0.696,0.5461 -1.048,-0.1575 -2.083,-0.3369 -3.115,-0.5304 -0.697,-0.7834 -1.382,-1.5768 -2.055,-2.3923 z m 31.262,0.1061 c -0.508,1.0692 -1.038,2.1116 -1.583,3.1387 -1.155,0.1522 -2.319,0.2906 -3.5,0.3928 0.672,-0.8421 1.321,-1.7141 1.967,-2.5927 1.049,-0.2986 2.093,-0.6034 3.116,-0.9388 z m -58.4499999,0.059 c 0.7439999,0.9801 1.5799999,1.8701 2.5029999,2.6712 0.157,0.885 0.389,1.7579 0.679,2.6163 -0.803,-0.9479 -1.544,-1.9906 -2.192,-3.1662 -0.3879999,-0.7051 -0.7029999,-1.4133 -0.9899999,-2.1213 z m 20.6349999,0.8052 c 0.648,0.1971 1.304,0.3846 1.965,0.5658 0.241,0.6423 0.49,1.2774 0.747,1.9052 -0.753,-0.081 -1.497,-0.1733 -2.232,-0.2789 -0.173,-0.721 -0.33,-1.4525 -0.48,-2.1921 z m 33.698,0.3693 c -0.602,0.8012 -1.211,1.5881 -1.834,2.357 -0.292,0.022 -0.588,0.032 -0.881,0.051 0.872,-0.767 1.722,-1.5611 2.57,-2.3688 0.05,-0.013 0.1,-0.026 0.145,-0.039 z m 13.395,0.2318 c -0.03,1.0953 -0.101,2.1666 -0.203,3.2173 -1.038,0.1988 -2.098,0.3668 -3.187,0.495 0.203,-0.9526 0.378,-1.9268 0.534,-2.9149 0.969,-0.247 1.927,-0.5079 2.856,-0.7974 z m -35.917,0.1257 c 1.017,0.3434 2.035,0.6899 3.065,0.9978 1.03,0.308 2.069,0.5735 3.107,0.8446 -0.08,0.01 -0.164,0.017 -0.247,0.023 -1.012,-0.091 -2.021,-0.1865 -3.026,-0.3103 -0.91,-0.4494 -1.807,-0.9253 -2.706,-1.4064 -0.06,-0.05 -0.129,-0.099 -0.193,-0.1493 z m 21.116,0.01 c -0.775,0.7191 -1.557,1.4172 -2.35,2.1016 -1.045,0.055 -2.093,0.092 -3.15,0.11 0.255,-0.1451 0.507,-0.2998 0.762,-0.4478 0.653,-0.2459 1.312,-0.474 1.96,-0.7346 0.646,-0.2597 1.275,-0.5511 1.913,-0.825 0.288,-0.07 0.579,-0.1317 0.865,-0.2042 z m -29.585,0.016 c 1.194,0.3147 2.398,0.6128 3.626,0.876 0.242,0.3935 0.486,0.7841 0.735,1.1706 -1.233,-0.055 -2.45,-0.1431 -3.65,-0.2592 -0.243,-0.5889 -0.48,-1.185 -0.711,-1.7874 z m -11.051,0.063 c 1.034,0.3392 2.09,0.6498 3.183,0.9231 0.156,1.7259 0.385,3.4053 0.711,5.0126 0,0.011 0,0.021 0,0.031 -1.248,-0.1644 -2.456,-0.3878 -3.619,-0.6678 -0.227,-1.6933 -0.317,-3.4647 -0.282,-5.2994 z m 65.042001,0.2161 c -0.03,1.8709 -0.307,3.6768 -0.836,5.3975 -1.023,0.6566 -2.122,1.2159 -3.284,1.6774 0.41,-1.7251 0.628,-3.5492 0.679,-5.4447 1.211,-0.4749 2.36,-1.0177 3.441,-1.6302 z m -13.124001,0.5381 c -0.156,0.9554 -0.335,1.8927 -0.534,2.8127 -1.45,0.1508 -2.938,0.242 -4.459,0.275 0.275,-0.7257 0.536,-1.4636 0.79,-2.2117 1.433,-0.2506 2.833,-0.543 4.203,-0.876 z m -36.396,0.22 c 0.364,0.074 0.733,0.1424 1.1,0.2121 0.25,0.2799 0.498,0.5614 0.749,0.8368 -0.403,-0.01 -0.808,-0.01 -1.209,-0.023 -0.219,-0.3363 -0.426,-0.6835 -0.64,-1.0253 z m 20.309,0.019 c -0.07,0.042 -0.144,0.084 -0.216,0.1257 -0.949,0.3563 -1.895,0.7097 -2.852,1.0332 -1.019,-0.01 -2.038,-0.05 -3.06,-0.094 -0.08,-0.016 -0.152,-0.035 -0.228,-0.051 1.065,-0.1317 2.13,-0.2589 3.19,-0.4282 1.062,-0.1694 2.113,-0.379 3.166,-0.5853 z m -32.004,0.079 c 1.454,0.3437 2.951,0.6359 4.49,0.8682 0.373,1.51 0.798,2.9766 1.273,4.3919 -1.638,0 -3.237,-0.081 -4.777,-0.2475 -0.08,-0.01 -0.164,-0.022 -0.247,-0.031 -0.01,-0.082 -0.04,-0.161 -0.06,-0.2436 -0.307,-1.519 -0.529,-3.1055 -0.683,-4.7376 z m 13.82,0.3104 c 1.144,0.2028 2.296,0.379 3.457,0.5381 0.04,0.03 0.08,0.057 0.121,0.086 -1.002,0.029 -1.998,0.043 -2.988,0.035 -0.201,-0.2148 -0.392,-0.4422 -0.59,-0.6599 z m -26.669,0.3024 c 0.909,0.7093 1.892,1.3425 2.938,1.9014 0.159,1.179 0.41,2.3256 0.758,3.4294 -0.941,-0.6123 -1.823,-1.3199 -2.644,-2.1213 -0.461,-1.0452 -0.808,-2.1184 -1.052,-3.2095 z m 56.029,0.067 c -0.245,0.7124 -0.5,1.4147 -0.765,2.1056 -0.743,0.01 -1.492,0 -2.248,-0.016 0.337,-0.589 0.666,-1.1858 0.99,-1.7913 0.679,-0.092 1.356,-0.1887 2.023,-0.2986 z m -38.015,0.2907 c 0.769,0.1072 1.549,0.1944 2.334,0.275 0.563,1.3411 1.163,2.6439 1.792,3.9048 -0.966,0.06 -1.923,0.1 -2.864,0.11 -0.47,-1.3808 -0.891,-2.8131 -1.262,-4.2898 z m 51.985001,0.051 c -0.06,1.9127 -0.319,3.7369 -0.759,5.4565 -1.672,0.5969 -3.462,1.0172 -5.362001,1.257 0.442,-1.6618 0.759001,-3.4121 0.959001,-5.2325 0,-0.012 0,-0.024 0,-0.035 0.01,0 0.02,-0.01 0.03,-0.01 1.794,-0.3668 3.507,-0.8451 5.122,-1.4378 z m -16.752001,0.043 c -0.307,0.566 -0.624,1.1265 -0.942,1.6774 -1.204,-0.043 -2.42,-0.1199 -3.649,-0.2278 0.296,-0.3496 0.589,-0.7036 0.879,-1.0607 1.254,-0.099 2.488,-0.2344 3.712,-0.3889 z m -32.18,0.2514 c 1.239,0.1138 2.5,0.1861 3.771,0.2357 0.697,1.0625 1.403,2.1056 2.137,3.1074 -1.402,0.1954 -2.785,0.3427 -4.152,0.4439 -0.616,-1.2225 -1.201,-2.4851 -1.756,-3.787 z m 13.415,0.019 c 0.692,0.061 1.381,0.1427 2.074,0.1886 0.699,0.046 1.396,0.06 2.094,0.09 0.288,0.062 0.577,0.1301 0.865,0.1886 -1.012,0.3123 -2.021,0.6029 -3.033,0.876 -0.966,-0.4036 -1.928,-0.8226 -2.887,-1.2649 0.296,-0.02 0.592,-0.055 0.887,-0.079 z m -2.192,0.1572 c 1.058,0.5041 2.116,0.9954 3.182,1.4535 -0.282,0.072 -0.566,0.1545 -0.848,0.2239 -0.833,-0.5373 -1.657,-1.0948 -2.479,-1.6696 0.05,0 0.1,-0.01 0.145,-0.01 z m 16.386,0.012 c -0.257,0.3094 -0.511,0.6236 -0.77,0.9271 -0.398,-0.039 -0.799,-0.092 -1.198,-0.1375 0.284,-0.2382 0.565,-0.4839 0.848,-0.7267 0.374,-0.021 0.748,-0.037 1.12,-0.063 z m -17.575,0.031 c 0.886,0.6336 1.774,1.2593 2.674,1.8502 -1.152,0.2699 -2.298,0.5007 -3.441,0.715 -0.838,-0.8067 -1.671,-1.6321 -2.487,-2.4906 1.078,0 2.164,-0.032 3.254,-0.075 z m -5.512,0.028 c 0.458,0.013 0.918,0.026 1.379,0.031 0.858,0.9177 1.735,1.794 2.62,2.6555 -0.637,0.1128 -1.27,0.2158 -1.902,0.3104 -0.716,-0.9684 -1.416,-1.9693 -2.097,-2.9973 z m 20.93,0.067 c -0.223,0.1881 -0.443,0.3845 -0.667,0.5696 -0.985,-0.123 -1.972,-0.267 -2.963,-0.4282 0.04,-0.023 0.09,-0.043 0.13,-0.067 1.172,0 2.339,-0.025 3.5,-0.075 z m -5.727,0.4242 c 0.05,0.01 0.1,0.018 0.144,0.028 -0.891,0.4613 -1.782,0.905 -2.679,1.3278 -0.271,-0.1066 -0.544,-0.224 -0.816,-0.3339 1.119,-0.3138 2.234,-0.6605 3.351,-1.0214 z m 1.174,0.2004 c 1.075,0.186 2.146,0.3649 3.214,0.5068 -0.922,0.7431 -1.857,1.4481 -2.794,2.137 -1.103,-0.3631 -2.209,-0.7435 -3.315,-1.1628 0.969,-0.4667 1.932,-0.9703 2.895,-1.481 z m 22.226,0.33 c -0.207,1.8246 -0.532,3.5672 -0.981,5.2168 -1.188,0.1239 -2.413,0.1863 -3.67,0.1846 0,-0.011 0,-0.021 0.01,-0.031 0.534,-1.5507 0.983,-3.1883 1.366,-4.879 1.117,-0.1266 2.206,-0.2913 3.272,-0.491 z m 12.394001,0.023 c -0.376,0.6616 -0.78,1.3188 -1.257,1.9642 -0.798,1.0805 -1.671,2.018 -2.592,2.8519 0.402,-0.8141 0.748,-1.648 1.021,-2.5062 1.018,-0.6712 1.963,-1.4386 2.828,-2.3099 z m -30.539001,0.2514 c 0.46,0.056 0.918,0.1059 1.375,0.1532 -0.811,0.9296 -1.636,1.8291 -2.475,2.6949 -0.613,-0.177 -1.226,-0.3662 -1.842,-0.5618 0.989,-0.7362 1.972,-1.4911 2.942,-2.2863 z m -42.441,0.012 c 1.588,0.7814 3.316,1.3951 5.15,1.866 0.193,1.2867 0.468,2.5285 0.824,3.7201 -1.813,-0.4507 -3.513,-1.1139 -5.071,-2.0113 -0.414,-1.1444 -0.712,-2.3379 -0.903,-3.5748 z m 44.567,0.2278 c 1.266,0.1185 2.524,0.2086 3.767,0.2593 -0.722,1.2193 -1.47,2.3956 -2.243,3.5276 -1.341,-0.2804 -2.695,-0.6112 -4.058,-0.9899 0.861,-0.8971 1.702,-1.8345 2.534,-2.797 z m 12.087,0.043 c -0.368,1.5965 -0.799,3.1397 -1.304,4.604 -0.03,0.08 -0.06,0.1561 -0.09,0.2357 -0.08,0 -0.165,0 -0.248,0 -1.549,-0.038 -3.147,-0.176 -4.773,-0.3889 0.659,-1.3402 1.278,-2.7359 1.846,-4.1837 1.555,-0.027 3.08,-0.1184 4.565,-0.2671 z m -23.825,0.2004 c 0.346,0.1436 0.69,0.2897 1.037,0.4282 -0.366,0.1677 -0.733,0.3379 -1.1,0.4988 -0.342,-0.2077 -0.681,-0.4258 -1.022,-0.6403 0.362,-0.091 0.723,-0.1901 1.085,-0.2867 z m 16.224,0.047 c 0.789,0.024 1.573,0.036 2.349,0.031 -0.562,1.4143 -1.167,2.7792 -1.815,4.0854 -0.931,-0.1341 -1.872,-0.3 -2.821,-0.4871 0.789,-1.165 1.553,-2.3768 2.287,-3.6297 z m -18.141,0.4595 c 0.389,0.2493 0.779,0.4939 1.171,0.7347 -1.136,0.4856 -2.27,0.935 -3.402,1.3513 -0.475,-0.4242 -0.947,-0.8583 -1.415,-1.3003 1.212,-0.2343 2.426,-0.4901 3.646,-0.7857 z m 3.751,0.2515 c 1.171,0.454 2.343,0.8649 3.512,1.257 -0.524,0.3774 -1.048,0.745 -1.575,1.1039 -1.067,-0.5616 -2.133,-1.1567 -3.194,-1.7874 0.42,-0.1871 0.839,-0.3777 1.257,-0.5735 z m -8.143,0.6874 c 0.496,0.4734 0.994,0.9407 1.497,1.3946 -0.711,0.2525 -1.419,0.4917 -2.125,0.7149 -0.469,-0.5754 -0.936,-1.1616 -1.391,-1.7638 0.669,-0.1036 1.344,-0.222 2.019,-0.3457 z m -20.714,0.1061 c 1.179,0.2764 2.399,0.4934 3.657,0.6521 0.274,1.2388 0.606,2.4329 0.989,3.5826 -1.305,-0.084 -2.574,-0.2483 -3.79,-0.5106 -0.373,-1.1868 -0.653,-2.4317 -0.856,-3.7241 z m 26.917,0.09 c 1.089,0.656 2.179,1.2892 3.276,1.8738 -1.178,0.7841 -2.361,1.5203 -3.547,2.2038 -1.087,-0.8346 -2.16,-1.7222 -3.225,-2.6555 1.164,-0.4348 2.33,-0.9155 3.496,-1.4221 z m -8.925,0.2514 c 0.473,0.6319 0.949,1.2544 1.437,1.8581 -1.457,0.4425 -2.903,0.8194 -4.328,1.1274 -0.476,-0.8109 -0.935,-1.6484 -1.38,-2.5062 1.407,-0.1099 2.83,-0.2713 4.271,-0.4793 z m -25.598,0.09 c 0.705,0.5716 1.441,1.091 2.216,1.5477 0.428,1.1418 0.966,2.2345 1.622,3.2724 -0.562,-0.5146 -1.11,-1.0571 -1.634,-1.6657 -0.875,-1.016 -1.596,-2.0721 -2.204,-3.1544 z m 71.115001,0.1178 c -0.387,1.0506 -0.877,2.0643 -1.473,3.0406 -0.92,0.6861 -1.886,1.2691 -2.899,1.752 0.49,-1.0474 0.885,-2.1491 1.198,-3.2959 1.114,-0.4168 2.176,-0.9119 3.174,-1.4967 z m -30.420001,0.165 c 0.653,0.2119 1.304,0.4137 1.956,0.605 -0.533,0.5379 -1.069,1.0618 -1.611,1.5713 -0.673,-0.3153 -1.343,-0.6488 -2.015,-0.9939 0.558,-0.3835 1.115,-0.7786 1.67,-1.1824 z m -28.764,0.023 c 0.01,0 0.02,0 0.03,0 1.63,0.1764 3.327,0.2542 5.06,0.2514 0.372,1.061 0.778,2.0883 1.209,3.0838 -1.824,0.2036 -3.595,0.2707 -5.302,0.2003 -0.386,-1.1309 -0.716,-2.3128 -0.995,-3.5394 z m 8.712,0.1257 c 0.458,0.8911 0.925,1.7655 1.415,2.6084 -1.074,0.217 -2.134,0.3847 -3.182,0.5186 -0.425,-0.9676 -0.826,-1.9639 -1.194,-2.9974 0.974,-0.014 1.964,-0.063 2.961,-0.1296 z m 22.691,0.656 c 1.399,0.3959 2.79,0.739 4.168,1.0332 -0.554,0.7912 -1.12,1.5652 -1.697,2.3059 -1.374,-0.4937 -2.758,-1.0579 -4.145,-1.6892 0.563,-0.5337 1.121,-1.0863 1.674,-1.6499 z m -12.987,0.2475 c 1.088,0.9633 2.194,1.8756 3.307,2.7381 -0.842,0.4726 -1.687,0.9228 -2.529,1.3396 -1.022,-1.0402 -2.023,-2.15 -2.998,-3.3195 0.739,-0.2366 1.477,-0.4902 2.22,-0.7582 z m 8.088,0.5343 c 0.7,0.3633 1.402,0.717 2.102,1.0489 -1.121,1.0302 -2.259,1.9954 -3.409,2.8912 -0.781,-0.5242 -1.558,-1.0782 -2.33,-1.6577 1.218,-0.7085 2.431,-1.4707 3.637,-2.2824 z m 28.803001,0.01 c -0.353,1.2014 -0.806,2.3451 -1.367,3.4255 -1.663,0.6843 -3.438001,1.1163 -5.296001,1.3239 0.511,-1.1329 0.947,-2.3264 1.309,-3.5748 1.880001,-0.2249 3.675001,-0.6089 5.354001,-1.1746 z m -64.193001,0.1217 c 1.534,0.8025 3.183,1.4108 4.934,1.8189 0.567,1.7071 1.326,3.2909 2.266,4.7454 -1.597,-0.5093 -3.117,-1.2451 -4.541,-2.2352 -1.122,-1.3308 -2.003,-2.7792 -2.659,-4.3291 z m 45.129,0.2593 c 0.981,0.198 1.958,0.3762 2.922,0.5186 -0.501,0.9765 -1.033,1.9092 -1.583,2.8127 -1.021,-0.2712 -2.051,-0.5778 -3.088,-0.935 0.597,-0.7705 1.178,-1.5738 1.749,-2.3963 z m -20.702,0.035 c 0.99,1.1992 2.009,2.3368 3.052,3.4059 -1.478,0.7075 -2.953,1.3362 -4.412,1.8542 -0.08,0.028 -0.156,0.051 -0.236,0.079 -0.06,-0.067 -0.106,-0.1288 -0.157,-0.1964 -0.936,-1.2345 -1.82,-2.5688 -2.667,-3.9716 1.457,-0.321 2.933,-0.7127 4.42,-1.1706 z m 24.281,0.5696 c 1.717,0.2317 3.407,0.3801 5.048,0.4204 0.01,0 0.02,0 0.03,0 -0.438,1.1792 -0.922,2.3081 -1.453,3.3784 -1.701,-0.1555 -3.448,-0.4614 -5.229,-0.9036 0.56,-0.9296 1.094,-1.8926 1.603,-2.8952 z m 9.463,0.2554 c -0.373,1.2542 -0.818,2.4516 -1.344,3.5787 -1.24,0.1 -2.517,0.097 -3.822,0.01 0.533,-1.0893 1.019,-2.2295 1.454,-3.4216 1.267,0.01 2.506,-0.047 3.712,-0.165 z m -20.054,0.082 c 1.413,0.6505 2.823,1.2333 4.227,1.7442 -1.025,1.2787 -2.081,2.4824 -3.171,3.5826 -0.06,0.06 -0.12,0.1135 -0.18,0.1728 -0.08,-0.038 -0.15,-0.068 -0.224,-0.106 -1.379,-0.7062 -2.758,-1.5234 -4.129,-2.4199 1.176,-0.9228 2.334,-1.915 3.477,-2.9737 z m -18.758,0.4085 c 0.89,1.4868 1.826,2.9005 2.817,4.2073 0,0.01 0.01,0.015 0.02,0.023 -1.196,0.3935 -2.378,0.7182 -3.548,0.9703 -0.939,-1.4269 -1.789,-2.9833 -2.554,-4.6512 1.076,-0.1421 2.165,-0.3228 3.265,-0.5499 z m -13.718,0.3497 c 1.219,0.2459 2.48,0.4045 3.779,0.4792 0.638,1.7844 1.412,3.4502 2.338,4.9615 -1.252,-0.077 -2.467,-0.2667 -3.646,-0.5735 -1.037,-1.4697 -1.855,-3.1016 -2.471,-4.8672 z m 9.797,0.2906 c 0,0.011 0.01,0.021 0.02,0.031 0.756,1.6667 1.605,3.2296 2.541,4.6708 -1.878,0.3628 -3.714,0.522 -5.487,0.4753 -0.954,-1.4978 -1.76,-3.1511 -2.417,-4.9497 1.719,0.061 3.493,-0.014 5.312,-0.2239 0.01,0 0.02,0 0.03,0 z m 15.722,0.2397 c 0.796,0.6025 1.595,1.187 2.4,1.7324 -0.875,0.6617 -1.754,1.275 -2.64,1.8502 -0.803,-0.688 -1.597,-1.4116 -2.377,-2.1841 0.872,-0.4352 1.746,-0.9053 2.617,-1.3985 z m 34.494001,0.059 c -0.745,0.9944 -1.602,1.9469 -2.604,2.8401 -0.598,0.5332 -1.215,0.9986 -1.839,1.4339 0.787,-0.9405 1.465,-1.9515 2.039,-3.0248 0.831,-0.3515 1.629,-0.7737 2.404,-1.2492 z m -22.686001,0.6246 c 1.061,0.3703 2.116,0.6914 3.162,0.9742 -0.978,1.5535 -2.026,2.9868 -3.146,4.278 -1.125,-0.4038 -2.254,-0.8827 -3.386,-1.4299 0,-0.01 0.01,-0.016 0.02,-0.023 1.155,-1.1649 2.268,-2.442 3.347,-3.7988 z m 19.398001,0.9624 c -0.853,1.446 -1.913,2.7676 -3.198001,3.9362 -1.543,0.7958 -3.15,1.3242 -4.804,1.6185 1.124,-1.3172 2.084,-2.7872 2.872,-4.4037 1.79,-0.1731 3.503001,-0.558 5.130001,-1.151 z m -34.424001,0.039 c 0.795,0.794 1.604,1.5419 2.424,2.2509 -1.553,0.9738 -3.119,1.8099 -4.686,2.4867 -0.837,-0.8511 -1.65,-1.7702 -2.433,-2.7538 0.01,0 0.02,-0.01 0.03,-0.012 1.546,-0.5485 3.103,-1.2175 4.663,-1.972 z m 18.825,0.1493 c 0.01,0 0.02,0.01 0.03,0.01 1.775,0.448 3.526,0.7604 5.237,0.9271 -0.888,1.6961 -1.906,3.2296 -3.049,4.5883 -1.767,-0.188 -3.565,-0.5893 -5.381,-1.1981 1.118,-1.3059 2.168,-2.7402 3.138,-4.2937 0,-0.01 0.01,-0.021 0.02,-0.031 z m -12.649,0.2632 c 1.447,0.9539 2.904,1.8174 4.364,2.5652 0.01,0 0.02,0.011 0.03,0.016 -0.905,0.872 -1.83,1.6786 -2.773,2.412 -1.465,-0.8785 -2.907,-1.912 -4.321,-3.0837 0.908,-0.5948 1.809,-1.2268 2.702,-1.9093 z m 18.593,0.7228 c 1.295,0.097 2.566,0.1062 3.806,0.023 -0.844,1.6696 -1.872,3.1777 -3.096,4.4979 -1.206,0.1479 -2.433,0.1748 -3.68,0.086 1.115,-1.3748 2.102,-2.9248 2.97,-4.6079 z m -48.394,0.7228 c 1.096,0.5601 2.235,0.9983 3.414,1.3199 0.526,0.7297 1.11,1.4142 1.744,2.0624 -1.133,-0.5054 -2.254,-1.1274 -3.346,-1.9052 -0.655,-0.4662 -1.248,-0.9641 -1.812,-1.4771 z m 18.294,0.3339 c 0.785,0.9969 1.6,1.9279 2.444,2.797 -1.212,0.4909 -2.424,0.8911 -3.633,1.1824 -0.851,-0.9066 -1.646,-1.9065 -2.389,-2.9816 1.183,-0.2628 2.377,-0.595 3.578,-0.9978 z m 8.254,0.495 c 0.01,0.01 0.01,0.016 0.03,0.023 1.406,1.1743 2.852,2.2107 4.322,3.1034 -1.537,1.144 -3.121,2.084 -4.742,2.8127 -1.509,-0.9352 -2.954,-2.0747 -4.325,-3.4098 1.575,-0.6909 3.143,-1.5319 4.691,-2.5102 0.01,-0.01 0.01,-0.014 0.03,-0.019 z m 8.249,0.5971 c 1.137,0.5574 2.277,1.045 3.414,1.4613 -0.88,0.9688 -1.798,1.8565 -2.761,2.6438 -1.16,-0.448 -2.309,-1.0038 -3.445,-1.6499 0.952,-0.7503 1.883,-1.57 2.792,-2.4552 z m -20.738,0.047 c 0.733,1.0745 1.516,2.0752 2.354,2.9934 -1.83,0.3808 -3.648,0.5215 -5.441,0.3889 -0.87,-0.853 -1.658,-1.7993 -2.369,-2.8323 1.773,0.015 3.598,-0.1778 5.456,-0.55 z m -9.686,0.082 c 1.13,0.2454 2.292,0.3902 3.48,0.44 0.654,0.9914 1.374,1.9158 2.164,2.7577 -1.112,-0.1435 -2.213,-0.3966 -3.299,-0.7621 -0.871,-0.7424 -1.651,-1.5572 -2.345,-2.4356 z m 34.471,1.5635 c 1.794,0.6143 3.578,1.0461 5.338,1.2649 -0.839,0.929 -1.745,1.7607 -2.718,2.4906 -1.798,-0.1048 -3.584,-0.4838 -5.35,-1.1039 0.951,-0.799 1.862,-1.6838 2.73,-2.6516 z m 14.13,0.3928 c -0.627,0.4337 -1.281,0.8502 -1.992,1.2257 -1.186,0.6268 -2.376,1.0943 -3.567,1.4456 0.715,-0.5591 1.385,-1.1606 2.004,-1.8149 1.209,-0.1631 2.397,-0.4464 3.555,-0.8564 z m -31.765,0.1021 c 1.348,1.3296 2.766,2.4937 4.255,3.4531 -1.158,0.472 -2.332,0.8335 -3.524,1.0685 -1.575,-0.8743 -3.018,-1.9906 -4.341,-3.3155 1.204,-0.3075 2.408,-0.71 3.61,-1.2061 z m 10.269,0.6797 c 1.125,0.6499 2.269,1.2061 3.422,1.6695 -1.486,1.1392 -3.066,2.0552 -4.742,2.7145 -1.151,-0.3905 -2.273,-0.8991 -3.359,-1.5203 1.604,-0.7552 3.166,-1.7222 4.679,-2.8637 z m 13.45,0.1611 c 1.184,0.1072 2.353,0.1171 3.505,0.023 -0.803,0.7773 -1.681,1.4818 -2.64,2.1016 -1.126,0.2193 -2.252,0.3227 -3.375,0.3182 0.896,-0.7303 1.732,-1.5467 2.51,-2.4434 z m -28.032,0.546 c 1.251,1.2914 2.623,2.3897 4.101,3.2919 -1.661,0.2344 -3.351,0.2316 -5.063,-0.043 -1.587,-0.7111 -3.005,-1.6362 -4.267,-2.7459 1.728,0.057 3.477,-0.1113 5.229,-0.5028 z m -8.85,0.016 c 0.883,0.2103 1.773,0.3645 2.671,0.44 0.88,0.8428 1.841,1.5932 2.884,2.243 -0.729,-0.2196 -1.462,-0.4727 -2.197,-0.7935 -1.232,-0.5373 -2.34,-1.1758 -3.358,-1.8895 z m 27.522,1.2178 c 1.688,0.6208 3.397,1.0189 5.121,1.1903 -1.392,0.9312 -2.915,1.6607 -4.575,2.1566 -1.74,0.049 -3.42,-0.1681 -5.041,-0.6206 1.583,-0.6992 3.085,-1.6123 4.495,-2.7263 z m 8.775,1.1864 c -1.105,0.5736 -2.29,1.0595 -3.583,1.4298 -0.773,0.2214 -1.532,0.3773 -2.286,0.4989 1.121,-0.5075 2.177,-1.1253 3.163,-1.8463 0.9,0.043 1.803,0.01 2.706,-0.082 z m -18.235,0.035 c 1.02,0.6107 2.071,1.128 3.151,1.5438 -1.067,0.354 -2.168,0.6042 -3.308,0.7464 -1.107,-0.2912 -2.16,-0.6884 -3.167,-1.1785 1.124,-0.2693 2.234,-0.6419 3.324,-1.1117 z m -4.294,1.3159 c 0.795,0.4311 1.622,0.7942 2.479,1.1039 -1.244,0.037 -2.525,-0.04 -3.85,-0.2671 -0.794,-0.1363 -1.545,-0.3281 -2.278,-0.5461 1.231,0.03 2.447,-0.069 3.649,-0.2907 z m 8.383,0.5579 c 1.159,0.3767 2.352,0.6367 3.572,0.7699 -0.754,0.1187 -1.523,0.2095 -2.327,0.2396 -1.343,0.05 -2.621,-0.046 -3.849,-0.2474 0.889,-0.1941 1.761,-0.4397 2.604,-0.7621 z"
       marker="none"
       visibility="visible"
       display="inline"
       overflow="visible"
       id="path5263"
       inkscape:connector-curvature="0" />
  </g>
</svg>
