<?xml version="1.0" encoding="UTF-8" standalone="no"?>
<svg
   xmlns:dc="http://purl.org/dc/elements/1.1/"
   xmlns:cc="http://creativecommons.org/ns#"
   xmlns:rdf="http://www.w3.org/1999/02/22-rdf-syntax-ns#"
   xmlns:svg="http://www.w3.org/2000/svg"
   xmlns="http://www.w3.org/2000/svg"
   xmlns:sodipodi="http://sodipodi.sourceforge.net/DTD/sodipodi-0.dtd"
   xmlns:inkscape="http://www.inkscape.org/namespaces/inkscape"
   version="1.1"
   x="0px"
   y="0px"
   viewBox="0 0 90 112.5"
   style="enable-background:new 0 0 90 90;"
   xml:space="preserve"
   id="svg6640"
   sodipodi:docname="pat5.svg"
   inkscape:version="0.92.3 (2405546, 2018-03-11)"><metadata
     id="metadata6646"><rdf:RDF><cc:Work
         rdf:about=""><dc:format>image/svg+xml</dc:format><dc:type
           rdf:resource="http://purl.org/dc/dcmitype/StillImage" /><dc:title></dc:title></cc:Work></rdf:RDF></metadata><defs
     id="defs6644" /><sodipodi:namedview
     pagecolor="#ffffff"
     bordercolor="#666666"
     borderopacity="1"
     objecttolerance="10"
     gridtolerance="10"
     guidetolerance="10"
     inkscape:pageopacity="0"
     inkscape:pageshadow="2"
     inkscape:window-width="774"
     inkscape:window-height="480"
     id="namedview6642"
     showgrid="false"
     inkscape:zoom="2.0977778"
     inkscape:cx="45"
     inkscape:cy="56.25"
     inkscape:window-x="0"
     inkscape:window-y="0"
     inkscape:window-maximized="0"
     inkscape:current-layer="svg6640" /><style
     type="text/css"
     id="style6598">
	.st0{fill:none;stroke:#000000;stroke-width:0.2;stroke-linecap:square;stroke-miterlimit:10;}
	.st1{fill:none;stroke:#000000;stroke-width:0.15;stroke-linecap:square;stroke-miterlimit:10;}
	.st2{fill:none;stroke:#000000;stroke-width:0.25;stroke-linecap:square;stroke-miterlimit:10;}
	.st3{fill:none;stroke:#000000;stroke-width:0.1;stroke-linecap:square;stroke-miterlimit:10;}
	.st4{fill:none;stroke:#000000;stroke-width:0.5;stroke-linecap:square;stroke-miterlimit:10;}
	.st5{fill:#212831;}
	.st6{fill:none;stroke:#000000;stroke-width:0.1;stroke-miterlimit:10;}
</style><polygon
     class="st0"
     points="45.23727,3.7885251 13.048268,19.30714 5.1394329,54.144901 27.363306,82.094276 63.032165,82.094276 85.255974,54.144901 77.347138,19.30714 "
     id="polygon6600"
     transform="translate(0,11.440678)"
     style="fill:none;stroke:#fbfbfe;stroke-width:0.2;stroke-linecap:square;stroke-miterlimit:10;fill-opacity:1;stroke-opacity:1" /><polygon
     class="st0"
     points="14.94643,18.357035 47.056297,4.6594648 77.821663,21.286589 83.990601,55.728447 60.975876,82.094276 26.097866,80.431564 5.613956,52.086319 "
     id="polygon6602"
     transform="translate(0,11.440678)"
     style="fill:none;stroke:#fbfbfe;stroke-width:0.2;stroke-linecap:square;stroke-miterlimit:10;fill-opacity:1;stroke-opacity:1" /><polygon
     class="st0"
     points="48.875328,5.6095715 78.217117,23.266005 82.646095,57.311958 58.919586,81.935906 24.911556,78.768852 6.1676121,50.106907 16.844524,17.565262 "
     id="polygon6604"
     transform="translate(0,11.440678)"
     style="fill:none;stroke:#fbfbfe;stroke-width:0.2;stroke-linecap:square;stroke-miterlimit:10;fill-opacity:1;stroke-opacity:1" /><polygon
     class="st0"
     points="18.742617,16.85269 50.615292,6.7180467 78.454384,25.324587 81.222458,58.737137 56.863228,81.777573 23.804314,77.02697 6.8002644,48.127491 "
     id="polygon6606"
     transform="translate(0,11.440678)"
     style="fill:none;stroke:#fbfbfe;stroke-width:0.2;stroke-linecap:square;stroke-miterlimit:10;fill-opacity:1;stroke-opacity:1" /><polygon
     class="st0"
     points="52.355187,7.8265214 78.612579,27.383167 79.719818,60.162346 54.88607,81.460876 22.697069,75.285095 7.5121179,46.227241 20.719843,16.219252 "
     id="polygon6608"
     transform="translate(0,11.440678)"
     style="fill:none;stroke:#fbfbfe;stroke-width:0.2;stroke-linecap:square;stroke-miterlimit:10;fill-opacity:1;stroke-opacity:1" /><polygon
     class="st0"
     points="22.697069,15.665013 54.016087,9.0933647 78.691643,29.441784 78.138054,61.508324 52.829781,81.064972 21.748022,73.464012 8.3820314,44.326996 "
     id="polygon6610"
     transform="translate(0,11.440678)"
     style="fill:none;stroke:#fbfbfe;stroke-width:0.2;stroke-linecap:square;stroke-miterlimit:10;fill-opacity:1;stroke-opacity:1" /><polygon
     class="st0"
     points="55.597855,10.360174 78.691643,31.500366 76.55629,62.775166 50.852554,80.589935 20.87804,71.563766 9.2520142,42.505913 24.674295,15.269144 "
     id="polygon6612"
     transform="translate(0,11.440678)"
     style="fill:none;stroke:#fbfbfe;stroke-width:0.2;stroke-linecap:square;stroke-miterlimit:10;fill-opacity:1;stroke-opacity:1" /><polygon
     class="st0"
     points="26.730585,14.952442 57.100555,11.785385 78.533516,33.558948 74.895386,63.962807 48.875328,80.035698 20.166256,69.663551 10.280193,40.764034 "
     id="polygon6614"
     transform="translate(0,11.440678)"
     style="fill:none;stroke:#fbfbfe;stroke-width:0.2;stroke-linecap:square;stroke-miterlimit:10;fill-opacity:1;stroke-opacity:1" /><polygon
     class="st0"
     points="28.786877,14.714907 58.524128,13.210563 78.296249,35.617561 73.076355,64.992119 46.977234,79.32309 19.45447,67.763306 11.387437,39.022156 "
     id="polygon6616"
     transform="translate(0,11.440678)"
     style="fill:none;stroke:#fbfbfe;stroke-width:0.2;stroke-linecap:square;stroke-miterlimit:10;fill-opacity:1;stroke-opacity:1" /><polygon
     class="st0"
     points="12.573746,37.280277 30.843166,14.635739 59.868633,14.794074 77.900795,37.676144 71.336464,66.021423 45.079071,78.531319 18.900814,65.78389 "
     id="polygon6618"
     transform="translate(0,11.440678)"
     style="fill:none;stroke:#fbfbfe;stroke-width:0.2;stroke-linecap:square;stroke-miterlimit:10;fill-opacity:1;stroke-opacity:1" /><polygon
     class="st0"
     points="13.918251,35.696732 32.899456,14.635739 61.213139,16.377619 77.42627,39.65556 69.438301,66.892364 43.180977,77.581207 18.505356,63.725273 "
     id="polygon6620"
     transform="translate(0,11.440678)"
     style="fill:none;stroke:#fbfbfe;stroke-width:0.2;stroke-linecap:square;stroke-miterlimit:10;fill-opacity:1;stroke-opacity:1" /><polygon
     class="st0"
     points="34.95575,14.794074 62.320381,18.119499 76.872612,41.634975 67.540207,67.684105 41.441013,76.631073 18.109964,61.745857 15.262756,34.192387 "
     id="polygon6622"
     transform="translate(0,11.440678)"
     style="fill:none;stroke:#fbfbfe;stroke-width:0.2;stroke-linecap:square;stroke-miterlimit:10;fill-opacity:1;stroke-opacity:1" /><polygon
     class="st0"
     points="37.012039,15.031609 63.427628,19.861378 76.160828,43.535221 65.562981,68.317543 39.70105,75.522629 17.951767,59.687275 16.765459,32.767208 "
     id="polygon6624"
     transform="translate(0,11.440678)"
     style="fill:none;stroke:#fbfbfe;stroke-width:0.2;stroke-linecap:square;stroke-miterlimit:10;fill-opacity:1;stroke-opacity:1" /><polygon
     class="st0"
     points="38.989265,15.348311 64.376671,21.682459 75.36998,45.435471 63.585754,68.87178 38.040218,74.255783 17.872704,57.628696 18.268093,31.421198 "
     id="polygon6626"
     transform="translate(0,11.440678)"
     style="fill:none;stroke:#fbfbfe;stroke-width:0.2;stroke-linecap:square;stroke-miterlimit:10;fill-opacity:1;stroke-opacity:1" /><polygon
     class="st0"
     points="40.966492,15.902549 65.246658,23.503506 74.42086,47.335716 61.608597,69.346817 36.45845,72.988945 17.872704,55.57008 19.928993,30.154356 "
     id="polygon6628"
     transform="translate(0,11.440678)"
     style="fill:none;stroke:#fbfbfe;stroke-width:0.2;stroke-linecap:square;stroke-miterlimit:10;fill-opacity:1;stroke-opacity:1" /><polygon
     class="st0"
     points="21.589825,28.966713 42.943718,16.456787 66.037506,25.403753 73.392754,49.077599 59.552239,69.584351 34.95575,71.563766 18.030832,53.511497 "
     id="polygon6630"
     transform="translate(0,11.440678)"
     style="fill:none;stroke:#fbfbfe;stroke-width:0.2;stroke-linecap:square;stroke-miterlimit:10;fill-opacity:1;stroke-opacity:1" /><polygon
     class="st0"
     points="23.408853,27.937405 44.841808,17.248558 66.591164,27.383167 72.285507,50.819477 57.495949,69.742722 33.532177,70.059418 18.347227,51.452881 "
     id="polygon6632"
     transform="translate(0,11.440678)"
     style="fill:none;stroke:#fbfbfe;stroke-width:0.2;stroke-linecap:square;stroke-miterlimit:10;fill-opacity:1;stroke-opacity:1" /><polygon
     class="st0"
     points="25.227882,26.987299 46.739971,18.119499 67.144745,29.441784 71.020065,52.403023 55.439655,69.821884 32.187672,68.475876 18.742617,49.473465 "
     id="polygon6634"
     transform="translate(0,11.440678)"
     style="fill:none;stroke:#fbfbfe;stroke-width:0.2;stroke-linecap:square;stroke-miterlimit:10;fill-opacity:1;stroke-opacity:1" /></svg>