<?xml version="1.0" encoding="UTF-8" standalone="no"?>
<svg
   xmlns:dc="http://purl.org/dc/elements/1.1/"
   xmlns:cc="http://creativecommons.org/ns#"
   xmlns:rdf="http://www.w3.org/1999/02/22-rdf-syntax-ns#"
   xmlns:svg="http://www.w3.org/2000/svg"
   xmlns="http://www.w3.org/2000/svg"
   xmlns:sodipodi="http://sodipodi.sourceforge.net/DTD/sodipodi-0.dtd"
   xmlns:inkscape="http://www.inkscape.org/namespaces/inkscape"
   version="1.1"
   x="0px"
   y="0px"
   viewBox="0 0 88.627998 88.625999"
   enable-background="new 0 0 100 100"
   xml:space="preserve"
   id="svg5632"
   sodipodi:docname="pat7.svg"
   inkscape:version="0.92.2 2405546, 2018-03-11"
   width="88.627998"
   height="88.625999"><metadata
     id="metadata5638"><rdf:RDF><cc:Work
         rdf:about=""><dc:format>image/svg+xml</dc:format><dc:type
           rdf:resource="http://purl.org/dc/dcmitype/StillImage" /><dc:title /></cc:Work></rdf:RDF></metadata><defs
     id="defs5636" /><sodipodi:namedview
     pagecolor="#ffffff"
     bordercolor="#666666"
     borderopacity="1"
     objecttolerance="10"
     gridtolerance="10"
     guidetolerance="10"
     inkscape:pageopacity="0"
     inkscape:pageshadow="2"
     inkscape:window-width="1055"
     inkscape:window-height="700"
     id="namedview5634"
     showgrid="false"
     inkscape:zoom="1.888"
     inkscape:cx="-41.621085"
     inkscape:cy="51.199787"
     inkscape:window-x="0"
     inkscape:window-y="0"
     inkscape:window-maximized="0"
     inkscape:current-layer="svg5632" /><polygon
     points="62.955,54.071 61.405,54.071 61.405,52.519 61.405,48.675 61.405,47.122 62.955,47.122 66.801,47.122 68.352,47.122 68.352,48.675 68.352,52.519 68.352,54.071 66.801,54.071 "
     id="polygon5516"
     transform="translate(-5.816,-6.284)"
     style="clip-rule:evenodd;fill:#00001c;fill-opacity:1;fill-rule:evenodd" /><polygon
     points="33.67,38.073 32.702,38.073 32.702,37.103 32.702,34.137 32.702,33.167 33.67,33.167 36.637,33.167 37.607,33.167 37.607,34.137 37.607,37.103 37.607,38.073 36.637,38.073 "
     id="polygon5518"
     transform="translate(-5.816,-6.284)"
     style="clip-rule:evenodd;fill:#00001c;fill-opacity:1;fill-rule:evenodd" /><polygon
     points="27.176,31.082 26.206,31.082 26.206,30.112 26.206,27.644 26.206,26.673 27.176,26.673 29.646,26.673 30.614,26.673 30.614,27.644 30.614,30.112 30.614,31.082 29.646,31.082 "
     id="polygon5520"
     transform="translate(-5.816,-6.284)"
     style="clip-rule:evenodd;fill:#00001c;fill-opacity:1;fill-rule:evenodd" /><polygon
     points="46.23,45.145 46.23,46.695 44.677,46.695 40.833,46.695 39.281,46.695 39.281,45.145 39.281,41.301 39.281,39.749 40.833,39.749 44.677,39.749 46.23,39.749 46.23,41.301 "
     id="polygon5522"
     transform="translate(-5.816,-6.284)"
     style="clip-rule:evenodd;fill:#00001c;fill-opacity:1;fill-rule:evenodd" /><polygon
     points="67.559,67.056 67.559,68.029 66.591,68.029 63.621,68.029 62.653,68.029 62.653,67.056 62.653,64.089 62.653,63.119 63.621,63.119 66.591,63.119 67.559,63.119 67.559,64.089 "
     id="polygon5524"
     transform="translate(-5.816,-6.284)"
     style="clip-rule:evenodd;fill:#00001c;fill-opacity:1;fill-rule:evenodd" /><polygon
     points="74.055,73.552 74.055,74.52 73.087,74.52 70.616,74.52 69.644,74.52 69.644,73.552 69.644,71.082 69.644,70.114 70.616,70.114 73.087,70.114 74.055,70.114 74.055,71.082 "
     id="polygon5526"
     transform="translate(-5.816,-6.284)"
     style="clip-rule:evenodd;fill:#00001c;fill-opacity:1;fill-rule:evenodd" /><polygon
     points="55.579,61.446 54.033,61.446 54.033,59.895 54.033,56.049 54.033,54.498 55.579,54.498 59.429,54.498 60.98,54.498 60.98,56.049 60.98,59.895 60.98,61.446 59.429,61.446 "
     id="polygon5528"
     transform="translate(-5.816,-6.284)"
     style="clip-rule:evenodd;fill:#00001c;fill-opacity:1;fill-rule:evenodd" /><polygon
     points="33.67,68.029 32.702,68.029 32.702,67.056 32.702,64.089 32.702,63.119 33.67,63.119 36.637,63.119 37.607,63.119 37.607,64.089 37.607,67.056 37.607,68.029 36.637,68.029 "
     id="polygon5530"
     transform="translate(-5.816,-6.284)"
     style="clip-rule:evenodd;fill:#00001c;fill-opacity:1;fill-rule:evenodd" /><polygon
     points="27.176,74.52 26.206,74.52 26.206,73.552 26.206,71.082 26.206,70.114 27.176,70.114 29.646,70.114 30.614,70.114 30.614,71.082 30.614,73.552 30.614,74.52 29.646,74.52 "
     id="polygon5532"
     transform="translate(-5.816,-6.284)"
     style="clip-rule:evenodd;fill:#00001c;fill-opacity:1;fill-rule:evenodd" /><polygon
     points="39.281,56.049 39.281,54.498 40.833,54.498 44.677,54.498 46.23,54.498 46.23,56.049 46.23,59.895 46.23,61.446 44.677,61.446 40.833,61.446 39.281,61.446 39.281,59.895 "
     id="polygon5534"
     transform="translate(-5.816,-6.284)"
     style="clip-rule:evenodd;fill:#00001c;fill-opacity:1;fill-rule:evenodd" /><polygon
     points="62.653,34.137 62.653,33.167 63.621,33.167 66.591,33.167 67.559,33.167 67.559,34.137 67.559,37.103 67.559,38.073 66.591,38.073 63.621,38.073 62.653,38.073 62.653,37.103 "
     id="polygon5536"
     transform="translate(-5.816,-6.284)"
     style="clip-rule:evenodd;fill:#00001c;fill-opacity:1;fill-rule:evenodd" /><polygon
     points="69.644,27.644 69.644,26.673 70.616,26.673 73.087,26.673 74.055,26.673 74.055,27.644 74.055,30.112 74.055,31.082 73.087,31.082 70.616,31.082 69.644,31.082 69.644,30.112 "
     id="polygon5538"
     transform="translate(-5.816,-6.284)"
     style="clip-rule:evenodd;fill:#00001c;fill-opacity:1;fill-rule:evenodd" /><polygon
     points="55.579,46.695 54.033,46.695 54.033,45.145 54.033,41.301 54.033,39.749 55.579,39.749 59.429,39.749 60.98,39.749 60.98,41.301 60.98,45.145 60.98,46.695 59.429,46.695 "
     id="polygon5540"
     transform="translate(-5.816,-6.284)"
     style="clip-rule:evenodd;fill:#00001c;fill-opacity:1;fill-rule:evenodd" /><polygon
     points="79.994,73.509 79.994,72.536 80.962,72.536 82.758,72.536 83.726,72.536 83.726,73.509 83.726,75.3 83.726,76.272 82.758,76.272 80.962,76.272 79.994,76.272 79.994,75.3 "
     id="polygon5542"
     transform="translate(-5.816,-6.284)"
     style="clip-rule:evenodd;fill:#00001c;fill-opacity:1;fill-rule:evenodd" /><polygon
     points="87.458,61.132 87.458,60.162 88.431,60.162 90.222,60.162 91.19,60.162 91.19,61.132 91.19,62.926 91.19,63.894 90.222,63.894 88.431,63.894 87.458,63.894 87.458,62.926 "
     id="polygon5544"
     transform="translate(-5.816,-6.284)"
     style="clip-rule:evenodd;fill:#00001c;fill-opacity:1;fill-rule:evenodd" /><polygon
     points="90.712,49.7 90.712,48.73 91.681,48.73 93.477,48.73 94.444,48.73 94.444,49.7 94.444,51.494 94.444,52.464 93.477,52.464 91.681,52.464 90.712,52.464 90.712,51.494 "
     id="polygon5546"
     transform="translate(-5.816,-6.284)"
     style="clip-rule:evenodd;fill:#00001c;fill-opacity:1;fill-rule:evenodd" /><polygon
     points="87.458,38.27 87.458,37.3 88.431,37.3 90.222,37.3 91.19,37.3 91.19,38.27 91.19,40.062 91.19,41.032 90.222,41.032 88.431,41.032 87.458,41.032 87.458,40.062 "
     id="polygon5548"
     transform="translate(-5.816,-6.284)"
     style="clip-rule:evenodd;fill:#00001c;fill-opacity:1;fill-rule:evenodd" /><polygon
     points="79.994,25.894 79.994,24.924 80.962,24.924 82.758,24.924 83.726,24.924 83.726,25.894 83.726,27.688 83.726,28.656 82.758,28.656 80.962,28.656 79.994,28.656 79.994,27.688 "
     id="polygon5550"
     transform="translate(-5.816,-6.284)"
     style="clip-rule:evenodd;fill:#00001c;fill-opacity:1;fill-rule:evenodd" /><polygon
     points="73.038,84.192 72.07,84.192 72.07,83.224 72.07,81.428 72.07,80.46 73.038,80.46 74.834,80.46 75.802,80.46 75.802,81.428 75.802,83.224 75.802,84.192 74.834,84.192 "
     id="polygon5552"
     transform="translate(-5.816,-6.284)"
     style="clip-rule:evenodd;fill:#00001c;fill-opacity:1;fill-rule:evenodd" /><polygon
     points="60.664,91.66 59.696,91.66 59.696,90.688 59.696,88.896 59.696,87.928 60.664,87.928 62.46,87.928 63.428,87.928 63.428,88.896 63.428,90.688 63.428,91.66 62.46,91.66 "
     id="polygon5554"
     transform="translate(-5.816,-6.284)"
     style="clip-rule:evenodd;fill:#00001c;fill-opacity:1;fill-rule:evenodd" /><polygon
     points="49.232,94.91 48.264,94.91 48.264,93.942 48.264,92.146 48.264,91.178 49.232,91.178 51.028,91.178 51.996,91.178 51.996,92.146 51.996,93.942 51.996,94.91 51.028,94.91 "
     id="polygon5556"
     transform="translate(-5.816,-6.284)"
     style="clip-rule:evenodd;fill:#00001c;fill-opacity:1;fill-rule:evenodd" /><polygon
     points="37.8,91.66 36.832,91.66 36.832,90.688 36.832,88.896 36.832,87.928 37.8,87.928 39.594,87.928 40.564,87.928 40.564,88.896 40.564,90.688 40.564,91.66 39.594,91.66 "
     id="polygon5558"
     transform="translate(-5.816,-6.284)"
     style="clip-rule:evenodd;fill:#00001c;fill-opacity:1;fill-rule:evenodd" /><polygon
     points="25.426,84.192 24.456,84.192 24.456,83.224 24.456,81.428 24.456,80.46 25.426,80.46 27.22,80.46 28.19,80.46 28.19,81.428 28.19,83.224 28.19,84.192 27.22,84.192 "
     id="polygon5560"
     transform="translate(-5.816,-6.284)"
     style="clip-rule:evenodd;fill:#00001c;fill-opacity:1;fill-rule:evenodd" /><polygon
     points="20.268,27.688 20.268,28.656 19.298,28.656 17.502,28.656 16.534,28.656 16.534,27.688 16.534,25.894 16.534,24.924 17.502,24.924 19.298,24.924 20.268,24.924 20.268,25.894 "
     id="polygon5562"
     transform="translate(-5.816,-6.284)"
     style="clip-rule:evenodd;fill:#00001c;fill-opacity:1;fill-rule:evenodd" /><polygon
     points="12.8,40.062 12.8,41.032 11.832,41.032 10.038,41.032 9.068,41.032 9.068,40.062 9.068,38.27 9.068,37.3 10.038,37.3 11.832,37.3 12.8,37.3 12.8,38.27 "
     id="polygon5564"
     transform="translate(-5.816,-6.284)"
     style="clip-rule:evenodd;fill:#00001c;fill-opacity:1;fill-rule:evenodd" /><polygon
     points="9.55,51.494 9.55,52.464 8.58,52.464 6.786,52.464 5.816,52.464 5.816,51.494 5.816,49.7 5.816,48.73 6.786,48.73 8.58,48.73 9.55,48.73 9.55,49.7 "
     id="polygon5566"
     transform="translate(-5.816,-6.284)"
     style="clip-rule:evenodd;fill:#00001c;fill-opacity:1;fill-rule:evenodd" /><polygon
     points="12.8,62.926 12.8,63.894 11.832,63.894 10.038,63.894 9.068,63.894 9.068,62.926 9.068,61.132 9.068,60.162 10.038,60.162 11.832,60.162 12.8,60.162 12.8,61.132 "
     id="polygon5568"
     transform="translate(-5.816,-6.284)"
     style="clip-rule:evenodd;fill:#00001c;fill-opacity:1;fill-rule:evenodd" /><polygon
     points="20.268,75.3 20.268,76.272 19.298,76.272 17.502,76.272 16.534,76.272 16.534,75.3 16.534,73.509 16.534,72.536 17.502,72.536 19.298,72.536 20.268,72.536 20.268,73.509 "
     id="polygon5570"
     transform="translate(-5.816,-6.284)"
     style="clip-rule:evenodd;fill:#00001c;fill-opacity:1;fill-rule:evenodd" /><polygon
     points="27.22,17 28.19,17 28.19,17.97 28.19,19.764 28.19,20.734 27.22,20.734 25.426,20.734 24.456,20.734 24.456,19.764 24.456,17.97 24.456,17 25.426,17 "
     id="polygon5572"
     transform="translate(-5.816,-6.284)"
     style="clip-rule:evenodd;fill:#00001c;fill-opacity:1;fill-rule:evenodd" /><polygon
     points="39.594,9.536 40.564,9.536 40.564,10.504 40.564,12.298 40.564,13.268 39.594,13.268 37.8,13.268 36.832,13.268 36.832,12.298 36.832,10.504 36.832,9.536 37.8,9.536 "
     id="polygon5574"
     transform="translate(-5.816,-6.284)"
     style="clip-rule:evenodd;fill:#00001c;fill-opacity:1;fill-rule:evenodd" /><polygon
     points="51.028,6.284 51.996,6.284 51.996,7.254 51.996,9.048 51.996,10.018 51.028,10.018 49.232,10.018 48.264,10.018 48.264,9.048 48.264,7.254 48.264,6.284 49.232,6.284 "
     id="polygon5576"
     transform="translate(-5.816,-6.284)"
     style="clip-rule:evenodd;fill:#00001c;fill-opacity:1;fill-rule:evenodd" /><polygon
     points="62.46,9.536 63.428,9.536 63.428,10.504 63.428,12.298 63.428,13.268 62.46,13.268 60.664,13.268 59.696,13.268 59.696,12.298 59.696,10.504 59.696,9.536 60.664,9.536 "
     id="polygon5578"
     transform="translate(-5.816,-6.284)"
     style="clip-rule:evenodd;fill:#00001c;fill-opacity:1;fill-rule:evenodd" /><polygon
     points="74.834,17 75.802,17 75.802,17.97 75.802,19.764 75.802,20.734 74.834,20.734 73.038,20.734 72.07,20.734 72.07,19.764 72.07,17.97 72.07,17 73.038,17 "
     id="polygon5580"
     transform="translate(-5.816,-6.284)"
     style="clip-rule:evenodd;fill:#00001c;fill-opacity:1;fill-rule:evenodd" /><polygon
     points="19.033,57.135 20.003,57.135 20.003,58.106 20.003,60.576 20.003,61.544 19.033,61.544 16.563,61.544 15.595,61.544 15.595,60.576 15.595,58.106 15.595,57.135 16.563,57.135 "
     id="polygon5582"
     transform="translate(-5.816,-6.284)"
     style="clip-rule:evenodd;fill:#00001c;fill-opacity:1;fill-rule:evenodd" /><polygon
     points="19.033,39.821 20.003,39.821 20.003,40.791 20.003,43.259 20.003,44.229 19.033,44.229 16.563,44.229 15.595,44.229 15.595,43.259 15.595,40.791 15.595,39.821 16.563,39.821 "
     id="polygon5584"
     transform="translate(-5.816,-6.284)"
     style="clip-rule:evenodd;fill:#00001c;fill-opacity:1;fill-rule:evenodd" /><polygon
     points="60.108,16.06 61.076,16.06 61.076,17.031 61.076,19.501 61.076,20.471 60.108,20.471 57.638,20.471 56.67,20.471 56.67,19.501 56.67,17.031 56.67,16.06 57.638,16.06 "
     id="polygon5586"
     transform="translate(-5.816,-6.284)"
     style="clip-rule:evenodd;fill:#00001c;fill-opacity:1;fill-rule:evenodd" /><polygon
     points="42.794,16.06 43.761,16.06 43.761,17.031 43.761,19.501 43.761,20.471 42.794,20.471 40.323,20.471 39.355,20.471 39.355,19.501 39.355,17.031 39.355,16.06 40.323,16.06 "
     id="polygon5588"
     transform="translate(-5.816,-6.284)"
     style="clip-rule:evenodd;fill:#00001c;fill-opacity:1;fill-rule:evenodd" /><polygon
     points="39.267,81.779 39.267,80.81 40.237,80.81 42.708,80.81 43.676,80.81 43.676,81.779 43.676,84.249 43.676,85.217 42.708,85.217 40.237,85.217 39.267,85.217 39.267,84.249 "
     id="polygon5590"
     transform="translate(-5.816,-6.284)"
     style="clip-rule:evenodd;fill:#00001c;fill-opacity:1;fill-rule:evenodd" /><polygon
     points="56.582,81.779 56.582,80.81 57.555,80.81 60.021,80.81 60.989,80.81 60.989,81.779 60.989,84.249 60.989,85.217 60.021,85.217 57.555,85.217 56.582,85.217 56.582,84.249 "
     id="polygon5592"
     transform="translate(-5.816,-6.284)"
     style="clip-rule:evenodd;fill:#00001c;fill-opacity:1;fill-rule:evenodd" /><polygon
     points="80.344,40.705 80.344,39.735 81.312,39.735 83.783,39.735 84.751,39.735 84.751,40.705 84.751,43.174 84.751,44.144 83.783,44.144 81.312,44.144 80.344,44.144 80.344,43.174 "
     id="polygon5594"
     transform="translate(-5.816,-6.284)"
     style="clip-rule:evenodd;fill:#00001c;fill-opacity:1;fill-rule:evenodd" /><polygon
     points="80.344,58.02 80.344,57.05 81.312,57.05 83.783,57.05 84.751,57.05 84.751,58.02 84.751,60.489 84.751,61.459 83.783,61.459 81.312,61.459 80.344,61.459 80.344,60.489 "
     id="polygon5596"
     transform="translate(-5.816,-6.284)"
     style="clip-rule:evenodd;fill:#00001c;fill-opacity:1;fill-rule:evenodd" /><polygon
     points="69.377,57.365 69.377,56.395 70.344,56.395 73.314,56.395 74.283,56.395 74.283,57.365 74.283,60.333 74.283,61.303 73.314,61.303 70.344,61.303 69.377,61.303 69.377,60.333 "
     id="polygon5598"
     transform="translate(-5.816,-6.284)"
     style="clip-rule:evenodd;fill:#00001c;fill-opacity:1;fill-rule:evenodd" /><polygon
     points="75.386,49.113 75.386,48.145 76.354,48.145 79.324,48.145 80.292,48.145 80.292,49.113 80.292,52.081 80.292,53.049 79.324,53.049 76.354,53.049 75.386,53.049 75.386,52.081 "
     id="polygon5600"
     transform="translate(-5.816,-6.284)"
     style="clip-rule:evenodd;fill:#00001c;fill-opacity:1;fill-rule:evenodd" /><polygon
     points="39.423,27.412 39.423,26.444 40.393,26.444 43.36,26.444 44.331,26.444 44.331,27.412 44.331,30.379 44.331,31.349 43.36,31.349 40.393,31.349 39.423,31.349 39.423,30.379 "
     id="polygon5602"
     transform="translate(-5.816,-6.284)"
     style="clip-rule:evenodd;fill:#00001c;fill-opacity:1;fill-rule:evenodd" /><polygon
     points="47.677,21.404 47.677,20.434 48.645,20.434 51.615,20.434 52.583,20.434 52.583,21.404 52.583,24.372 52.583,25.342 51.615,25.342 48.645,25.342 47.677,25.342 47.677,24.372 "
     id="polygon5604"
     transform="translate(-5.816,-6.284)"
     style="clip-rule:evenodd;fill:#00001c;fill-opacity:1;fill-rule:evenodd" /><polygon
     points="55.93,27.412 55.93,26.444 56.902,26.444 59.867,26.444 60.835,26.444 60.835,27.412 60.835,30.379 60.835,31.349 59.867,31.349 56.902,31.349 55.93,31.349 55.93,30.379 "
     id="polygon5606"
     transform="translate(-5.816,-6.284)"
     style="clip-rule:evenodd;fill:#00001c;fill-opacity:1;fill-rule:evenodd" /><polygon
     points="69.377,40.861 69.377,39.891 70.344,39.891 73.314,39.891 74.283,39.891 74.283,40.861 74.283,43.828 74.283,44.799 73.314,44.799 70.344,44.799 69.377,44.799 69.377,43.828 "
     id="polygon5608"
     transform="translate(-5.816,-6.284)"
     style="clip-rule:evenodd;fill:#00001c;fill-opacity:1;fill-rule:evenodd" /><polygon
     points="56.902,74.748 55.93,74.748 55.93,73.78 55.93,70.815 55.93,69.842 56.902,69.842 59.867,69.842 60.835,69.842 60.835,70.815 60.835,73.78 60.835,74.748 59.867,74.748 "
     id="polygon5610"
     transform="translate(-5.816,-6.284)"
     style="clip-rule:evenodd;fill:#00001c;fill-opacity:1;fill-rule:evenodd" /><polygon
     points="48.645,80.758 47.677,80.758 47.677,79.79 47.677,76.82 47.677,75.852 48.645,75.852 51.615,75.852 52.583,75.852 52.583,76.82 52.583,79.79 52.583,80.758 51.615,80.758 "
     id="polygon5612"
     transform="translate(-5.816,-6.284)"
     style="clip-rule:evenodd;fill:#00001c;fill-opacity:1;fill-rule:evenodd" /><polygon
     points="26.946,44.799 25.975,44.799 25.975,43.828 25.975,40.861 25.975,39.891 26.946,39.891 29.914,39.891 30.884,39.891 30.884,40.861 30.884,43.828 30.884,44.799 29.914,44.799 "
     id="polygon5614"
     transform="translate(-5.816,-6.284)"
     style="clip-rule:evenodd;fill:#00001c;fill-opacity:1;fill-rule:evenodd" /><polygon
     points="20.938,53.049 19.968,53.049 19.968,52.081 19.968,49.113 19.968,48.145 20.938,48.145 23.906,48.145 24.874,48.145 24.874,49.113 24.874,52.081 24.874,53.049 23.906,53.049 "
     id="polygon5616"
     transform="translate(-5.816,-6.284)"
     style="clip-rule:evenodd;fill:#00001c;fill-opacity:1;fill-rule:evenodd" /><polygon
     points="26.946,61.303 25.975,61.303 25.975,60.333 25.975,57.365 25.975,56.395 26.946,56.395 29.914,56.395 30.884,56.395 30.884,57.365 30.884,60.333 30.884,61.303 29.914,61.303 "
     id="polygon5618"
     transform="translate(-5.816,-6.284)"
     style="clip-rule:evenodd;fill:#00001c;fill-opacity:1;fill-rule:evenodd" /><polygon
     points="40.393,74.748 39.423,74.748 39.423,73.78 39.423,70.815 39.423,69.842 40.393,69.842 43.36,69.842 44.331,69.842 44.331,70.815 44.331,73.78 44.331,74.748 43.36,74.748 "
     id="polygon5620"
     transform="translate(-5.816,-6.284)"
     style="clip-rule:evenodd;fill:#00001c;fill-opacity:1;fill-rule:evenodd" /><polygon
     points="33.459,54.071 31.906,54.071 31.906,52.519 31.906,48.675 31.906,47.122 33.459,47.122 37.305,47.122 38.855,47.122 38.855,48.675 38.855,52.519 38.855,54.071 37.305,54.071 "
     id="polygon5622"
     transform="translate(-5.816,-6.284)"
     style="clip-rule:evenodd;fill:#00001c;fill-opacity:1;fill-rule:evenodd" /><polygon
     points="48.207,68.817 46.657,68.817 46.657,67.269 46.657,63.423 46.657,61.873 48.207,61.873 52.053,61.873 53.604,61.873 53.604,63.423 53.604,67.269 53.604,68.817 52.053,68.817 "
     id="polygon5624"
     transform="translate(-5.816,-6.284)"
     style="clip-rule:evenodd;fill:#00001c;fill-opacity:1;fill-rule:evenodd" /><polygon
     points="48.207,39.321 46.657,39.321 46.657,37.771 46.657,33.927 46.657,32.374 48.207,32.374 52.053,32.374 53.604,32.374 53.604,33.927 53.604,37.771 53.604,39.321 52.053,39.321 "
     id="polygon5626"
     transform="translate(-5.816,-6.284)"
     style="clip-rule:evenodd;fill:#00001c;fill-opacity:1;fill-rule:evenodd" /></svg>